<svg width="980" height="274" viewBox="0 0 980 274" fill="none" xmlns="http://www.w3.org/2000/svg">
<path d="M13.8 19H10.38L4.66 10.34V19H1.24V4.96H4.66L10.38 13.66V4.96H13.8V19ZM21.3591 19.16C20.2657 19.16 19.2791 18.9267 18.3991 18.46C17.5324 17.9933 16.8457 17.3267 16.3391 16.46C15.8457 15.5933 15.5991 14.58 15.5991 13.42C15.5991 12.2733 15.8524 11.2667 16.3591 10.4C16.8657 9.52 17.5591 8.84667 18.4391 8.38C19.3191 7.91333 20.3057 7.68 21.3991 7.68C22.4924 7.68 23.4791 7.91333 24.3591 8.38C25.2391 8.84667 25.9324 9.52 26.4391 10.4C26.9457 11.2667 27.1991 12.2733 27.1991 13.42C27.1991 14.5667 26.9391 15.58 26.4191 16.46C25.9124 17.3267 25.2124 17.9933 24.3191 18.46C23.4391 18.9267 22.4524 19.16 21.3591 19.16ZM21.3591 16.2C22.0124 16.2 22.5657 15.96 23.0191 15.48C23.4857 15 23.7191 14.3133 23.7191 13.42C23.7191 12.5267 23.4924 11.84 23.0391 11.36C22.5991 10.88 22.0524 10.64 21.3991 10.64C20.7324 10.64 20.1791 10.88 19.7391 11.36C19.2991 11.8267 19.0791 12.5133 19.0791 13.42C19.0791 14.3133 19.2924 15 19.7191 15.48C20.1591 15.96 20.7057 16.2 21.3591 16.2ZM43.2534 7.72C44.6401 7.72 45.7401 8.14 46.5534 8.98C47.3801 9.82 47.7934 10.9867 47.7934 12.48V19H44.3934V12.94C44.3934 12.22 44.2001 11.6667 43.8134 11.28C43.4401 10.88 42.9201 10.68 42.2534 10.68C41.5868 10.68 41.0601 10.88 40.6734 11.28C40.3001 11.6667 40.1134 12.22 40.1134 12.94V19H36.7134V12.94C36.7134 12.22 36.5201 11.6667 36.1334 11.28C35.7601 10.88 35.2401 10.68 34.5734 10.68C33.9068 10.68 33.3801 10.88 32.9934 11.28C32.6201 11.6667 32.4334 12.22 32.4334 12.94V19H29.0134V7.84H32.4334V9.24C32.7801 8.77333 33.2334 8.40667 33.7934 8.14C34.3534 7.86 34.9868 7.72 35.6934 7.72C36.5334 7.72 37.2801 7.9 37.9334 8.26C38.6001 8.62 39.1201 9.13333 39.4934 9.8C39.8801 9.18667 40.4068 8.68667 41.0734 8.3C41.7401 7.91333 42.4668 7.72 43.2534 7.72ZM51.9053 6.68C51.3053 6.68 50.812 6.50667 50.4253 6.16C50.052 5.8 49.8653 5.36 49.8653 4.84C49.8653 4.30667 50.052 3.86667 50.4253 3.52C50.812 3.16 51.3053 2.98 51.9053 2.98C52.492 2.98 52.972 3.16 53.3453 3.52C53.732 3.86667 53.9253 4.30667 53.9253 4.84C53.9253 5.36 53.732 5.8 53.3453 6.16C52.972 6.50667 52.492 6.68 51.9053 6.68ZM53.6053 7.84V19H50.1853V7.84H53.6053ZM62.8838 7.72C64.1904 7.72 65.2304 8.14667 66.0038 9C66.7904 9.84 67.1838 11 67.1838 12.48V19H63.7838V12.94C63.7838 12.1933 63.5904 11.6133 63.2038 11.2C62.8171 10.7867 62.2971 10.58 61.6438 10.58C60.9904 10.58 60.4704 10.7867 60.0838 11.2C59.6971 11.6133 59.5038 12.1933 59.5038 12.94V19H56.0838V7.84H59.5038V9.32C59.8504 8.82667 60.3171 8.44 60.9038 8.16C61.4904 7.86667 62.1504 7.72 62.8838 7.72ZM68.8803 13.4C68.8803 12.2533 69.0936 11.2467 69.5203 10.38C69.9603 9.51333 70.5536 8.84667 71.3003 8.38C72.047 7.91333 72.8803 7.68 73.8003 7.68C74.587 7.68 75.2736 7.84 75.8603 8.16C76.4603 8.48 76.9203 8.9 77.2403 9.42V7.84H80.6603V19H77.2403V17.42C76.907 17.94 76.4403 18.36 75.8403 18.68C75.2536 19 74.567 19.16 73.7803 19.16C72.8736 19.16 72.047 18.9267 71.3003 18.46C70.5536 17.98 69.9603 17.3067 69.5203 16.44C69.0936 15.56 68.8803 14.5467 68.8803 13.4ZM77.2403 13.42C77.2403 12.5667 77.0003 11.8933 76.5203 11.4C76.0536 10.9067 75.4803 10.66 74.8003 10.66C74.1203 10.66 73.5403 10.9067 73.0603 11.4C72.5936 11.88 72.3603 12.5467 72.3603 13.4C72.3603 14.2533 72.5936 14.9333 73.0603 15.44C73.5403 15.9333 74.1203 16.18 74.8003 16.18C75.4803 16.18 76.0536 15.9333 76.5203 15.44C77.0003 14.9467 77.2403 14.2733 77.2403 13.42ZM86.5545 4.2V19H83.1345V4.2H86.5545ZM96.6913 9.42C97.0246 8.9 97.4846 8.48 98.0713 8.16C98.6579 7.84 99.3446 7.68 100.131 7.68C101.051 7.68 101.885 7.91333 102.631 8.38C103.378 8.84667 103.965 9.51333 104.391 10.38C104.831 11.2467 105.051 12.2533 105.051 13.4C105.051 14.5467 104.831 15.56 104.391 16.44C103.965 17.3067 103.378 17.98 102.631 18.46C101.885 18.9267 101.051 19.16 100.131 19.16C99.3579 19.16 98.6713 19 98.0713 18.68C97.4846 18.36 97.0246 17.9467 96.6913 17.44V24.32H93.2713V7.84H96.6913V9.42ZM101.571 13.4C101.571 12.5467 101.331 11.88 100.851 11.4C100.385 10.9067 99.8046 10.66 99.1113 10.66C98.4313 10.66 97.8513 10.9067 97.3713 11.4C96.9046 11.8933 96.6713 12.5667 96.6713 13.42C96.6713 14.2733 96.9046 14.9467 97.3713 15.44C97.8513 15.9333 98.4313 16.18 99.1113 16.18C99.7913 16.18 100.371 15.9333 100.851 15.44C101.331 14.9333 101.571 14.2533 101.571 13.4ZM111.925 19.16C110.832 19.16 109.845 18.9267 108.965 18.46C108.099 17.9933 107.412 17.3267 106.905 16.46C106.412 15.5933 106.165 14.58 106.165 13.42C106.165 12.2733 106.419 11.2667 106.925 10.4C107.432 9.52 108.125 8.84667 109.005 8.38C109.885 7.91333 110.872 7.68 111.965 7.68C113.059 7.68 114.045 7.91333 114.925 8.38C115.805 8.84667 116.499 9.52 117.005 10.4C117.512 11.2667 117.765 12.2733 117.765 13.42C117.765 14.5667 117.505 15.58 116.985 16.46C116.479 17.3267 115.779 17.9933 114.885 18.46C114.005 18.9267 113.019 19.16 111.925 19.16ZM111.925 16.2C112.579 16.2 113.132 15.96 113.585 15.48C114.052 15 114.285 14.3133 114.285 13.42C114.285 12.5267 114.059 11.84 113.605 11.36C113.165 10.88 112.619 10.64 111.965 10.64C111.299 10.64 110.745 10.88 110.305 11.36C109.865 11.8267 109.645 12.5133 109.645 13.42C109.645 14.3133 109.859 15 110.285 15.48C110.725 15.96 111.272 16.2 111.925 16.2ZM135.6 7.84L132.58 19H128.8L127.04 11.76L125.22 19H121.46L118.42 7.84H121.84L123.42 15.82L125.3 7.84H128.92L130.82 15.78L132.38 7.84H135.6ZM147.424 13.24C147.424 13.56 147.404 13.8933 147.364 14.24H139.624C139.677 14.9333 139.897 15.4667 140.284 15.84C140.684 16.2 141.171 16.38 141.744 16.38C142.597 16.38 143.191 16.02 143.524 15.3H147.164C146.977 16.0333 146.637 16.6933 146.144 17.28C145.664 17.8667 145.057 18.3267 144.324 18.66C143.591 18.9933 142.771 19.16 141.864 19.16C140.771 19.16 139.797 18.9267 138.944 18.46C138.091 17.9933 137.424 17.3267 136.944 16.46C136.464 15.5933 136.224 14.58 136.224 13.42C136.224 12.26 136.457 11.2467 136.924 10.38C137.404 9.51333 138.071 8.84667 138.924 8.38C139.777 7.91333 140.757 7.68 141.864 7.68C142.944 7.68 143.904 7.90667 144.744 8.36C145.584 8.81333 146.237 9.46 146.704 10.3C147.184 11.14 147.424 12.12 147.424 13.24ZM143.924 12.34C143.924 11.7533 143.724 11.2867 143.324 10.94C142.924 10.5933 142.424 10.42 141.824 10.42C141.251 10.42 140.764 10.5867 140.364 10.92C139.977 11.2533 139.737 11.7267 139.644 12.34H143.924ZM152.648 9.7C153.048 9.08667 153.548 8.60667 154.148 8.26C154.748 7.9 155.415 7.72 156.148 7.72V11.34H155.208C154.355 11.34 153.715 11.5267 153.288 11.9C152.862 12.26 152.648 12.9 152.648 13.82V19H149.228V7.84H152.648V9.7Z" fill="#222222"/>
<path d="M1.458 56.166V47.58H16.416V87H6.804V56.166H1.458ZM22.7327 66.75C22.7327 60.558 23.9207 55.68 26.2967 52.116C28.7087 48.552 32.5787 46.77 37.9067 46.77C43.2347 46.77 47.0867 48.552 49.4627 52.116C51.8747 55.68 53.0807 60.558 53.0807 66.75C53.0807 73.014 51.8747 77.928 49.4627 81.492C47.0867 85.056 43.2347 86.838 37.9067 86.838C32.5787 86.838 28.7087 85.056 26.2967 81.492C23.9207 77.928 22.7327 73.014 22.7327 66.75ZM44.0087 66.75C44.0087 63.114 43.6127 60.324 42.8207 58.38C42.0287 56.4 40.3907 55.41 37.9067 55.41C35.4227 55.41 33.7847 56.4 32.9927 58.38C32.2007 60.324 31.8047 63.114 31.8047 66.75C31.8047 69.198 31.9487 71.232 32.2367 72.852C32.5247 74.436 33.1007 75.732 33.9647 76.74C34.8647 77.712 36.1787 78.198 37.9067 78.198C39.6347 78.198 40.9307 77.712 41.7947 76.74C42.6947 75.732 43.2887 74.436 43.5767 72.852C43.8647 71.232 44.0087 69.198 44.0087 66.75ZM88.7347 87L79.5547 74.364V87H70.3207V47.04H79.5547V69.126L88.6807 56.868H100.075L87.5467 71.988L100.183 87H88.7347ZM155.866 49.092L145.984 87H134.806L128.758 62.052L122.494 87H111.316L101.704 49.092H111.586L117.04 76.686L123.79 49.092H133.942L140.422 76.686L145.93 49.092H155.866Z" fill="#F36F25"/>
<rect width="101" height="1" transform="matrix(0 -1 1 0 302 101)" fill="#E9E9E9"/>
<path d="M392.14 4.96V19H388.72V10.58L385.58 19H382.82L379.66 10.56V19H376.24V4.96H380.28L384.22 14.68L388.12 4.96H392.14ZM393.919 13.4C393.919 12.2533 394.133 11.2467 394.559 10.38C394.999 9.51333 395.593 8.84667 396.339 8.38C397.086 7.91333 397.919 7.68 398.839 7.68C399.626 7.68 400.313 7.84 400.899 8.16C401.499 8.48 401.959 8.9 402.279 9.42V7.84H405.699V19H402.279V17.42C401.946 17.94 401.479 18.36 400.879 18.68C400.293 19 399.606 19.16 398.819 19.16C397.913 19.16 397.086 18.9267 396.339 18.46C395.593 17.98 394.999 17.3067 394.559 16.44C394.133 15.56 393.919 14.5467 393.919 13.4ZM402.279 13.42C402.279 12.5667 402.039 11.8933 401.559 11.4C401.093 10.9067 400.519 10.66 399.839 10.66C399.159 10.66 398.579 10.9067 398.099 11.4C397.633 11.88 397.399 12.5467 397.399 13.4C397.399 14.2533 397.633 14.9333 398.099 15.44C398.579 15.9333 399.159 16.18 399.839 16.18C400.519 16.18 401.093 15.9333 401.559 15.44C402.039 14.9467 402.279 14.2733 402.279 13.42ZM414.774 19L412.634 15.9L410.834 19H407.134L410.814 13.3L407.034 7.84H410.874L413.014 10.92L414.814 7.84H418.514L414.774 13.46L418.614 19H414.774ZM421.651 6.68C421.051 6.68 420.558 6.50667 420.171 6.16C419.798 5.8 419.611 5.36 419.611 4.84C419.611 4.30667 419.798 3.86667 420.171 3.52C420.558 3.16 421.051 2.98 421.651 2.98C422.238 2.98 422.718 3.16 423.091 3.52C423.478 3.86667 423.671 4.30667 423.671 4.84C423.671 5.36 423.478 5.8 423.091 6.16C422.718 6.50667 422.238 6.68 421.651 6.68ZM423.351 7.84V19H419.931V7.84H423.351ZM440.07 7.72C441.457 7.72 442.557 8.14 443.37 8.98C444.197 9.82 444.61 10.9867 444.61 12.48V19H441.21V12.94C441.21 12.22 441.017 11.6667 440.63 11.28C440.257 10.88 439.737 10.68 439.07 10.68C438.403 10.68 437.877 10.88 437.49 11.28C437.117 11.6667 436.93 12.22 436.93 12.94V19H433.53V12.94C433.53 12.22 433.337 11.6667 432.95 11.28C432.577 10.88 432.057 10.68 431.39 10.68C430.723 10.68 430.197 10.88 429.81 11.28C429.437 11.6667 429.25 12.22 429.25 12.94V19H425.83V7.84H429.25V9.24C429.597 8.77333 430.05 8.40667 430.61 8.14C431.17 7.86 431.803 7.72 432.51 7.72C433.35 7.72 434.097 7.9 434.75 8.26C435.417 8.62 435.937 9.13333 436.31 9.8C436.697 9.18667 437.223 8.68667 437.89 8.3C438.557 7.91333 439.283 7.72 440.07 7.72ZM458.022 7.84V19H454.602V17.48C454.255 17.9733 453.782 18.3733 453.182 18.68C452.595 18.9733 451.942 19.12 451.222 19.12C450.368 19.12 449.615 18.9333 448.962 18.56C448.308 18.1733 447.802 17.62 447.442 16.9C447.082 16.18 446.902 15.3333 446.902 14.36V7.84H450.302V13.9C450.302 14.6467 450.495 15.2267 450.882 15.64C451.268 16.0533 451.788 16.26 452.442 16.26C453.108 16.26 453.635 16.0533 454.022 15.64C454.408 15.2267 454.602 14.6467 454.602 13.9V7.84H458.022ZM474.718 7.72C476.105 7.72 477.205 8.14 478.018 8.98C478.845 9.82 479.258 10.9867 479.258 12.48V19H475.858V12.94C475.858 12.22 475.665 11.6667 475.278 11.28C474.905 10.88 474.385 10.68 473.718 10.68C473.052 10.68 472.525 10.88 472.138 11.28C471.765 11.6667 471.578 12.22 471.578 12.94V19H468.178V12.94C468.178 12.22 467.985 11.6667 467.598 11.28C467.225 10.88 466.705 10.68 466.038 10.68C465.372 10.68 464.845 10.88 464.458 11.28C464.085 11.6667 463.898 12.22 463.898 12.94V19H460.478V7.84H463.898V9.24C464.245 8.77333 464.698 8.40667 465.258 8.14C465.818 7.86 466.452 7.72 467.158 7.72C467.998 7.72 468.745 7.9 469.398 8.26C470.065 8.62 470.585 9.13333 470.958 9.8C471.345 9.18667 471.872 8.68667 472.538 8.3C473.205 7.91333 473.932 7.72 474.718 7.72ZM489.308 9.42C489.642 8.9 490.102 8.48 490.688 8.16C491.275 7.84 491.962 7.68 492.748 7.68C493.668 7.68 494.502 7.91333 495.248 8.38C495.995 8.84667 496.582 9.51333 497.008 10.38C497.448 11.2467 497.668 12.2533 497.668 13.4C497.668 14.5467 497.448 15.56 497.008 16.44C496.582 17.3067 495.995 17.98 495.248 18.46C494.502 18.9267 493.668 19.16 492.748 19.16C491.975 19.16 491.288 19 490.688 18.68C490.102 18.36 489.642 17.9467 489.308 17.44V24.32H485.888V7.84H489.308V9.42ZM494.188 13.4C494.188 12.5467 493.948 11.88 493.468 11.4C493.002 10.9067 492.422 10.66 491.728 10.66C491.048 10.66 490.468 10.9067 489.988 11.4C489.522 11.8933 489.288 12.5667 489.288 13.42C489.288 14.2733 489.522 14.9467 489.988 15.44C490.468 15.9333 491.048 16.18 491.728 16.18C492.408 16.18 492.988 15.9333 493.468 15.44C493.948 14.9333 494.188 14.2533 494.188 13.4ZM504.543 19.16C503.449 19.16 502.463 18.9267 501.583 18.46C500.716 17.9933 500.029 17.3267 499.523 16.46C499.029 15.5933 498.783 14.58 498.783 13.42C498.783 12.2733 499.036 11.2667 499.543 10.4C500.049 9.52 500.743 8.84667 501.623 8.38C502.503 7.91333 503.489 7.68 504.583 7.68C505.676 7.68 506.663 7.91333 507.543 8.38C508.423 8.84667 509.116 9.52 509.623 10.4C510.129 11.2667 510.383 12.2733 510.383 13.42C510.383 14.5667 510.123 15.58 509.603 16.46C509.096 17.3267 508.396 17.9933 507.503 18.46C506.623 18.9267 505.636 19.16 504.543 19.16ZM504.543 16.2C505.196 16.2 505.749 15.96 506.203 15.48C506.669 15 506.903 14.3133 506.903 13.42C506.903 12.5267 506.676 11.84 506.223 11.36C505.783 10.88 505.236 10.64 504.583 10.64C503.916 10.64 503.363 10.88 502.923 11.36C502.483 11.8267 502.263 12.5133 502.263 13.42C502.263 14.3133 502.476 15 502.903 15.48C503.343 15.96 503.889 16.2 504.543 16.2ZM528.217 7.84L525.197 19H521.417L519.657 11.76L517.837 19H514.077L511.037 7.84H514.457L516.037 15.82L517.917 7.84H521.537L523.437 15.78L524.997 7.84H528.217ZM540.041 13.24C540.041 13.56 540.021 13.8933 539.981 14.24H532.241C532.295 14.9333 532.515 15.4667 532.901 15.84C533.301 16.2 533.788 16.38 534.361 16.38C535.215 16.38 535.808 16.02 536.141 15.3H539.781C539.595 16.0333 539.255 16.6933 538.761 17.28C538.281 17.8667 537.675 18.3267 536.941 18.66C536.208 18.9933 535.388 19.16 534.481 19.16C533.388 19.16 532.415 18.9267 531.561 18.46C530.708 17.9933 530.041 17.3267 529.561 16.46C529.081 15.5933 528.841 14.58 528.841 13.42C528.841 12.26 529.075 11.2467 529.541 10.38C530.021 9.51333 530.688 8.84667 531.541 8.38C532.395 7.91333 533.375 7.68 534.481 7.68C535.561 7.68 536.521 7.90667 537.361 8.36C538.201 8.81333 538.855 9.46 539.321 10.3C539.801 11.14 540.041 12.12 540.041 13.24ZM536.541 12.34C536.541 11.7533 536.341 11.2867 535.941 10.94C535.541 10.5933 535.041 10.42 534.441 10.42C533.868 10.42 533.381 10.5867 532.981 10.92C532.595 11.2533 532.355 11.7267 532.261 12.34H536.541ZM545.265 9.7C545.665 9.08667 546.165 8.60667 546.765 8.26C547.365 7.9 548.032 7.72 548.765 7.72V11.34H547.825C546.972 11.34 546.332 11.5267 545.905 11.9C545.479 12.26 545.265 12.9 545.265 13.82V19H541.845V7.84H545.265V9.7Z" fill="#222222"/>
<path d="M377.106 79.602C378.33 78.63 378.888 78.18 378.78 78.252C382.308 75.336 385.08 72.942 387.096 71.07C389.148 69.198 390.876 67.236 392.28 65.184C393.684 63.132 394.386 61.134 394.386 59.19C394.386 57.714 394.044 56.562 393.36 55.734C392.676 54.906 391.65 54.492 390.282 54.492C388.914 54.492 387.834 55.014 387.042 56.058C386.286 57.066 385.908 58.506 385.908 60.378H376.998C377.07 57.318 377.718 54.762 378.942 52.71C380.202 50.658 381.84 49.146 383.856 48.174C385.908 47.202 388.176 46.716 390.66 46.716C394.944 46.716 398.166 47.814 400.326 50.01C402.522 52.206 403.62 55.068 403.62 58.596C403.62 62.448 402.306 66.03 399.678 69.342C397.05 72.618 393.702 75.822 389.634 78.954H404.214V86.46H377.106V79.602ZM433.444 54.492L419.89 87H410.44L424.156 55.518H407.362V47.634H433.444V54.492ZM467.953 87L458.773 74.364V87H449.539V47.04H458.773V69.126L467.899 56.868H479.293L466.765 71.988L479.401 87H467.953ZM535.084 49.092L525.202 87H514.024L507.976 62.052L501.712 87H490.534L480.922 49.092H490.804L496.258 76.686L503.008 49.092H513.16L519.64 76.686L525.148 49.092H535.084Z" fill="#F36F25"/>
<rect width="101" height="1" transform="matrix(0 -1 1 0 677 101)" fill="#E9E9E9"/>
<path d="M764.42 4.96L759.44 19H755.16L750.18 4.96H753.82L757.3 15.56L760.8 4.96H764.42ZM770.929 19.16C769.836 19.16 768.849 18.9267 767.969 18.46C767.103 17.9933 766.416 17.3267 765.909 16.46C765.416 15.5933 765.169 14.58 765.169 13.42C765.169 12.2733 765.423 11.2667 765.929 10.4C766.436 9.52 767.129 8.84667 768.009 8.38C768.889 7.91333 769.876 7.68 770.969 7.68C772.063 7.68 773.049 7.91333 773.929 8.38C774.809 8.84667 775.503 9.52 776.009 10.4C776.516 11.2667 776.769 12.2733 776.769 13.42C776.769 14.5667 776.509 15.58 775.989 16.46C775.483 17.3267 774.783 17.9933 773.889 18.46C773.009 18.9267 772.023 19.16 770.929 19.16ZM770.929 16.2C771.583 16.2 772.136 15.96 772.589 15.48C773.056 15 773.289 14.3133 773.289 13.42C773.289 12.5267 773.063 11.84 772.609 11.36C772.169 10.88 771.623 10.64 770.969 10.64C770.303 10.64 769.749 10.88 769.309 11.36C768.869 11.8267 768.649 12.5133 768.649 13.42C768.649 14.3133 768.863 15 769.289 15.48C769.729 15.96 770.276 16.2 770.929 16.2ZM782.004 4.2V19H778.584V4.2H782.004ZM790.702 16.1V19H788.962C787.722 19 786.756 18.7 786.062 18.1C785.369 17.4867 785.022 16.4933 785.022 15.12V10.68H783.662V7.84H785.022V5.12H788.442V7.84H790.682V10.68H788.442V15.16C788.442 15.4933 788.522 15.7333 788.682 15.88C788.842 16.0267 789.109 16.1 789.482 16.1H790.702ZM791.927 13.4C791.927 12.2533 792.141 11.2467 792.567 10.38C793.007 9.51333 793.601 8.84667 794.347 8.38C795.094 7.91333 795.927 7.68 796.847 7.68C797.634 7.68 798.321 7.84 798.907 8.16C799.507 8.48 799.967 8.9 800.287 9.42V7.84H803.707V19H800.287V17.42C799.954 17.94 799.487 18.36 798.887 18.68C798.301 19 797.614 19.16 796.827 19.16C795.921 19.16 795.094 18.9267 794.347 18.46C793.601 17.98 793.007 17.3067 792.567 16.44C792.141 15.56 791.927 14.5467 791.927 13.4ZM800.287 13.42C800.287 12.5667 800.047 11.8933 799.567 11.4C799.101 10.9067 798.527 10.66 797.847 10.66C797.167 10.66 796.587 10.9067 796.107 11.4C795.641 11.88 795.407 12.5467 795.407 13.4C795.407 14.2533 795.641 14.9333 796.107 15.44C796.587 15.9333 797.167 16.18 797.847 16.18C798.527 16.18 799.101 15.9333 799.567 15.44C800.047 14.9467 800.287 14.2733 800.287 13.42ZM810.421 7.68C811.208 7.68 811.895 7.84 812.481 8.16C813.081 8.48 813.541 8.9 813.861 9.42V7.84H817.281V18.98C817.281 20.0067 817.075 20.9333 816.661 21.76C816.261 22.6 815.641 23.2667 814.801 23.76C813.975 24.2533 812.941 24.5 811.701 24.5C810.048 24.5 808.708 24.1067 807.681 23.32C806.655 22.5467 806.068 21.4933 805.921 20.16H809.301C809.408 20.5867 809.661 20.92 810.061 21.16C810.461 21.4133 810.955 21.54 811.541 21.54C812.248 21.54 812.808 21.3333 813.221 20.92C813.648 20.52 813.861 19.8733 813.861 18.98V17.4C813.528 17.92 813.068 18.3467 812.481 18.68C811.895 19 811.208 19.16 810.421 19.16C809.501 19.16 808.668 18.9267 807.921 18.46C807.175 17.98 806.581 17.3067 806.141 16.44C805.715 15.56 805.501 14.5467 805.501 13.4C805.501 12.2533 805.715 11.2467 806.141 10.38C806.581 9.51333 807.175 8.84667 807.921 8.38C808.668 7.91333 809.501 7.68 810.421 7.68ZM813.861 13.42C813.861 12.5667 813.621 11.8933 813.141 11.4C812.675 10.9067 812.101 10.66 811.421 10.66C810.741 10.66 810.161 10.9067 809.681 11.4C809.215 11.88 808.981 12.5467 808.981 13.4C808.981 14.2533 809.215 14.9333 809.681 15.44C810.161 15.9333 810.741 16.18 811.421 16.18C812.101 16.18 812.675 15.9333 813.141 15.44C813.621 14.9467 813.861 14.2733 813.861 13.42ZM830.276 13.24C830.276 13.56 830.256 13.8933 830.216 14.24H822.476C822.529 14.9333 822.749 15.4667 823.136 15.84C823.536 16.2 824.022 16.38 824.596 16.38C825.449 16.38 826.042 16.02 826.376 15.3H830.016C829.829 16.0333 829.489 16.6933 828.996 17.28C828.516 17.8667 827.909 18.3267 827.176 18.66C826.442 18.9933 825.622 19.16 824.716 19.16C823.622 19.16 822.649 18.9267 821.796 18.46C820.942 17.9933 820.276 17.3267 819.796 16.46C819.316 15.5933 819.076 14.58 819.076 13.42C819.076 12.26 819.309 11.2467 819.776 10.38C820.256 9.51333 820.922 8.84667 821.776 8.38C822.629 7.91333 823.609 7.68 824.716 7.68C825.796 7.68 826.756 7.90667 827.596 8.36C828.436 8.81333 829.089 9.46 829.556 10.3C830.036 11.14 830.276 12.12 830.276 13.24ZM826.776 12.34C826.776 11.7533 826.576 11.2867 826.176 10.94C825.776 10.5933 825.276 10.42 824.676 10.42C824.102 10.42 823.616 10.5867 823.216 10.92C822.829 11.2533 822.589 11.7267 822.496 12.34H826.776ZM839.738 9.7C840.138 9.08667 840.638 8.60667 841.238 8.26C841.838 7.9 842.505 7.72 843.238 7.72V11.34H842.298C841.445 11.34 840.805 11.5267 840.378 11.9C839.951 12.26 839.738 12.9 839.738 13.82V19H836.318V7.84H839.738V9.7ZM844.193 13.4C844.193 12.2533 844.406 11.2467 844.833 10.38C845.273 9.51333 845.866 8.84667 846.613 8.38C847.359 7.91333 848.193 7.68 849.113 7.68C849.899 7.68 850.586 7.84 851.173 8.16C851.773 8.48 852.233 8.9 852.553 9.42V7.84H855.973V19H852.553V17.42C852.219 17.94 851.753 18.36 851.153 18.68C850.566 19 849.879 19.16 849.093 19.16C848.186 19.16 847.359 18.9267 846.613 18.46C845.866 17.98 845.273 17.3067 844.833 16.44C844.406 15.56 844.193 14.5467 844.193 13.4ZM852.553 13.42C852.553 12.5667 852.313 11.8933 851.833 11.4C851.366 10.9067 850.793 10.66 850.113 10.66C849.433 10.66 848.853 10.9067 848.373 11.4C847.906 11.88 847.673 12.5467 847.673 13.4C847.673 14.2533 847.906 14.9333 848.373 15.44C848.853 15.9333 849.433 16.18 850.113 16.18C850.793 16.18 851.366 15.9333 851.833 15.44C852.313 14.9467 852.553 14.2733 852.553 13.42ZM865.247 7.72C866.554 7.72 867.594 8.14667 868.367 9C869.154 9.84 869.547 11 869.547 12.48V19H866.147V12.94C866.147 12.1933 865.954 11.6133 865.567 11.2C865.18 10.7867 864.66 10.58 864.007 10.58C863.354 10.58 862.834 10.7867 862.447 11.2C862.06 11.6133 861.867 12.1933 861.867 12.94V19H858.447V7.84H861.867V9.32C862.214 8.82667 862.68 8.44 863.267 8.16C863.854 7.86667 864.514 7.72 865.247 7.72ZM876.164 7.68C876.95 7.68 877.637 7.84 878.224 8.16C878.824 8.48 879.284 8.9 879.604 9.42V7.84H883.024V18.98C883.024 20.0067 882.817 20.9333 882.404 21.76C882.004 22.6 881.384 23.2667 880.544 23.76C879.717 24.2533 878.684 24.5 877.444 24.5C875.79 24.5 874.45 24.1067 873.424 23.32C872.397 22.5467 871.81 21.4933 871.664 20.16H875.044C875.15 20.5867 875.404 20.92 875.804 21.16C876.204 21.4133 876.697 21.54 877.284 21.54C877.99 21.54 878.55 21.3333 878.964 20.92C879.39 20.52 879.604 19.8733 879.604 18.98V17.4C879.27 17.92 878.81 18.3467 878.224 18.68C877.637 19 876.95 19.16 876.164 19.16C875.244 19.16 874.41 18.9267 873.664 18.46C872.917 17.98 872.324 17.3067 871.884 16.44C871.457 15.56 871.244 14.5467 871.244 13.4C871.244 12.2533 871.457 11.2467 871.884 10.38C872.324 9.51333 872.917 8.84667 873.664 8.38C874.41 7.91333 875.244 7.68 876.164 7.68ZM879.604 13.42C879.604 12.5667 879.364 11.8933 878.884 11.4C878.417 10.9067 877.844 10.66 877.164 10.66C876.484 10.66 875.904 10.9067 875.424 11.4C874.957 11.88 874.724 12.5467 874.724 13.4C874.724 14.2533 874.957 14.9333 875.424 15.44C875.904 15.9333 876.484 16.18 877.164 16.18C877.844 16.18 878.417 15.9333 878.884 15.44C879.364 14.9467 879.604 14.2733 879.604 13.42ZM896.018 13.24C896.018 13.56 895.998 13.8933 895.958 14.24H888.218C888.271 14.9333 888.491 15.4667 888.878 15.84C889.278 16.2 889.764 16.38 890.338 16.38C891.191 16.38 891.784 16.02 892.118 15.3H895.758C895.571 16.0333 895.231 16.6933 894.738 17.28C894.258 17.8667 893.651 18.3267 892.918 18.66C892.184 18.9933 891.364 19.16 890.458 19.16C889.364 19.16 888.391 18.9267 887.538 18.46C886.684 17.9933 886.018 17.3267 885.538 16.46C885.058 15.5933 884.818 14.58 884.818 13.42C884.818 12.26 885.051 11.2467 885.518 10.38C885.998 9.51333 886.664 8.84667 887.518 8.38C888.371 7.91333 889.351 7.68 890.458 7.68C891.538 7.68 892.498 7.90667 893.338 8.36C894.178 8.81333 894.831 9.46 895.298 10.3C895.778 11.14 896.018 12.12 896.018 13.24ZM892.518 12.34C892.518 11.7533 892.318 11.2867 891.918 10.94C891.518 10.5933 891.018 10.42 890.418 10.42C889.844 10.42 889.358 10.5867 888.958 10.92C888.571 11.2533 888.331 11.7267 888.238 12.34H892.518ZM913.08 7.84V19H909.66V17.48C909.314 17.9733 908.84 18.3733 908.24 18.68C907.654 18.9733 907 19.12 906.28 19.12C905.427 19.12 904.674 18.9333 904.02 18.56C903.367 18.1733 902.86 17.62 902.5 16.9C902.14 16.18 901.96 15.3333 901.96 14.36V7.84H905.36V13.9C905.36 14.6467 905.554 15.2267 905.94 15.64C906.327 16.0533 906.847 16.26 907.5 16.26C908.167 16.26 908.694 16.0533 909.08 15.64C909.467 15.2267 909.66 14.6467 909.66 13.9V7.84H913.08ZM918.957 9.42C919.29 8.9 919.75 8.48 920.337 8.16C920.924 7.84 921.61 7.68 922.397 7.68C923.317 7.68 924.15 7.91333 924.897 8.38C925.644 8.84667 926.23 9.51333 926.657 10.38C927.097 11.2467 927.317 12.2533 927.317 13.4C927.317 14.5467 927.097 15.56 926.657 16.44C926.23 17.3067 925.644 17.98 924.897 18.46C924.15 18.9267 923.317 19.16 922.397 19.16C921.624 19.16 920.937 19 920.337 18.68C919.75 18.36 919.29 17.9467 918.957 17.44V24.32H915.537V7.84H918.957V9.42ZM923.837 13.4C923.837 12.5467 923.597 11.88 923.117 11.4C922.65 10.9067 922.07 10.66 921.377 10.66C920.697 10.66 920.117 10.9067 919.637 11.4C919.17 11.8933 918.937 12.5667 918.937 13.42C918.937 14.2733 919.17 14.9467 919.637 15.44C920.117 15.9333 920.697 16.18 921.377 16.18C922.057 16.18 922.637 15.9333 923.117 15.44C923.597 14.9333 923.837 14.2533 923.837 13.4ZM939.569 16.1V19H937.829C936.589 19 935.623 18.7 934.929 18.1C934.236 17.4867 933.889 16.4933 933.889 15.12V10.68H932.529V7.84H933.889V5.12H937.309V7.84H939.549V10.68H937.309V15.16C937.309 15.4933 937.389 15.7333 937.549 15.88C937.709 16.0267 937.976 16.1 938.349 16.1H939.569ZM946.554 19.16C945.461 19.16 944.474 18.9267 943.594 18.46C942.728 17.9933 942.041 17.3267 941.534 16.46C941.041 15.5933 940.794 14.58 940.794 13.42C940.794 12.2733 941.048 11.2667 941.554 10.4C942.061 9.52 942.754 8.84667 943.634 8.38C944.514 7.91333 945.501 7.68 946.594 7.68C947.688 7.68 948.674 7.91333 949.554 8.38C950.434 8.84667 951.128 9.52 951.634 10.4C952.141 11.2667 952.394 12.2733 952.394 13.42C952.394 14.5667 952.134 15.58 951.614 16.46C951.108 17.3267 950.408 17.9933 949.514 18.46C948.634 18.9267 947.648 19.16 946.554 19.16ZM946.554 16.2C947.208 16.2 947.761 15.96 948.214 15.48C948.681 15 948.914 14.3133 948.914 13.42C948.914 12.5267 948.688 11.84 948.234 11.36C947.794 10.88 947.248 10.64 946.594 10.64C945.928 10.64 945.374 10.88 944.934 11.36C944.494 11.8267 944.274 12.5133 944.274 13.42C944.274 14.3133 944.488 15 944.914 15.48C945.354 15.96 945.901 16.2 946.554 16.2Z" fill="#222222"/>
<path d="M762.366 75.444C762.906 78.288 764.562 79.71 767.334 79.71C769.242 79.71 770.592 78.864 771.384 77.172C772.176 75.48 772.572 72.726 772.572 68.91C771.78 70.026 770.7 70.89 769.332 71.502C767.964 72.114 766.434 72.42 764.742 72.42C762.438 72.42 760.386 71.952 758.586 71.016C756.786 70.044 755.364 68.622 754.32 66.75C753.312 64.842 752.808 62.538 752.808 59.838C752.808 57.174 753.348 54.852 754.428 52.872C755.544 50.892 757.11 49.362 759.126 48.282C761.178 47.202 763.59 46.662 766.362 46.662C771.69 46.662 775.416 48.318 777.54 51.63C779.664 54.942 780.726 59.82 780.726 66.264C780.726 70.944 780.294 74.814 779.43 77.874C778.602 80.898 777.18 83.202 775.164 84.786C773.184 86.37 770.466 87.162 767.01 87.162C764.274 87.162 761.934 86.622 759.99 85.542C758.082 84.462 756.606 83.04 755.562 81.276C754.554 79.512 753.978 77.568 753.834 75.444H762.366ZM766.848 65.13C768.36 65.13 769.566 64.68 770.466 63.78C771.366 62.844 771.816 61.584 771.816 60C771.816 58.272 771.348 56.94 770.412 56.004C769.476 55.068 768.216 54.6 766.632 54.6C765.048 54.6 763.788 55.086 762.852 56.058C761.952 56.994 761.502 58.29 761.502 59.946C761.502 61.494 761.952 62.754 762.852 63.726C763.788 64.662 765.12 65.13 766.848 65.13ZM785.653 66.75C785.653 60.558 786.841 55.68 789.217 52.116C791.629 48.552 795.499 46.77 800.827 46.77C806.155 46.77 810.007 48.552 812.383 52.116C814.795 55.68 816.001 60.558 816.001 66.75C816.001 73.014 814.795 77.928 812.383 81.492C810.007 85.056 806.155 86.838 800.827 86.838C795.499 86.838 791.629 85.056 789.217 81.492C786.841 77.928 785.653 73.014 785.653 66.75ZM806.929 66.75C806.929 63.114 806.533 60.324 805.741 58.38C804.949 56.4 803.311 55.41 800.827 55.41C798.343 55.41 796.705 56.4 795.913 58.38C795.121 60.324 794.725 63.114 794.725 66.75C794.725 69.198 794.869 71.232 795.157 72.852C795.445 74.436 796.021 75.732 796.885 76.74C797.785 77.712 799.099 78.198 800.827 78.198C802.555 78.198 803.851 77.712 804.715 76.74C805.615 75.732 806.209 74.436 806.497 72.852C806.785 71.232 806.929 69.198 806.929 66.75ZM857.383 49.092L843.937 87H832.381L818.935 49.092H828.763L838.159 77.712L847.609 49.092H857.383Z" fill="#F36F25"/>
<path d="M9.74 184.8C10.5533 184.973 11.2067 185.38 11.7 186.02C12.1933 186.647 12.44 187.367 12.44 188.18C12.44 189.353 12.0267 190.287 11.2 190.98C10.3867 191.66 9.24667 192 7.78 192H1.24V177.96H7.56C8.98667 177.96 10.1 178.287 10.9 178.94C11.7133 179.593 12.12 180.48 12.12 181.6C12.12 182.427 11.9 183.113 11.46 183.66C11.0333 184.207 10.46 184.587 9.74 184.8ZM4.66 183.64H6.9C7.46 183.64 7.88667 183.52 8.18 183.28C8.48667 183.027 8.64 182.66 8.64 182.18C8.64 181.7 8.48667 181.333 8.18 181.08C7.88667 180.827 7.46 180.7 6.9 180.7H4.66V183.64ZM7.18 189.24C7.75333 189.24 8.19333 189.113 8.5 188.86C8.82 188.593 8.98 188.213 8.98 187.72C8.98 187.227 8.81333 186.84 8.48 186.56C8.16 186.28 7.71333 186.14 7.14 186.14H4.66V189.24H7.18ZM13.7436 186.4C13.7436 185.253 13.9569 184.247 14.3836 183.38C14.8236 182.513 15.4169 181.847 16.1636 181.38C16.9103 180.913 17.7436 180.68 18.6636 180.68C19.4503 180.68 20.1369 180.84 20.7236 181.16C21.3236 181.48 21.7836 181.9 22.1036 182.42V180.84H25.5236V192H22.1036V190.42C21.7703 190.94 21.3036 191.36 20.7036 191.68C20.1169 192 19.4303 192.16 18.6436 192.16C17.7369 192.16 16.9103 191.927 16.1636 191.46C15.4169 190.98 14.8236 190.307 14.3836 189.44C13.9569 188.56 13.7436 187.547 13.7436 186.4ZM22.1036 186.42C22.1036 185.567 21.8636 184.893 21.3836 184.4C20.9169 183.907 20.3436 183.66 19.6636 183.66C18.9836 183.66 18.4036 183.907 17.9236 184.4C17.4569 184.88 17.2236 185.547 17.2236 186.4C17.2236 187.253 17.4569 187.933 17.9236 188.44C18.4036 188.933 18.9836 189.18 19.6636 189.18C20.3436 189.18 20.9169 188.933 21.3836 188.44C21.8636 187.947 22.1036 187.273 22.1036 186.42ZM34.2178 189.1V192H32.4778C31.2378 192 30.2711 191.7 29.5778 191.1C28.8845 190.487 28.5378 189.493 28.5378 188.12V183.68H27.1778V180.84H28.5378V178.12H31.9578V180.84H34.1978V183.68H31.9578V188.16C31.9578 188.493 32.0378 188.733 32.1978 188.88C32.3578 189.027 32.6245 189.1 32.9978 189.1H34.2178ZM42.3428 189.1V192H40.6028C39.3628 192 38.3961 191.7 37.7028 191.1C37.0095 190.487 36.6628 189.493 36.6628 188.12V183.68H35.3028V180.84H36.6628V178.12H40.0828V180.84H42.3228V183.68H40.0828V188.16C40.0828 188.493 40.1628 188.733 40.3228 188.88C40.4828 189.027 40.7495 189.1 41.1228 189.1H42.3428ZM54.7678 186.24C54.7678 186.56 54.7478 186.893 54.7078 187.24H46.9678C47.0211 187.933 47.2411 188.467 47.6278 188.84C48.0278 189.2 48.5145 189.38 49.0878 189.38C49.9411 189.38 50.5345 189.02 50.8678 188.3H54.5078C54.3211 189.033 53.9811 189.693 53.4878 190.28C53.0078 190.867 52.4011 191.327 51.6678 191.66C50.9345 191.993 50.1145 192.16 49.2078 192.16C48.1145 192.16 47.1411 191.927 46.2878 191.46C45.4345 190.993 44.7678 190.327 44.2878 189.46C43.8078 188.593 43.5678 187.58 43.5678 186.42C43.5678 185.26 43.8011 184.247 44.2678 183.38C44.7478 182.513 45.4145 181.847 46.2678 181.38C47.1211 180.913 48.1011 180.68 49.2078 180.68C50.2878 180.68 51.2478 180.907 52.0878 181.36C52.9278 181.813 53.5811 182.46 54.0478 183.3C54.5278 184.14 54.7678 185.12 54.7678 186.24ZM51.2678 185.34C51.2678 184.753 51.0678 184.287 50.6678 183.94C50.2678 183.593 49.7678 183.42 49.1678 183.42C48.5945 183.42 48.1078 183.587 47.7078 183.92C47.3211 184.253 47.0811 184.727 46.9878 185.34H51.2678ZM59.992 182.7C60.392 182.087 60.892 181.607 61.492 181.26C62.092 180.9 62.7587 180.72 63.492 180.72V184.34H62.552C61.6987 184.34 61.0587 184.527 60.632 184.9C60.2054 185.26 59.992 185.9 59.992 186.82V192H56.572V180.84H59.992V182.7ZM76.5267 180.84L69.5267 197.3H65.8467L68.4067 191.62L63.8667 180.84H67.6867L70.2667 187.82L72.8267 180.84H76.5267ZM81.3217 186.42C81.3217 185.26 81.5551 184.247 82.0217 183.38C82.5017 182.513 83.1617 181.847 84.0017 181.38C84.8551 180.913 85.8284 180.68 86.9217 180.68C88.3217 180.68 89.4884 181.047 90.4217 181.78C91.3684 182.513 91.9884 183.547 92.2817 184.88H88.6417C88.3351 184.027 87.7417 183.6 86.8617 183.6C86.2351 183.6 85.7351 183.847 85.3617 184.34C84.9884 184.82 84.8017 185.513 84.8017 186.42C84.8017 187.327 84.9884 188.027 85.3617 188.52C85.7351 189 86.2351 189.24 86.8617 189.24C87.7417 189.24 88.3351 188.813 88.6417 187.96H92.2817C91.9884 189.267 91.3684 190.293 90.4217 191.04C89.4751 191.787 88.3084 192.16 86.9217 192.16C85.8284 192.16 84.8551 191.927 84.0017 191.46C83.1617 190.993 82.5017 190.327 82.0217 189.46C81.5551 188.593 81.3217 187.58 81.3217 186.42ZM105.131 180.84V192H101.711V190.48C101.364 190.973 100.891 191.373 100.291 191.68C99.7044 191.973 99.0511 192.12 98.3311 192.12C97.4778 192.12 96.7244 191.933 96.0711 191.56C95.4178 191.173 94.9111 190.62 94.5511 189.9C94.1911 189.18 94.0111 188.333 94.0111 187.36V180.84H97.4111V186.9C97.4111 187.647 97.6044 188.227 97.9911 188.64C98.3778 189.053 98.8978 189.26 99.5511 189.26C100.218 189.26 100.744 189.053 101.131 188.64C101.518 188.227 101.711 187.647 101.711 186.9V180.84H105.131ZM111.008 182.7C111.408 182.087 111.908 181.607 112.508 181.26C113.108 180.9 113.774 180.72 114.508 180.72V184.34H113.568C112.714 184.34 112.074 184.527 111.648 184.9C111.221 185.26 111.008 185.9 111.008 186.82V192H107.588V180.84H111.008V182.7ZM119.562 182.7C119.962 182.087 120.462 181.607 121.062 181.26C121.662 180.9 122.329 180.72 123.062 180.72V184.34H122.122C121.269 184.34 120.629 184.527 120.202 184.9C119.776 185.26 119.562 185.9 119.562 186.82V192H116.142V180.84H119.562V182.7ZM135.217 186.24C135.217 186.56 135.197 186.893 135.157 187.24H127.417C127.47 187.933 127.69 188.467 128.077 188.84C128.477 189.2 128.964 189.38 129.537 189.38C130.39 189.38 130.984 189.02 131.317 188.3H134.957C134.77 189.033 134.43 189.693 133.937 190.28C133.457 190.867 132.85 191.327 132.117 191.66C131.384 191.993 130.564 192.16 129.657 192.16C128.564 192.16 127.59 191.927 126.737 191.46C125.884 190.993 125.217 190.327 124.737 189.46C124.257 188.593 124.017 187.58 124.017 186.42C124.017 185.26 124.25 184.247 124.717 183.38C125.197 182.513 125.864 181.847 126.717 181.38C127.57 180.913 128.55 180.68 129.657 180.68C130.737 180.68 131.697 180.907 132.537 181.36C133.377 181.813 134.03 182.46 134.497 183.3C134.977 184.14 135.217 185.12 135.217 186.24ZM131.717 185.34C131.717 184.753 131.517 184.287 131.117 183.94C130.717 183.593 130.217 183.42 129.617 183.42C129.044 183.42 128.557 183.587 128.157 183.92C127.77 184.253 127.53 184.727 127.437 185.34H131.717ZM143.821 180.72C145.128 180.72 146.168 181.147 146.941 182C147.728 182.84 148.121 184 148.121 185.48V192H144.721V185.94C144.721 185.193 144.528 184.613 144.141 184.2C143.755 183.787 143.235 183.58 142.581 183.58C141.928 183.58 141.408 183.787 141.021 184.2C140.635 184.613 140.441 185.193 140.441 185.94V192H137.021V180.84H140.441V182.32C140.788 181.827 141.255 181.44 141.841 181.16C142.428 180.867 143.088 180.72 143.821 180.72ZM156.718 189.1V192H154.978C153.738 192 152.771 191.7 152.078 191.1C151.384 190.487 151.038 189.493 151.038 188.12V183.68H149.678V180.84H151.038V178.12H154.458V180.84H156.698V183.68H154.458V188.16C154.458 188.493 154.538 188.733 154.698 188.88C154.858 189.027 155.124 189.1 155.498 189.1H156.718Z" fill="#222222"/>
<path d="M2.754 231.704C2.898 227.852 4.158 224.882 6.534 222.794C8.91 220.706 12.132 219.662 16.2 219.662C18.9 219.662 21.204 220.13 23.112 221.066C25.056 222.002 26.514 223.28 27.486 224.9C28.494 226.52 28.998 228.338 28.998 230.354C28.998 232.73 28.404 234.674 27.216 236.186C26.028 237.662 24.642 238.67 23.058 239.21V239.426C25.11 240.11 26.73 241.244 27.918 242.828C29.106 244.412 29.7 246.446 29.7 248.93C29.7 251.162 29.178 253.142 28.134 254.87C27.126 256.562 25.632 257.894 23.652 258.866C21.708 259.838 19.386 260.324 16.686 260.324C12.366 260.324 8.91 259.262 6.318 257.138C3.762 255.014 2.412 251.81 2.268 247.526H11.232C11.268 249.11 11.718 250.37 12.582 251.306C13.446 252.206 14.706 252.656 16.362 252.656C17.766 252.656 18.846 252.26 19.602 251.468C20.394 250.64 20.79 249.56 20.79 248.228C20.79 246.5 20.232 245.258 19.116 244.502C18.036 243.71 16.29 243.314 13.878 243.314H12.15V235.808H13.878C15.714 235.808 17.19 235.502 18.306 234.89C19.458 234.242 20.034 233.108 20.034 231.488C20.034 230.192 19.674 229.184 18.954 228.464C18.234 227.744 17.244 227.384 15.984 227.384C14.616 227.384 13.59 227.798 12.906 228.626C12.258 229.454 11.88 230.48 11.772 231.704H2.754ZM62.8813 228.626H46.0333V236.078C46.7533 235.286 47.7613 234.638 49.0573 234.134C50.3533 233.63 51.7573 233.378 53.2693 233.378C55.9693 233.378 58.2013 233.99 59.9653 235.214C61.7653 236.438 63.0793 238.022 63.9073 239.966C64.7353 241.91 65.1493 244.016 65.1493 246.284C65.1493 250.496 63.9613 253.844 61.5853 256.328C59.2093 258.776 55.8613 260 51.5413 260C48.6613 260 46.1593 259.514 44.0353 258.542C41.9113 257.534 40.2733 256.148 39.1213 254.384C37.9693 252.62 37.3393 250.586 37.2313 248.282H46.2493C46.4653 249.398 46.9873 250.334 47.8153 251.09C48.6433 251.81 49.7773 252.17 51.2173 252.17C52.9093 252.17 54.1693 251.63 54.9973 250.55C55.8253 249.47 56.2393 248.03 56.2393 246.23C56.2393 244.466 55.8073 243.116 54.9433 242.18C54.0793 241.244 52.8193 240.776 51.1633 240.776C49.9393 240.776 48.9313 241.082 48.1393 241.694C47.3473 242.27 46.8253 243.044 46.5733 244.016H37.6633V220.526H62.8813V228.626ZM70.2464 239.75C70.2464 233.558 71.4344 228.68 73.8104 225.116C76.2224 221.552 80.0924 219.77 85.4204 219.77C90.7484 219.77 94.6004 221.552 96.9764 225.116C99.3884 228.68 100.594 233.558 100.594 239.75C100.594 246.014 99.3884 250.928 96.9764 254.492C94.6004 258.056 90.7484 259.838 85.4204 259.838C80.0924 259.838 76.2224 258.056 73.8104 254.492C71.4344 250.928 70.2464 246.014 70.2464 239.75ZM91.5224 239.75C91.5224 236.114 91.1264 233.324 90.3344 231.38C89.5424 229.4 87.9044 228.41 85.4204 228.41C82.9364 228.41 81.2984 229.4 80.5064 231.38C79.7144 233.324 79.3184 236.114 79.3184 239.75C79.3184 242.198 79.4624 244.232 79.7504 245.852C80.0384 247.436 80.6144 248.732 81.4784 249.74C82.3784 250.712 83.6924 251.198 85.4204 251.198C87.1484 251.198 88.4444 250.712 89.3084 249.74C90.2084 248.732 90.8024 247.436 91.0904 245.852C91.3784 244.232 91.5224 242.198 91.5224 239.75ZM129.989 253.304H115.841L113.573 260H103.907L117.623 222.092H128.315L142.031 260H132.257L129.989 253.304ZM127.613 246.176L122.915 232.298L118.271 246.176H127.613Z" fill="#F36F25"/>
<rect width="101" height="1" transform="matrix(0 -1 1 0 302 274)" fill="#E9E9E9"/>
<path d="M386.94 182.48C386.94 183.293 386.753 184.04 386.38 184.72C386.007 185.387 385.433 185.927 384.66 186.34C383.887 186.753 382.927 186.96 381.78 186.96H379.66V192H376.24V177.96H381.78C382.9 177.96 383.847 178.153 384.62 178.54C385.393 178.927 385.973 179.46 386.36 180.14C386.747 180.82 386.94 181.6 386.94 182.48ZM381.52 184.24C382.173 184.24 382.66 184.087 382.98 183.78C383.3 183.473 383.46 183.04 383.46 182.48C383.46 181.92 383.3 181.487 382.98 181.18C382.66 180.873 382.173 180.72 381.52 180.72H379.66V184.24H381.52ZM395.58 180.72C396.86 180.72 397.887 181.147 398.66 182C399.434 182.84 399.82 184 399.82 185.48V192H396.42V185.94C396.42 185.193 396.227 184.613 395.84 184.2C395.454 183.787 394.934 183.58 394.28 183.58C393.627 183.58 393.107 183.787 392.72 184.2C392.334 184.613 392.14 185.193 392.14 185.94V192H388.72V177.2H392.14V182.34C392.487 181.847 392.96 181.453 393.56 181.16C394.16 180.867 394.834 180.72 395.58 180.72ZM401.517 186.4C401.517 185.253 401.73 184.247 402.157 183.38C402.597 182.513 403.19 181.847 403.937 181.38C404.684 180.913 405.517 180.68 406.437 180.68C407.224 180.68 407.91 180.84 408.497 181.16C409.097 181.48 409.557 181.9 409.877 182.42V180.84H413.297V192H409.877V190.42C409.544 190.94 409.077 191.36 408.477 191.68C407.89 192 407.204 192.16 406.417 192.16C405.51 192.16 404.684 191.927 403.937 191.46C403.19 190.98 402.597 190.307 402.157 189.44C401.73 188.56 401.517 187.547 401.517 186.4ZM409.877 186.42C409.877 185.567 409.637 184.893 409.157 184.4C408.69 183.907 408.117 183.66 407.437 183.66C406.757 183.66 406.177 183.907 405.697 184.4C405.23 184.88 404.997 185.547 404.997 186.4C404.997 187.253 405.23 187.933 405.697 188.44C406.177 188.933 406.757 189.18 407.437 189.18C408.117 189.18 408.69 188.933 409.157 188.44C409.637 187.947 409.877 187.273 409.877 186.42ZM420.311 192.16C419.338 192.16 418.471 191.993 417.711 191.66C416.951 191.327 416.351 190.873 415.911 190.3C415.471 189.713 415.225 189.06 415.171 188.34H418.551C418.591 188.727 418.771 189.04 419.091 189.28C419.411 189.52 419.805 189.64 420.271 189.64C420.698 189.64 421.025 189.56 421.251 189.4C421.491 189.227 421.611 189.007 421.611 188.74C421.611 188.42 421.445 188.187 421.111 188.04C420.778 187.88 420.238 187.707 419.491 187.52C418.691 187.333 418.025 187.14 417.491 186.94C416.958 186.727 416.498 186.4 416.111 185.96C415.725 185.507 415.531 184.9 415.531 184.14C415.531 183.5 415.705 182.92 416.051 182.4C416.411 181.867 416.931 181.447 417.611 181.14C418.305 180.833 419.125 180.68 420.071 180.68C421.471 180.68 422.571 181.027 423.371 181.72C424.185 182.413 424.651 183.333 424.771 184.48H421.611C421.558 184.093 421.385 183.787 421.091 183.56C420.811 183.333 420.438 183.22 419.971 183.22C419.571 183.22 419.265 183.3 419.051 183.46C418.838 183.607 418.731 183.813 418.731 184.08C418.731 184.4 418.898 184.64 419.231 184.8C419.578 184.96 420.111 185.12 420.831 185.28C421.658 185.493 422.331 185.707 422.851 185.92C423.371 186.12 423.825 186.453 424.211 186.92C424.611 187.373 424.818 187.987 424.831 188.76C424.831 189.413 424.645 190 424.271 190.52C423.911 191.027 423.385 191.427 422.691 191.72C422.011 192.013 421.218 192.16 420.311 192.16ZM437.444 186.24C437.444 186.56 437.424 186.893 437.384 187.24H429.644C429.697 187.933 429.917 188.467 430.304 188.84C430.704 189.2 431.19 189.38 431.764 189.38C432.617 189.38 433.21 189.02 433.544 188.3H437.184C436.997 189.033 436.657 189.693 436.164 190.28C435.684 190.867 435.077 191.327 434.344 191.66C433.61 191.993 432.79 192.16 431.884 192.16C430.79 192.16 429.817 191.927 428.964 191.46C428.11 190.993 427.444 190.327 426.964 189.46C426.484 188.593 426.244 187.58 426.244 186.42C426.244 185.26 426.477 184.247 426.944 183.38C427.424 182.513 428.09 181.847 428.944 181.38C429.797 180.913 430.777 180.68 431.884 180.68C432.964 180.68 433.924 180.907 434.764 181.36C435.604 181.813 436.257 182.46 436.724 183.3C437.204 184.14 437.444 185.12 437.444 186.24ZM433.944 185.34C433.944 184.753 433.744 184.287 433.344 183.94C432.944 183.593 432.444 183.42 431.844 183.42C431.27 183.42 430.784 183.587 430.384 183.92C429.997 184.253 429.757 184.727 429.664 185.34H433.944ZM442.806 186.42C442.806 185.26 443.039 184.247 443.506 183.38C443.986 182.513 444.646 181.847 445.486 181.38C446.339 180.913 447.313 180.68 448.406 180.68C449.806 180.68 450.973 181.047 451.906 181.78C452.853 182.513 453.473 183.547 453.766 184.88H450.126C449.819 184.027 449.226 183.6 448.346 183.6C447.719 183.6 447.219 183.847 446.846 184.34C446.473 184.82 446.286 185.513 446.286 186.42C446.286 187.327 446.473 188.027 446.846 188.52C447.219 189 447.719 189.24 448.346 189.24C449.226 189.24 449.819 188.813 450.126 187.96H453.766C453.473 189.267 452.853 190.293 451.906 191.04C450.959 191.787 449.793 192.16 448.406 192.16C447.313 192.16 446.339 191.927 445.486 191.46C444.646 190.993 443.986 190.327 443.506 189.46C443.039 188.593 442.806 187.58 442.806 186.42ZM466.615 180.84V192H463.195V190.48C462.849 190.973 462.375 191.373 461.775 191.68C461.189 191.973 460.535 192.12 459.815 192.12C458.962 192.12 458.209 191.933 457.555 191.56C456.902 191.173 456.395 190.62 456.035 189.9C455.675 189.18 455.495 188.333 455.495 187.36V180.84H458.895V186.9C458.895 187.647 459.089 188.227 459.475 188.64C459.862 189.053 460.382 189.26 461.035 189.26C461.702 189.26 462.229 189.053 462.615 188.64C463.002 188.227 463.195 187.647 463.195 186.9V180.84H466.615ZM472.492 182.7C472.892 182.087 473.392 181.607 473.992 181.26C474.592 180.9 475.259 180.72 475.992 180.72V184.34H475.052C474.199 184.34 473.559 184.527 473.132 184.9C472.705 185.26 472.492 185.9 472.492 186.82V192H469.072V180.84H472.492V182.7ZM481.047 182.7C481.447 182.087 481.947 181.607 482.547 181.26C483.147 180.9 483.813 180.72 484.547 180.72V184.34H483.607C482.753 184.34 482.113 184.527 481.687 184.9C481.26 185.26 481.047 185.9 481.047 186.82V192H477.627V180.84H481.047V182.7ZM496.701 186.24C496.701 186.56 496.681 186.893 496.641 187.24H488.901C488.955 187.933 489.175 188.467 489.561 188.84C489.961 189.2 490.448 189.38 491.021 189.38C491.875 189.38 492.468 189.02 492.801 188.3H496.441C496.255 189.033 495.915 189.693 495.421 190.28C494.941 190.867 494.335 191.327 493.601 191.66C492.868 191.993 492.048 192.16 491.141 192.16C490.048 192.16 489.075 191.927 488.221 191.46C487.368 190.993 486.701 190.327 486.221 189.46C485.741 188.593 485.501 187.58 485.501 186.42C485.501 185.26 485.735 184.247 486.201 183.38C486.681 182.513 487.348 181.847 488.201 181.38C489.055 180.913 490.035 180.68 491.141 180.68C492.221 180.68 493.181 180.907 494.021 181.36C494.861 181.813 495.515 182.46 495.981 183.3C496.461 184.14 496.701 185.12 496.701 186.24ZM493.201 185.34C493.201 184.753 493.001 184.287 492.601 183.94C492.201 183.593 491.701 183.42 491.101 183.42C490.528 183.42 490.041 183.587 489.641 183.92C489.255 184.253 489.015 184.727 488.921 185.34H493.201ZM505.306 180.72C506.612 180.72 507.652 181.147 508.426 182C509.212 182.84 509.606 184 509.606 185.48V192H506.206V185.94C506.206 185.193 506.012 184.613 505.626 184.2C505.239 183.787 504.719 183.58 504.066 183.58C503.412 183.58 502.892 183.787 502.506 184.2C502.119 184.613 501.926 185.193 501.926 185.94V192H498.506V180.84H501.926V182.32C502.272 181.827 502.739 181.44 503.326 181.16C503.912 180.867 504.572 180.72 505.306 180.72ZM518.202 189.1V192H516.462C515.222 192 514.256 191.7 513.562 191.1C512.869 190.487 512.522 189.493 512.522 188.12V183.68H511.162V180.84H512.522V178.12H515.942V180.84H518.182V183.68H515.942V188.16C515.942 188.493 516.022 188.733 516.182 188.88C516.342 189.027 516.609 189.1 516.982 189.1H518.202Z" fill="#222222"/>
<path d="M405.186 228.626H388.338V236.078C389.058 235.286 390.066 234.638 391.362 234.134C392.658 233.63 394.062 233.378 395.574 233.378C398.274 233.378 400.506 233.99 402.27 235.214C404.07 236.438 405.384 238.022 406.212 239.966C407.04 241.91 407.454 244.016 407.454 246.284C407.454 250.496 406.266 253.844 403.89 256.328C401.514 258.776 398.166 260 393.846 260C390.966 260 388.464 259.514 386.34 258.542C384.216 257.534 382.578 256.148 381.426 254.384C380.274 252.62 379.644 250.586 379.536 248.282H388.554C388.77 249.398 389.292 250.334 390.12 251.09C390.948 251.81 392.082 252.17 393.522 252.17C395.214 252.17 396.474 251.63 397.302 250.55C398.13 249.47 398.544 248.03 398.544 246.23C398.544 244.466 398.112 243.116 397.248 242.18C396.384 241.244 395.124 240.776 393.468 240.776C392.244 240.776 391.236 241.082 390.444 241.694C389.652 242.27 389.13 243.044 388.878 244.016H379.968V220.526H405.186V228.626ZM412.551 239.75C412.551 233.558 413.739 228.68 416.115 225.116C418.527 221.552 422.397 219.77 427.725 219.77C433.053 219.77 436.905 221.552 439.281 225.116C441.693 228.68 442.899 233.558 442.899 239.75C442.899 246.014 441.693 250.928 439.281 254.492C436.905 258.056 433.053 259.838 427.725 259.838C422.397 259.838 418.527 258.056 416.115 254.492C413.739 250.928 412.551 246.014 412.551 239.75ZM433.827 239.75C433.827 236.114 433.431 233.324 432.639 231.38C431.847 229.4 430.209 228.41 427.725 228.41C425.241 228.41 423.603 229.4 422.811 231.38C422.019 233.324 421.623 236.114 421.623 239.75C421.623 242.198 421.767 244.232 422.055 245.852C422.343 247.436 422.919 248.732 423.783 249.74C424.683 250.712 425.997 251.198 427.725 251.198C429.453 251.198 430.749 250.712 431.613 249.74C432.513 248.732 433.107 247.436 433.395 245.852C433.683 244.232 433.827 242.198 433.827 239.75ZM447.778 239.75C447.778 233.558 448.966 228.68 451.342 225.116C453.754 221.552 457.624 219.77 462.952 219.77C468.28 219.77 472.132 221.552 474.508 225.116C476.92 228.68 478.126 233.558 478.126 239.75C478.126 246.014 476.92 250.928 474.508 254.492C472.132 258.056 468.28 259.838 462.952 259.838C457.624 259.838 453.754 258.056 451.342 254.492C448.966 250.928 447.778 246.014 447.778 239.75ZM469.054 239.75C469.054 236.114 468.658 233.324 467.866 231.38C467.074 229.4 465.436 228.41 462.952 228.41C460.468 228.41 458.83 229.4 458.038 231.38C457.246 233.324 456.85 236.114 456.85 239.75C456.85 242.198 456.994 244.232 457.282 245.852C457.57 247.436 458.146 248.732 459.01 249.74C459.91 250.712 461.224 251.198 462.952 251.198C464.68 251.198 465.976 250.712 466.84 249.74C467.74 248.732 468.334 247.436 468.622 245.852C468.91 244.232 469.054 242.198 469.054 239.75ZM507.52 253.304H493.372L491.104 260H481.438L495.154 222.092H505.846L519.562 260H509.788L507.52 253.304ZM505.144 246.176L500.446 232.298L495.802 246.176H505.144Z" fill="#F36F25"/>
<rect width="101" height="1" transform="matrix(0 -1 1 0 677 274)" fill="#E9E9E9"/>
<path d="M754.66 180.7V183.54H759.24V186.18H754.66V189.26H759.84V192H751.24V177.96H759.84V180.7H754.66ZM767.66 183.68H765.82V192H762.4V183.68H761.16V180.84H762.4V180.52C762.4 179.147 762.794 178.107 763.58 177.4C764.367 176.68 765.52 176.32 767.04 176.32C767.294 176.32 767.48 176.327 767.6 176.34V179.24C766.947 179.2 766.487 179.293 766.22 179.52C765.954 179.747 765.82 180.153 765.82 180.74V180.84H767.66V183.68ZM774.867 183.68H773.027V192H769.607V183.68H768.367V180.84H769.607V180.52C769.607 179.147 770.001 178.107 770.787 177.4C771.574 176.68 772.727 176.32 774.247 176.32C774.501 176.32 774.687 176.327 774.807 176.34V179.24C774.154 179.2 773.694 179.293 773.427 179.52C773.161 179.747 773.027 180.153 773.027 180.74V180.84H774.867V183.68ZM778.194 179.68C777.594 179.68 777.101 179.507 776.714 179.16C776.341 178.8 776.154 178.36 776.154 177.84C776.154 177.307 776.341 176.867 776.714 176.52C777.101 176.16 777.594 175.98 778.194 175.98C778.781 175.98 779.261 176.16 779.634 176.52C780.021 176.867 780.214 177.307 780.214 177.84C780.214 178.36 780.021 178.8 779.634 179.16C779.261 179.507 778.781 179.68 778.194 179.68ZM779.894 180.84V192H776.474V180.84H779.894ZM781.693 186.42C781.693 185.26 781.926 184.247 782.393 183.38C782.873 182.513 783.533 181.847 784.373 181.38C785.226 180.913 786.199 180.68 787.293 180.68C788.693 180.68 789.859 181.047 790.793 181.78C791.739 182.513 792.359 183.547 792.653 184.88H789.013C788.706 184.027 788.113 183.6 787.233 183.6C786.606 183.6 786.106 183.847 785.733 184.34C785.359 184.82 785.173 185.513 785.173 186.42C785.173 187.327 785.359 188.027 785.733 188.52C786.106 189 786.606 189.24 787.233 189.24C788.113 189.24 788.706 188.813 789.013 187.96H792.653C792.359 189.267 791.739 190.293 790.793 191.04C789.846 191.787 788.679 192.16 787.293 192.16C786.199 192.16 785.226 191.927 784.373 191.46C783.533 190.993 782.873 190.327 782.393 189.46C781.926 188.593 781.693 187.58 781.693 186.42ZM796.202 179.68C795.602 179.68 795.109 179.507 794.722 179.16C794.349 178.8 794.162 178.36 794.162 177.84C794.162 177.307 794.349 176.867 794.722 176.52C795.109 176.16 795.602 175.98 796.202 175.98C796.789 175.98 797.269 176.16 797.642 176.52C798.029 176.867 798.222 177.307 798.222 177.84C798.222 178.36 798.029 178.8 797.642 179.16C797.269 179.507 796.789 179.68 796.202 179.68ZM797.902 180.84V192H794.482V180.84H797.902ZM810.901 186.24C810.901 186.56 810.881 186.893 810.841 187.24H803.101C803.154 187.933 803.374 188.467 803.761 188.84C804.161 189.2 804.647 189.38 805.221 189.38C806.074 189.38 806.667 189.02 807.001 188.3H810.641C810.454 189.033 810.114 189.693 809.621 190.28C809.141 190.867 808.534 191.327 807.801 191.66C807.067 191.993 806.247 192.16 805.341 192.16C804.247 192.16 803.274 191.927 802.421 191.46C801.567 190.993 800.901 190.327 800.421 189.46C799.941 188.593 799.701 187.58 799.701 186.42C799.701 185.26 799.934 184.247 800.401 183.38C800.881 182.513 801.547 181.847 802.401 181.38C803.254 180.913 804.234 180.68 805.341 180.68C806.421 180.68 807.381 180.907 808.221 181.36C809.061 181.813 809.714 182.46 810.181 183.3C810.661 184.14 810.901 185.12 810.901 186.24ZM807.401 185.34C807.401 184.753 807.201 184.287 806.801 183.94C806.401 183.593 805.901 183.42 805.301 183.42C804.727 183.42 804.241 183.587 803.841 183.92C803.454 184.253 803.214 184.727 803.121 185.34H807.401ZM819.505 180.72C820.812 180.72 821.852 181.147 822.625 182C823.412 182.84 823.805 184 823.805 185.48V192H820.405V185.94C820.405 185.193 820.212 184.613 819.825 184.2C819.438 183.787 818.918 183.58 818.265 183.58C817.612 183.58 817.092 183.787 816.705 184.2C816.318 184.613 816.125 185.193 816.125 185.94V192H812.705V180.84H816.125V182.32C816.472 181.827 816.938 181.44 817.525 181.16C818.112 180.867 818.772 180.72 819.505 180.72ZM825.501 186.42C825.501 185.26 825.735 184.247 826.201 183.38C826.681 182.513 827.341 181.847 828.181 181.38C829.035 180.913 830.008 180.68 831.101 180.68C832.501 180.68 833.668 181.047 834.601 181.78C835.548 182.513 836.168 183.547 836.461 184.88H832.821C832.515 184.027 831.921 183.6 831.041 183.6C830.415 183.6 829.915 183.847 829.541 184.34C829.168 184.82 828.981 185.513 828.981 186.42C828.981 187.327 829.168 188.027 829.541 188.52C829.915 189 830.415 189.24 831.041 189.24C831.921 189.24 832.515 188.813 832.821 187.96H836.461C836.168 189.267 835.548 190.293 834.601 191.04C833.655 191.787 832.488 192.16 831.101 192.16C830.008 192.16 829.035 191.927 828.181 191.46C827.341 190.993 826.681 190.327 826.201 189.46C825.735 188.593 825.501 187.58 825.501 186.42ZM849.691 180.84L842.691 197.3H839.011L841.571 191.62L837.031 180.84H840.851L843.431 187.82L845.991 180.84H849.691Z" fill="#222222"/>
<path d="M762.366 248.444C762.906 251.288 764.562 252.71 767.334 252.71C769.242 252.71 770.592 251.864 771.384 250.172C772.176 248.48 772.572 245.726 772.572 241.91C771.78 243.026 770.7 243.89 769.332 244.502C767.964 245.114 766.434 245.42 764.742 245.42C762.438 245.42 760.386 244.952 758.586 244.016C756.786 243.044 755.364 241.622 754.32 239.75C753.312 237.842 752.808 235.538 752.808 232.838C752.808 230.174 753.348 227.852 754.428 225.872C755.544 223.892 757.11 222.362 759.126 221.282C761.178 220.202 763.59 219.662 766.362 219.662C771.69 219.662 775.416 221.318 777.54 224.63C779.664 227.942 780.726 232.82 780.726 239.264C780.726 243.944 780.294 247.814 779.43 250.874C778.602 253.898 777.18 256.202 775.164 257.786C773.184 259.37 770.466 260.162 767.01 260.162C764.274 260.162 761.934 259.622 759.99 258.542C758.082 257.462 756.606 256.04 755.562 254.276C754.554 252.512 753.978 250.568 753.834 248.444H762.366ZM766.848 238.13C768.36 238.13 769.566 237.68 770.466 236.78C771.366 235.844 771.816 234.584 771.816 233C771.816 231.272 771.348 229.94 770.412 229.004C769.476 228.068 768.216 227.6 766.632 227.6C765.048 227.6 763.788 228.086 762.852 229.058C761.952 229.994 761.502 231.29 761.502 232.946C761.502 234.494 761.952 235.754 762.852 236.726C763.788 237.662 765.12 238.13 766.848 238.13ZM792.133 238.832C788.749 237.032 787.057 234.206 787.057 230.354C787.057 228.41 787.561 226.646 788.569 225.062C789.577 223.442 791.107 222.164 793.159 221.228C795.211 220.256 797.731 219.77 800.719 219.77C803.707 219.77 806.209 220.256 808.225 221.228C810.277 222.164 811.807 223.442 812.815 225.062C813.823 226.646 814.327 228.41 814.327 230.354C814.327 232.298 813.859 233.99 812.923 235.43C812.023 236.87 810.799 238.004 809.251 238.832C811.195 239.768 812.689 241.064 813.733 242.72C814.777 244.34 815.299 246.248 815.299 248.444C815.299 251 814.651 253.214 813.355 255.086C812.059 256.922 810.295 258.326 808.063 259.298C805.867 260.27 803.419 260.756 800.719 260.756C798.019 260.756 795.553 260.27 793.321 259.298C791.125 258.326 789.379 256.922 788.083 255.086C786.787 253.214 786.139 251 786.139 248.444C786.139 246.212 786.661 244.286 787.705 242.666C788.749 241.01 790.225 239.732 792.133 238.832ZM805.363 231.758C805.363 230.282 804.931 229.148 804.067 228.356C803.239 227.528 802.123 227.114 800.719 227.114C799.315 227.114 798.181 227.528 797.317 228.356C796.489 229.184 796.075 230.336 796.075 231.812C796.075 233.216 796.507 234.332 797.371 235.16C798.235 235.952 799.351 236.348 800.719 236.348C802.087 236.348 803.203 235.934 804.067 235.106C804.931 234.278 805.363 233.162 805.363 231.758ZM800.719 242.828C799.027 242.828 797.659 243.296 796.615 244.232C795.571 245.132 795.049 246.392 795.049 248.012C795.049 249.524 795.553 250.766 796.561 251.738C797.605 252.71 798.991 253.196 800.719 253.196C802.447 253.196 803.797 252.71 804.769 251.738C805.777 250.766 806.281 249.524 806.281 248.012C806.281 246.428 805.759 245.168 804.715 244.232C803.707 243.296 802.375 242.828 800.719 242.828ZM819.912 230.516C819.912 227.6 820.74 225.35 822.396 223.766C824.088 222.182 826.266 221.39 828.93 221.39C831.594 221.39 833.754 222.182 835.41 223.766C837.066 225.35 837.894 227.6 837.894 230.516C837.894 233.432 837.066 235.682 835.41 237.266C833.754 238.85 831.594 239.642 828.93 239.642C826.266 239.642 824.088 238.85 822.396 237.266C820.74 235.682 819.912 233.432 819.912 230.516ZM856.578 221.984L835.788 260H826.878L847.668 221.984H856.578ZM828.876 226.79C827.148 226.79 826.284 228.032 826.284 230.516C826.284 232.964 827.148 234.188 828.876 234.188C829.704 234.188 830.352 233.882 830.82 233.27C831.288 232.658 831.522 231.74 831.522 230.516C831.522 228.032 830.64 226.79 828.876 226.79ZM845.616 251.468C845.616 248.552 846.444 246.302 848.1 244.718C849.756 243.134 851.916 242.342 854.58 242.342C857.244 242.342 859.404 243.134 861.06 244.718C862.716 246.302 863.544 248.552 863.544 251.468C863.544 254.384 862.716 256.634 861.06 258.218C859.404 259.802 857.244 260.594 854.58 260.594C851.916 260.594 849.756 259.802 848.1 258.218C846.444 256.634 845.616 254.384 845.616 251.468ZM854.526 247.742C853.698 247.742 853.05 248.048 852.582 248.66C852.15 249.272 851.934 250.208 851.934 251.468C851.934 253.916 852.798 255.14 854.526 255.14C855.354 255.14 856.002 254.834 856.47 254.222C856.938 253.61 857.172 252.692 857.172 251.468C857.172 250.244 856.938 249.326 856.47 248.714C856.002 248.066 855.354 247.742 854.526 247.742Z" fill="#F36F25"/>
</svg>
