<svg width="1680" height="1049" viewBox="0 0 1680 1049" fill="none" xmlns="http://www.w3.org/2000/svg">
<rect width="1680" height="1049" fill="#F6F6F6"/>
<rect width="840" height="380" transform="translate(420 200)" fill="#F6F6F6"/>
<path fill-rule="evenodd" clip-rule="evenodd" d="M633 225C628.582 225 625 228.582 625 233V547C625 551.418 628.582 555 633 555H1047C1051.42 555 1055 551.418 1055 547V233C1055 228.582 1051.42 225 1047 225H633ZM669.75 529.75V460.25H627V529.75H669.75ZM669.75 459.75H627V390.25H669.75V459.75ZM669.75 389.75H627V320.25H669.75V389.75ZM669.75 319.75H627V250.25H669.75V319.75ZM669.75 249.75H627V233C627 229.686 629.686 227 633 227H669.75V249.75ZM670.25 249.75V227H714.75V249.75H670.25ZM715.25 249.75V227H759.75V249.75H715.25ZM760.25 249.75V227H804.75V249.75H760.25ZM805.25 249.75V227H849.75V249.75H805.25ZM850.25 249.75V227H894.75V249.75H850.25ZM895.25 249.75V227H939.75V249.75H895.25ZM940.25 249.75V227H984.75V249.75H940.25ZM985.25 249.75V227H1029.75V249.75H985.25ZM1030.25 249.75V227H1047C1050.31 227 1053 229.686 1053 233V249.75H1030.25ZM1030.25 250.25H1053V319.75H1030.25V250.25ZM1030.25 320.25H1053V389.75H1030.25V320.25ZM1030.25 390.25H1053V459.75H1030.25V390.25ZM1030.25 460.25H1053V529.75H1030.25V460.25ZM1030.25 530.25H1053V547C1053 550.314 1050.31 553 1047 553H1030.25V530.25ZM1029.75 530.25V553H985.25V530.25H1029.75ZM984.75 530.25V553H940.25V530.25H984.75ZM939.75 530.25V553H895.25V530.25H939.75ZM894.75 530.25V553H850.25V530.25H894.75ZM849.75 530.25V553H805.25V530.25H849.75ZM804.75 530.25V553H760.25V530.25H804.75ZM759.75 530.25V553H715.25V530.25H759.75ZM714.75 530.25V553H670.25V530.25H714.75ZM669.75 530.25V553H633C629.686 553 627 550.314 627 547V530.25H669.75ZM1029.75 250.25H985.25V319.75H1029.75V250.25ZM984.75 250.25H940.25V319.75H984.75V250.25ZM939.75 250.25H895.25V319.75H939.75V250.25ZM894.75 250.25H850.25V319.75H894.75V250.25ZM849.75 250.25H805.25V319.75H849.75V250.25ZM804.75 250.25H760.25V319.75H804.75V250.25ZM759.75 250.25H715.25V319.75H759.75V250.25ZM714.75 250.25H670.25V319.75H714.75V250.25ZM670.25 389.75V320.25H714.75V389.75H670.25ZM715.25 389.75V320.25H759.75V389.75H715.25ZM760.25 389.75V320.25H804.75V389.75H760.25ZM805.25 389.75V320.25H849.75V389.75H805.25ZM850.25 389.75V320.25H894.75V389.75H850.25ZM895.25 389.75V320.25H939.75V389.75H895.25ZM940.25 389.75V320.25H984.75V389.75H940.25ZM985.25 389.75V320.25H1029.75V389.75H985.25ZM1029.75 390.25H985.25V459.75H1029.75V390.25ZM984.75 390.25H940.25V459.75H984.75V390.25ZM939.75 390.25H895.25V459.75H939.75V390.25ZM894.75 390.25H850.25V459.75H894.75V390.25ZM849.75 390.25H805.25V459.75H849.75V390.25ZM804.75 390.25H760.25V459.75H804.75V390.25ZM759.75 390.25H715.25V459.75H759.75V390.25ZM714.75 390.25H670.25V459.75H714.75V390.25ZM670.25 529.75V460.25H714.75V529.75H670.25ZM715.25 529.75V460.25H759.75V529.75H715.25ZM760.25 529.75V460.25H804.75V529.75H760.25ZM805.25 529.75V460.25H849.75V529.75H805.25ZM850.25 529.75V460.25H894.75V529.75H850.25ZM895.25 529.75V460.25H939.75V529.75H895.25ZM940.25 529.75V460.25H984.75V529.75H940.25ZM985.25 529.75V460.25H1029.75V529.75H985.25Z" fill="#B0B0B0"/>
<path d="M488.166 381.072C488.166 380.101 488.376 379.238 488.796 378.482C489.216 377.716 489.8 377.124 490.546 376.704C491.302 376.274 492.156 376.06 493.108 376.06C494.275 376.06 495.274 376.368 496.104 376.984C496.935 377.6 497.49 378.44 497.77 379.504H495.138C494.942 379.093 494.662 378.78 494.298 378.566C493.944 378.351 493.538 378.244 493.08 378.244C492.343 378.244 491.746 378.5 491.288 379.014C490.831 379.527 490.602 380.213 490.602 381.072C490.602 381.93 490.831 382.616 491.288 383.13C491.746 383.643 492.343 383.9 493.08 383.9C493.538 383.9 493.944 383.792 494.298 383.578C494.662 383.363 494.942 383.05 495.138 382.64H497.77C497.49 383.704 496.935 384.544 496.104 385.16C495.274 385.766 494.275 386.07 493.108 386.07C492.156 386.07 491.302 385.86 490.546 385.44C489.8 385.01 489.216 384.418 488.796 383.662C488.376 382.906 488.166 382.042 488.166 381.072Z" fill="#B0B0B0"/>
<path d="M475.362 394.012C475.633 394.254 475.978 394.376 476.398 394.376C476.809 394.376 477.145 394.254 477.406 394.012C477.677 393.76 477.812 393.452 477.812 393.088C477.812 392.714 477.677 392.406 477.406 392.164C477.145 391.912 476.809 391.786 476.398 391.786C475.978 391.786 475.633 391.912 475.362 392.164C475.101 392.406 474.97 392.714 474.97 393.088C474.97 393.452 475.101 393.76 475.362 394.012Z" fill="#B0B0B0"/>
<path d="M477.588 395.188V403H475.194V395.188H477.588Z" fill="#B0B0B0"/>
<path fill-rule="evenodd" clip-rule="evenodd" d="M495.409 399.668C495.437 399.425 495.451 399.192 495.451 398.968C495.451 398.184 495.283 397.498 494.947 396.91C494.62 396.322 494.163 395.869 493.575 395.552C492.987 395.234 492.315 395.076 491.559 395.076C490.784 395.076 490.098 395.239 489.501 395.566C488.904 395.892 488.437 396.359 488.101 396.966C487.774 397.572 487.611 398.282 487.611 399.094C487.611 399.906 487.779 400.615 488.115 401.222C488.451 401.828 488.918 402.295 489.515 402.622C490.112 402.948 490.794 403.112 491.559 403.112C492.194 403.112 492.768 402.995 493.281 402.762C493.794 402.528 494.219 402.206 494.555 401.796C494.9 401.385 495.138 400.923 495.269 400.41H492.721C492.488 400.914 492.072 401.166 491.475 401.166C491.074 401.166 490.733 401.04 490.453 400.788C490.182 400.526 490.028 400.153 489.991 399.668H495.409ZM492.581 397.358C492.861 397.6 493.001 397.927 493.001 398.338H490.005C490.07 397.908 490.238 397.577 490.509 397.344C490.789 397.11 491.13 396.994 491.531 396.994C491.951 396.994 492.301 397.115 492.581 397.358Z" fill="#B0B0B0"/>
<path d="M499.108 396.49C499.388 396.06 499.738 395.724 500.158 395.482C500.578 395.23 501.045 395.104 501.558 395.104V397.638H500.9C500.303 397.638 499.855 397.768 499.556 398.03C499.257 398.282 499.108 398.73 499.108 399.374V403H496.714V395.188H499.108V396.49Z" fill="#B0B0B0"/>
<path d="M482.837 400.76L484.531 395.188H487.079L484.307 403H481.353L478.581 395.188H481.143L482.837 400.76Z" fill="#B0B0B0"/>
<path d="M472.65 395.482C472.23 395.724 471.88 396.06 471.6 396.49V395.188H469.206V403H471.6V399.374C471.6 398.73 471.749 398.282 472.048 398.03C472.347 397.768 472.795 397.638 473.392 397.638H474.05V395.104C473.537 395.104 473.07 395.23 472.65 395.482Z" fill="#B0B0B0"/>
<path fill-rule="evenodd" clip-rule="evenodd" d="M465.432 393.788C464.658 393.377 463.752 393.172 462.716 393.172H459.034V403H462.716C463.743 403 464.644 402.794 465.418 402.384C466.202 401.973 466.804 401.394 467.224 400.648C467.654 399.901 467.868 399.047 467.868 398.086C467.868 397.115 467.654 396.261 467.224 395.524C466.804 394.777 466.207 394.198 465.432 393.788ZM464.676 400.186C464.172 400.68 463.468 400.928 462.562 400.928H461.428V395.216H462.562C463.468 395.216 464.172 395.468 464.676 395.972C465.18 396.476 465.432 397.18 465.432 398.086C465.432 398.991 465.18 399.691 464.676 400.186Z" fill="#B0B0B0"/>
<path fill-rule="evenodd" clip-rule="evenodd" d="M482.082 376.172C483.118 376.172 484.024 376.377 484.798 376.788C485.573 377.198 486.17 377.777 486.59 378.524C487.02 379.261 487.234 380.115 487.234 381.086C487.234 382.047 487.02 382.901 486.59 383.648C486.17 384.394 485.568 384.973 484.784 385.384C484.01 385.794 483.109 386 482.082 386H478.4V376.172H482.082ZM481.928 383.928C482.834 383.928 483.538 383.68 484.042 383.186C484.546 382.691 484.798 381.991 484.798 381.086C484.798 380.18 484.546 379.476 484.042 378.972C483.538 378.468 482.834 378.216 481.928 378.216H480.794V383.928H481.928Z" fill="#B0B0B0"/>
<path d="M474.123 384.152H477.259V386H471.729V376.172H474.123V384.152Z" fill="#B0B0B0"/>
<path fill-rule="evenodd" clip-rule="evenodd" d="M468.45 380.96C469.019 381.081 469.477 381.366 469.822 381.814C470.167 382.252 470.34 382.756 470.34 383.326C470.34 384.147 470.051 384.8 469.472 385.286C468.903 385.762 468.105 386 467.078 386H462.5V376.172H466.924C467.923 376.172 468.702 376.4 469.262 376.858C469.831 377.315 470.116 377.936 470.116 378.72C470.116 379.298 469.962 379.779 469.654 380.162C469.355 380.544 468.954 380.81 468.45 380.96ZM464.894 380.148H466.462C466.854 380.148 467.153 380.064 467.358 379.896C467.573 379.718 467.68 379.462 467.68 379.126C467.68 378.79 467.573 378.533 467.358 378.356C467.153 378.178 466.854 378.09 466.462 378.09H464.894V380.148ZM466.658 384.068C467.059 384.068 467.367 383.979 467.582 383.802C467.806 383.615 467.918 383.349 467.918 383.004C467.918 382.658 467.801 382.388 467.568 382.192C467.344 381.996 467.031 381.898 466.63 381.898H464.894V384.068H466.658Z" fill="#B0B0B0"/>
<path fill-rule="evenodd" clip-rule="evenodd" d="M425 358C425 353.582 428.582 350 433 350H527C531.418 350 535 353.582 535 358V422C535 426.418 531.418 430 527 430H433C428.582 430 425 426.418 425 422V358ZM433 352H527C530.314 352 533 354.686 533 358V422C533 425.314 530.314 428 527 428H433C429.686 428 427 425.314 427 422V358C427 354.686 429.686 352 433 352Z" fill="#B0B0B0"/>
<path d="M1233.45 396.49C1233.73 396.06 1234.08 395.724 1234.5 395.482C1234.92 395.23 1235.39 395.104 1235.9 395.104V397.638H1235.24C1234.65 397.638 1234.2 397.768 1233.9 398.03C1233.6 398.282 1233.45 398.73 1233.45 399.374V403H1231.06V395.188H1233.45V396.49Z" fill="#B0B0B0"/>
<path fill-rule="evenodd" clip-rule="evenodd" d="M1225.7 403.112C1224.93 403.112 1224.24 402.948 1223.63 402.622C1223.02 402.295 1222.54 401.828 1222.19 401.222C1221.84 400.615 1221.67 399.906 1221.67 399.094C1221.67 398.291 1221.84 397.586 1222.2 396.98C1222.55 396.364 1223.04 395.892 1223.66 395.566C1224.27 395.239 1224.96 395.076 1225.73 395.076C1226.49 395.076 1227.18 395.239 1227.8 395.566C1228.42 395.892 1228.9 396.364 1229.26 396.98C1229.61 397.586 1229.79 398.291 1229.79 399.094C1229.79 399.896 1229.61 400.606 1229.24 401.222C1228.89 401.828 1228.4 402.295 1227.77 402.622C1227.16 402.948 1226.46 403.112 1225.7 403.112ZM1225.7 401.04C1226.16 401.04 1226.54 400.872 1226.86 400.536C1227.19 400.2 1227.35 399.719 1227.35 399.094C1227.35 398.468 1227.19 397.988 1226.88 397.652C1226.57 397.316 1226.18 397.148 1225.73 397.148C1225.26 397.148 1224.87 397.316 1224.57 397.652C1224.26 397.978 1224.1 398.459 1224.1 399.094C1224.1 399.719 1224.25 400.2 1224.55 400.536C1224.86 400.872 1225.24 401.04 1225.7 401.04Z" fill="#B0B0B0"/>
<path d="M1220.81 400.97V403H1219.59C1218.72 403 1218.05 402.79 1217.56 402.37C1217.08 401.94 1216.83 401.245 1216.83 400.284V397.176H1215.88V395.188H1216.83V393.284H1219.23V395.188H1220.8V397.176H1219.23V400.312C1219.23 400.545 1219.28 400.713 1219.4 400.816C1219.51 400.918 1219.69 400.97 1219.96 400.97H1220.81Z" fill="#B0B0B0"/>
<path fill-rule="evenodd" clip-rule="evenodd" d="M1211.1 403.112C1210.33 403.112 1209.64 402.948 1209.03 402.622C1208.42 402.295 1207.94 401.828 1207.58 401.222C1207.24 400.615 1207.07 399.906 1207.07 399.094C1207.07 398.291 1207.24 397.586 1207.6 396.98C1207.95 396.364 1208.44 395.892 1209.05 395.566C1209.67 395.239 1210.36 395.076 1211.13 395.076C1211.89 395.076 1212.58 395.239 1213.2 395.566C1213.81 395.892 1214.3 396.364 1214.65 396.98C1215.01 397.586 1215.19 398.291 1215.19 399.094C1215.19 399.896 1215 400.606 1214.64 401.222C1214.29 401.828 1213.8 402.295 1213.17 402.622C1212.55 402.948 1211.86 403.112 1211.1 403.112ZM1211.1 401.04C1211.56 401.04 1211.94 400.872 1212.26 400.536C1212.59 400.2 1212.75 399.719 1212.75 399.094C1212.75 398.468 1212.59 397.988 1212.27 397.652C1211.97 397.316 1211.58 397.148 1211.13 397.148C1210.66 397.148 1210.27 397.316 1209.96 397.652C1209.66 397.978 1209.5 398.459 1209.5 399.094C1209.5 399.719 1209.65 400.2 1209.95 400.536C1210.26 400.872 1210.64 401.04 1211.1 401.04Z" fill="#B0B0B0"/>
<path d="M1205.82 393.172V403H1203.43V397.106L1201.23 403H1199.3L1197.08 397.092V403H1194.69V393.172H1197.52L1200.28 399.976L1203.01 393.172H1205.82Z" fill="#B0B0B0"/>
<path d="M1223.17 381.072C1223.17 380.101 1223.38 379.238 1223.8 378.482C1224.22 377.716 1224.8 377.124 1225.55 376.704C1226.3 376.274 1227.16 376.06 1228.11 376.06C1229.27 376.06 1230.27 376.368 1231.1 376.984C1231.93 377.6 1232.49 378.44 1232.77 379.504H1230.14C1229.94 379.093 1229.66 378.78 1229.3 378.566C1228.94 378.351 1228.54 378.244 1228.08 378.244C1227.34 378.244 1226.75 378.5 1226.29 379.014C1225.83 379.527 1225.6 380.213 1225.6 381.072C1225.6 381.93 1225.83 382.616 1226.29 383.13C1226.75 383.643 1227.34 383.9 1228.08 383.9C1228.54 383.9 1228.94 383.792 1229.3 383.578C1229.66 383.363 1229.94 383.05 1230.14 382.64H1232.77C1232.49 383.704 1231.93 384.544 1231.1 385.16C1230.27 385.766 1229.27 386.07 1228.11 386.07C1227.16 386.07 1226.3 385.86 1225.55 385.44C1224.8 385.01 1224.22 384.418 1223.8 383.662C1223.38 382.906 1223.17 382.042 1223.17 381.072Z" fill="#B0B0B0"/>
<path fill-rule="evenodd" clip-rule="evenodd" d="M1217.08 376.172C1218.12 376.172 1219.02 376.377 1219.8 376.788C1220.57 377.198 1221.17 377.777 1221.59 378.524C1222.02 379.261 1222.23 380.115 1222.23 381.086C1222.23 382.047 1222.02 382.901 1221.59 383.648C1221.17 384.394 1220.57 384.973 1219.78 385.384C1219.01 385.794 1218.11 386 1217.08 386H1213.4V376.172H1217.08ZM1216.93 383.928C1217.83 383.928 1218.54 383.68 1219.04 383.186C1219.55 382.691 1219.8 381.991 1219.8 381.086C1219.8 380.18 1219.55 379.476 1219.04 378.972C1218.54 378.468 1217.83 378.216 1216.93 378.216H1215.79V383.928H1216.93Z" fill="#B0B0B0"/>
<path d="M1209.12 384.152H1212.26V386H1206.73V376.172H1209.12V384.152Z" fill="#B0B0B0"/>
<path fill-rule="evenodd" clip-rule="evenodd" d="M1203.45 380.96C1204.02 381.081 1204.48 381.366 1204.82 381.814C1205.17 382.252 1205.34 382.756 1205.34 383.326C1205.34 384.147 1205.05 384.8 1204.47 385.286C1203.9 385.762 1203.1 386 1202.08 386H1197.5V376.172H1201.92C1202.92 376.172 1203.7 376.4 1204.26 376.858C1204.83 377.315 1205.12 377.936 1205.12 378.72C1205.12 379.298 1204.96 379.779 1204.65 380.162C1204.36 380.544 1203.95 380.81 1203.45 380.96ZM1199.89 380.148H1201.46C1201.85 380.148 1202.15 380.064 1202.36 379.896C1202.57 379.718 1202.68 379.462 1202.68 379.126C1202.68 378.79 1202.57 378.533 1202.36 378.356C1202.15 378.178 1201.85 378.09 1201.46 378.09H1199.89V380.148ZM1201.66 384.068C1202.06 384.068 1202.37 383.979 1202.58 383.802C1202.81 383.615 1202.92 383.349 1202.92 383.004C1202.92 382.658 1202.8 382.388 1202.57 382.192C1202.34 381.996 1202.03 381.898 1201.63 381.898H1199.89V384.068H1201.66Z" fill="#B0B0B0"/>
<path fill-rule="evenodd" clip-rule="evenodd" d="M1255 390C1255 412.091 1237.09 430 1215 430C1192.91 430 1175 412.091 1175 390C1175 367.909 1192.91 350 1215 350C1237.09 350 1255 367.909 1255 390ZM1253 390C1253 410.987 1235.99 428 1215 428C1194.01 428 1177 410.987 1177 390C1177 369.013 1194.01 352 1215 352C1235.99 352 1253 369.013 1253 390Z" fill="#B0B0B0"/>
<path fill-rule="evenodd" clip-rule="evenodd" d="M625.907 564.875C625.907 563.613 626.149 562.62 626.633 561.894C627.125 561.168 627.913 560.805 628.998 560.805C630.084 560.805 630.868 561.168 631.352 561.894C631.844 562.62 632.089 563.613 632.089 564.875C632.089 566.151 631.844 567.152 631.352 567.878C630.868 568.604 630.084 568.967 628.998 568.967C627.913 568.967 627.125 568.604 626.633 567.878C626.149 567.152 625.907 566.151 625.907 564.875ZM630.241 564.875C630.241 564.134 630.161 563.566 629.999 563.17C629.838 562.766 629.504 562.565 628.998 562.565C628.492 562.565 628.159 562.766 627.997 563.17C627.836 563.566 627.755 564.134 627.755 564.875C627.755 565.373 627.785 565.788 627.843 566.118C627.902 566.44 628.019 566.704 628.195 566.91C628.379 567.108 628.646 567.207 628.998 567.207C629.35 567.207 629.614 567.108 629.79 566.91C629.974 566.704 630.095 566.44 630.153 566.118C630.212 565.788 630.241 565.373 630.241 564.875Z" fill="#B0B0B0"/>
<path d="M668.229 562.719V560.97H671.276V569H669.318V562.719H668.229Z" fill="#B0B0B0"/>
<path d="M712.287 567.493L712.412 567.393L712.502 567.321C712.542 567.289 712.573 567.265 712.594 567.247L712.615 567.23L712.625 567.221C712.631 567.216 712.632 567.215 712.628 567.218C713.346 566.624 713.911 566.136 714.322 565.755C714.74 565.374 715.092 564.974 715.378 564.556C715.664 564.138 715.807 563.731 715.807 563.335C715.807 563.034 715.737 562.8 715.598 562.631C715.458 562.462 715.249 562.378 714.971 562.378C714.692 562.378 714.472 562.484 714.311 562.697C714.157 562.902 714.08 563.196 714.08 563.577H712.265C712.279 562.954 712.411 562.433 712.661 562.015C712.917 561.597 713.251 561.289 713.662 561.091C714.08 560.893 714.542 560.794 715.048 560.794C715.92 560.794 716.577 561.018 717.017 561.465C717.464 561.912 717.688 562.495 717.688 563.214C717.688 563.999 717.42 564.728 716.885 565.403C716.349 566.07 715.667 566.723 714.839 567.361H717.809V568.89H712.287V567.493Z" fill="#B0B0B0"/>
<path d="M757.231 563.236C757.26 562.452 757.517 561.847 758.001 561.421C758.485 560.996 759.141 560.783 759.97 560.783C760.52 560.783 760.989 560.879 761.378 561.069C761.774 561.26 762.071 561.52 762.269 561.85C762.474 562.18 762.577 562.551 762.577 562.961C762.577 563.445 762.456 563.841 762.214 564.149C761.972 564.45 761.69 564.655 761.367 564.765V564.809C761.785 564.949 762.115 565.18 762.357 565.502C762.599 565.825 762.72 566.239 762.72 566.745C762.72 567.2 762.613 567.603 762.401 567.955C762.195 568.3 761.891 568.571 761.488 568.769C761.092 568.967 760.619 569.066 760.069 569.066C759.189 569.066 758.485 568.85 757.957 568.417C757.436 567.985 757.161 567.332 757.132 566.459H758.958C758.965 566.782 759.057 567.039 759.233 567.229C759.409 567.413 759.665 567.504 760.003 567.504C760.289 567.504 760.509 567.424 760.663 567.262C760.824 567.094 760.905 566.874 760.905 566.602C760.905 566.25 760.791 565.997 760.564 565.843C760.344 565.682 759.988 565.601 759.497 565.601H759.145V564.072H759.497C759.871 564.072 760.172 564.01 760.399 563.885C760.634 563.753 760.751 563.522 760.751 563.192C760.751 562.928 760.677 562.723 760.531 562.576C760.384 562.43 760.182 562.356 759.926 562.356C759.647 562.356 759.438 562.441 759.299 562.609C759.167 562.778 759.09 562.987 759.068 563.236H757.231Z" fill="#B0B0B0"/>
<path fill-rule="evenodd" clip-rule="evenodd" d="M801.816 567.57V566.052L805.292 561.08H807.393V565.942H808.295V567.57H807.393V569H805.512V567.57H801.816ZM805.644 563.148L803.796 565.942H805.644V563.148Z" fill="#B0B0B0"/>
<path d="M852.572 562.609H849.14V564.127C849.286 563.966 849.492 563.834 849.756 563.731C850.02 563.628 850.306 563.577 850.614 563.577C851.164 563.577 851.618 563.702 851.978 563.951C852.344 564.2 852.612 564.523 852.781 564.919C852.949 565.315 853.034 565.744 853.034 566.206C853.034 567.064 852.792 567.746 852.308 568.252C851.824 568.751 851.142 569 850.262 569C849.675 569 849.165 568.901 848.733 568.703C848.3 568.498 847.966 568.215 847.732 567.856C847.497 567.497 847.369 567.082 847.347 566.613H849.184C849.228 566.84 849.334 567.031 849.503 567.185C849.671 567.332 849.902 567.405 850.196 567.405C850.54 567.405 850.797 567.295 850.966 567.075C851.134 566.855 851.219 566.562 851.219 566.195C851.219 565.836 851.131 565.561 850.955 565.37C850.779 565.179 850.522 565.084 850.185 565.084C849.935 565.084 849.73 565.146 849.569 565.271C849.407 565.388 849.301 565.546 849.25 565.744H847.435V560.959H852.572V562.609Z" fill="#B0B0B0"/>
<path fill-rule="evenodd" clip-rule="evenodd" d="M895.964 563.137C895.905 562.865 895.802 562.664 895.656 562.532C895.509 562.392 895.3 562.323 895.029 562.323C894.611 562.323 894.31 562.506 894.127 562.873C893.943 563.232 893.848 563.804 893.841 564.589C894.002 564.332 894.233 564.13 894.534 563.984C894.842 563.837 895.179 563.764 895.546 563.764C896.264 563.764 896.84 563.991 897.273 564.446C897.713 564.9 897.933 565.535 897.933 566.349C897.933 566.884 897.823 567.353 897.603 567.757C897.39 568.16 897.075 568.475 896.657 568.703C896.246 568.93 895.758 569.044 895.194 569.044C894.064 569.044 893.28 568.692 892.84 567.988C892.4 567.276 892.18 566.257 892.18 564.93C892.18 563.536 892.411 562.502 892.873 561.828C893.342 561.146 894.09 560.805 895.117 560.805C895.667 560.805 896.129 560.915 896.503 561.135C896.884 561.347 897.17 561.63 897.361 561.982C897.559 562.334 897.676 562.719 897.713 563.137H895.964ZM895.095 565.249C894.779 565.249 894.515 565.344 894.303 565.535C894.097 565.718 893.995 565.982 893.995 566.327C893.995 566.679 894.09 566.954 894.281 567.152C894.479 567.35 894.757 567.449 895.117 567.449C895.439 567.449 895.692 567.353 895.876 567.163C896.066 566.965 896.162 566.697 896.162 566.36C896.162 566.015 896.07 565.744 895.887 565.546C895.703 565.348 895.439 565.249 895.095 565.249Z" fill="#B0B0B0"/>
<path d="M942.677 562.378L939.916 569H937.991L940.785 562.587H937.364V560.981H942.677V562.378Z" fill="#B0B0B0"/>
<path fill-rule="evenodd" clip-rule="evenodd" d="M983.248 564.688C982.559 564.321 982.214 563.745 982.214 562.961C982.214 562.565 982.317 562.205 982.522 561.883C982.728 561.553 983.039 561.292 983.457 561.102C983.875 560.904 984.389 560.805 984.997 560.805C985.606 560.805 986.116 560.904 986.526 561.102C986.944 561.292 987.256 561.553 987.461 561.883C987.667 562.205 987.769 562.565 987.769 562.961C987.769 563.357 987.674 563.701 987.483 563.995C987.3 564.288 987.051 564.519 986.735 564.688C987.131 564.878 987.436 565.142 987.648 565.48C987.861 565.81 987.967 566.198 987.967 566.646C987.967 567.166 987.835 567.617 987.571 567.999C987.307 568.373 986.948 568.659 986.493 568.857C986.046 569.055 985.547 569.154 984.997 569.154C984.447 569.154 983.945 569.055 983.49 568.857C983.043 568.659 982.687 568.373 982.423 567.999C982.159 567.617 982.027 567.166 982.027 566.646C982.027 566.191 982.134 565.799 982.346 565.469C982.559 565.131 982.86 564.871 983.248 564.688ZM985.943 563.247C985.943 562.946 985.855 562.715 985.679 562.554C985.511 562.385 985.283 562.301 984.997 562.301C984.711 562.301 984.48 562.385 984.304 562.554C984.136 562.722 984.051 562.957 984.051 563.258C984.051 563.544 984.139 563.771 984.315 563.94C984.491 564.101 984.719 564.182 984.997 564.182C985.276 564.182 985.503 564.097 985.679 563.929C985.855 563.76 985.943 563.533 985.943 563.247ZM984.997 565.502C984.653 565.502 984.374 565.597 984.161 565.788C983.949 565.971 983.842 566.228 983.842 566.558C983.842 566.866 983.945 567.119 984.15 567.317C984.363 567.515 984.645 567.614 984.997 567.614C985.349 567.614 985.624 567.515 985.822 567.317C986.028 567.119 986.13 566.866 986.13 566.558C986.13 566.235 986.024 565.978 985.811 565.788C985.606 565.597 985.335 565.502 984.997 565.502Z" fill="#B0B0B0"/>
<path fill-rule="evenodd" clip-rule="evenodd" d="M1029.14 566.646C1029.25 567.226 1029.58 567.515 1030.15 567.515C1030.54 567.515 1030.81 567.343 1030.97 566.998C1031.13 566.654 1031.21 566.093 1031.21 565.315C1031.05 565.543 1030.83 565.719 1030.55 565.843C1030.28 565.968 1029.96 566.03 1029.62 566.03C1029.15 566.03 1028.73 565.935 1028.37 565.744C1028 565.546 1027.71 565.257 1027.5 564.875C1027.29 564.487 1027.19 564.017 1027.19 563.467C1027.19 562.925 1027.3 562.452 1027.52 562.048C1027.75 561.645 1028.06 561.333 1028.48 561.113C1028.89 560.893 1029.38 560.783 1029.95 560.783C1031.03 560.783 1031.79 561.121 1032.23 561.795C1032.66 562.47 1032.88 563.464 1032.88 564.776C1032.88 565.73 1032.79 566.518 1032.61 567.141C1032.44 567.757 1032.15 568.227 1031.74 568.549C1031.34 568.872 1030.79 569.033 1030.08 569.033C1029.52 569.033 1029.05 568.923 1028.65 568.703C1028.26 568.483 1027.96 568.194 1027.75 567.834C1027.54 567.475 1027.43 567.079 1027.4 566.646H1029.14ZM1030.05 564.545C1030.36 564.545 1030.6 564.454 1030.79 564.27C1030.97 564.08 1031.06 563.823 1031.06 563.5C1031.06 563.148 1030.97 562.877 1030.77 562.686C1030.58 562.496 1030.33 562.4 1030 562.4C1029.68 562.4 1029.43 562.499 1029.23 562.697C1029.05 562.888 1028.96 563.152 1028.96 563.489C1028.96 563.805 1029.05 564.061 1029.23 564.259C1029.43 564.45 1029.7 564.545 1030.05 564.545Z" fill="#B0B0B0"/>
<path d="M789.293 389.752C801.216 436.396 813.122 471.311 825 494.545C830.939 506.164 836.845 514.808 842.701 520.535C848.553 526.26 854.28 529 859.894 529C865.507 529 871.234 526.26 877.087 520.535C882.943 514.808 888.848 506.164 894.788 494.545C906.665 471.311 918.572 436.396 930.494 389.752C940.712 349.778 950.94 318.316 961.184 295.392C971.403 272.526 981.724 257.951 992.241 252.029C997.549 249.04 1002.92 248.246 1008.31 249.723C1013.67 251.192 1018.93 254.874 1024.11 260.631C1034.46 272.132 1044.72 292.186 1054.94 320.662L1053.06 321.338C1042.86 292.914 1032.7 273.168 1022.62 261.969C1017.59 256.377 1012.64 252.984 1007.78 251.652C1002.96 250.33 998.125 251.011 993.222 253.772C983.317 259.349 973.214 273.374 963.01 296.208C952.832 318.984 942.637 350.322 932.432 390.248C920.498 436.937 908.548 472.022 896.569 495.455C890.58 507.17 884.558 516.026 878.485 521.965C872.41 527.907 866.209 531 859.894 531C853.579 531 847.378 527.907 841.302 521.965C835.23 516.026 829.207 507.17 823.219 495.455C811.24 472.022 799.29 436.937 787.356 390.248C775.433 343.604 763.527 308.689 751.649 285.455C745.71 273.837 739.804 265.192 733.948 259.465C728.096 253.741 722.369 251 716.755 251C711.142 251 705.415 253.741 699.562 259.465C693.706 265.192 687.801 273.837 681.861 285.455C669.984 308.689 658.077 343.604 646.155 390.248C639.754 415.287 633.351 436.983 626.944 455.33L625.056 454.67C631.439 436.391 637.827 414.754 644.217 389.752C656.151 343.063 668.101 307.978 680.08 284.545C686.069 272.83 692.091 263.975 698.164 258.035C704.239 252.093 710.44 249 716.755 249C723.07 249 729.271 252.093 735.347 258.035C741.419 263.975 747.442 272.83 753.43 284.545C765.409 307.978 777.359 343.063 789.293 389.752Z" fill="#F36F25"/>
<path d="M607.343 382.929L613.707 389.293C614.098 389.683 614.098 390.316 613.707 390.707L607.343 397.071C606.953 397.461 606.319 397.461 605.929 397.071C605.538 396.68 605.538 396.047 605.929 395.657L610.586 391H547C546.448 391 546 390.552 546 390C546 389.448 546.448 389 547 389H610.586L605.929 384.343C605.538 383.952 605.538 383.319 605.929 382.929C606.319 382.538 606.953 382.538 607.343 382.929Z" fill="#F36F25"/>
<path d="M1157.34 383.929L1163.71 390.293C1164.1 390.683 1164.1 391.316 1163.71 391.707L1157.34 398.071C1156.95 398.461 1156.32 398.461 1155.93 398.071C1155.54 397.68 1155.54 397.047 1155.93 396.657L1160.59 392H1067C1066.45 392 1066 391.552 1066 391C1066 390.448 1066.45 390 1067 390H1160.59L1155.93 385.343C1155.54 384.952 1155.54 384.319 1155.93 383.929C1156.32 383.538 1156.95 383.538 1157.34 383.929Z" fill="#F36F25"/>
<path d="M750.014 390.247C761.917 343.603 773.803 308.688 785.661 285.455C791.591 273.836 797.487 265.191 803.333 259.464C809.176 253.74 814.893 251 820.495 251C826.098 251 831.815 253.74 837.658 259.464C843.504 265.191 849.4 273.836 855.33 285.455C867.188 308.688 879.074 343.603 890.977 390.247C902.891 436.937 914.821 472.022 926.78 495.455C932.759 507.169 938.771 516.025 944.834 521.964C950.899 527.907 957.091 531 963.396 531C969.702 531 975.893 527.907 981.959 521.964C988.021 516.025 994.033 507.169 1000.01 495.455C1011.97 472.022 1023.9 436.937 1035.82 390.247C1042.2 365.246 1048.57 343.608 1054.94 325.329L1053.06 324.671C1046.66 343.018 1040.27 364.713 1033.88 389.753C1021.97 436.397 1010.09 471.312 998.231 494.545C992.301 506.164 986.405 514.809 980.559 520.536C974.716 526.26 968.999 529 963.396 529C957.793 529 952.076 526.26 946.233 520.536C940.388 514.809 934.491 506.164 928.562 494.545C916.704 471.312 904.817 436.397 892.915 389.753C881.001 343.063 869.07 307.978 857.111 284.545C851.133 272.831 845.12 263.975 839.058 258.036C832.992 252.093 826.801 249 820.495 249C814.19 249 807.999 252.093 801.933 258.036C795.87 263.975 789.858 272.831 783.88 284.545C771.92 307.978 759.99 343.063 748.076 389.753C737.829 429.911 727.592 461.381 717.371 484.189C712.261 495.592 707.166 504.806 702.092 511.85C697.013 518.901 691.99 523.726 687.045 526.419C682.128 529.096 677.276 529.676 672.429 528.227C667.547 526.767 662.57 523.216 657.514 517.439C647.391 505.872 637.188 485.657 626.943 456.667L625.058 457.333C635.32 486.375 645.625 506.891 656.009 518.756C661.207 524.695 666.484 528.536 671.856 530.143C677.262 531.76 682.664 531.082 688.001 528.175C693.309 525.285 698.54 520.202 703.715 513.019C708.894 505.83 714.053 496.486 719.197 485.007C729.484 462.049 739.754 430.454 750.014 390.247Z" fill="#2A70DA"/>
<path d="M547 410C547 409.448 547.448 409 548 409H559.5C564.471 409 568.5 413.029 568.5 418V486C568.5 489.866 571.634 493 575.5 493H610.586L605.929 488.343C605.538 487.953 605.538 487.319 605.929 486.929C606.319 486.538 606.953 486.538 607.343 486.929L613.707 493.293C614.098 493.683 614.098 494.317 613.707 494.707L607.343 501.071C606.953 501.462 606.319 501.462 605.929 501.071C605.538 500.681 605.538 500.047 605.929 499.657L610.586 495H575.5C570.529 495 566.5 490.971 566.5 486V418C566.5 414.134 563.366 411 559.5 411H548C547.448 411 547 410.552 547 410Z" fill="#2A70DA"/>
<path d="M1066 495C1066 495.552 1066.45 496 1067 496H1112.5C1117.47 496 1121.5 491.971 1121.5 487V429C1121.5 425.134 1124.63 422 1128.5 422H1160.59L1155.93 426.657C1155.54 427.047 1155.54 427.681 1155.93 428.071C1156.32 428.462 1156.95 428.462 1157.34 428.071L1163.71 421.707C1164.1 421.317 1164.1 420.683 1163.71 420.293L1157.34 413.929C1156.95 413.538 1156.32 413.538 1155.93 413.929C1155.54 414.319 1155.54 414.953 1155.93 415.343L1160.59 420H1128.5C1123.53 420 1119.5 424.029 1119.5 429V487C1119.5 490.866 1116.37 494 1112.5 494H1067C1066.45 494 1066 494.448 1066 495Z" fill="#2A70DA"/>
<path d="M841.32 390.247C853.227 343.603 865.118 308.689 876.979 285.455C882.911 273.836 888.81 265.192 894.658 259.464C900.503 253.74 906.222 251 911.827 251C917.432 251 923.151 253.74 928.996 259.464C934.844 265.192 940.742 273.836 946.674 285.455C958.536 308.689 970.427 343.603 982.334 390.247C994.123 436.429 1005.93 471.256 1017.76 494.684C1023.67 506.396 1029.62 515.31 1035.61 521.372C1041.61 527.434 1047.73 530.716 1053.96 530.982L1054.04 528.984C1048.49 528.747 1042.83 525.82 1037.04 519.966C1031.25 514.111 1025.41 505.401 1019.54 493.782C1007.81 470.549 996.049 435.888 984.272 389.753C972.353 343.063 960.419 307.978 948.456 284.545C942.475 272.831 936.46 263.975 930.396 258.036C924.328 252.093 918.134 249 911.827 249C905.519 249 899.326 252.093 893.258 258.036C887.193 263.975 881.179 272.831 875.198 284.545C863.235 307.978 851.3 343.063 839.382 389.753C827.475 436.397 815.584 471.311 803.722 494.545C797.79 506.164 791.892 514.808 786.044 520.536C780.199 526.26 774.48 529 768.875 529C763.27 529 757.55 526.26 751.705 520.536C745.857 514.808 739.959 506.164 734.027 494.545C722.165 471.311 710.274 436.397 698.368 389.753C686.462 343.114 674.541 308.054 662.59 284.622C656.616 272.907 650.608 264.046 644.551 258.094C638.49 252.139 632.305 249.027 626.005 249L625.996 251C631.596 251.024 637.31 253.783 643.149 259.52C648.991 265.261 654.883 273.912 660.809 285.53C672.658 308.764 684.536 343.654 696.43 390.247C708.348 436.937 720.283 472.022 732.246 495.455C738.227 507.169 744.241 516.025 750.306 521.964C756.374 527.907 762.567 531 768.875 531C775.182 531 781.376 527.907 787.443 521.964C793.508 516.025 799.523 507.169 805.503 495.455C817.467 472.022 829.401 436.937 841.32 390.247Z" fill="#00BA6C"/>
<path d="M547 370C547 370.552 547.448 371 548 371H559.5C564.471 371 568.5 366.971 568.5 362V294C568.5 290.134 571.634 287 575.5 287H610.586L605.929 291.657C605.538 292.047 605.538 292.681 605.929 293.071C606.319 293.462 606.953 293.462 607.343 293.071L613.707 286.707C614.098 286.317 614.098 285.683 613.707 285.293L607.343 278.929C606.953 278.538 606.319 278.538 605.929 278.929C605.538 279.319 605.538 279.953 605.929 280.343L610.586 285H575.5C570.529 285 566.5 289.029 566.5 294V362C566.5 365.866 563.366 369 559.5 369H548C547.448 369 547 369.448 547 370Z" fill="#00BA6C"/>
<path d="M1066 287C1066 286.448 1066.45 286 1067 286H1112.5C1117.47 286 1121.5 290.029 1121.5 295V353C1121.5 356.866 1124.63 360 1128.5 360H1160.59L1155.93 355.343C1155.54 354.953 1155.54 354.319 1155.93 353.929C1156.32 353.538 1156.95 353.538 1157.34 353.929L1163.71 360.293C1164.1 360.683 1164.1 361.317 1163.71 361.707L1157.34 368.071C1156.95 368.462 1156.32 368.462 1155.93 368.071C1155.54 367.681 1155.54 367.047 1155.93 366.657L1160.59 362H1128.5C1123.53 362 1119.5 357.971 1119.5 353V295C1119.5 291.134 1116.37 288 1112.5 288H1067C1066.45 288 1066 287.552 1066 287Z" fill="#00BA6C"/>
</svg>
