<svg width="1680" height="592" viewBox="0 0 1680 592" fill="none" xmlns="http://www.w3.org/2000/svg">
<path d="M401.32 223.92C401.32 221.147 401.92 218.68 403.12 216.52C404.32 214.333 405.987 212.64 408.12 211.44C410.28 210.213 412.72 209.6 415.44 209.6C418.773 209.6 421.627 210.48 424 212.24C426.373 214 427.96 216.4 428.76 219.44H421.24C420.68 218.267 419.88 217.373 418.84 216.76C417.827 216.147 416.667 215.84 415.36 215.84C413.253 215.84 411.547 216.573 410.24 218.04C408.933 219.507 408.28 221.467 408.28 223.92C408.28 226.373 408.933 228.333 410.24 229.8C411.547 231.267 413.253 232 415.36 232C416.667 232 417.827 231.693 418.84 231.08C419.88 230.467 420.68 229.573 421.24 228.4H428.76C427.96 231.44 426.373 233.84 424 235.6C421.627 237.333 418.773 238.2 415.44 238.2C412.72 238.2 410.28 237.6 408.12 236.4C405.987 235.173 404.32 233.48 403.12 231.32C401.92 229.16 401.32 226.693 401.32 223.92ZM443.109 238.32C440.922 238.32 438.949 237.853 437.189 236.92C435.455 235.987 434.082 234.653 433.069 232.92C432.082 231.187 431.589 229.16 431.589 226.84C431.589 224.547 432.095 222.533 433.109 220.8C434.122 219.04 435.509 217.693 437.269 216.76C439.029 215.827 441.002 215.36 443.189 215.36C445.375 215.36 447.349 215.827 449.109 216.76C450.869 217.693 452.255 219.04 453.269 220.8C454.282 222.533 454.789 224.547 454.789 226.84C454.789 229.133 454.269 231.16 453.229 232.92C452.215 234.653 450.815 235.987 449.029 236.92C447.269 237.853 445.295 238.32 443.109 238.32ZM443.109 232.4C444.415 232.4 445.522 231.92 446.429 230.96C447.362 230 447.829 228.627 447.829 226.84C447.829 225.053 447.375 223.68 446.469 222.72C445.589 221.76 444.495 221.28 443.189 221.28C441.855 221.28 440.749 221.76 439.869 222.72C438.989 223.653 438.549 225.027 438.549 226.84C438.549 228.627 438.975 230 439.829 230.96C440.709 231.92 441.802 232.4 443.109 232.4ZM486.898 215.44C489.671 215.44 491.871 216.28 493.498 217.96C495.151 219.64 495.978 221.973 495.978 224.96V238H489.178V225.88C489.178 224.44 488.791 223.333 488.018 222.56C487.271 221.76 486.231 221.36 484.898 221.36C483.564 221.36 482.511 221.76 481.738 222.56C480.991 223.333 480.618 224.44 480.618 225.88V238H473.818V225.88C473.818 224.44 473.431 223.333 472.658 222.56C471.911 221.76 470.871 221.36 469.538 221.36C468.204 221.36 467.151 221.76 466.378 222.56C465.631 223.333 465.258 224.44 465.258 225.88V238H458.418V215.68H465.258V218.48C465.951 217.547 466.858 216.813 467.978 216.28C469.098 215.72 470.364 215.44 471.778 215.44C473.458 215.44 474.951 215.8 476.258 216.52C477.591 217.24 478.631 218.267 479.378 219.6C480.151 218.373 481.204 217.373 482.538 216.6C483.871 215.827 485.324 215.44 486.898 215.44ZM507.601 218.84C508.268 217.8 509.188 216.96 510.361 216.32C511.535 215.68 512.908 215.36 514.481 215.36C516.321 215.36 517.988 215.827 519.481 216.76C520.975 217.693 522.148 219.027 523.001 220.76C523.881 222.493 524.321 224.507 524.321 226.8C524.321 229.093 523.881 231.12 523.001 232.88C522.148 234.613 520.975 235.96 519.481 236.92C517.988 237.853 516.321 238.32 514.481 238.32C512.935 238.32 511.561 238 510.361 237.36C509.188 236.72 508.268 235.893 507.601 234.88V248.64H500.761V215.68H507.601V218.84ZM517.361 226.8C517.361 225.093 516.881 223.76 515.921 222.8C514.988 221.813 513.828 221.32 512.441 221.32C511.081 221.32 509.921 221.813 508.961 222.8C508.028 223.787 507.561 225.133 507.561 226.84C507.561 228.547 508.028 229.893 508.961 230.88C509.921 231.867 511.081 232.36 512.441 232.36C513.801 232.36 514.961 231.867 515.921 230.88C516.881 229.867 517.361 228.507 517.361 226.8ZM526.55 226.8C526.55 224.507 526.976 222.493 527.83 220.76C528.71 219.027 529.896 217.693 531.39 216.76C532.883 215.827 534.55 215.36 536.39 215.36C537.963 215.36 539.336 215.68 540.51 216.32C541.71 216.96 542.63 217.8 543.27 218.84V215.68H550.11V238H543.27V234.84C542.603 235.88 541.67 236.72 540.47 237.36C539.296 238 537.923 238.32 536.35 238.32C534.536 238.32 532.883 237.853 531.39 236.92C529.896 235.96 528.71 234.613 527.83 232.88C526.976 231.12 526.55 229.093 526.55 226.8ZM543.27 226.84C543.27 225.133 542.79 223.787 541.83 222.8C540.896 221.813 539.75 221.32 538.39 221.32C537.03 221.32 535.87 221.813 534.91 222.8C533.976 223.76 533.51 225.093 533.51 226.8C533.51 228.507 533.976 229.867 534.91 230.88C535.87 231.867 537.03 232.36 538.39 232.36C539.75 232.36 540.896 231.867 541.83 230.88C542.79 229.893 543.27 228.547 543.27 226.84ZM553.698 226.84C553.698 224.52 554.165 222.493 555.098 220.76C556.058 219.027 557.378 217.693 559.058 216.76C560.765 215.827 562.711 215.36 564.898 215.36C567.698 215.36 570.031 216.093 571.898 217.56C573.791 219.027 575.031 221.093 575.618 223.76H568.338C567.725 222.053 566.538 221.2 564.778 221.2C563.525 221.2 562.525 221.693 561.778 222.68C561.031 223.64 560.658 225.027 560.658 226.84C560.658 228.653 561.031 230.053 561.778 231.04C562.525 232 563.525 232.48 564.778 232.48C566.538 232.48 567.725 231.627 568.338 229.92H575.618C575.031 232.533 573.791 234.587 571.898 236.08C570.005 237.573 567.671 238.32 564.898 238.32C562.711 238.32 560.765 237.853 559.058 236.92C557.378 235.987 556.058 234.653 555.098 232.92C554.165 231.187 553.698 229.16 553.698 226.84ZM591.717 232.2V238H588.237C585.757 238 583.824 237.4 582.437 236.2C581.05 234.973 580.357 232.987 580.357 230.24V221.36H577.637V215.68H580.357V210.24H587.197V215.68H591.677V221.36H587.197V230.32C587.197 230.987 587.357 231.467 587.677 231.76C587.997 232.053 588.53 232.2 589.277 232.2H591.717ZM602.643 226.8C602.643 224.507 603.07 222.493 603.923 220.76C604.803 219.027 605.99 217.693 607.483 216.76C608.977 215.827 610.643 215.36 612.483 215.36C613.95 215.36 615.283 215.667 616.483 216.28C617.71 216.893 618.67 217.72 619.363 218.76V208.4H626.203V238H619.363V234.8C618.723 235.867 617.803 236.72 616.603 237.36C615.43 238 614.057 238.32 612.483 238.32C610.643 238.32 608.977 237.853 607.483 236.92C605.99 235.96 604.803 234.613 603.923 232.88C603.07 231.12 602.643 229.093 602.643 226.8ZM619.363 226.84C619.363 225.133 618.883 223.787 617.923 222.8C616.99 221.813 615.843 221.32 614.483 221.32C613.123 221.32 611.963 221.813 611.003 222.8C610.07 223.76 609.603 225.093 609.603 226.8C609.603 228.507 610.07 229.867 611.003 230.88C611.963 231.867 613.123 232.36 614.483 232.36C615.843 232.36 616.99 231.867 617.923 230.88C618.883 229.893 619.363 228.547 619.363 226.84ZM634.592 213.36C633.392 213.36 632.405 213.013 631.632 212.32C630.885 211.6 630.512 210.72 630.512 209.68C630.512 208.613 630.885 207.733 631.632 207.04C632.405 206.32 633.392 205.96 634.592 205.96C635.765 205.96 636.725 206.32 637.472 207.04C638.245 207.733 638.632 208.613 638.632 209.68C638.632 210.72 638.245 211.6 637.472 212.32C636.725 213.013 635.765 213.36 634.592 213.36ZM637.992 215.68V238H631.152V215.68H637.992ZM671.429 215.44C674.202 215.44 676.402 216.28 678.029 217.96C679.682 219.64 680.509 221.973 680.509 224.96V238H673.709V225.88C673.709 224.44 673.322 223.333 672.549 222.56C671.802 221.76 670.762 221.36 669.429 221.36C668.095 221.36 667.042 221.76 666.269 222.56C665.522 223.333 665.149 224.44 665.149 225.88V238H658.349V225.88C658.349 224.44 657.962 223.333 657.189 222.56C656.442 221.76 655.402 221.36 654.069 221.36C652.735 221.36 651.682 221.76 650.909 222.56C650.162 223.333 649.789 224.44 649.789 225.88V238H642.949V215.68H649.789V218.48C650.482 217.547 651.389 216.813 652.509 216.28C653.629 215.72 654.895 215.44 656.309 215.44C657.989 215.44 659.482 215.8 660.789 216.52C662.122 217.24 663.162 218.267 663.909 219.6C664.682 218.373 665.735 217.373 667.069 216.6C668.402 215.827 669.855 215.44 671.429 215.44ZM706.332 226.48C706.332 227.12 706.293 227.787 706.213 228.48H690.733C690.839 229.867 691.279 230.933 692.053 231.68C692.853 232.4 693.826 232.76 694.973 232.76C696.679 232.76 697.866 232.04 698.533 230.6H705.813C705.439 232.067 704.759 233.387 703.773 234.56C702.813 235.733 701.599 236.653 700.133 237.32C698.666 237.987 697.026 238.32 695.213 238.32C693.026 238.32 691.079 237.853 689.373 236.92C687.666 235.987 686.333 234.653 685.373 232.92C684.413 231.187 683.933 229.16 683.933 226.84C683.933 224.52 684.399 222.493 685.333 220.76C686.293 219.027 687.626 217.693 689.333 216.76C691.039 215.827 692.999 215.36 695.213 215.36C697.373 215.36 699.293 215.813 700.973 216.72C702.653 217.627 703.959 218.92 704.893 220.6C705.853 222.28 706.332 224.24 706.332 226.48ZM699.333 224.68C699.333 223.507 698.933 222.573 698.133 221.88C697.333 221.187 696.333 220.84 695.133 220.84C693.986 220.84 693.013 221.173 692.213 221.84C691.439 222.507 690.959 223.453 690.773 224.68H699.333ZM723.541 215.44C726.154 215.44 728.234 216.293 729.781 218C731.354 219.68 732.141 222 732.141 224.96V238H725.341V225.88C725.341 224.387 724.954 223.227 724.181 222.4C723.408 221.573 722.368 221.16 721.061 221.16C719.754 221.16 718.714 221.573 717.941 222.4C717.168 223.227 716.781 224.387 716.781 225.88V238H709.941V215.68H716.781V218.64C717.474 217.653 718.408 216.88 719.581 216.32C720.754 215.733 722.074 215.44 723.541 215.44ZM745.974 238.32C744.027 238.32 742.294 237.987 740.774 237.32C739.254 236.653 738.054 235.747 737.174 234.6C736.294 233.427 735.801 232.12 735.694 230.68H742.454C742.534 231.453 742.894 232.08 743.534 232.56C744.174 233.04 744.961 233.28 745.894 233.28C746.747 233.28 747.401 233.12 747.854 232.8C748.334 232.453 748.574 232.013 748.574 231.48C748.574 230.84 748.241 230.373 747.574 230.08C746.907 229.76 745.827 229.413 744.334 229.04C742.734 228.667 741.401 228.28 740.334 227.88C739.267 227.453 738.347 226.8 737.574 225.92C736.801 225.013 736.414 223.8 736.414 222.28C736.414 221 736.761 219.84 737.454 218.8C738.174 217.733 739.214 216.893 740.574 216.28C741.961 215.667 743.601 215.36 745.494 215.36C748.294 215.36 750.494 216.053 752.094 217.44C753.721 218.827 754.654 220.667 754.894 222.96H748.574C748.467 222.187 748.121 221.573 747.534 221.12C746.974 220.667 746.227 220.44 745.294 220.44C744.494 220.44 743.881 220.6 743.454 220.92C743.027 221.213 742.814 221.627 742.814 222.16C742.814 222.8 743.147 223.28 743.814 223.6C744.507 223.92 745.574 224.24 747.014 224.56C748.667 224.987 750.014 225.413 751.054 225.84C752.094 226.24 753.001 226.907 753.774 227.84C754.574 228.747 754.987 229.973 755.014 231.52C755.014 232.827 754.641 234 753.894 235.04C753.174 236.053 752.121 236.853 750.734 237.44C749.374 238.027 747.787 238.32 745.974 238.32ZM762.639 213.36C761.439 213.36 760.452 213.013 759.679 212.32C758.932 211.6 758.559 210.72 758.559 209.68C758.559 208.613 758.932 207.733 759.679 207.04C760.452 206.32 761.439 205.96 762.639 205.96C763.812 205.96 764.772 206.32 765.519 207.04C766.292 207.733 766.679 208.613 766.679 209.68C766.679 210.72 766.292 211.6 765.519 212.32C764.772 213.013 763.812 213.36 762.639 213.36ZM766.039 215.68V238H759.199V215.68H766.039ZM781.156 238.32C778.969 238.32 776.996 237.853 775.236 236.92C773.502 235.987 772.129 234.653 771.116 232.92C770.129 231.187 769.636 229.16 769.636 226.84C769.636 224.547 770.142 222.533 771.156 220.8C772.169 219.04 773.556 217.693 775.316 216.76C777.076 215.827 779.049 215.36 781.236 215.36C783.422 215.36 785.396 215.827 787.156 216.76C788.916 217.693 790.302 219.04 791.316 220.8C792.329 222.533 792.836 224.547 792.836 226.84C792.836 229.133 792.316 231.16 791.276 232.92C790.262 234.653 788.862 235.987 787.076 236.92C785.316 237.853 783.342 238.32 781.156 238.32ZM781.156 232.4C782.462 232.4 783.569 231.92 784.476 230.96C785.409 230 785.876 228.627 785.876 226.84C785.876 225.053 785.422 223.68 784.516 222.72C783.636 221.76 782.542 221.28 781.236 221.28C779.902 221.28 778.796 221.76 777.916 222.72C777.036 223.653 776.596 225.027 776.596 226.84C776.596 228.627 777.022 230 777.876 230.96C778.756 231.92 779.849 232.4 781.156 232.4ZM810.064 215.44C812.678 215.44 814.758 216.293 816.304 218C817.878 219.68 818.664 222 818.664 224.96V238H811.864V225.88C811.864 224.387 811.478 223.227 810.704 222.4C809.931 221.573 808.891 221.16 807.584 221.16C806.278 221.16 805.238 221.573 804.464 222.4C803.691 223.227 803.304 224.387 803.304 225.88V238H796.464V215.68H803.304V218.64C803.998 217.653 804.931 216.88 806.104 216.32C807.278 215.733 808.598 215.44 810.064 215.44ZM832.498 238.32C830.551 238.32 828.818 237.987 827.298 237.32C825.778 236.653 824.578 235.747 823.698 234.6C822.818 233.427 822.324 232.12 822.218 230.68H828.978C829.058 231.453 829.418 232.08 830.058 232.56C830.698 233.04 831.484 233.28 832.418 233.28C833.271 233.28 833.924 233.12 834.378 232.8C834.858 232.453 835.098 232.013 835.098 231.48C835.098 230.84 834.764 230.373 834.098 230.08C833.431 229.76 832.351 229.413 830.858 229.04C829.258 228.667 827.924 228.28 826.858 227.88C825.791 227.453 824.871 226.8 824.098 225.92C823.324 225.013 822.938 223.8 822.938 222.28C822.938 221 823.284 219.84 823.978 218.8C824.698 217.733 825.738 216.893 827.098 216.28C828.484 215.667 830.124 215.36 832.018 215.36C834.818 215.36 837.018 216.053 838.618 217.44C840.244 218.827 841.178 220.667 841.418 222.96H835.098C834.991 222.187 834.644 221.573 834.058 221.12C833.498 220.667 832.751 220.44 831.818 220.44C831.018 220.44 830.404 220.6 829.978 220.92C829.551 221.213 829.338 221.627 829.338 222.16C829.338 222.8 829.671 223.28 830.338 223.6C831.031 223.92 832.098 224.24 833.538 224.56C835.191 224.987 836.538 225.413 837.578 225.84C838.618 226.24 839.524 226.907 840.298 227.84C841.098 228.747 841.511 229.973 841.538 231.52C841.538 232.827 841.164 234 840.418 235.04C839.698 236.053 838.644 236.853 837.258 237.44C835.898 238.027 834.311 238.32 832.498 238.32ZM853.082 231.68L848.642 243.16H844.282L846.602 231.68H853.082ZM879.403 215.44C881.963 215.44 884.016 216.293 885.563 218C887.11 219.68 887.883 222 887.883 224.96V238H881.083V225.88C881.083 224.387 880.696 223.227 879.923 222.4C879.15 221.573 878.11 221.16 876.803 221.16C875.496 221.16 874.456 221.573 873.683 222.4C872.91 223.227 872.523 224.387 872.523 225.88V238H865.683V208.4H872.523V218.68C873.216 217.693 874.163 216.907 875.363 216.32C876.563 215.733 877.91 215.44 879.403 215.44ZM896.076 213.36C894.876 213.36 893.89 213.013 893.116 212.32C892.37 211.6 891.996 210.72 891.996 209.68C891.996 208.613 892.37 207.733 893.116 207.04C893.89 206.32 894.876 205.96 896.076 205.96C897.25 205.96 898.21 206.32 898.956 207.04C899.73 207.733 900.116 208.613 900.116 209.68C900.116 210.72 899.73 211.6 898.956 212.32C898.21 213.013 897.25 213.36 896.076 213.36ZM899.476 215.68V238H892.636V215.68H899.476ZM912.913 215.36C914.486 215.36 915.86 215.68 917.033 216.32C918.233 216.96 919.153 217.8 919.793 218.84V215.68H926.633V237.96C926.633 240.013 926.22 241.867 925.393 243.52C924.593 245.2 923.353 246.533 921.673 247.52C920.02 248.507 917.953 249 915.473 249C912.166 249 909.486 248.213 907.433 246.64C905.38 245.093 904.206 242.987 903.913 240.32H910.673C910.886 241.173 911.393 241.84 912.193 242.32C912.993 242.827 913.98 243.08 915.153 243.08C916.566 243.08 917.686 242.667 918.513 241.84C919.366 241.04 919.793 239.747 919.793 237.96V234.8C919.126 235.84 918.206 236.693 917.033 237.36C915.86 238 914.486 238.32 912.913 238.32C911.073 238.32 909.406 237.853 907.913 236.92C906.42 235.96 905.233 234.613 904.353 232.88C903.5 231.12 903.073 229.093 903.073 226.8C903.073 224.507 903.5 222.493 904.353 220.76C905.233 219.027 906.42 217.693 907.913 216.76C909.406 215.827 911.073 215.36 912.913 215.36ZM919.793 226.84C919.793 225.133 919.313 223.787 918.353 222.8C917.42 221.813 916.273 221.32 914.913 221.32C913.553 221.32 912.393 221.813 911.433 222.8C910.5 223.76 910.033 225.093 910.033 226.8C910.033 228.507 910.5 229.867 911.433 230.88C912.393 231.867 913.553 232.36 914.913 232.36C916.273 232.36 917.42 231.867 918.353 230.88C919.313 229.893 919.793 228.547 919.793 226.84ZM945.302 215.44C947.862 215.44 949.915 216.293 951.462 218C953.008 219.68 953.782 222 953.782 224.96V238H946.982V225.88C946.982 224.387 946.595 223.227 945.822 222.4C945.048 221.573 944.008 221.16 942.702 221.16C941.395 221.16 940.355 221.573 939.582 222.4C938.808 223.227 938.422 224.387 938.422 225.88V238H931.582V208.4H938.422V218.68C939.115 217.693 940.062 216.907 941.262 216.32C942.462 215.733 943.808 215.44 945.302 215.44ZM975.735 221.12V226.8H958.135V221.12H975.735ZM980.378 226.88C980.378 224.667 980.831 222.693 981.738 220.96C982.671 219.227 983.911 217.88 985.458 216.92C987.031 215.933 988.738 215.44 990.578 215.44C991.991 215.44 993.258 215.693 994.378 216.2C995.498 216.68 996.404 217.36 997.098 218.24V215.68H1003.94V248.64H997.098V235.2C996.324 236.133 995.378 236.88 994.258 237.44C993.164 238 991.911 238.28 990.498 238.28C988.684 238.28 987.004 237.8 985.458 236.84C983.911 235.88 982.671 234.533 981.738 232.8C980.831 231.067 980.378 229.093 980.378 226.88ZM997.098 226.84C997.098 225.64 996.858 224.64 996.378 223.84C995.924 223.013 995.324 222.4 994.578 222C993.831 221.573 993.044 221.36 992.218 221.36C991.418 221.36 990.644 221.573 989.898 222C989.151 222.4 988.538 223.013 988.058 223.84C987.578 224.667 987.338 225.68 987.338 226.88C987.338 228.08 987.578 229.093 988.058 229.92C988.538 230.72 989.151 231.333 989.898 231.76C990.644 232.16 991.418 232.36 992.218 232.36C993.018 232.36 993.791 232.16 994.538 231.76C995.311 231.333 995.924 230.707 996.378 229.88C996.858 229.053 997.098 228.04 997.098 226.84ZM1030.93 215.68V238H1024.09V234.96C1023.39 235.947 1022.45 236.747 1021.25 237.36C1020.07 237.947 1018.77 238.24 1017.33 238.24C1015.62 238.24 1014.11 237.867 1012.81 237.12C1011.5 236.347 1010.49 235.24 1009.77 233.8C1009.05 232.36 1008.69 230.667 1008.69 228.72V215.68H1015.49V227.8C1015.49 229.293 1015.87 230.453 1016.65 231.28C1017.42 232.107 1018.46 232.52 1019.77 232.52C1021.1 232.52 1022.15 232.107 1022.93 231.28C1023.7 230.453 1024.09 229.293 1024.09 227.8V215.68H1030.93ZM1034.48 226.8C1034.48 224.507 1034.91 222.493 1035.76 220.76C1036.64 219.027 1037.83 217.693 1039.32 216.76C1040.81 215.827 1042.48 215.36 1044.32 215.36C1045.89 215.36 1047.27 215.68 1048.44 216.32C1049.64 216.96 1050.56 217.8 1051.2 218.84V215.68H1058.04V238H1051.2V234.84C1050.53 235.88 1049.6 236.72 1048.4 237.36C1047.23 238 1045.85 238.32 1044.28 238.32C1042.47 238.32 1040.81 237.853 1039.32 236.92C1037.83 235.96 1036.64 234.613 1035.76 232.88C1034.91 231.12 1034.48 229.093 1034.48 226.8ZM1051.2 226.84C1051.2 225.133 1050.72 223.787 1049.76 222.8C1048.83 221.813 1047.68 221.32 1046.32 221.32C1044.96 221.32 1043.8 221.813 1042.84 222.8C1041.91 223.76 1041.44 225.093 1041.44 226.8C1041.44 228.507 1041.91 229.867 1042.84 230.88C1043.8 231.867 1044.96 232.36 1046.32 232.36C1047.68 232.36 1048.83 231.867 1049.76 230.88C1050.72 229.893 1051.2 228.547 1051.2 226.84ZM1069.83 208.4V238H1062.99V208.4H1069.83ZM1078.22 213.36C1077.02 213.36 1076.04 213.013 1075.26 212.32C1074.52 211.6 1074.14 210.72 1074.14 209.68C1074.14 208.613 1074.52 207.733 1075.26 207.04C1076.04 206.32 1077.02 205.96 1078.22 205.96C1079.4 205.96 1080.36 206.32 1081.1 207.04C1081.88 207.733 1082.26 208.613 1082.26 209.68C1082.26 210.72 1081.88 211.6 1081.1 212.32C1080.36 213.013 1079.4 213.36 1078.22 213.36ZM1081.62 215.68V238H1074.78V215.68H1081.62ZM1099.02 232.2V238H1095.54C1093.06 238 1091.13 237.4 1089.74 236.2C1088.35 234.973 1087.66 232.987 1087.66 230.24V221.36H1084.94V215.68H1087.66V210.24H1094.5V215.68H1098.98V221.36H1094.5V230.32C1094.5 230.987 1094.66 231.467 1094.98 231.76C1095.3 232.053 1095.83 232.2 1096.58 232.2H1099.02ZM1125.63 215.68L1111.63 248.6H1104.27L1109.39 237.24L1100.31 215.68H1107.95L1113.11 229.64L1118.23 215.68H1125.63ZM401.12 274.8C401.12 272.507 401.547 270.493 402.4 268.76C403.28 267.027 404.467 265.693 405.96 264.76C407.453 263.827 409.12 263.36 410.96 263.36C412.533 263.36 413.907 263.68 415.08 264.32C416.28 264.96 417.2 265.8 417.84 266.84V263.68H424.68V286H417.84V282.84C417.173 283.88 416.24 284.72 415.04 285.36C413.867 286 412.493 286.32 410.92 286.32C409.107 286.32 407.453 285.853 405.96 284.92C404.467 283.96 403.28 282.613 402.4 280.88C401.547 279.12 401.12 277.093 401.12 274.8ZM417.84 274.84C417.84 273.133 417.36 271.787 416.4 270.8C415.467 269.813 414.32 269.32 412.96 269.32C411.6 269.32 410.44 269.813 409.48 270.8C408.547 271.76 408.08 273.093 408.08 274.8C408.08 276.507 408.547 277.867 409.48 278.88C410.44 279.867 411.6 280.36 412.96 280.36C414.32 280.36 415.467 279.867 416.4 278.88C417.36 277.893 417.84 276.547 417.84 274.84ZM438.708 286.32C436.762 286.32 435.028 285.987 433.508 285.32C431.988 284.653 430.788 283.747 429.908 282.6C429.028 281.427 428.535 280.12 428.428 278.68H435.188C435.268 279.453 435.628 280.08 436.268 280.56C436.908 281.04 437.695 281.28 438.628 281.28C439.482 281.28 440.135 281.12 440.588 280.8C441.068 280.453 441.308 280.013 441.308 279.48C441.308 278.84 440.975 278.373 440.308 278.08C439.642 277.76 438.562 277.413 437.068 277.04C435.468 276.667 434.135 276.28 433.068 275.88C432.002 275.453 431.082 274.8 430.308 273.92C429.535 273.013 429.148 271.8 429.148 270.28C429.148 269 429.495 267.84 430.188 266.8C430.908 265.733 431.948 264.893 433.308 264.28C434.695 263.667 436.335 263.36 438.228 263.36C441.028 263.36 443.228 264.053 444.828 265.44C446.455 266.827 447.388 268.667 447.628 270.96H441.308C441.202 270.187 440.855 269.573 440.268 269.12C439.708 268.667 438.962 268.44 438.028 268.44C437.228 268.44 436.615 268.6 436.188 268.92C435.762 269.213 435.548 269.627 435.548 270.16C435.548 270.8 435.882 271.28 436.548 271.6C437.242 271.92 438.308 272.24 439.748 272.56C441.402 272.987 442.748 273.413 443.788 273.84C444.828 274.24 445.735 274.907 446.508 275.84C447.308 276.747 447.722 277.973 447.748 279.52C447.748 280.827 447.375 282 446.628 283.04C445.908 284.053 444.855 284.853 443.468 285.44C442.108 286.027 440.522 286.32 438.708 286.32ZM461.013 286.32C459.066 286.32 457.333 285.987 455.813 285.32C454.293 284.653 453.093 283.747 452.213 282.6C451.333 281.427 450.84 280.12 450.733 278.68H457.493C457.573 279.453 457.933 280.08 458.573 280.56C459.213 281.04 460 281.28 460.933 281.28C461.786 281.28 462.44 281.12 462.893 280.8C463.373 280.453 463.613 280.013 463.613 279.48C463.613 278.84 463.28 278.373 462.613 278.08C461.946 277.76 460.866 277.413 459.373 277.04C457.773 276.667 456.44 276.28 455.373 275.88C454.306 275.453 453.386 274.8 452.613 273.92C451.84 273.013 451.453 271.8 451.453 270.28C451.453 269 451.8 267.84 452.493 266.8C453.213 265.733 454.253 264.893 455.613 264.28C457 263.667 458.64 263.36 460.533 263.36C463.333 263.36 465.533 264.053 467.133 265.44C468.76 266.827 469.693 268.667 469.933 270.96H463.613C463.506 270.187 463.16 269.573 462.573 269.12C462.013 268.667 461.266 268.44 460.333 268.44C459.533 268.44 458.92 268.6 458.493 268.92C458.066 269.213 457.853 269.627 457.853 270.16C457.853 270.8 458.186 271.28 458.853 271.6C459.546 271.92 460.613 272.24 462.053 272.56C463.706 272.987 465.053 273.413 466.093 273.84C467.133 274.24 468.04 274.907 468.813 275.84C469.613 276.747 470.026 277.973 470.053 279.52C470.053 280.827 469.68 282 468.933 283.04C468.213 284.053 467.16 284.853 465.773 285.44C464.413 286.027 462.826 286.32 461.013 286.32ZM495.278 274.48C495.278 275.12 495.238 275.787 495.158 276.48H479.678C479.784 277.867 480.224 278.933 480.998 279.68C481.798 280.4 482.771 280.76 483.918 280.76C485.624 280.76 486.811 280.04 487.478 278.6H494.758C494.384 280.067 493.704 281.387 492.718 282.56C491.758 283.733 490.544 284.653 489.078 285.32C487.611 285.987 485.971 286.32 484.158 286.32C481.971 286.32 480.024 285.853 478.318 284.92C476.611 283.987 475.278 282.653 474.318 280.92C473.358 279.187 472.878 277.16 472.878 274.84C472.878 272.52 473.344 270.493 474.278 268.76C475.238 267.027 476.571 265.693 478.278 264.76C479.984 263.827 481.944 263.36 484.158 263.36C486.318 263.36 488.238 263.813 489.918 264.72C491.598 265.627 492.904 266.92 493.838 268.6C494.798 270.28 495.278 272.24 495.278 274.48ZM488.278 272.68C488.278 271.507 487.878 270.573 487.078 269.88C486.278 269.187 485.278 268.84 484.078 268.84C482.931 268.84 481.958 269.173 481.158 269.84C480.384 270.507 479.904 271.453 479.718 272.68H488.278ZM527.366 263.44C530.14 263.44 532.34 264.28 533.966 265.96C535.62 267.64 536.446 269.973 536.446 272.96V286H529.646V273.88C529.646 272.44 529.26 271.333 528.486 270.56C527.74 269.76 526.7 269.36 525.366 269.36C524.033 269.36 522.98 269.76 522.206 270.56C521.46 271.333 521.086 272.44 521.086 273.88V286H514.286V273.88C514.286 272.44 513.9 271.333 513.126 270.56C512.38 269.76 511.34 269.36 510.006 269.36C508.673 269.36 507.62 269.76 506.846 270.56C506.1 271.333 505.726 272.44 505.726 273.88V286H498.886V263.68H505.726V266.48C506.42 265.547 507.326 264.813 508.446 264.28C509.566 263.72 510.833 263.44 512.246 263.44C513.926 263.44 515.42 263.8 516.726 264.52C518.06 265.24 519.1 266.267 519.846 267.6C520.62 266.373 521.673 265.373 523.006 264.6C524.34 263.827 525.793 263.44 527.366 263.44ZM548.07 266.84C548.71 265.8 549.63 264.96 550.83 264.32C552.03 263.68 553.403 263.36 554.95 263.36C556.79 263.36 558.457 263.827 559.95 264.76C561.443 265.693 562.617 267.027 563.47 268.76C564.35 270.493 564.79 272.507 564.79 274.8C564.79 277.093 564.35 279.12 563.47 280.88C562.617 282.613 561.443 283.96 559.95 284.92C558.457 285.853 556.79 286.32 554.95 286.32C553.377 286.32 552.003 286.013 550.83 285.4C549.657 284.76 548.737 283.92 548.07 282.88V286H541.23V256.4H548.07V266.84ZM557.83 274.8C557.83 273.093 557.35 271.76 556.39 270.8C555.457 269.813 554.297 269.32 552.91 269.32C551.55 269.32 550.39 269.813 549.43 270.8C548.497 271.787 548.03 273.133 548.03 274.84C548.03 276.547 548.497 277.893 549.43 278.88C550.39 279.867 551.55 280.36 552.91 280.36C554.27 280.36 555.43 279.867 556.39 278.88C557.35 277.867 557.83 276.507 557.83 274.8ZM575.218 256.4V286H568.378V256.4H575.218ZM602.975 263.68L588.975 296.6H581.615L586.735 285.24L577.655 263.68H585.295L590.455 277.64L595.575 263.68H602.975ZM612.809 279.68L608.369 291.16H604.009L606.329 279.68H612.809ZM639.13 263.44C641.69 263.44 643.743 264.293 645.29 266C646.836 267.68 647.61 270 647.61 272.96V286H640.81V273.88C640.81 272.387 640.423 271.227 639.65 270.4C638.876 269.573 637.836 269.16 636.53 269.16C635.223 269.16 634.183 269.573 633.41 270.4C632.636 271.227 632.25 272.387 632.25 273.88V286H625.41V256.4H632.25V266.68C632.943 265.693 633.89 264.907 635.09 264.32C636.29 263.733 637.636 263.44 639.13 263.44ZM655.803 261.36C654.603 261.36 653.616 261.013 652.843 260.32C652.096 259.6 651.723 258.72 651.723 257.68C651.723 256.613 652.096 255.733 652.843 255.04C653.616 254.32 654.603 253.96 655.803 253.96C656.976 253.96 657.936 254.32 658.683 255.04C659.456 255.733 659.843 256.613 659.843 257.68C659.843 258.72 659.456 259.6 658.683 260.32C657.936 261.013 656.976 261.36 655.803 261.36ZM659.203 263.68V286H652.363V263.68H659.203ZM672.64 263.36C674.213 263.36 675.586 263.68 676.76 264.32C677.96 264.96 678.88 265.8 679.52 266.84V263.68H686.36V285.96C686.36 288.013 685.946 289.867 685.12 291.52C684.32 293.2 683.08 294.533 681.4 295.52C679.746 296.507 677.68 297 675.2 297C671.893 297 669.213 296.213 667.16 294.64C665.106 293.093 663.933 290.987 663.64 288.32H670.4C670.613 289.173 671.12 289.84 671.92 290.32C672.72 290.827 673.706 291.08 674.88 291.08C676.293 291.08 677.413 290.667 678.24 289.84C679.093 289.04 679.52 287.747 679.52 285.96V282.8C678.853 283.84 677.933 284.693 676.76 285.36C675.586 286 674.213 286.32 672.64 286.32C670.8 286.32 669.133 285.853 667.64 284.92C666.146 283.96 664.96 282.613 664.08 280.88C663.226 279.12 662.8 277.093 662.8 274.8C662.8 272.507 663.226 270.493 664.08 268.76C664.96 267.027 666.146 265.693 667.64 264.76C669.133 263.827 670.8 263.36 672.64 263.36ZM679.52 274.84C679.52 273.133 679.04 271.787 678.08 270.8C677.146 269.813 676 269.32 674.64 269.32C673.28 269.32 672.12 269.813 671.16 270.8C670.226 271.76 669.76 273.093 669.76 274.8C669.76 276.507 670.226 277.867 671.16 278.88C672.12 279.867 673.28 280.36 674.64 280.36C676 280.36 677.146 279.867 678.08 278.88C679.04 277.893 679.52 276.547 679.52 274.84ZM705.028 263.44C707.588 263.44 709.641 264.293 711.188 266C712.735 267.68 713.508 270 713.508 272.96V286H706.708V273.88C706.708 272.387 706.321 271.227 705.548 270.4C704.775 269.573 703.735 269.16 702.428 269.16C701.121 269.16 700.081 269.573 699.308 270.4C698.535 271.227 698.148 272.387 698.148 273.88V286H691.308V256.4H698.148V266.68C698.841 265.693 699.788 264.907 700.988 264.32C702.188 263.733 703.535 263.44 705.028 263.44ZM733.578 266.84C734.244 265.8 735.164 264.96 736.338 264.32C737.511 263.68 738.884 263.36 740.458 263.36C742.298 263.36 743.964 263.827 745.458 264.76C746.951 265.693 748.124 267.027 748.978 268.76C749.858 270.493 750.298 272.507 750.298 274.8C750.298 277.093 749.858 279.12 748.978 280.88C748.124 282.613 746.951 283.96 745.458 284.92C743.964 285.853 742.298 286.32 740.458 286.32C738.911 286.32 737.538 286 736.338 285.36C735.164 284.72 734.244 283.893 733.578 282.88V296.64H726.738V263.68H733.578V266.84ZM743.338 274.8C743.338 273.093 742.858 271.76 741.898 270.8C740.964 269.813 739.804 269.32 738.418 269.32C737.058 269.32 735.898 269.813 734.938 270.8C734.004 271.787 733.538 273.133 733.538 274.84C733.538 276.547 734.004 277.893 734.938 278.88C735.898 279.867 737.058 280.36 738.418 280.36C739.778 280.36 740.938 279.867 741.898 278.88C742.858 277.867 743.338 276.507 743.338 274.8ZM764.046 286.32C761.86 286.32 759.886 285.853 758.126 284.92C756.393 283.987 755.02 282.653 754.006 280.92C753.02 279.187 752.526 277.16 752.526 274.84C752.526 272.547 753.033 270.533 754.046 268.8C755.06 267.04 756.446 265.693 758.206 264.76C759.966 263.827 761.94 263.36 764.126 263.36C766.313 263.36 768.286 263.827 770.046 264.76C771.806 265.693 773.193 267.04 774.206 268.8C775.22 270.533 775.726 272.547 775.726 274.84C775.726 277.133 775.206 279.16 774.166 280.92C773.153 282.653 771.753 283.987 769.966 284.92C768.206 285.853 766.233 286.32 764.046 286.32ZM764.046 280.4C765.353 280.4 766.46 279.92 767.366 278.96C768.3 278 768.766 276.627 768.766 274.84C768.766 273.053 768.313 271.68 767.406 270.72C766.526 269.76 765.433 269.28 764.126 269.28C762.793 269.28 761.686 269.76 760.806 270.72C759.926 271.653 759.486 273.027 759.486 274.84C759.486 276.627 759.913 278 760.766 278.96C761.646 279.92 762.74 280.4 764.046 280.4ZM811.395 263.68L805.355 286H797.795L794.275 271.52L790.635 286H783.115L777.035 263.68H783.875L787.035 279.64L790.795 263.68H798.035L801.835 279.56L804.955 263.68H811.395ZM835.043 274.48C835.043 275.12 835.003 275.787 834.923 276.48H819.443C819.55 277.867 819.99 278.933 820.763 279.68C821.563 280.4 822.537 280.76 823.683 280.76C825.39 280.76 826.577 280.04 827.243 278.6H834.523C834.15 280.067 833.47 281.387 832.483 282.56C831.523 283.733 830.31 284.653 828.843 285.32C827.377 285.987 825.737 286.32 823.923 286.32C821.737 286.32 819.79 285.853 818.083 284.92C816.377 283.987 815.043 282.653 814.083 280.92C813.123 279.187 812.643 277.16 812.643 274.84C812.643 272.52 813.11 270.493 814.043 268.76C815.003 267.027 816.337 265.693 818.043 264.76C819.75 263.827 821.71 263.36 823.923 263.36C826.083 263.36 828.003 263.813 829.683 264.72C831.363 265.627 832.67 266.92 833.603 268.6C834.563 270.28 835.043 272.24 835.043 274.48ZM828.043 272.68C828.043 271.507 827.643 270.573 826.843 269.88C826.043 269.187 825.043 268.84 823.843 268.84C822.697 268.84 821.723 269.173 820.923 269.84C820.15 270.507 819.67 271.453 819.483 272.68H828.043ZM845.492 267.4C846.292 266.173 847.292 265.213 848.492 264.52C849.692 263.8 851.025 263.44 852.492 263.44V270.68H850.612C848.905 270.68 847.625 271.053 846.772 271.8C845.919 272.52 845.492 273.8 845.492 275.64V286H838.652V263.68H845.492V267.4ZM863.121 279.68L858.681 291.16H854.321L856.641 279.68H863.121ZM889.442 263.44C892.002 263.44 894.056 264.293 895.602 266C897.149 267.68 897.922 270 897.922 272.96V286H891.122V273.88C891.122 272.387 890.736 271.227 889.962 270.4C889.189 269.573 888.149 269.16 886.842 269.16C885.536 269.16 884.496 269.573 883.722 270.4C882.949 271.227 882.562 272.387 882.562 273.88V286H875.722V256.4H882.562V266.68C883.256 265.693 884.202 264.907 885.402 264.32C886.602 263.733 887.949 263.44 889.442 263.44ZM906.115 261.36C904.915 261.36 903.929 261.013 903.155 260.32C902.409 259.6 902.035 258.72 902.035 257.68C902.035 256.613 902.409 255.733 903.155 255.04C903.929 254.32 904.915 253.96 906.115 253.96C907.289 253.96 908.249 254.32 908.995 255.04C909.769 255.733 910.155 256.613 910.155 257.68C910.155 258.72 909.769 259.6 908.995 260.32C908.249 261.013 907.289 261.36 906.115 261.36ZM909.515 263.68V286H902.675V263.68H909.515ZM922.952 263.36C924.526 263.36 925.899 263.68 927.072 264.32C928.272 264.96 929.192 265.8 929.832 266.84V263.68H936.672V285.96C936.672 288.013 936.259 289.867 935.432 291.52C934.632 293.2 933.392 294.533 931.712 295.52C930.059 296.507 927.992 297 925.512 297C922.206 297 919.526 296.213 917.472 294.64C915.419 293.093 914.246 290.987 913.952 288.32H920.712C920.926 289.173 921.432 289.84 922.232 290.32C923.032 290.827 924.019 291.08 925.192 291.08C926.606 291.08 927.726 290.667 928.552 289.84C929.406 289.04 929.832 287.747 929.832 285.96V282.8C929.166 283.84 928.246 284.693 927.072 285.36C925.899 286 924.526 286.32 922.952 286.32C921.112 286.32 919.446 285.853 917.952 284.92C916.459 283.96 915.272 282.613 914.392 280.88C913.539 279.12 913.112 277.093 913.112 274.8C913.112 272.507 913.539 270.493 914.392 268.76C915.272 267.027 916.459 265.693 917.952 264.76C919.446 263.827 921.112 263.36 922.952 263.36ZM929.832 274.84C929.832 273.133 929.352 271.787 928.392 270.8C927.459 269.813 926.312 269.32 924.952 269.32C923.592 269.32 922.432 269.813 921.472 270.8C920.539 271.76 920.072 273.093 920.072 274.8C920.072 276.507 920.539 277.867 921.472 278.88C922.432 279.867 923.592 280.36 924.952 280.36C926.312 280.36 927.459 279.867 928.392 278.88C929.352 277.893 929.832 276.547 929.832 274.84ZM955.341 263.44C957.901 263.44 959.954 264.293 961.501 266C963.047 267.68 963.821 270 963.821 272.96V286H957.021V273.88C957.021 272.387 956.634 271.227 955.861 270.4C955.087 269.573 954.047 269.16 952.741 269.16C951.434 269.16 950.394 269.573 949.621 270.4C948.847 271.227 948.461 272.387 948.461 273.88V286H941.621V256.4H948.461V266.68C949.154 265.693 950.101 264.907 951.301 264.32C952.501 263.733 953.847 263.44 955.341 263.44ZM983.89 266.84C984.557 265.8 985.477 264.96 986.65 264.32C987.824 263.68 989.197 263.36 990.77 263.36C992.61 263.36 994.277 263.827 995.77 264.76C997.264 265.693 998.437 267.027 999.29 268.76C1000.17 270.493 1000.61 272.507 1000.61 274.8C1000.61 277.093 1000.17 279.12 999.29 280.88C998.437 282.613 997.264 283.96 995.77 284.92C994.277 285.853 992.61 286.32 990.77 286.32C989.224 286.32 987.85 286 986.65 285.36C985.477 284.72 984.557 283.893 983.89 282.88V296.64H977.05V263.68H983.89V266.84ZM993.65 274.8C993.65 273.093 993.17 271.76 992.21 270.8C991.277 269.813 990.117 269.32 988.73 269.32C987.37 269.32 986.21 269.813 985.25 270.8C984.317 271.787 983.85 273.133 983.85 274.84C983.85 276.547 984.317 277.893 985.25 278.88C986.21 279.867 987.37 280.36 988.73 280.36C990.09 280.36 991.25 279.867 992.21 278.88C993.17 277.867 993.65 276.507 993.65 274.8ZM1017.92 263.44C1020.48 263.44 1022.53 264.293 1024.08 266C1025.63 267.68 1026.4 270 1026.4 272.96V286H1019.6V273.88C1019.6 272.387 1019.21 271.227 1018.44 270.4C1017.67 269.573 1016.63 269.16 1015.32 269.16C1014.01 269.16 1012.97 269.573 1012.2 270.4C1011.43 271.227 1011.04 272.387 1011.04 273.88V286H1004.2V256.4H1011.04V266.68C1011.73 265.693 1012.68 264.907 1013.88 264.32C1015.08 263.733 1016.43 263.44 1017.92 263.44ZM1029.79 274.8C1029.79 272.507 1030.22 270.493 1031.07 268.76C1031.95 267.027 1033.14 265.693 1034.63 264.76C1036.13 263.827 1037.79 263.36 1039.63 263.36C1041.21 263.36 1042.58 263.68 1043.75 264.32C1044.95 264.96 1045.87 265.8 1046.51 266.84V263.68H1053.35V286H1046.51V282.84C1045.85 283.88 1044.91 284.72 1043.71 285.36C1042.54 286 1041.17 286.32 1039.59 286.32C1037.78 286.32 1036.13 285.853 1034.63 284.92C1033.14 283.96 1031.95 282.613 1031.07 280.88C1030.22 279.12 1029.79 277.093 1029.79 274.8ZM1046.51 274.84C1046.51 273.133 1046.03 271.787 1045.07 270.8C1044.14 269.813 1042.99 269.32 1041.63 269.32C1040.27 269.32 1039.11 269.813 1038.15 270.8C1037.22 271.76 1036.75 273.093 1036.75 274.8C1036.75 276.507 1037.22 277.867 1038.15 278.88C1039.11 279.867 1040.27 280.36 1041.63 280.36C1042.99 280.36 1044.14 279.867 1045.07 278.88C1046.03 277.893 1046.51 276.547 1046.51 274.84ZM1067.38 286.32C1065.43 286.32 1063.7 285.987 1062.18 285.32C1060.66 284.653 1059.46 283.747 1058.58 282.6C1057.7 281.427 1057.21 280.12 1057.1 278.68H1063.86C1063.94 279.453 1064.3 280.08 1064.94 280.56C1065.58 281.04 1066.37 281.28 1067.3 281.28C1068.15 281.28 1068.81 281.12 1069.26 280.8C1069.74 280.453 1069.98 280.013 1069.98 279.48C1069.98 278.84 1069.65 278.373 1068.98 278.08C1068.31 277.76 1067.23 277.413 1065.74 277.04C1064.14 276.667 1062.81 276.28 1061.74 275.88C1060.67 275.453 1059.75 274.8 1058.98 273.92C1058.21 273.013 1057.82 271.8 1057.82 270.28C1057.82 269 1058.17 267.84 1058.86 266.8C1059.58 265.733 1060.62 264.893 1061.98 264.28C1063.37 263.667 1065.01 263.36 1066.9 263.36C1069.7 263.36 1071.9 264.053 1073.5 265.44C1075.13 266.827 1076.06 268.667 1076.3 270.96H1069.98C1069.87 270.187 1069.53 269.573 1068.94 269.12C1068.38 268.667 1067.63 268.44 1066.7 268.44C1065.9 268.44 1065.29 268.6 1064.86 268.92C1064.43 269.213 1064.22 269.627 1064.22 270.16C1064.22 270.8 1064.55 271.28 1065.22 271.6C1065.91 271.92 1066.98 272.24 1068.42 272.56C1070.07 272.987 1071.42 273.413 1072.46 273.84C1073.5 274.24 1074.41 274.907 1075.18 275.84C1075.98 276.747 1076.39 277.973 1076.42 279.52C1076.42 280.827 1076.05 282 1075.3 283.04C1074.58 284.053 1073.53 284.853 1072.14 285.44C1070.78 286.027 1069.19 286.32 1067.38 286.32ZM1101.64 274.48C1101.64 275.12 1101.61 275.787 1101.53 276.48H1086.05C1086.15 277.867 1086.59 278.933 1087.37 279.68C1088.17 280.4 1089.14 280.76 1090.29 280.76C1091.99 280.76 1093.18 280.04 1093.85 278.6H1101.13C1100.75 280.067 1100.07 281.387 1099.09 282.56C1098.13 283.733 1096.91 284.653 1095.45 285.32C1093.98 285.987 1092.34 286.32 1090.53 286.32C1088.34 286.32 1086.39 285.853 1084.69 284.92C1082.98 283.987 1081.65 282.653 1080.69 280.92C1079.73 279.187 1079.25 277.16 1079.25 274.84C1079.25 272.52 1079.71 270.493 1080.65 268.76C1081.61 267.027 1082.94 265.693 1084.65 264.76C1086.35 263.827 1088.31 263.36 1090.53 263.36C1092.69 263.36 1094.61 263.813 1096.29 264.72C1097.97 265.627 1099.27 266.92 1100.21 268.6C1101.17 270.28 1101.64 272.24 1101.64 274.48ZM1094.65 272.68C1094.65 271.507 1094.25 270.573 1093.45 269.88C1092.65 269.187 1091.65 268.84 1090.45 268.84C1089.3 268.84 1088.33 269.173 1087.53 269.84C1086.75 270.507 1086.27 271.453 1086.09 272.68H1094.65ZM1112.37 274.84C1112.37 272.52 1112.84 270.493 1113.77 268.76C1114.73 267.027 1116.05 265.693 1117.73 264.76C1119.44 263.827 1121.38 263.36 1123.57 263.36C1126.37 263.36 1128.7 264.093 1130.57 265.56C1132.46 267.027 1133.7 269.093 1134.29 271.76H1127.01C1126.4 270.053 1125.21 269.2 1123.45 269.2C1122.2 269.2 1121.2 269.693 1120.45 270.68C1119.7 271.64 1119.33 273.027 1119.33 274.84C1119.33 276.653 1119.7 278.053 1120.45 279.04C1121.2 280 1122.2 280.48 1123.45 280.48C1125.21 280.48 1126.4 279.627 1127.01 277.92H1134.29C1133.7 280.533 1132.46 282.587 1130.57 284.08C1128.68 285.573 1126.34 286.32 1123.57 286.32C1121.38 286.32 1119.44 285.853 1117.73 284.92C1116.05 283.987 1114.73 282.653 1113.77 280.92C1112.84 279.187 1112.37 277.16 1112.37 274.84ZM1159.99 263.68V286H1153.15V282.96C1152.46 283.947 1151.51 284.747 1150.31 285.36C1149.14 285.947 1147.83 286.24 1146.39 286.24C1144.68 286.24 1143.18 285.867 1141.87 285.12C1140.56 284.347 1139.55 283.24 1138.83 281.8C1138.11 280.36 1137.75 278.667 1137.75 276.72V263.68H1144.55V275.8C1144.55 277.293 1144.94 278.453 1145.71 279.28C1146.48 280.107 1147.52 280.52 1148.83 280.52C1150.16 280.52 1151.22 280.107 1151.99 279.28C1152.76 278.453 1153.15 277.293 1153.15 275.8V263.68H1159.99ZM1171.74 267.4C1172.54 266.173 1173.54 265.213 1174.74 264.52C1175.94 263.8 1177.28 263.44 1178.74 263.44V270.68H1176.86C1175.16 270.68 1173.88 271.053 1173.02 271.8C1172.17 272.52 1171.74 273.8 1171.74 275.64V286H1164.9V263.68H1171.74V267.4ZM1188.85 267.4C1189.65 266.173 1190.65 265.213 1191.85 264.52C1193.05 263.8 1194.38 263.44 1195.85 263.44V270.68H1193.97C1192.26 270.68 1190.98 271.053 1190.13 271.8C1189.28 272.52 1188.85 273.8 1188.85 275.64V286H1182.01V263.68H1188.85V267.4ZM1220.16 274.48C1220.16 275.12 1220.12 275.787 1220.04 276.48H1204.56C1204.67 277.867 1205.11 278.933 1205.88 279.68C1206.68 280.4 1207.65 280.76 1208.8 280.76C1210.51 280.76 1211.69 280.04 1212.36 278.6H1219.64C1219.27 280.067 1218.59 281.387 1217.6 282.56C1216.64 283.733 1215.43 284.653 1213.96 285.32C1212.49 285.987 1210.85 286.32 1209.04 286.32C1206.85 286.32 1204.91 285.853 1203.2 284.92C1201.49 283.987 1200.16 282.653 1199.2 280.92C1198.24 279.187 1197.76 277.16 1197.76 274.84C1197.76 272.52 1198.23 270.493 1199.16 268.76C1200.12 267.027 1201.45 265.693 1203.16 264.76C1204.87 263.827 1206.83 263.36 1209.04 263.36C1211.2 263.36 1213.12 263.813 1214.8 264.72C1216.48 265.627 1217.79 266.92 1218.72 268.6C1219.68 270.28 1220.16 272.24 1220.16 274.48ZM1213.16 272.68C1213.16 271.507 1212.76 270.573 1211.96 269.88C1211.16 269.187 1210.16 268.84 1208.96 268.84C1207.81 268.84 1206.84 269.173 1206.04 269.84C1205.27 270.507 1204.79 271.453 1204.6 272.68H1213.16ZM1237.37 263.44C1239.98 263.44 1242.06 264.293 1243.61 266C1245.18 267.68 1245.97 270 1245.97 272.96V286H1239.17V273.88C1239.17 272.387 1238.78 271.227 1238.01 270.4C1237.24 269.573 1236.2 269.16 1234.89 269.16C1233.58 269.16 1232.54 269.573 1231.77 270.4C1231 271.227 1230.61 272.387 1230.61 273.88V286H1223.77V263.68H1230.61V266.64C1231.3 265.653 1232.24 264.88 1233.41 264.32C1234.58 263.733 1235.9 263.44 1237.37 263.44ZM1263.16 280.2V286H1259.68C1257.2 286 1255.27 285.4 1253.88 284.2C1252.5 282.973 1251.8 280.987 1251.8 278.24V269.36H1249.08V263.68H1251.8V258.24H1258.64V263.68H1263.12V269.36H1258.64V278.32C1258.64 278.987 1258.8 279.467 1259.12 279.76C1259.44 280.053 1259.98 280.2 1260.72 280.2H1263.16ZM401.12 322.8C401.12 320.507 401.547 318.493 402.4 316.76C403.28 315.027 404.467 313.693 405.96 312.76C407.453 311.827 409.12 311.36 410.96 311.36C412.533 311.36 413.907 311.68 415.08 312.32C416.28 312.96 417.2 313.8 417.84 314.84V311.68H424.68V334H417.84V330.84C417.173 331.88 416.24 332.72 415.04 333.36C413.867 334 412.493 334.32 410.92 334.32C409.107 334.32 407.453 333.853 405.96 332.92C404.467 331.96 403.28 330.613 402.4 328.88C401.547 327.12 401.12 325.093 401.12 322.8ZM417.84 322.84C417.84 321.133 417.36 319.787 416.4 318.8C415.467 317.813 414.32 317.32 412.96 317.32C411.6 317.32 410.44 317.813 409.48 318.8C408.547 319.76 408.08 321.093 408.08 322.8C408.08 324.507 408.547 325.867 409.48 326.88C410.44 327.867 411.6 328.36 412.96 328.36C414.32 328.36 415.467 327.867 416.4 326.88C417.36 325.893 417.84 324.547 417.84 322.84ZM443.228 311.44C445.842 311.44 447.922 312.293 449.468 314C451.042 315.68 451.828 318 451.828 320.96V334H445.028V321.88C445.028 320.387 444.642 319.227 443.868 318.4C443.095 317.573 442.055 317.16 440.748 317.16C439.442 317.16 438.402 317.573 437.628 318.4C436.855 319.227 436.468 320.387 436.468 321.88V334H429.628V311.68H436.468V314.64C437.162 313.653 438.095 312.88 439.268 312.32C440.442 311.733 441.762 311.44 443.228 311.44ZM455.222 322.8C455.222 320.507 455.648 318.493 456.502 316.76C457.382 315.027 458.568 313.693 460.062 312.76C461.555 311.827 463.222 311.36 465.062 311.36C466.528 311.36 467.862 311.667 469.062 312.28C470.288 312.893 471.248 313.72 471.942 314.76V304.4H478.782V334H471.942V330.8C471.302 331.867 470.382 332.72 469.182 333.36C468.008 334 466.635 334.32 465.062 334.32C463.222 334.32 461.555 333.853 460.062 332.92C458.568 331.96 457.382 330.613 456.502 328.88C455.648 327.12 455.222 325.093 455.222 322.8ZM471.942 322.84C471.942 321.133 471.462 319.787 470.502 318.8C469.568 317.813 468.422 317.32 467.062 317.32C465.702 317.32 464.542 317.813 463.582 318.8C462.648 319.76 462.182 321.093 462.182 322.8C462.182 324.507 462.648 325.867 463.582 326.88C464.542 327.867 465.702 328.36 467.062 328.36C468.422 328.36 469.568 327.867 470.502 326.88C471.462 325.893 471.942 324.547 471.942 322.84ZM513.247 322.48C513.247 323.12 513.207 323.787 513.127 324.48H497.647C497.753 325.867 498.193 326.933 498.967 327.68C499.767 328.4 500.74 328.76 501.887 328.76C503.593 328.76 504.78 328.04 505.447 326.6H512.727C512.353 328.067 511.673 329.387 510.687 330.56C509.727 331.733 508.513 332.653 507.047 333.32C505.58 333.987 503.94 334.32 502.127 334.32C499.94 334.32 497.993 333.853 496.287 332.92C494.58 331.987 493.247 330.653 492.287 328.92C491.327 327.187 490.847 325.16 490.847 322.84C490.847 320.52 491.313 318.493 492.247 316.76C493.207 315.027 494.54 313.693 496.247 312.76C497.953 311.827 499.913 311.36 502.127 311.36C504.287 311.36 506.207 311.813 507.887 312.72C509.567 313.627 510.873 314.92 511.807 316.6C512.767 318.28 513.247 320.24 513.247 322.48ZM506.247 320.68C506.247 319.507 505.847 318.573 505.047 317.88C504.247 317.187 503.247 316.84 502.047 316.84C500.9 316.84 499.927 317.173 499.127 317.84C498.353 318.507 497.873 319.453 497.687 320.68H506.247ZM528.055 317.36H524.375V334H517.535V317.36H515.055V311.68H517.535V311.04C517.535 308.293 518.322 306.213 519.895 304.8C521.468 303.36 523.775 302.64 526.815 302.64C527.322 302.64 527.695 302.653 527.935 302.68V308.48C526.628 308.4 525.708 308.587 525.175 309.04C524.642 309.493 524.375 310.307 524.375 311.48V311.68H528.055V317.36ZM542.469 317.36H538.789V334H531.949V317.36H529.469V311.68H531.949V311.04C531.949 308.293 532.736 306.213 534.309 304.8C535.882 303.36 538.189 302.64 541.229 302.64C541.736 302.64 542.109 302.653 542.349 302.68V308.48C541.042 308.4 540.122 308.587 539.589 309.04C539.056 309.493 538.789 310.307 538.789 311.48V311.68H542.469V317.36ZM549.123 309.36C547.923 309.36 546.936 309.013 546.163 308.32C545.416 307.6 545.043 306.72 545.043 305.68C545.043 304.613 545.416 303.733 546.163 303.04C546.936 302.32 547.923 301.96 549.123 301.96C550.296 301.96 551.256 302.32 552.003 303.04C552.776 303.733 553.163 304.613 553.163 305.68C553.163 306.72 552.776 307.6 552.003 308.32C551.256 309.013 550.296 309.36 549.123 309.36ZM552.523 311.68V334H545.683V311.68H552.523ZM556.12 322.84C556.12 320.52 556.587 318.493 557.52 316.76C558.48 315.027 559.8 313.693 561.48 312.76C563.187 311.827 565.133 311.36 567.32 311.36C570.12 311.36 572.453 312.093 574.32 313.56C576.213 315.027 577.453 317.093 578.04 319.76H570.76C570.147 318.053 568.96 317.2 567.2 317.2C565.947 317.2 564.947 317.693 564.2 318.68C563.453 319.64 563.08 321.027 563.08 322.84C563.08 324.653 563.453 326.053 564.2 327.04C564.947 328 565.947 328.48 567.2 328.48C568.96 328.48 570.147 327.627 570.76 325.92H578.04C577.453 328.533 576.213 330.587 574.32 332.08C572.427 333.573 570.093 334.32 567.32 334.32C565.133 334.32 563.187 333.853 561.48 332.92C559.8 331.987 558.48 330.653 557.52 328.92C556.587 327.187 556.12 325.16 556.12 322.84ZM585.139 309.36C583.939 309.36 582.952 309.013 582.179 308.32C581.432 307.6 581.059 306.72 581.059 305.68C581.059 304.613 581.432 303.733 582.179 303.04C582.952 302.32 583.939 301.96 585.139 301.96C586.312 301.96 587.272 302.32 588.019 303.04C588.792 303.733 589.179 304.613 589.179 305.68C589.179 306.72 588.792 307.6 588.019 308.32C587.272 309.013 586.312 309.36 585.139 309.36ZM588.539 311.68V334H581.699V311.68H588.539ZM614.536 322.48C614.536 323.12 614.496 323.787 614.416 324.48H598.936C599.042 325.867 599.482 326.933 600.256 327.68C601.056 328.4 602.029 328.76 603.176 328.76C604.882 328.76 606.069 328.04 606.736 326.6H614.016C613.642 328.067 612.962 329.387 611.976 330.56C611.016 331.733 609.802 332.653 608.336 333.32C606.869 333.987 605.229 334.32 603.416 334.32C601.229 334.32 599.282 333.853 597.576 332.92C595.869 331.987 594.536 330.653 593.576 328.92C592.616 327.187 592.136 325.16 592.136 322.84C592.136 320.52 592.602 318.493 593.536 316.76C594.496 315.027 595.829 313.693 597.536 312.76C599.242 311.827 601.202 311.36 603.416 311.36C605.576 311.36 607.496 311.813 609.176 312.72C610.856 313.627 612.162 314.92 613.096 316.6C614.056 318.28 614.536 320.24 614.536 322.48ZM607.536 320.68C607.536 319.507 607.136 318.573 606.336 317.88C605.536 317.187 604.536 316.84 603.336 316.84C602.189 316.84 601.216 317.173 600.416 317.84C599.642 318.507 599.162 319.453 598.976 320.68H607.536ZM631.744 311.44C634.357 311.44 636.437 312.293 637.984 314C639.557 315.68 640.344 318 640.344 320.96V334H633.544V321.88C633.544 320.387 633.157 319.227 632.384 318.4C631.611 317.573 630.571 317.16 629.264 317.16C627.957 317.16 626.917 317.573 626.144 318.4C625.371 319.227 624.984 320.387 624.984 321.88V334H618.144V311.68H624.984V314.64C625.677 313.653 626.611 312.88 627.784 312.32C628.957 311.733 630.277 311.44 631.744 311.44ZM657.537 328.2V334H654.057C651.577 334 649.644 333.4 648.257 332.2C646.871 330.973 646.177 328.987 646.177 326.24V317.36H643.457V311.68H646.177V306.24H653.017V311.68H657.497V317.36H653.017V326.32C653.017 326.987 653.177 327.467 653.497 327.76C653.817 328.053 654.351 328.2 655.097 328.2H657.537ZM668.464 322.84C668.464 320.52 668.93 318.493 669.864 316.76C670.824 315.027 672.144 313.693 673.824 312.76C675.53 311.827 677.477 311.36 679.664 311.36C682.464 311.36 684.797 312.093 686.664 313.56C688.557 315.027 689.797 317.093 690.384 319.76H683.104C682.49 318.053 681.304 317.2 679.544 317.2C678.29 317.2 677.29 317.693 676.544 318.68C675.797 319.64 675.424 321.027 675.424 322.84C675.424 324.653 675.797 326.053 676.544 327.04C677.29 328 678.29 328.48 679.544 328.48C681.304 328.48 682.49 327.627 683.104 325.92H690.384C689.797 328.533 688.557 330.587 686.664 332.08C684.77 333.573 682.437 334.32 679.664 334.32C677.477 334.32 675.53 333.853 673.824 332.92C672.144 331.987 670.824 330.653 669.864 328.92C668.93 327.187 668.464 325.16 668.464 322.84ZM704.203 334.32C702.016 334.32 700.043 333.853 698.283 332.92C696.549 331.987 695.176 330.653 694.163 328.92C693.176 327.187 692.683 325.16 692.683 322.84C692.683 320.547 693.189 318.533 694.202 316.8C695.216 315.04 696.603 313.693 698.363 312.76C700.123 311.827 702.096 311.36 704.283 311.36C706.469 311.36 708.443 311.827 710.203 312.76C711.963 313.693 713.349 315.04 714.363 316.8C715.376 318.533 715.883 320.547 715.883 322.84C715.883 325.133 715.363 327.16 714.323 328.92C713.309 330.653 711.909 331.987 710.123 332.92C708.363 333.853 706.389 334.32 704.203 334.32ZM704.203 328.4C705.509 328.4 706.616 327.92 707.523 326.96C708.456 326 708.923 324.627 708.923 322.84C708.923 321.053 708.469 319.68 707.563 318.72C706.683 317.76 705.589 317.28 704.283 317.28C702.949 317.28 701.843 317.76 700.963 318.72C700.083 319.653 699.643 321.027 699.643 322.84C699.643 324.627 700.069 326 700.923 326.96C701.803 327.92 702.896 328.4 704.203 328.4ZM729.671 334.32C727.485 334.32 725.511 333.853 723.751 332.92C722.018 331.987 720.645 330.653 719.631 328.92C718.645 327.187 718.151 325.16 718.151 322.84C718.151 320.547 718.658 318.533 719.671 316.8C720.685 315.04 722.071 313.693 723.831 312.76C725.591 311.827 727.565 311.36 729.751 311.36C731.938 311.36 733.911 311.827 735.671 312.76C737.431 313.693 738.818 315.04 739.831 316.8C740.845 318.533 741.351 320.547 741.351 322.84C741.351 325.133 740.831 327.16 739.791 328.92C738.778 330.653 737.378 331.987 735.591 332.92C733.831 333.853 731.858 334.32 729.671 334.32ZM729.671 328.4C730.978 328.4 732.085 327.92 732.991 326.96C733.925 326 734.391 324.627 734.391 322.84C734.391 321.053 733.938 319.68 733.031 318.72C732.151 317.76 731.058 317.28 729.751 317.28C728.418 317.28 727.311 317.76 726.431 318.72C725.551 319.653 725.111 321.027 725.111 322.84C725.111 324.627 725.538 326 726.391 326.96C727.271 327.92 728.365 328.4 729.671 328.4ZM751.82 304.4V334H744.98V304.4H751.82ZM760.217 309.36C759.017 309.36 758.03 309.013 757.257 308.32C756.51 307.6 756.137 306.72 756.137 305.68C756.137 304.613 756.51 303.733 757.257 303.04C758.03 302.32 759.017 301.96 760.217 301.96C761.39 301.96 762.35 302.32 763.097 303.04C763.87 303.733 764.257 304.613 764.257 305.68C764.257 306.72 763.87 307.6 763.097 308.32C762.35 309.013 761.39 309.36 760.217 309.36ZM763.617 311.68V334H756.777V311.68H763.617ZM782.174 311.44C784.787 311.44 786.867 312.293 788.414 314C789.987 315.68 790.774 318 790.774 320.96V334H783.974V321.88C783.974 320.387 783.587 319.227 782.814 318.4C782.04 317.573 781 317.16 779.694 317.16C778.387 317.16 777.347 317.573 776.574 318.4C775.8 319.227 775.414 320.387 775.414 321.88V334H768.574V311.68H775.414V314.64C776.107 313.653 777.04 312.88 778.214 312.32C779.387 311.733 780.707 311.44 782.174 311.44ZM804.007 311.36C805.58 311.36 806.954 311.68 808.127 312.32C809.327 312.96 810.247 313.8 810.887 314.84V311.68H817.727V333.96C817.727 336.013 817.314 337.867 816.487 339.52C815.687 341.2 814.447 342.533 812.767 343.52C811.114 344.507 809.047 345 806.567 345C803.26 345 800.58 344.213 798.527 342.64C796.474 341.093 795.3 338.987 795.007 336.32H801.767C801.98 337.173 802.487 337.84 803.287 338.32C804.087 338.827 805.074 339.08 806.247 339.08C807.66 339.08 808.78 338.667 809.607 337.84C810.46 337.04 810.887 335.747 810.887 333.96V330.8C810.22 331.84 809.3 332.693 808.127 333.36C806.954 334 805.58 334.32 804.007 334.32C802.167 334.32 800.5 333.853 799.007 332.92C797.514 331.96 796.327 330.613 795.447 328.88C794.594 327.12 794.167 325.093 794.167 322.8C794.167 320.507 794.594 318.493 795.447 316.76C796.327 315.027 797.514 313.693 799.007 312.76C800.5 311.827 802.167 311.36 804.007 311.36ZM810.887 322.84C810.887 321.133 810.407 319.787 809.447 318.8C808.514 317.813 807.367 317.32 806.007 317.32C804.647 317.32 803.487 317.813 802.527 318.8C801.594 319.76 801.127 321.093 801.127 322.8C801.127 324.507 801.594 325.867 802.527 326.88C803.487 327.867 804.647 328.36 806.007 328.36C807.367 328.36 808.514 327.867 809.447 326.88C810.407 325.893 810.887 324.547 810.887 322.84ZM843.592 328.2V334H840.112C837.632 334 835.699 333.4 834.312 332.2C832.925 330.973 832.232 328.987 832.232 326.24V317.36H829.512V311.68H832.232V306.24H839.072V311.68H843.552V317.36H839.072V326.32C839.072 326.987 839.232 327.467 839.552 327.76C839.872 328.053 840.405 328.2 841.152 328.2H843.592ZM861.122 311.44C863.682 311.44 865.735 312.293 867.282 314C868.829 315.68 869.602 318 869.602 320.96V334H862.802V321.88C862.802 320.387 862.415 319.227 861.642 318.4C860.869 317.573 859.829 317.16 858.522 317.16C857.215 317.16 856.175 317.573 855.402 318.4C854.629 319.227 854.242 320.387 854.242 321.88V334H847.402V304.4H854.242V314.68C854.935 313.693 855.882 312.907 857.082 312.32C858.282 311.733 859.629 311.44 861.122 311.44ZM872.995 322.8C872.995 320.507 873.422 318.493 874.275 316.76C875.155 315.027 876.342 313.693 877.835 312.76C879.328 311.827 880.995 311.36 882.835 311.36C884.408 311.36 885.782 311.68 886.955 312.32C888.155 312.96 889.075 313.8 889.715 314.84V311.68H896.555V334H889.715V330.84C889.048 331.88 888.115 332.72 886.915 333.36C885.742 334 884.368 334.32 882.795 334.32C880.982 334.32 879.328 333.853 877.835 332.92C876.342 331.96 875.155 330.613 874.275 328.88C873.422 327.12 872.995 325.093 872.995 322.8ZM889.715 322.84C889.715 321.133 889.235 319.787 888.275 318.8C887.342 317.813 886.195 317.32 884.835 317.32C883.475 317.32 882.315 317.813 881.355 318.8C880.422 319.76 879.955 321.093 879.955 322.8C879.955 324.507 880.422 325.867 881.355 326.88C882.315 327.867 883.475 328.36 884.835 328.36C886.195 328.36 887.342 327.867 888.275 326.88C889.235 325.893 889.715 324.547 889.715 322.84ZM915.103 311.44C917.717 311.44 919.797 312.293 921.343 314C922.917 315.68 923.703 318 923.703 320.96V334H916.903V321.88C916.903 320.387 916.517 319.227 915.743 318.4C914.97 317.573 913.93 317.16 912.623 317.16C911.317 317.16 910.277 317.573 909.503 318.4C908.73 319.227 908.343 320.387 908.343 321.88V334H901.503V311.68H908.343V314.64C909.037 313.653 909.97 312.88 911.143 312.32C912.317 311.733 913.637 311.44 915.103 311.44ZM942.097 334L935.297 324.64V334H928.457V304.4H935.297V320.76L942.057 311.68H950.497L941.217 322.88L950.577 334H942.097ZM962.263 334.32C960.316 334.32 958.583 333.987 957.063 333.32C955.543 332.653 954.343 331.747 953.463 330.6C952.583 329.427 952.09 328.12 951.983 326.68H958.743C958.823 327.453 959.183 328.08 959.823 328.56C960.463 329.04 961.25 329.28 962.183 329.28C963.036 329.28 963.69 329.12 964.143 328.8C964.623 328.453 964.863 328.013 964.863 327.48C964.863 326.84 964.53 326.373 963.863 326.08C963.196 325.76 962.116 325.413 960.623 325.04C959.023 324.667 957.69 324.28 956.623 323.88C955.556 323.453 954.636 322.8 953.863 321.92C953.09 321.013 952.703 319.8 952.703 318.28C952.703 317 953.05 315.84 953.743 314.8C954.463 313.733 955.503 312.893 956.863 312.28C958.25 311.667 959.89 311.36 961.783 311.36C964.583 311.36 966.783 312.053 968.383 313.44C970.01 314.827 970.943 316.667 971.183 318.96H964.863C964.756 318.187 964.41 317.573 963.823 317.12C963.263 316.667 962.516 316.44 961.583 316.44C960.783 316.44 960.17 316.6 959.743 316.92C959.316 317.213 959.103 317.627 959.103 318.16C959.103 318.8 959.436 319.28 960.103 319.6C960.796 319.92 961.863 320.24 963.303 320.56C964.956 320.987 966.303 321.413 967.343 321.84C968.383 322.24 969.29 322.907 970.063 323.84C970.863 324.747 971.276 325.973 971.303 327.52C971.303 328.827 970.93 330 970.183 331.04C969.463 332.053 968.41 332.853 967.023 333.44C965.663 334.027 964.076 334.32 962.263 334.32ZM996.404 328.2V334H992.924C990.444 334 988.511 333.4 987.124 332.2C985.738 330.973 985.044 328.987 985.044 326.24V317.36H982.324V311.68H985.044V306.24H991.884V311.68H996.364V317.36H991.884V326.32C991.884 326.987 992.044 327.467 992.364 327.76C992.684 328.053 993.218 328.2 993.964 328.2H996.404ZM1010.37 334.32C1008.19 334.32 1006.21 333.853 1004.45 332.92C1002.72 331.987 1001.35 330.653 1000.33 328.92C999.348 327.187 998.854 325.16 998.854 322.84C998.854 320.547 999.361 318.533 1000.37 316.8C1001.39 315.04 1002.77 313.693 1004.53 312.76C1006.29 311.827 1008.27 311.36 1010.45 311.36C1012.64 311.36 1014.61 311.827 1016.37 312.76C1018.13 313.693 1019.52 315.04 1020.53 316.8C1021.55 318.533 1022.05 320.547 1022.05 322.84C1022.05 325.133 1021.53 327.16 1020.49 328.92C1019.48 330.653 1018.08 331.987 1016.29 332.92C1014.53 333.853 1012.56 334.32 1010.37 334.32ZM1010.37 328.4C1011.68 328.4 1012.79 327.92 1013.69 326.96C1014.63 326 1015.09 324.627 1015.09 322.84C1015.09 321.053 1014.64 319.68 1013.73 318.72C1012.85 317.76 1011.76 317.28 1010.45 317.28C1009.12 317.28 1008.01 317.76 1007.13 318.72C1006.25 319.653 1005.81 321.027 1005.81 322.84C1005.81 324.627 1006.24 326 1007.09 326.96C1007.97 327.92 1009.07 328.4 1010.37 328.4ZM1046.6 328.2V334H1043.12C1040.64 334 1038.71 333.4 1037.32 332.2C1035.93 330.973 1035.24 328.987 1035.24 326.24V317.36H1032.52V311.68H1035.24V306.24H1042.08V311.68H1046.56V317.36H1042.08V326.32C1042.08 326.987 1042.24 327.467 1042.56 327.76C1042.88 328.053 1043.41 328.2 1044.16 328.2H1046.6ZM1064.13 311.44C1066.69 311.44 1068.74 312.293 1070.29 314C1071.84 315.68 1072.61 318 1072.61 320.96V334H1065.81V321.88C1065.81 320.387 1065.42 319.227 1064.65 318.4C1063.88 317.573 1062.84 317.16 1061.53 317.16C1060.22 317.16 1059.18 317.573 1058.41 318.4C1057.64 319.227 1057.25 320.387 1057.25 321.88V334H1050.41V304.4H1057.25V314.68C1057.94 313.693 1058.89 312.907 1060.09 312.32C1061.29 311.733 1062.64 311.44 1064.13 311.44ZM1098.4 322.48C1098.4 323.12 1098.36 323.787 1098.28 324.48H1082.8C1082.91 325.867 1083.35 326.933 1084.12 327.68C1084.92 328.4 1085.9 328.76 1087.04 328.76C1088.75 328.76 1089.94 328.04 1090.6 326.6H1097.88C1097.51 328.067 1096.83 329.387 1095.84 330.56C1094.88 331.733 1093.67 332.653 1092.2 333.32C1090.74 333.987 1089.1 334.32 1087.28 334.32C1085.1 334.32 1083.15 333.853 1081.44 332.92C1079.74 331.987 1078.4 330.653 1077.44 328.92C1076.48 327.187 1076 325.16 1076 322.84C1076 320.52 1076.47 318.493 1077.4 316.76C1078.36 315.027 1079.7 313.693 1081.4 312.76C1083.11 311.827 1085.07 311.36 1087.28 311.36C1089.44 311.36 1091.36 311.813 1093.04 312.72C1094.72 313.627 1096.03 314.92 1096.96 316.6C1097.92 318.28 1098.4 320.24 1098.4 322.48ZM1091.4 320.68C1091.4 319.507 1091 318.573 1090.2 317.88C1089.4 317.187 1088.4 316.84 1087.2 316.84C1086.06 316.84 1085.08 317.173 1084.28 317.84C1083.51 318.507 1083.03 319.453 1082.84 320.68H1091.4ZM1124.21 311.44C1126.77 311.44 1128.82 312.293 1130.37 314C1131.91 315.68 1132.69 318 1132.69 320.96V334H1125.89V321.88C1125.89 320.387 1125.5 319.227 1124.73 318.4C1123.95 317.573 1122.91 317.16 1121.61 317.16C1120.3 317.16 1119.26 317.573 1118.49 318.4C1117.71 319.227 1117.33 320.387 1117.33 321.88V334H1110.49V304.4H1117.33V314.68C1118.02 313.693 1118.97 312.907 1120.17 312.32C1121.37 311.733 1122.71 311.44 1124.21 311.44ZM1158.48 322.48C1158.48 323.12 1158.44 323.787 1158.36 324.48H1142.88C1142.99 325.867 1143.43 326.933 1144.2 327.68C1145 328.4 1145.97 328.76 1147.12 328.76C1148.83 328.76 1150.01 328.04 1150.68 326.6H1157.96C1157.59 328.067 1156.91 329.387 1155.92 330.56C1154.96 331.733 1153.75 332.653 1152.28 333.32C1150.81 333.987 1149.17 334.32 1147.36 334.32C1145.17 334.32 1143.23 333.853 1141.52 332.92C1139.81 331.987 1138.48 330.653 1137.52 328.92C1136.56 327.187 1136.08 325.16 1136.08 322.84C1136.08 320.52 1136.55 318.493 1137.48 316.76C1138.44 315.027 1139.77 313.693 1141.48 312.76C1143.19 311.827 1145.15 311.36 1147.36 311.36C1149.52 311.36 1151.44 311.813 1153.12 312.72C1154.8 313.627 1156.11 314.92 1157.04 316.6C1158 318.28 1158.48 320.24 1158.48 322.48ZM1151.48 320.68C1151.48 319.507 1151.08 318.573 1150.28 317.88C1149.48 317.187 1148.48 316.84 1147.28 316.84C1146.13 316.84 1145.16 317.173 1144.36 317.84C1143.59 318.507 1143.11 319.453 1142.92 320.68H1151.48ZM1160.73 322.8C1160.73 320.507 1161.16 318.493 1162.01 316.76C1162.89 315.027 1164.08 313.693 1165.57 312.76C1167.06 311.827 1168.73 311.36 1170.57 311.36C1172.14 311.36 1173.52 311.68 1174.69 312.32C1175.89 312.96 1176.81 313.8 1177.45 314.84V311.68H1184.29V334H1177.45V330.84C1176.78 331.88 1175.85 332.72 1174.65 333.36C1173.48 334 1172.1 334.32 1170.53 334.32C1168.72 334.32 1167.06 333.853 1165.57 332.92C1164.08 331.96 1162.89 330.613 1162.01 328.88C1161.16 327.12 1160.73 325.093 1160.73 322.8ZM1177.45 322.84C1177.45 321.133 1176.97 319.787 1176.01 318.8C1175.08 317.813 1173.93 317.32 1172.57 317.32C1171.21 317.32 1170.05 317.813 1169.09 318.8C1168.16 319.76 1167.69 321.093 1167.69 322.8C1167.69 324.507 1168.16 325.867 1169.09 326.88C1170.05 327.867 1171.21 328.36 1172.57 328.36C1173.93 328.36 1175.08 327.867 1176.01 326.88C1176.97 325.893 1177.45 324.547 1177.45 322.84ZM1201.68 328.2V334H1198.2C1195.72 334 1193.78 333.4 1192.4 332.2C1191.01 330.973 1190.32 328.987 1190.32 326.24V317.36H1187.6V311.68H1190.32V306.24H1197.16V311.68H1201.64V317.36H1197.16V326.32C1197.16 326.987 1197.32 327.467 1197.64 327.76C1197.96 328.053 1198.49 328.2 1199.24 328.2H1201.68ZM411.56 382.32C409.613 382.32 407.88 381.987 406.36 381.32C404.84 380.653 403.64 379.747 402.76 378.6C401.88 377.427 401.387 376.12 401.28 374.68H408.04C408.12 375.453 408.48 376.08 409.12 376.56C409.76 377.04 410.547 377.28 411.48 377.28C412.333 377.28 412.987 377.12 413.44 376.8C413.92 376.453 414.16 376.013 414.16 375.48C414.16 374.84 413.827 374.373 413.16 374.08C412.493 373.76 411.413 373.413 409.92 373.04C408.32 372.667 406.987 372.28 405.92 371.88C404.853 371.453 403.933 370.8 403.16 369.92C402.387 369.013 402 367.8 402 366.28C402 365 402.347 363.84 403.04 362.8C403.76 361.733 404.8 360.893 406.16 360.28C407.547 359.667 409.187 359.36 411.08 359.36C413.88 359.36 416.08 360.053 417.68 361.44C419.307 362.827 420.24 364.667 420.48 366.96H414.16C414.053 366.187 413.707 365.573 413.12 365.12C412.56 364.667 411.813 364.44 410.88 364.44C410.08 364.44 409.467 364.6 409.04 364.92C408.613 365.213 408.4 365.627 408.4 366.16C408.4 366.8 408.733 367.28 409.4 367.6C410.093 367.92 411.16 368.24 412.6 368.56C414.253 368.987 415.6 369.413 416.64 369.84C417.68 370.24 418.587 370.907 419.36 371.84C420.16 372.747 420.573 373.973 420.6 375.52C420.6 376.827 420.227 378 419.48 379.04C418.76 380.053 417.707 380.853 416.32 381.44C414.96 382.027 413.373 382.32 411.56 382.32ZM428.225 357.36C427.025 357.36 426.038 357.013 425.265 356.32C424.518 355.6 424.145 354.72 424.145 353.68C424.145 352.613 424.518 351.733 425.265 351.04C426.038 350.32 427.025 349.96 428.225 349.96C429.398 349.96 430.358 350.32 431.105 351.04C431.878 351.733 432.265 352.613 432.265 353.68C432.265 354.72 431.878 355.6 431.105 356.32C430.358 357.013 429.398 357.36 428.225 357.36ZM431.625 359.68V382H424.785V359.68H431.625ZM450.182 359.44C452.795 359.44 454.875 360.293 456.422 362C457.995 363.68 458.782 366 458.782 368.96V382H451.982V369.88C451.982 368.387 451.595 367.227 450.822 366.4C450.048 365.573 449.008 365.16 447.702 365.16C446.395 365.16 445.355 365.573 444.582 366.4C443.808 367.227 443.422 368.387 443.422 369.88V382H436.582V359.68H443.422V362.64C444.115 361.653 445.048 360.88 446.222 360.32C447.395 359.733 448.715 359.44 450.182 359.44ZM477.175 382L470.375 372.64V382H463.535V352.4H470.375V368.76L477.135 359.68H485.575L476.295 370.88L485.655 382H477.175ZM506.898 382.32C504.711 382.32 502.738 381.853 500.978 380.92C499.244 379.987 497.871 378.653 496.858 376.92C495.871 375.187 495.378 373.16 495.378 370.84C495.378 368.547 495.884 366.533 496.898 364.8C497.911 363.04 499.298 361.693 501.058 360.76C502.818 359.827 504.791 359.36 506.978 359.36C509.164 359.36 511.138 359.827 512.898 360.76C514.658 361.693 516.044 363.04 517.058 364.8C518.071 366.533 518.578 368.547 518.578 370.84C518.578 373.133 518.058 375.16 517.018 376.92C516.004 378.653 514.604 379.987 512.818 380.92C511.058 381.853 509.084 382.32 506.898 382.32ZM506.898 376.4C508.204 376.4 509.311 375.92 510.218 374.96C511.151 374 511.618 372.627 511.618 370.84C511.618 369.053 511.164 367.68 510.258 366.72C509.378 365.76 508.284 365.28 506.978 365.28C505.644 365.28 504.538 365.76 503.658 366.72C502.778 367.653 502.338 369.027 502.338 370.84C502.338 372.627 502.764 374 503.618 374.96C504.498 375.92 505.591 376.4 506.898 376.4ZM535.807 359.44C538.42 359.44 540.5 360.293 542.047 362C543.62 363.68 544.407 366 544.407 368.96V382H537.607V369.88C537.607 368.387 537.22 367.227 536.447 366.4C535.673 365.573 534.633 365.16 533.327 365.16C532.02 365.16 530.98 365.573 530.207 366.4C529.433 367.227 529.047 368.387 529.047 369.88V382H522.207V359.68H529.047V362.64C529.74 361.653 530.673 360.88 531.847 360.32C533.02 359.733 534.34 359.44 535.807 359.44ZM570.076 376.2V382H566.596C564.116 382 562.183 381.4 560.796 380.2C559.41 378.973 558.716 376.987 558.716 374.24V365.36H555.996V359.68H558.716V354.24H565.556V359.68H570.036V365.36H565.556V374.32C565.556 374.987 565.716 375.467 566.036 375.76C566.356 376.053 566.89 376.2 567.636 376.2H570.076ZM587.606 359.44C590.166 359.44 592.22 360.293 593.766 362C595.313 363.68 596.086 366 596.086 368.96V382H589.286V369.88C589.286 368.387 588.9 367.227 588.126 366.4C587.353 365.573 586.313 365.16 585.006 365.16C583.7 365.16 582.66 365.573 581.886 366.4C581.113 367.227 580.726 368.387 580.726 369.88V382H573.886V352.4H580.726V362.68C581.42 361.693 582.366 360.907 583.566 360.32C584.766 359.733 586.113 359.44 587.606 359.44ZM621.879 370.48C621.879 371.12 621.839 371.787 621.759 372.48H606.279C606.386 373.867 606.826 374.933 607.599 375.68C608.399 376.4 609.373 376.76 610.519 376.76C612.226 376.76 613.413 376.04 614.079 374.6H621.359C620.986 376.067 620.306 377.387 619.319 378.56C618.359 379.733 617.146 380.653 615.679 381.32C614.213 381.987 612.573 382.32 610.759 382.32C608.573 382.32 606.626 381.853 604.919 380.92C603.213 379.987 601.879 378.653 600.919 376.92C599.959 375.187 599.479 373.16 599.479 370.84C599.479 368.52 599.946 366.493 600.879 364.76C601.839 363.027 603.173 361.693 604.879 360.76C606.586 359.827 608.546 359.36 610.759 359.36C612.919 359.36 614.839 359.813 616.519 360.72C618.199 361.627 619.506 362.92 620.439 364.6C621.399 366.28 621.879 368.24 621.879 370.48ZM614.879 368.68C614.879 367.507 614.479 366.573 613.679 365.88C612.879 365.187 611.879 364.84 610.679 364.84C609.533 364.84 608.559 365.173 607.759 365.84C606.986 366.507 606.506 367.453 606.319 368.68H614.879ZM632.604 370.84C632.604 368.52 633.071 366.493 634.004 364.76C634.964 363.027 636.284 361.693 637.964 360.76C639.671 359.827 641.618 359.36 643.804 359.36C646.604 359.36 648.938 360.093 650.804 361.56C652.698 363.027 653.938 365.093 654.524 367.76H647.244C646.631 366.053 645.444 365.2 643.684 365.2C642.431 365.2 641.431 365.693 640.684 366.68C639.938 367.64 639.564 369.027 639.564 370.84C639.564 372.653 639.938 374.053 640.684 375.04C641.431 376 642.431 376.48 643.684 376.48C645.444 376.48 646.631 375.627 647.244 373.92H654.524C653.938 376.533 652.698 378.587 650.804 380.08C648.911 381.573 646.578 382.32 643.804 382.32C641.618 382.32 639.671 381.853 637.964 380.92C636.284 379.987 634.964 378.653 634.004 376.92C633.071 375.187 632.604 373.16 632.604 370.84ZM656.823 370.8C656.823 368.507 657.25 366.493 658.103 364.76C658.983 363.027 660.17 361.693 661.663 360.76C663.156 359.827 664.823 359.36 666.663 359.36C668.236 359.36 669.61 359.68 670.783 360.32C671.983 360.96 672.903 361.8 673.543 362.84V359.68H680.383V382H673.543V378.84C672.876 379.88 671.943 380.72 670.743 381.36C669.57 382 668.196 382.32 666.623 382.32C664.81 382.32 663.156 381.853 661.663 380.92C660.17 379.96 658.983 378.613 658.103 376.88C657.25 375.12 656.823 373.093 656.823 370.8ZM673.543 370.84C673.543 369.133 673.063 367.787 672.103 366.8C671.17 365.813 670.023 365.32 668.663 365.32C667.303 365.32 666.143 365.813 665.183 366.8C664.25 367.76 663.783 369.093 663.783 370.8C663.783 372.507 664.25 373.867 665.183 374.88C666.143 375.867 667.303 376.36 668.663 376.36C670.023 376.36 671.17 375.867 672.103 374.88C673.063 373.893 673.543 372.547 673.543 370.84ZM694.412 382.32C692.465 382.32 690.732 381.987 689.212 381.32C687.692 380.653 686.492 379.747 685.612 378.6C684.732 377.427 684.238 376.12 684.132 374.68H690.892C690.972 375.453 691.332 376.08 691.972 376.56C692.612 377.04 693.398 377.28 694.332 377.28C695.185 377.28 695.838 377.12 696.292 376.8C696.772 376.453 697.012 376.013 697.012 375.48C697.012 374.84 696.678 374.373 696.012 374.08C695.345 373.76 694.265 373.413 692.772 373.04C691.172 372.667 689.838 372.28 688.772 371.88C687.705 371.453 686.785 370.8 686.012 369.92C685.238 369.013 684.852 367.8 684.852 366.28C684.852 365 685.198 363.84 685.892 362.8C686.612 361.733 687.652 360.893 689.012 360.28C690.398 359.667 692.038 359.36 693.932 359.36C696.732 359.36 698.932 360.053 700.532 361.44C702.158 362.827 703.092 364.667 703.332 366.96H697.012C696.905 366.187 696.558 365.573 695.972 365.12C695.412 364.667 694.665 364.44 693.732 364.44C692.932 364.44 692.318 364.6 691.892 364.92C691.465 365.213 691.252 365.627 691.252 366.16C691.252 366.8 691.585 367.28 692.252 367.6C692.945 367.92 694.012 368.24 695.452 368.56C697.105 368.987 698.452 369.413 699.492 369.84C700.532 370.24 701.438 370.907 702.212 371.84C703.012 372.747 703.425 373.973 703.452 375.52C703.452 376.827 703.078 378 702.332 379.04C701.612 380.053 700.558 380.853 699.172 381.44C697.812 382.027 696.225 382.32 694.412 382.32ZM728.676 370.48C728.676 371.12 728.636 371.787 728.556 372.48H713.076C713.183 373.867 713.623 374.933 714.396 375.68C715.196 376.4 716.17 376.76 717.316 376.76C719.023 376.76 720.21 376.04 720.876 374.6H728.156C727.783 376.067 727.103 377.387 726.116 378.56C725.156 379.733 723.943 380.653 722.476 381.32C721.01 381.987 719.37 382.32 717.556 382.32C715.37 382.32 713.423 381.853 711.716 380.92C710.01 379.987 708.676 378.653 707.716 376.92C706.756 375.187 706.276 373.16 706.276 370.84C706.276 368.52 706.743 366.493 707.676 364.76C708.636 363.027 709.97 361.693 711.676 360.76C713.383 359.827 715.343 359.36 717.556 359.36C719.716 359.36 721.636 359.813 723.316 360.72C724.996 361.627 726.303 362.92 727.236 364.6C728.196 366.28 728.676 368.24 728.676 370.48ZM721.676 368.68C721.676 367.507 721.276 366.573 720.476 365.88C719.676 365.187 718.676 364.84 717.476 364.84C716.33 364.84 715.356 365.173 714.556 365.84C713.783 366.507 713.303 367.453 713.116 368.68H721.676ZM735.485 382.32C734.285 382.32 733.298 381.973 732.525 381.28C731.778 380.56 731.405 379.68 731.405 378.64C731.405 377.573 731.778 376.68 732.525 375.96C733.298 375.24 734.285 374.88 735.485 374.88C736.658 374.88 737.618 375.24 738.365 375.96C739.138 376.68 739.525 377.573 739.525 378.64C739.525 379.68 739.138 380.56 738.365 381.28C737.618 381.973 736.658 382.32 735.485 382.32Z" fill="#222222"/>
</svg>
