<svg width="880" height="149" viewBox="0 0 880 149" fill="none" xmlns="http://www.w3.org/2000/svg">
<path d="M67.8512 13.092V20.49H52.4072V28.482H63.9632V35.664H52.4072V51H43.1732V13.092H67.8512ZM77.3484 17.736C75.7284 17.736 74.3964 17.268 73.3524 16.332C72.3444 15.36 71.8404 14.172 71.8404 12.768C71.8404 11.328 72.3444 10.14 73.3524 9.204C74.3964 8.232 75.7284 7.746 77.3484 7.746C78.9324 7.746 80.2284 8.232 81.2364 9.204C82.2804 10.14 82.8024 11.328 82.8024 12.768C82.8024 14.172 82.2804 15.36 81.2364 16.332C80.2284 17.268 78.9324 17.736 77.3484 17.736ZM81.9384 20.868V51H72.7044V20.868H81.9384ZM117.034 35.448C117.034 36.312 116.98 37.212 116.872 38.148H95.9742C96.1182 40.02 96.7122 41.46 97.7562 42.468C98.8362 43.44 100.15 43.926 101.698 43.926C104.002 43.926 105.604 42.954 106.504 41.01H116.332C115.828 42.99 114.91 44.772 113.578 46.356C112.282 47.94 110.644 49.182 108.664 50.082C106.684 50.982 104.47 51.432 102.022 51.432C99.0702 51.432 96.4422 50.802 94.1382 49.542C91.8342 48.282 90.0342 46.482 88.7382 44.142C87.4422 41.802 86.7942 39.066 86.7942 35.934C86.7942 32.802 87.4242 30.066 88.6842 27.726C89.9802 25.386 91.7802 23.586 94.0842 22.326C96.3882 21.066 99.0342 20.436 102.022 20.436C104.938 20.436 107.53 21.048 109.798 22.272C112.066 23.496 113.83 25.242 115.09 27.51C116.386 29.778 117.034 32.424 117.034 35.448ZM107.584 33.018C107.584 31.434 107.044 30.174 105.964 29.238C104.884 28.302 103.534 27.834 101.914 27.834C100.366 27.834 99.0522 28.284 97.9722 29.184C96.9282 30.084 96.2802 31.362 96.0282 33.018H107.584ZM131.14 11.04V51H121.906V11.04H131.14ZM135.995 35.88C135.995 32.784 136.571 30.066 137.723 27.726C138.911 25.386 140.513 23.586 142.529 22.326C144.545 21.066 146.795 20.436 149.279 20.436C151.259 20.436 153.059 20.85 154.679 21.678C156.335 22.506 157.631 23.622 158.567 25.026V11.04H167.801V51H158.567V46.68C157.703 48.12 156.461 49.272 154.841 50.136C153.257 51 151.403 51.432 149.279 51.432C146.795 51.432 144.545 50.802 142.529 49.542C140.513 48.246 138.911 46.428 137.723 44.088C136.571 41.712 135.995 38.976 135.995 35.88ZM158.567 35.934C158.567 33.63 157.919 31.812 156.623 30.48C155.363 29.148 153.815 28.482 151.979 28.482C150.143 28.482 148.577 29.148 147.281 30.48C146.021 31.776 145.391 33.576 145.391 35.88C145.391 38.184 146.021 40.02 147.281 41.388C148.577 42.72 150.143 43.386 151.979 43.386C153.815 43.386 155.363 42.72 156.623 41.388C157.919 40.056 158.567 38.238 158.567 35.934ZM197.702 28.212V35.88H173.942V28.212H197.702ZM223.734 51.378C220.17 51.378 216.894 50.55 213.906 48.894C210.954 47.238 208.596 44.934 206.832 41.982C205.104 38.994 204.24 35.646 204.24 31.938C204.24 28.23 205.104 24.9 206.832 21.948C208.596 18.996 210.954 16.692 213.906 15.036C216.894 13.38 220.17 12.552 223.734 12.552C227.298 12.552 230.556 13.38 233.508 15.036C236.496 16.692 238.836 18.996 240.528 21.948C242.256 24.9 243.12 28.23 243.12 31.938C243.12 35.646 242.256 38.994 240.528 41.982C238.8 44.934 236.46 47.238 233.508 48.894C230.556 50.55 227.298 51.378 223.734 51.378ZM223.734 42.954C226.758 42.954 229.17 41.946 230.97 39.93C232.806 37.914 233.724 35.25 233.724 31.938C233.724 28.59 232.806 25.926 230.97 23.946C229.17 21.93 226.758 20.922 223.734 20.922C220.674 20.922 218.226 21.912 216.39 23.892C214.59 25.872 213.69 28.554 213.69 31.938C213.69 35.286 214.59 37.968 216.39 39.984C218.226 41.964 220.674 42.954 223.734 42.954ZM257.491 25.89C258.571 24.234 259.921 22.938 261.541 22.002C263.161 21.03 264.961 20.544 266.941 20.544V30.318H264.403C262.099 30.318 260.371 30.822 259.219 31.83C258.067 32.802 257.491 34.53 257.491 37.014V51H248.257V20.868H257.491V25.89ZM275.999 17.736C274.379 17.736 273.047 17.268 272.003 16.332C270.995 15.36 270.491 14.172 270.491 12.768C270.491 11.328 270.995 10.14 272.003 9.204C273.047 8.232 274.379 7.746 275.999 7.746C277.583 7.746 278.879 8.232 279.887 9.204C280.931 10.14 281.453 11.328 281.453 12.768C281.453 14.172 280.931 15.36 279.887 16.332C278.879 17.268 277.583 17.736 275.999 17.736ZM280.589 20.868V51H271.355V20.868H280.589ZM315.685 35.448C315.685 36.312 315.631 37.212 315.523 38.148H294.625C294.769 40.02 295.363 41.46 296.407 42.468C297.487 43.44 298.801 43.926 300.349 43.926C302.653 43.926 304.255 42.954 305.155 41.01H314.983C314.479 42.99 313.561 44.772 312.229 46.356C310.933 47.94 309.295 49.182 307.315 50.082C305.335 50.982 303.121 51.432 300.673 51.432C297.721 51.432 295.093 50.802 292.789 49.542C290.485 48.282 288.685 46.482 287.389 44.142C286.093 41.802 285.445 39.066 285.445 35.934C285.445 32.802 286.075 30.066 287.335 27.726C288.631 25.386 290.431 23.586 292.735 22.326C295.039 21.066 297.685 20.436 300.673 20.436C303.589 20.436 306.181 21.048 308.449 22.272C310.717 23.496 312.481 25.242 313.741 27.51C315.037 29.778 315.685 32.424 315.685 35.448ZM306.235 33.018C306.235 31.434 305.695 30.174 304.615 29.238C303.535 28.302 302.185 27.834 300.565 27.834C299.017 27.834 297.703 28.284 296.623 29.184C295.579 30.084 294.931 31.362 294.679 33.018H306.235ZM338.916 20.544C342.444 20.544 345.252 21.696 347.34 24C349.464 26.268 350.526 29.4 350.526 33.396V51H341.346V34.638C341.346 32.622 340.824 31.056 339.78 29.94C338.736 28.824 337.332 28.266 335.568 28.266C333.804 28.266 332.4 28.824 331.356 29.94C330.312 31.056 329.79 32.622 329.79 34.638V51H320.556V20.868H329.79V24.864C330.726 23.532 331.986 22.488 333.57 21.732C335.154 20.94 336.936 20.544 338.916 20.544ZM373.737 43.17V51H369.039C365.691 51 363.081 50.19 361.209 48.57C359.337 46.914 358.401 44.232 358.401 40.524V28.536H354.729V20.868H358.401V13.524H367.635V20.868H373.683V28.536H367.635V40.632C367.635 41.532 367.851 42.18 368.283 42.576C368.715 42.972 369.435 43.17 370.443 43.17H373.737ZM407.284 35.448C407.284 36.312 407.23 37.212 407.122 38.148H386.224C386.368 40.02 386.962 41.46 388.006 42.468C389.086 43.44 390.4 43.926 391.948 43.926C394.252 43.926 395.854 42.954 396.754 41.01H406.582C406.078 42.99 405.16 44.772 403.828 46.356C402.532 47.94 400.894 49.182 398.914 50.082C396.934 50.982 394.72 51.432 392.272 51.432C389.32 51.432 386.692 50.802 384.388 49.542C382.084 48.282 380.284 46.482 378.988 44.142C377.692 41.802 377.044 39.066 377.044 35.934C377.044 32.802 377.674 30.066 378.934 27.726C380.23 25.386 382.03 23.586 384.334 22.326C386.638 21.066 389.284 20.436 392.272 20.436C395.188 20.436 397.78 21.048 400.048 22.272C402.316 23.496 404.08 25.242 405.34 27.51C406.636 29.778 407.284 32.424 407.284 35.448ZM397.834 33.018C397.834 31.434 397.294 30.174 396.214 29.238C395.134 28.302 393.784 27.834 392.164 27.834C390.616 27.834 389.302 28.284 388.222 29.184C387.178 30.084 386.53 31.362 386.278 33.018H397.834ZM410.32 35.88C410.32 32.784 410.896 30.066 412.048 27.726C413.236 25.386 414.838 23.586 416.854 22.326C418.87 21.066 421.12 20.436 423.604 20.436C425.584 20.436 427.384 20.85 429.004 21.678C430.66 22.506 431.956 23.622 432.892 25.026V11.04H442.126V51H432.892V46.68C432.028 48.12 430.786 49.272 429.166 50.136C427.582 51 425.728 51.432 423.604 51.432C421.12 51.432 418.87 50.802 416.854 49.542C414.838 48.246 413.236 46.428 412.048 44.088C410.896 41.712 410.32 38.976 410.32 35.88ZM432.892 35.934C432.892 33.63 432.244 31.812 430.948 30.48C429.688 29.148 428.14 28.482 426.304 28.482C424.468 28.482 422.902 29.148 421.606 30.48C420.346 31.776 419.716 33.576 419.716 35.88C419.716 38.184 420.346 40.02 421.606 41.388C422.902 42.72 424.468 43.386 426.304 43.386C428.14 43.386 429.688 42.72 430.948 41.388C432.244 40.056 432.892 38.238 432.892 35.934ZM458.683 31.992C458.683 28.248 459.493 24.918 461.113 22.002C462.733 19.05 464.983 16.764 467.863 15.144C470.779 13.488 474.073 12.66 477.745 12.66C482.245 12.66 486.097 13.848 489.301 16.224C492.505 18.6 494.647 21.84 495.727 25.944H485.575C484.819 24.36 483.739 23.154 482.335 22.326C480.967 21.498 479.401 21.084 477.637 21.084C474.793 21.084 472.489 22.074 470.725 24.054C468.961 26.034 468.079 28.68 468.079 31.992C468.079 35.304 468.961 37.95 470.725 39.93C472.489 41.91 474.793 42.9 477.637 42.9C479.401 42.9 480.967 42.486 482.335 41.658C483.739 40.83 484.819 39.624 485.575 38.04H495.727C494.647 42.144 492.505 45.384 489.301 47.76C486.097 50.1 482.245 51.27 477.745 51.27C474.073 51.27 470.779 50.46 467.863 48.84C464.983 47.184 462.733 44.898 461.113 41.982C459.493 39.066 458.683 35.736 458.683 31.992ZM515.098 51.432C512.146 51.432 509.482 50.802 507.106 49.542C504.766 48.282 502.912 46.482 501.544 44.142C500.212 41.802 499.546 39.066 499.546 35.934C499.546 32.838 500.23 30.12 501.598 27.78C502.966 25.404 504.838 23.586 507.214 22.326C509.59 21.066 512.254 20.436 515.206 20.436C518.158 20.436 520.822 21.066 523.198 22.326C525.574 23.586 527.446 25.404 528.814 27.78C530.182 30.12 530.866 32.838 530.866 35.934C530.866 39.03 530.164 41.766 528.76 44.142C527.392 46.482 525.502 48.282 523.09 49.542C520.714 50.802 518.05 51.432 515.098 51.432ZM515.098 43.44C516.862 43.44 518.356 42.792 519.58 41.496C520.84 40.2 521.47 38.346 521.47 35.934C521.47 33.522 520.858 31.668 519.634 30.372C518.446 29.076 516.97 28.428 515.206 28.428C513.406 28.428 511.912 29.076 510.724 30.372C509.536 31.632 508.942 33.486 508.942 35.934C508.942 38.346 509.518 40.2 510.67 41.496C511.858 42.792 513.334 43.44 515.098 43.44ZM554.125 20.544C557.653 20.544 560.461 21.696 562.549 24C564.673 26.268 565.735 29.4 565.735 33.396V51H556.555V34.638C556.555 32.622 556.033 31.056 554.989 29.94C553.945 28.824 552.541 28.266 550.777 28.266C549.013 28.266 547.609 28.824 546.565 29.94C545.521 31.056 544.999 32.622 544.999 34.638V51H535.765V20.868H544.999V24.864C545.935 23.532 547.195 22.488 548.779 21.732C550.363 20.94 552.145 20.544 554.125 20.544ZM588.946 43.17V51H584.248C580.9 51 578.29 50.19 576.418 48.57C574.546 46.914 573.61 44.232 573.61 40.524V28.536H569.938V20.868H573.61V13.524H582.844V20.868H588.892V28.536H582.844V40.632C582.844 41.532 583.06 42.18 583.492 42.576C583.924 42.972 584.644 43.17 585.652 43.17H588.946ZM603.323 25.89C604.403 24.234 605.753 22.938 607.373 22.002C608.993 21.03 610.793 20.544 612.773 20.544V30.318H610.235C607.931 30.318 606.203 30.822 605.051 31.83C603.899 32.802 603.323 34.53 603.323 37.014V51H594.089V20.868H603.323V25.89ZM630.903 51.432C627.951 51.432 625.287 50.802 622.911 49.542C620.571 48.282 618.717 46.482 617.349 44.142C616.017 41.802 615.351 39.066 615.351 35.934C615.351 32.838 616.035 30.12 617.403 27.78C618.771 25.404 620.643 23.586 623.019 22.326C625.395 21.066 628.059 20.436 631.011 20.436C633.963 20.436 636.627 21.066 639.003 22.326C641.379 23.586 643.251 25.404 644.619 27.78C645.987 30.12 646.671 32.838 646.671 35.934C646.671 39.03 645.969 41.766 644.565 44.142C643.197 46.482 641.307 48.282 638.895 49.542C636.519 50.802 633.855 51.432 630.903 51.432ZM630.903 43.44C632.667 43.44 634.161 42.792 635.385 41.496C636.645 40.2 637.275 38.346 637.275 35.934C637.275 33.522 636.663 31.668 635.439 30.372C634.251 29.076 632.775 28.428 631.011 28.428C629.211 28.428 627.717 29.076 626.529 30.372C625.341 31.632 624.747 33.486 624.747 35.934C624.747 38.346 625.323 40.2 626.475 41.496C627.663 42.792 629.139 43.44 630.903 43.44ZM660.804 11.04V51H651.57V11.04H660.804ZM691.359 62.286C687.867 58.938 685.149 54.618 683.205 49.326C681.261 44.034 680.289 38.328 680.289 32.208C680.289 26.016 681.297 20.238 683.313 14.874C685.329 9.474 688.191 5.082 691.899 1.698H700.971V2.562C697.191 6.306 694.275 10.806 692.223 16.062C690.171 21.282 689.145 26.664 689.145 32.208C689.145 37.716 690.135 43.026 692.115 48.138C694.095 53.25 696.885 57.678 700.485 61.422V62.286H691.359ZM729.351 13.092V20.49H713.907V28.482H725.463V35.664H713.907V51H704.673V13.092H729.351ZM752.132 51.378C748.568 51.378 745.292 50.55 742.304 48.894C739.352 47.238 736.994 44.934 735.23 41.982C733.502 38.994 732.638 35.646 732.638 31.938C732.638 28.23 733.502 24.9 735.23 21.948C736.994 18.996 739.352 16.692 742.304 15.036C745.292 13.38 748.568 12.552 752.132 12.552C755.696 12.552 758.954 13.38 761.906 15.036C764.894 16.692 767.234 18.996 768.926 21.948C770.654 24.9 771.518 28.23 771.518 31.938C771.518 35.646 770.654 38.994 768.926 41.982C767.198 44.934 764.858 47.238 761.906 48.894C758.954 50.55 755.696 51.378 752.132 51.378ZM752.132 42.954C755.156 42.954 757.568 41.946 759.368 39.93C761.204 37.914 762.122 35.25 762.122 31.938C762.122 28.59 761.204 25.926 759.368 23.946C757.568 21.93 755.156 20.922 752.132 20.922C749.072 20.922 746.624 21.912 744.788 23.892C742.988 25.872 742.088 28.554 742.088 31.938C742.088 35.286 742.988 37.968 744.788 39.984C746.624 41.964 749.072 42.954 752.132 42.954ZM775.09 31.992C775.09 28.248 775.9 24.918 777.52 22.002C779.14 19.05 781.39 16.764 784.27 15.144C787.186 13.488 790.48 12.66 794.152 12.66C798.652 12.66 802.504 13.848 805.708 16.224C808.912 18.6 811.054 21.84 812.134 25.944H801.982C801.226 24.36 800.146 23.154 798.742 22.326C797.374 21.498 795.808 21.084 794.044 21.084C791.2 21.084 788.896 22.074 787.132 24.054C785.368 26.034 784.486 28.68 784.486 31.992C784.486 35.304 785.368 37.95 787.132 39.93C788.896 41.91 791.2 42.9 794.044 42.9C795.808 42.9 797.374 42.486 798.742 41.658C800.146 40.83 801.226 39.624 801.982 38.04H812.134C811.054 42.144 808.912 45.384 805.708 47.76C802.504 50.1 798.652 51.27 794.152 51.27C790.48 51.27 787.186 50.46 784.27 48.84C781.39 47.184 779.14 44.898 777.52 41.982C775.9 39.066 775.09 35.736 775.09 31.992ZM815.304 62.286V61.422C818.904 57.678 821.694 53.25 823.674 48.138C825.654 43.026 826.644 37.716 826.644 32.208C826.644 26.664 825.618 21.282 823.566 16.062C821.514 10.806 818.598 6.306 814.818 2.562V1.698H823.89C827.598 5.082 830.46 9.474 832.476 14.874C834.492 20.238 835.5 26.016 835.5 32.208C835.5 38.328 834.528 44.034 832.584 49.326C830.64 54.618 827.922 58.938 824.43 62.286H815.304Z" fill="#222222"/>
<path d="M11.1925 94.04V96.3H7.4725V108H4.6725V96.3H0.9525V94.04H11.1925ZM19.4755 96.76C20.3155 96.76 21.0621 96.9467 21.7155 97.32C22.3688 97.68 22.8755 98.22 23.2355 98.94C23.6088 99.6467 23.7955 100.5 23.7955 101.5V108H20.9955V101.88C20.9955 101 20.7755 100.327 20.3355 99.86C19.8955 99.38 19.2955 99.14 18.5355 99.14C17.7621 99.14 17.1488 99.38 16.6955 99.86C16.2555 100.327 16.0355 101 16.0355 101.88V108H13.2355V93.2H16.0355V98.3C16.3955 97.82 16.8755 97.4467 17.4755 97.18C18.0755 96.9 18.7421 96.76 19.4755 96.76ZM36.7581 102.22C36.7581 102.62 36.7315 102.98 36.6781 103.3H28.5781C28.6448 104.1 28.9248 104.727 29.4181 105.18C29.9115 105.633 30.5181 105.86 31.2381 105.86C32.2781 105.86 33.0181 105.413 33.4581 104.52H36.4781C36.1581 105.587 35.5448 106.467 34.6381 107.16C33.7315 107.84 32.6181 108.18 31.2981 108.18C30.2315 108.18 29.2715 107.947 28.4181 107.48C27.5781 107 26.9181 106.327 26.4381 105.46C25.9715 104.593 25.7381 103.593 25.7381 102.46C25.7381 101.313 25.9715 100.307 26.4381 99.44C26.9048 98.5733 27.5581 97.9067 28.3981 97.44C29.2381 96.9733 30.2048 96.74 31.2981 96.74C32.3515 96.74 33.2915 96.9667 34.1181 97.42C34.9581 97.8733 35.6048 98.52 36.0581 99.36C36.5248 100.187 36.7581 101.14 36.7581 102.22ZM33.8581 101.42C33.8448 100.7 33.5848 100.127 33.0781 99.7C32.5715 99.26 31.9515 99.04 31.2181 99.04C30.5248 99.04 29.9381 99.2533 29.4581 99.68C28.9915 100.093 28.7048 100.673 28.5981 101.42H33.8581ZM42.8875 101C42.8875 99.6267 43.1942 98.4 43.8075 97.32C44.4342 96.2267 45.2808 95.38 46.3475 94.78C47.4275 94.1667 48.6342 93.86 49.9675 93.86C51.5275 93.86 52.8942 94.26 54.0675 95.06C55.2408 95.86 56.0608 96.9667 56.5275 98.38H53.3075C52.9875 97.7133 52.5342 97.2133 51.9475 96.88C51.3742 96.5467 50.7075 96.38 49.9475 96.38C49.1342 96.38 48.4075 96.5733 47.7675 96.96C47.1408 97.3333 46.6475 97.8667 46.2875 98.56C45.9408 99.2533 45.7675 100.067 45.7675 101C45.7675 101.92 45.9408 102.733 46.2875 103.44C46.6475 104.133 47.1408 104.673 47.7675 105.06C48.4075 105.433 49.1342 105.62 49.9475 105.62C50.7075 105.62 51.3742 105.453 51.9475 105.12C52.5342 104.773 52.9875 104.267 53.3075 103.6H56.5275C56.0608 105.027 55.2408 106.14 54.0675 106.94C52.9075 107.727 51.5408 108.12 49.9675 108.12C48.6342 108.12 47.4275 107.82 46.3475 107.22C45.2808 106.607 44.4342 105.76 43.8075 104.68C43.1942 103.6 42.8875 102.373 42.8875 101ZM63.8391 108.18C62.7724 108.18 61.8124 107.947 60.9591 107.48C60.1057 107 59.4324 106.327 58.9391 105.46C58.4591 104.593 58.2191 103.593 58.2191 102.46C58.2191 101.327 58.4657 100.327 58.9591 99.46C59.4657 98.5933 60.1524 97.9267 61.0191 97.46C61.8857 96.98 62.8524 96.74 63.9191 96.74C64.9857 96.74 65.9524 96.98 66.8191 97.46C67.6857 97.9267 68.3657 98.5933 68.8591 99.46C69.3657 100.327 69.6191 101.327 69.6191 102.46C69.6191 103.593 69.3591 104.593 68.8391 105.46C68.3324 106.327 67.6391 107 66.7591 107.48C65.8924 107.947 64.9191 108.18 63.8391 108.18ZM63.8391 105.74C64.3457 105.74 64.8191 105.62 65.2591 105.38C65.7124 105.127 66.0724 104.753 66.3391 104.26C66.6057 103.767 66.7391 103.167 66.7391 102.46C66.7391 101.407 66.4591 100.6 65.8991 100.04C65.3524 99.4667 64.6791 99.18 63.8791 99.18C63.0791 99.18 62.4057 99.4667 61.8591 100.04C61.3257 100.6 61.0591 101.407 61.0591 102.46C61.0591 103.513 61.3191 104.327 61.8391 104.9C62.3724 105.46 63.0391 105.74 63.8391 105.74ZM77.813 96.76C79.133 96.76 80.1996 97.18 81.013 98.02C81.8263 98.8467 82.233 100.007 82.233 101.5V108H79.433V101.88C79.433 101 79.213 100.327 78.773 99.86C78.333 99.38 77.733 99.14 76.973 99.14C76.1996 99.14 75.5863 99.38 75.133 99.86C74.693 100.327 74.473 101 74.473 101.88V108H71.673V96.92H74.473V98.3C74.8463 97.82 75.3196 97.4467 75.893 97.18C76.4796 96.9 77.1196 96.76 77.813 96.76ZM88.1556 99.22V104.58C88.1556 104.953 88.2423 105.227 88.4156 105.4C88.6023 105.56 88.909 105.64 89.3356 105.64H90.6356V108H88.8756C86.5156 108 85.3356 106.853 85.3356 104.56V99.22H84.0156V96.92H85.3356V94.18H88.1556V96.92H90.6356V99.22H88.1556ZM95.4495 98.64C95.8095 98.0533 96.2762 97.5933 96.8495 97.26C97.4362 96.9267 98.1029 96.76 98.8495 96.76V99.7H98.1095C97.2295 99.7 96.5629 99.9067 96.1095 100.32C95.6695 100.733 95.4495 101.453 95.4495 102.48V108H92.6495V96.92H95.4495V98.64ZM105.655 108.18C104.589 108.18 103.629 107.947 102.775 107.48C101.922 107 101.249 106.327 100.755 105.46C100.275 104.593 100.035 103.593 100.035 102.46C100.035 101.327 100.282 100.327 100.775 99.46C101.282 98.5933 101.969 97.9267 102.835 97.46C103.702 96.98 104.669 96.74 105.735 96.74C106.802 96.74 107.769 96.98 108.635 97.46C109.502 97.9267 110.182 98.5933 110.675 99.46C111.182 100.327 111.435 101.327 111.435 102.46C111.435 103.593 111.175 104.593 110.655 105.46C110.149 106.327 109.455 107 108.575 107.48C107.709 107.947 106.735 108.18 105.655 108.18ZM105.655 105.74C106.162 105.74 106.635 105.62 107.075 105.38C107.529 105.127 107.889 104.753 108.155 104.26C108.422 103.767 108.555 103.167 108.555 102.46C108.555 101.407 108.275 100.6 107.715 100.04C107.169 99.4667 106.495 99.18 105.695 99.18C104.895 99.18 104.222 99.4667 103.675 100.04C103.142 100.6 102.875 101.407 102.875 102.46C102.875 103.513 103.135 104.327 103.655 104.9C104.189 105.46 104.855 105.74 105.655 105.74ZM116.289 93.2V108H113.489V93.2H116.289ZM121.856 93.2V108H119.056V93.2H121.856ZM134.922 102.22C134.922 102.62 134.896 102.98 134.842 103.3H126.742C126.809 104.1 127.089 104.727 127.582 105.18C128.076 105.633 128.682 105.86 129.402 105.86C130.442 105.86 131.182 105.413 131.622 104.52H134.642C134.322 105.587 133.709 106.467 132.802 107.16C131.896 107.84 130.782 108.18 129.462 108.18C128.396 108.18 127.436 107.947 126.582 107.48C125.742 107 125.082 106.327 124.602 105.46C124.136 104.593 123.902 103.593 123.902 102.46C123.902 101.313 124.136 100.307 124.602 99.44C125.069 98.5733 125.722 97.9067 126.562 97.44C127.402 96.9733 128.369 96.74 129.462 96.74C130.516 96.74 131.456 96.9667 132.282 97.42C133.122 97.8733 133.769 98.52 134.222 99.36C134.689 100.187 134.922 101.14 134.922 102.22ZM132.022 101.42C132.009 100.7 131.749 100.127 131.242 99.7C130.736 99.26 130.116 99.04 129.382 99.04C128.689 99.04 128.102 99.2533 127.622 99.68C127.156 100.093 126.869 100.673 126.762 101.42H132.022ZM139.766 98.64C140.126 98.0533 140.593 97.5933 141.166 97.26C141.753 96.9267 142.419 96.76 143.166 96.76V99.7H142.426C141.546 99.7 140.879 99.9067 140.426 100.32C139.986 100.733 139.766 101.453 139.766 102.48V108H136.966V96.92H139.766V98.64ZM151.238 95.6C150.744 95.6 150.331 95.4467 149.998 95.14C149.678 94.82 149.518 94.4267 149.518 93.96C149.518 93.4933 149.678 93.1067 149.998 92.8C150.331 92.48 150.744 92.32 151.238 92.32C151.731 92.32 152.138 92.48 152.458 92.8C152.791 93.1067 152.958 93.4933 152.958 93.96C152.958 94.4267 152.791 94.82 152.458 95.14C152.138 95.4467 151.731 95.6 151.238 95.6ZM152.618 96.92V108H149.818V96.92H152.618ZM169.144 96.76C170.504 96.76 171.597 97.18 172.424 98.02C173.264 98.8467 173.684 100.007 173.684 101.5V108H170.884V101.88C170.884 101.013 170.664 100.353 170.224 99.9C169.784 99.4333 169.184 99.2 168.424 99.2C167.664 99.2 167.057 99.4333 166.604 99.9C166.164 100.353 165.944 101.013 165.944 101.88V108H163.144V101.88C163.144 101.013 162.924 100.353 162.484 99.9C162.044 99.4333 161.444 99.2 160.684 99.2C159.911 99.2 159.297 99.4333 158.844 99.9C158.404 100.353 158.184 101.013 158.184 101.88V108H155.384V96.92H158.184V98.26C158.544 97.7933 159.004 97.4267 159.564 97.16C160.137 96.8933 160.764 96.76 161.444 96.76C162.311 96.76 163.084 96.9467 163.764 97.32C164.444 97.68 164.971 98.2 165.344 98.88C165.704 98.24 166.224 97.7267 166.904 97.34C167.597 96.9533 168.344 96.76 169.144 96.76ZM179.141 98.52C179.501 98.0133 179.994 97.5933 180.621 97.26C181.261 96.9133 181.988 96.74 182.801 96.74C183.748 96.74 184.601 96.9733 185.361 97.44C186.134 97.9067 186.741 98.5733 187.181 99.44C187.634 100.293 187.861 101.287 187.861 102.42C187.861 103.553 187.634 104.56 187.181 105.44C186.741 106.307 186.134 106.98 185.361 107.46C184.601 107.94 183.748 108.18 182.801 108.18C181.988 108.18 181.268 108.013 180.641 107.68C180.028 107.347 179.528 106.927 179.141 106.42V113.28H176.341V96.92H179.141V98.52ZM185.001 102.42C185.001 101.753 184.861 101.18 184.581 100.7C184.314 100.207 183.954 99.8333 183.501 99.58C183.061 99.3267 182.581 99.2 182.061 99.2C181.554 99.2 181.074 99.3333 180.621 99.6C180.181 99.8533 179.821 100.227 179.541 100.72C179.274 101.213 179.141 101.793 179.141 102.46C179.141 103.127 179.274 103.707 179.541 104.2C179.821 104.693 180.181 105.073 180.621 105.34C181.074 105.593 181.554 105.72 182.061 105.72C182.581 105.72 183.061 105.587 183.501 105.32C183.954 105.053 184.314 104.673 184.581 104.18C184.861 103.687 185.001 103.1 185.001 102.42ZM192.696 93.2V108H189.896V93.2H192.696ZM205.762 102.22C205.762 102.62 205.735 102.98 205.682 103.3H197.582C197.649 104.1 197.929 104.727 198.422 105.18C198.915 105.633 199.522 105.86 200.242 105.86C201.282 105.86 202.022 105.413 202.462 104.52H205.482C205.162 105.587 204.549 106.467 203.642 107.16C202.735 107.84 201.622 108.18 200.302 108.18C199.235 108.18 198.275 107.947 197.422 107.48C196.582 107 195.922 106.327 195.442 105.46C194.975 104.593 194.742 103.593 194.742 102.46C194.742 101.313 194.975 100.307 195.442 99.44C195.909 98.5733 196.562 97.9067 197.402 97.44C198.242 96.9733 199.209 96.74 200.302 96.74C201.355 96.74 202.295 96.9667 203.122 97.42C203.962 97.8733 204.609 98.52 205.062 99.36C205.529 100.187 205.762 101.14 205.762 102.22ZM202.862 101.42C202.849 100.7 202.589 100.127 202.082 99.7C201.575 99.26 200.955 99.04 200.222 99.04C199.529 99.04 198.942 99.2533 198.462 99.68C197.995 100.093 197.709 100.673 197.602 101.42H202.862ZM221.566 96.76C222.926 96.76 224.019 97.18 224.846 98.02C225.686 98.8467 226.106 100.007 226.106 101.5V108H223.306V101.88C223.306 101.013 223.086 100.353 222.646 99.9C222.206 99.4333 221.606 99.2 220.846 99.2C220.086 99.2 219.479 99.4333 219.026 99.9C218.586 100.353 218.366 101.013 218.366 101.88V108H215.566V101.88C215.566 101.013 215.346 100.353 214.906 99.9C214.466 99.4333 213.866 99.2 213.106 99.2C212.332 99.2 211.719 99.4333 211.266 99.9C210.826 100.353 210.606 101.013 210.606 101.88V108H207.806V96.92H210.606V98.26C210.966 97.7933 211.426 97.4267 211.986 97.16C212.559 96.8933 213.186 96.76 213.866 96.76C214.732 96.76 215.506 96.9467 216.186 97.32C216.866 97.68 217.392 98.2 217.766 98.88C218.126 98.24 218.646 97.7267 219.326 97.34C220.019 96.9533 220.766 96.76 221.566 96.76ZM239.063 102.22C239.063 102.62 239.036 102.98 238.983 103.3H230.883C230.949 104.1 231.229 104.727 231.723 105.18C232.216 105.633 232.823 105.86 233.543 105.86C234.583 105.86 235.323 105.413 235.763 104.52H238.783C238.463 105.587 237.849 106.467 236.943 107.16C236.036 107.84 234.923 108.18 233.603 108.18C232.536 108.18 231.576 107.947 230.723 107.48C229.883 107 229.223 106.327 228.743 105.46C228.276 104.593 228.043 103.593 228.043 102.46C228.043 101.313 228.276 100.307 228.743 99.44C229.209 98.5733 229.863 97.9067 230.703 97.44C231.543 96.9733 232.509 96.74 233.603 96.74C234.656 96.74 235.596 96.9667 236.423 97.42C237.263 97.8733 237.909 98.52 238.363 99.36C238.829 100.187 239.063 101.14 239.063 102.22ZM236.163 101.42C236.149 100.7 235.889 100.127 235.383 99.7C234.876 99.26 234.256 99.04 233.523 99.04C232.829 99.04 232.243 99.2533 231.763 99.68C231.296 100.093 231.009 100.673 230.903 101.42H236.163ZM247.247 96.76C248.567 96.76 249.633 97.18 250.447 98.02C251.26 98.8467 251.667 100.007 251.667 101.5V108H248.867V101.88C248.867 101 248.647 100.327 248.207 99.86C247.767 99.38 247.167 99.14 246.407 99.14C245.633 99.14 245.02 99.38 244.567 99.86C244.127 100.327 243.907 101 243.907 101.88V108H241.107V96.92H243.907V98.3C244.28 97.82 244.753 97.4467 245.327 97.18C245.913 96.9 246.553 96.76 247.247 96.76ZM257.589 99.22V104.58C257.589 104.953 257.676 105.227 257.849 105.4C258.036 105.56 258.343 105.64 258.769 105.64H260.069V108H258.309C255.949 108 254.769 106.853 254.769 104.56V99.22H253.449V96.92H254.769V94.18H257.589V96.92H260.069V99.22H257.589ZM266.323 108.18C265.416 108.18 264.603 108.02 263.883 107.7C263.163 107.367 262.59 106.92 262.163 106.36C261.75 105.8 261.523 105.18 261.483 104.5H264.303C264.356 104.927 264.563 105.28 264.923 105.56C265.296 105.84 265.756 105.98 266.303 105.98C266.836 105.98 267.25 105.873 267.543 105.66C267.85 105.447 268.003 105.173 268.003 104.84C268.003 104.48 267.816 104.213 267.443 104.04C267.083 103.853 266.503 103.653 265.703 103.44C264.876 103.24 264.196 103.033 263.663 102.82C263.143 102.607 262.69 102.28 262.303 101.84C261.93 101.4 261.743 100.807 261.743 100.06C261.743 99.4467 261.916 98.8867 262.263 98.38C262.623 97.8733 263.13 97.4733 263.783 97.18C264.45 96.8867 265.23 96.74 266.123 96.74C267.443 96.74 268.496 97.0733 269.283 97.74C270.07 98.3933 270.503 99.28 270.583 100.4H267.903C267.863 99.96 267.676 99.6133 267.343 99.36C267.023 99.0933 266.59 98.96 266.043 98.96C265.536 98.96 265.143 99.0533 264.863 99.24C264.596 99.4267 264.463 99.6867 264.463 100.02C264.463 100.393 264.65 100.68 265.023 100.88C265.396 101.067 265.976 101.26 266.763 101.46C267.563 101.66 268.223 101.867 268.743 102.08C269.263 102.293 269.71 102.627 270.083 103.08C270.47 103.52 270.67 104.107 270.683 104.84C270.683 105.48 270.503 106.053 270.143 106.56C269.796 107.067 269.29 107.467 268.623 107.76C267.97 108.04 267.203 108.18 266.323 108.18ZM277.027 102.42C277.027 101.3 277.247 100.307 277.687 99.44C278.141 98.5733 278.747 97.9067 279.507 97.44C280.281 96.9733 281.141 96.74 282.087 96.74C282.914 96.74 283.634 96.9067 284.247 97.24C284.874 97.5733 285.374 97.9933 285.747 98.5V96.92H288.567V108H285.747V106.38C285.387 106.9 284.887 107.333 284.247 107.68C283.621 108.013 282.894 108.18 282.067 108.18C281.134 108.18 280.281 107.94 279.507 107.46C278.747 106.98 278.141 106.307 277.687 105.44C277.247 104.56 277.027 103.553 277.027 102.42ZM285.747 102.46C285.747 101.78 285.614 101.2 285.347 100.72C285.081 100.227 284.721 99.8533 284.267 99.6C283.814 99.3333 283.327 99.2 282.807 99.2C282.287 99.2 281.807 99.3267 281.367 99.58C280.927 99.8333 280.567 100.207 280.287 100.7C280.021 101.18 279.887 101.753 279.887 102.42C279.887 103.087 280.021 103.673 280.287 104.18C280.567 104.673 280.927 105.053 281.367 105.32C281.821 105.587 282.301 105.72 282.807 105.72C283.327 105.72 283.814 105.593 284.267 105.34C284.721 105.073 285.081 104.7 285.347 104.22C285.614 103.727 285.747 103.14 285.747 102.46ZM294.102 93.2V108H291.302V93.2H294.102ZM299.668 93.2V108H296.868V93.2H299.668ZM310 98.52C310.36 98.0133 310.854 97.5933 311.48 97.26C312.12 96.9133 312.847 96.74 313.66 96.74C314.607 96.74 315.46 96.9733 316.22 97.44C316.994 97.9067 317.6 98.5733 318.04 99.44C318.494 100.293 318.72 101.287 318.72 102.42C318.72 103.553 318.494 104.56 318.04 105.44C317.6 106.307 316.994 106.98 316.22 107.46C315.46 107.94 314.607 108.18 313.66 108.18C312.847 108.18 312.127 108.013 311.5 107.68C310.887 107.347 310.387 106.927 310 106.42V113.28H307.2V96.92H310V98.52ZM315.86 102.42C315.86 101.753 315.72 101.18 315.44 100.7C315.174 100.207 314.814 99.8333 314.36 99.58C313.92 99.3267 313.44 99.2 312.92 99.2C312.414 99.2 311.934 99.3333 311.48 99.6C311.04 99.8533 310.68 100.227 310.4 100.72C310.134 101.213 310 101.793 310 102.46C310 103.127 310.134 103.707 310.4 104.2C310.68 104.693 311.04 105.073 311.48 105.34C311.934 105.593 312.414 105.72 312.92 105.72C313.44 105.72 313.92 105.587 314.36 105.32C314.814 105.053 315.174 104.673 315.44 104.18C315.72 103.687 315.86 103.1 315.86 102.42ZM325.675 108.18C324.608 108.18 323.648 107.947 322.795 107.48C321.942 107 321.268 106.327 320.775 105.46C320.295 104.593 320.055 103.593 320.055 102.46C320.055 101.327 320.302 100.327 320.795 99.46C321.302 98.5933 321.988 97.9267 322.855 97.46C323.722 96.98 324.688 96.74 325.755 96.74C326.822 96.74 327.788 96.98 328.655 97.46C329.522 97.9267 330.202 98.5933 330.695 99.46C331.202 100.327 331.455 101.327 331.455 102.46C331.455 103.593 331.195 104.593 330.675 105.46C330.168 106.327 329.475 107 328.595 107.48C327.728 107.947 326.755 108.18 325.675 108.18ZM325.675 105.74C326.182 105.74 326.655 105.62 327.095 105.38C327.548 105.127 327.908 104.753 328.175 104.26C328.442 103.767 328.575 103.167 328.575 102.46C328.575 101.407 328.295 100.6 327.735 100.04C327.188 99.4667 326.515 99.18 325.715 99.18C324.915 99.18 324.242 99.4667 323.695 100.04C323.162 100.6 322.895 101.407 322.895 102.46C322.895 103.513 323.155 104.327 323.675 104.9C324.208 105.46 324.875 105.74 325.675 105.74ZM337.749 108.18C336.842 108.18 336.029 108.02 335.309 107.7C334.589 107.367 334.016 106.92 333.589 106.36C333.176 105.8 332.949 105.18 332.909 104.5H335.729C335.782 104.927 335.989 105.28 336.349 105.56C336.722 105.84 337.182 105.98 337.729 105.98C338.262 105.98 338.676 105.873 338.969 105.66C339.276 105.447 339.429 105.173 339.429 104.84C339.429 104.48 339.242 104.213 338.869 104.04C338.509 103.853 337.929 103.653 337.129 103.44C336.302 103.24 335.622 103.033 335.089 102.82C334.569 102.607 334.116 102.28 333.729 101.84C333.356 101.4 333.169 100.807 333.169 100.06C333.169 99.4467 333.342 98.8867 333.689 98.38C334.049 97.8733 334.556 97.4733 335.209 97.18C335.876 96.8867 336.656 96.74 337.549 96.74C338.869 96.74 339.922 97.0733 340.709 97.74C341.496 98.3933 341.929 99.28 342.009 100.4H339.329C339.289 99.96 339.102 99.6133 338.769 99.36C338.449 99.0933 338.016 98.96 337.469 98.96C336.962 98.96 336.569 99.0533 336.289 99.24C336.022 99.4267 335.889 99.6867 335.889 100.02C335.889 100.393 336.076 100.68 336.449 100.88C336.822 101.067 337.402 101.26 338.189 101.46C338.989 101.66 339.649 101.867 340.169 102.08C340.689 102.293 341.136 102.627 341.509 103.08C341.896 103.52 342.096 104.107 342.109 104.84C342.109 105.48 341.929 106.053 341.569 106.56C341.222 107.067 340.716 107.467 340.049 107.76C339.396 108.04 338.629 108.18 337.749 108.18ZM348.647 108.18C347.741 108.18 346.927 108.02 346.207 107.7C345.487 107.367 344.914 106.92 344.487 106.36C344.074 105.8 343.847 105.18 343.807 104.5H346.627C346.681 104.927 346.887 105.28 347.247 105.56C347.621 105.84 348.081 105.98 348.627 105.98C349.161 105.98 349.574 105.873 349.867 105.66C350.174 105.447 350.327 105.173 350.327 104.84C350.327 104.48 350.141 104.213 349.767 104.04C349.407 103.853 348.827 103.653 348.027 103.44C347.201 103.24 346.521 103.033 345.987 102.82C345.467 102.607 345.014 102.28 344.627 101.84C344.254 101.4 344.067 100.807 344.067 100.06C344.067 99.4467 344.241 98.8867 344.587 98.38C344.947 97.8733 345.454 97.4733 346.107 97.18C346.774 96.8867 347.554 96.74 348.447 96.74C349.767 96.74 350.821 97.0733 351.607 97.74C352.394 98.3933 352.827 99.28 352.907 100.4H350.227C350.187 99.96 350.001 99.6133 349.667 99.36C349.347 99.0933 348.914 98.96 348.367 98.96C347.861 98.96 347.467 99.0533 347.187 99.24C346.921 99.4267 346.787 99.6867 346.787 100.02C346.787 100.393 346.974 100.68 347.347 100.88C347.721 101.067 348.301 101.26 349.087 101.46C349.887 101.66 350.547 101.867 351.067 102.08C351.587 102.293 352.034 102.627 352.407 103.08C352.794 103.52 352.994 104.107 353.007 104.84C353.007 105.48 352.827 106.053 352.467 106.56C352.121 107.067 351.614 107.467 350.947 107.76C350.294 108.04 349.527 108.18 348.647 108.18ZM356.726 95.6C356.232 95.6 355.819 95.4467 355.486 95.14C355.166 94.82 355.006 94.4267 355.006 93.96C355.006 93.4933 355.166 93.1067 355.486 92.8C355.819 92.48 356.232 92.32 356.726 92.32C357.219 92.32 357.626 92.48 357.946 92.8C358.279 93.1067 358.446 93.4933 358.446 93.96C358.446 94.4267 358.279 94.82 357.946 95.14C357.626 95.4467 357.219 95.6 356.726 95.6ZM358.106 96.92V108H355.306V96.92H358.106ZM363.672 98.54C364.032 98.0067 364.526 97.5733 365.152 97.24C365.792 96.9067 366.519 96.74 367.332 96.74C368.279 96.74 369.132 96.9733 369.892 97.44C370.666 97.9067 371.272 98.5733 371.712 99.44C372.166 100.293 372.392 101.287 372.392 102.42C372.392 103.553 372.166 104.56 371.712 105.44C371.272 106.307 370.666 106.98 369.892 107.46C369.132 107.94 368.279 108.18 367.332 108.18C366.506 108.18 365.779 108.02 365.152 107.7C364.539 107.367 364.046 106.94 363.672 106.42V108H360.872V93.2H363.672V98.54ZM369.532 102.42C369.532 101.753 369.392 101.18 369.112 100.7C368.846 100.207 368.486 99.8333 368.032 99.58C367.592 99.3267 367.112 99.2 366.592 99.2C366.086 99.2 365.606 99.3333 365.152 99.6C364.712 99.8533 364.352 100.227 364.072 100.72C363.806 101.213 363.672 101.793 363.672 102.46C363.672 103.127 363.806 103.707 364.072 104.2C364.352 104.693 364.712 105.073 365.152 105.34C365.606 105.593 366.086 105.72 366.592 105.72C367.112 105.72 367.592 105.587 368.032 105.32C368.486 105.053 368.846 104.673 369.112 104.18C369.392 103.687 369.532 103.1 369.532 102.42ZM377.227 93.2V108H374.427V93.2H377.227ZM390.293 102.22C390.293 102.62 390.267 102.98 390.213 103.3H382.113C382.18 104.1 382.46 104.727 382.953 105.18C383.447 105.633 384.053 105.86 384.773 105.86C385.813 105.86 386.553 105.413 386.993 104.52H390.013C389.693 105.587 389.08 106.467 388.173 107.16C387.267 107.84 386.153 108.18 384.833 108.18C383.767 108.18 382.807 107.947 381.953 107.48C381.113 107 380.453 106.327 379.973 105.46C379.507 104.593 379.273 103.593 379.273 102.46C379.273 101.313 379.507 100.307 379.973 99.44C380.44 98.5733 381.093 97.9067 381.933 97.44C382.773 96.9733 383.74 96.74 384.833 96.74C385.887 96.74 386.827 96.9667 387.653 97.42C388.493 97.8733 389.14 98.52 389.593 99.36C390.06 100.187 390.293 101.14 390.293 102.22ZM387.393 101.42C387.38 100.7 387.12 100.127 386.613 99.7C386.107 99.26 385.487 99.04 384.753 99.04C384.06 99.04 383.473 99.2533 382.993 99.68C382.527 100.093 382.24 100.673 382.133 101.42H387.393ZM396.383 102.46C396.383 101.313 396.616 100.313 397.083 99.46C397.549 98.5933 398.196 97.9267 399.023 97.46C399.849 96.98 400.796 96.74 401.863 96.74C403.236 96.74 404.369 97.0867 405.263 97.78C406.169 98.46 406.776 99.42 407.083 100.66H404.063C403.903 100.18 403.629 99.8067 403.243 99.54C402.869 99.26 402.403 99.12 401.843 99.12C401.043 99.12 400.409 99.4133 399.943 100C399.476 100.573 399.243 101.393 399.243 102.46C399.243 103.513 399.476 104.333 399.943 104.92C400.409 105.493 401.043 105.78 401.843 105.78C402.976 105.78 403.716 105.273 404.063 104.26H407.083C406.776 105.46 406.169 106.413 405.263 107.12C404.356 107.827 403.223 108.18 401.863 108.18C400.796 108.18 399.849 107.947 399.023 107.48C398.196 107 397.549 106.333 397.083 105.48C396.616 104.613 396.383 103.607 396.383 102.46ZM414.054 108.18C412.987 108.18 412.027 107.947 411.174 107.48C410.321 107 409.647 106.327 409.154 105.46C408.674 104.593 408.434 103.593 408.434 102.46C408.434 101.327 408.681 100.327 409.174 99.46C409.681 98.5933 410.367 97.9267 411.234 97.46C412.101 96.98 413.067 96.74 414.134 96.74C415.201 96.74 416.167 96.98 417.034 97.46C417.901 97.9267 418.581 98.5933 419.074 99.46C419.581 100.327 419.834 101.327 419.834 102.46C419.834 103.593 419.574 104.593 419.054 105.46C418.547 106.327 417.854 107 416.974 107.48C416.107 107.947 415.134 108.18 414.054 108.18ZM414.054 105.74C414.561 105.74 415.034 105.62 415.474 105.38C415.927 105.127 416.287 104.753 416.554 104.26C416.821 103.767 416.954 103.167 416.954 102.46C416.954 101.407 416.674 100.6 416.114 100.04C415.567 99.4667 414.894 99.18 414.094 99.18C413.294 99.18 412.621 99.4667 412.074 100.04C411.541 100.6 411.274 101.407 411.274 102.46C411.274 103.513 411.534 104.327 412.054 104.9C412.587 105.46 413.254 105.74 414.054 105.74ZM428.028 96.76C429.348 96.76 430.414 97.18 431.228 98.02C432.041 98.8467 432.448 100.007 432.448 101.5V108H429.648V101.88C429.648 101 429.428 100.327 428.988 99.86C428.548 99.38 427.948 99.14 427.188 99.14C426.414 99.14 425.801 99.38 425.348 99.86C424.908 100.327 424.688 101 424.688 101.88V108H421.888V96.92H424.688V98.3C425.061 97.82 425.534 97.4467 426.108 97.18C426.694 96.9 427.334 96.76 428.028 96.76ZM438.37 99.22V104.58C438.37 104.953 438.457 105.227 438.63 105.4C438.817 105.56 439.124 105.64 439.55 105.64H440.85V108H439.09C436.73 108 435.55 106.853 435.55 104.56V99.22H434.23V96.92H435.55V94.18H438.37V96.92H440.85V99.22H438.37ZM445.664 98.64C446.024 98.0533 446.491 97.5933 447.064 97.26C447.651 96.9267 448.318 96.76 449.064 96.76V99.7H448.324C447.444 99.7 446.778 99.9067 446.324 100.32C445.884 100.733 445.664 101.453 445.664 102.48V108H442.864V96.92H445.664V98.64ZM455.87 108.18C454.804 108.18 453.844 107.947 452.99 107.48C452.137 107 451.464 106.327 450.97 105.46C450.49 104.593 450.25 103.593 450.25 102.46C450.25 101.327 450.497 100.327 450.99 99.46C451.497 98.5933 452.184 97.9267 453.05 97.46C453.917 96.98 454.884 96.74 455.95 96.74C457.017 96.74 457.984 96.98 458.85 97.46C459.717 97.9267 460.397 98.5933 460.89 99.46C461.397 100.327 461.65 101.327 461.65 102.46C461.65 103.593 461.39 104.593 460.87 105.46C460.364 106.327 459.67 107 458.79 107.48C457.924 107.947 456.95 108.18 455.87 108.18ZM455.87 105.74C456.377 105.74 456.85 105.62 457.29 105.38C457.744 105.127 458.104 104.753 458.37 104.26C458.637 103.767 458.77 103.167 458.77 102.46C458.77 101.407 458.49 100.6 457.93 100.04C457.384 99.4667 456.71 99.18 455.91 99.18C455.11 99.18 454.437 99.4667 453.89 100.04C453.357 100.6 453.09 101.407 453.09 102.46C453.09 103.513 453.35 104.327 453.87 104.9C454.404 105.46 455.07 105.74 455.87 105.74ZM466.504 93.2V108H463.704V93.2H466.504ZM487.796 96.76C489.156 96.76 490.25 97.18 491.076 98.02C491.916 98.8467 492.336 100.007 492.336 101.5V108H489.536V101.88C489.536 101.013 489.316 100.353 488.876 99.9C488.436 99.4333 487.836 99.2 487.076 99.2C486.316 99.2 485.71 99.4333 485.256 99.9C484.816 100.353 484.596 101.013 484.596 101.88V108H481.796V101.88C481.796 101.013 481.576 100.353 481.136 99.9C480.696 99.4333 480.096 99.2 479.336 99.2C478.563 99.2 477.95 99.4333 477.496 99.9C477.056 100.353 476.836 101.013 476.836 101.88V108H474.036V96.92H476.836V98.26C477.196 97.7933 477.656 97.4267 478.216 97.16C478.79 96.8933 479.416 96.76 480.096 96.76C480.963 96.76 481.736 96.9467 482.416 97.32C483.096 97.68 483.623 98.2 483.996 98.88C484.356 98.24 484.876 97.7267 485.556 97.34C486.25 96.9533 486.996 96.76 487.796 96.76ZM499.913 108.18C498.847 108.18 497.887 107.947 497.033 107.48C496.18 107 495.507 106.327 495.013 105.46C494.533 104.593 494.293 103.593 494.293 102.46C494.293 101.327 494.54 100.327 495.033 99.46C495.54 98.5933 496.227 97.9267 497.093 97.46C497.96 96.98 498.927 96.74 499.993 96.74C501.06 96.74 502.027 96.98 502.893 97.46C503.76 97.9267 504.44 98.5933 504.933 99.46C505.44 100.327 505.693 101.327 505.693 102.46C505.693 103.593 505.433 104.593 504.913 105.46C504.407 106.327 503.713 107 502.833 107.48C501.967 107.947 500.993 108.18 499.913 108.18ZM499.913 105.74C500.42 105.74 500.893 105.62 501.333 105.38C501.787 105.127 502.147 104.753 502.413 104.26C502.68 103.767 502.813 103.167 502.813 102.46C502.813 101.407 502.533 100.6 501.973 100.04C501.427 99.4667 500.753 99.18 499.953 99.18C499.153 99.18 498.48 99.4667 497.933 100.04C497.4 100.6 497.133 101.407 497.133 102.46C497.133 103.513 497.393 104.327 497.913 104.9C498.447 105.46 499.113 105.74 499.913 105.74ZM507.027 102.42C507.027 101.3 507.247 100.307 507.687 99.44C508.141 98.5733 508.754 97.9067 509.527 97.44C510.301 96.9733 511.161 96.74 512.107 96.74C512.827 96.74 513.514 96.9 514.167 97.22C514.821 97.5267 515.341 97.94 515.727 98.46V93.2H518.567V108H515.727V106.36C515.381 106.907 514.894 107.347 514.267 107.68C513.641 108.013 512.914 108.18 512.087 108.18C511.154 108.18 510.301 107.94 509.527 107.46C508.754 106.98 508.141 106.307 507.687 105.44C507.247 104.56 507.027 103.553 507.027 102.42ZM515.747 102.46C515.747 101.78 515.614 101.2 515.347 100.72C515.081 100.227 514.721 99.8533 514.267 99.6C513.814 99.3333 513.327 99.2 512.807 99.2C512.287 99.2 511.807 99.3267 511.367 99.58C510.927 99.8333 510.567 100.207 510.287 100.7C510.021 101.18 509.887 101.753 509.887 102.42C509.887 103.087 510.021 103.673 510.287 104.18C510.567 104.673 510.927 105.053 511.367 105.32C511.821 105.587 512.301 105.72 512.807 105.72C513.327 105.72 513.814 105.593 514.267 105.34C514.721 105.073 515.081 104.7 515.347 104.22C515.614 103.727 515.747 103.14 515.747 102.46ZM531.602 102.22C531.602 102.62 531.575 102.98 531.522 103.3H523.422C523.489 104.1 523.769 104.727 524.262 105.18C524.755 105.633 525.362 105.86 526.082 105.86C527.122 105.86 527.862 105.413 528.302 104.52H531.322C531.002 105.587 530.389 106.467 529.482 107.16C528.575 107.84 527.462 108.18 526.142 108.18C525.075 108.18 524.115 107.947 523.262 107.48C522.422 107 521.762 106.327 521.282 105.46C520.815 104.593 520.582 103.593 520.582 102.46C520.582 101.313 520.815 100.307 521.282 99.44C521.749 98.5733 522.402 97.9067 523.242 97.44C524.082 96.9733 525.049 96.74 526.142 96.74C527.195 96.74 528.135 96.9667 528.962 97.42C529.802 97.8733 530.449 98.52 530.902 99.36C531.369 100.187 531.602 101.14 531.602 102.22ZM528.702 101.42C528.689 100.7 528.429 100.127 527.922 99.7C527.415 99.26 526.795 99.04 526.062 99.04C525.369 99.04 524.782 99.2533 524.302 99.68C523.835 100.093 523.549 100.673 523.442 101.42H528.702ZM537.886 108.18C536.979 108.18 536.166 108.02 535.446 107.7C534.726 107.367 534.152 106.92 533.726 106.36C533.312 105.8 533.086 105.18 533.046 104.5H535.866C535.919 104.927 536.126 105.28 536.486 105.56C536.859 105.84 537.319 105.98 537.866 105.98C538.399 105.98 538.812 105.873 539.106 105.66C539.412 105.447 539.566 105.173 539.566 104.84C539.566 104.48 539.379 104.213 539.006 104.04C538.646 103.853 538.066 103.653 537.266 103.44C536.439 103.24 535.759 103.033 535.226 102.82C534.706 102.607 534.252 102.28 533.866 101.84C533.492 101.4 533.306 100.807 533.306 100.06C533.306 99.4467 533.479 98.8867 533.826 98.38C534.186 97.8733 534.692 97.4733 535.346 97.18C536.012 96.8867 536.792 96.74 537.686 96.74C539.006 96.74 540.059 97.0733 540.846 97.74C541.632 98.3933 542.066 99.28 542.146 100.4H539.466C539.426 99.96 539.239 99.6133 538.906 99.36C538.586 99.0933 538.152 98.96 537.606 98.96C537.099 98.96 536.706 99.0533 536.426 99.24C536.159 99.4267 536.026 99.6867 536.026 100.02C536.026 100.393 536.212 100.68 536.586 100.88C536.959 101.067 537.539 101.26 538.326 101.46C539.126 101.66 539.786 101.867 540.306 102.08C540.826 102.293 541.272 102.627 541.646 103.08C542.032 103.52 542.232 104.107 542.246 104.84C542.246 105.48 542.066 106.053 541.706 106.56C541.359 107.067 540.852 107.467 540.186 107.76C539.532 108.04 538.766 108.18 537.886 108.18ZM564.89 99.68V102.04H549.51V99.68H564.89ZM576.85 108.18C575.944 108.18 575.13 108.02 574.41 107.7C573.69 107.367 573.117 106.92 572.69 106.36C572.277 105.8 572.05 105.18 572.01 104.5H574.83C574.884 104.927 575.09 105.28 575.45 105.56C575.824 105.84 576.284 105.98 576.83 105.98C577.364 105.98 577.777 105.873 578.07 105.66C578.377 105.447 578.53 105.173 578.53 104.84C578.53 104.48 578.344 104.213 577.97 104.04C577.61 103.853 577.03 103.653 576.23 103.44C575.404 103.24 574.724 103.033 574.19 102.82C573.67 102.607 573.217 102.28 572.83 101.84C572.457 101.4 572.27 100.807 572.27 100.06C572.27 99.4467 572.444 98.8867 572.79 98.38C573.15 97.8733 573.657 97.4733 574.31 97.18C574.977 96.8867 575.757 96.74 576.65 96.74C577.97 96.74 579.024 97.0733 579.81 97.74C580.597 98.3933 581.03 99.28 581.11 100.4H578.43C578.39 99.96 578.204 99.6133 577.87 99.36C577.55 99.0933 577.117 98.96 576.57 98.96C576.064 98.96 575.67 99.0533 575.39 99.24C575.124 99.4267 574.99 99.6867 574.99 100.02C574.99 100.393 575.177 100.68 575.55 100.88C575.924 101.067 576.504 101.26 577.29 101.46C578.09 101.66 578.75 101.867 579.27 102.08C579.79 102.293 580.237 102.627 580.61 103.08C580.997 103.52 581.197 104.107 581.21 104.84C581.21 105.48 581.03 106.053 580.67 106.56C580.324 107.067 579.817 107.467 579.15 107.76C578.497 108.04 577.73 108.18 576.85 108.18ZM584.929 95.6C584.436 95.6 584.022 95.4467 583.689 95.14C583.369 94.82 583.209 94.4267 583.209 93.96C583.209 93.4933 583.369 93.1067 583.689 92.8C584.022 92.48 584.436 92.32 584.929 92.32C585.422 92.32 585.829 92.48 586.149 92.8C586.482 93.1067 586.649 93.4933 586.649 93.96C586.649 94.4267 586.482 94.82 586.149 95.14C585.829 95.4467 585.422 95.6 584.929 95.6ZM586.309 96.92V108H583.509V96.92H586.309ZM595.215 96.76C596.535 96.76 597.602 97.18 598.415 98.02C599.229 98.8467 599.635 100.007 599.635 101.5V108H596.835V101.88C596.835 101 596.615 100.327 596.175 99.86C595.735 99.38 595.135 99.14 594.375 99.14C593.602 99.14 592.989 99.38 592.535 99.86C592.095 100.327 591.875 101 591.875 101.88V108H589.075V96.92H591.875V98.3C592.249 97.82 592.722 97.4467 593.295 97.18C593.882 96.9 594.522 96.76 595.215 96.76ZM612.598 102.22C612.598 102.62 612.571 102.98 612.518 103.3H604.418C604.485 104.1 604.765 104.727 605.258 105.18C605.751 105.633 606.358 105.86 607.078 105.86C608.118 105.86 608.858 105.413 609.298 104.52H612.318C611.998 105.587 611.385 106.467 610.478 107.16C609.571 107.84 608.458 108.18 607.138 108.18C606.071 108.18 605.111 107.947 604.258 107.48C603.418 107 602.758 106.327 602.278 105.46C601.811 104.593 601.578 103.593 601.578 102.46C601.578 101.313 601.811 100.307 602.278 99.44C602.745 98.5733 603.398 97.9067 604.238 97.44C605.078 96.9733 606.045 96.74 607.138 96.74C608.191 96.74 609.131 96.9667 609.958 97.42C610.798 97.8733 611.445 98.52 611.898 99.36C612.365 100.187 612.598 101.14 612.598 102.22ZM609.698 101.42C609.685 100.7 609.425 100.127 608.918 99.7C608.411 99.26 607.791 99.04 607.058 99.04C606.365 99.04 605.778 99.2533 605.298 99.68C604.831 100.093 604.545 100.673 604.438 101.42H609.698ZM624.247 111.94C622.954 110.687 621.947 109.087 621.227 107.14C620.521 105.193 620.167 103.107 620.167 100.88C620.167 98.6 620.541 96.46 621.287 94.46C622.034 92.4467 623.121 90.8 624.547 89.52H627.367V89.78C625.901 91.18 624.781 92.86 624.007 94.82C623.247 96.78 622.867 98.8 622.867 100.88C622.867 102.907 623.227 104.867 623.947 106.76C624.681 108.64 625.721 110.273 627.067 111.66V111.94H624.247ZM633.734 105.42L636.534 96.92H639.514L635.414 108H632.014L627.934 96.92H630.934L633.734 105.42ZM651.387 102.22C651.387 102.62 651.36 102.98 651.307 103.3H643.207C643.274 104.1 643.554 104.727 644.047 105.18C644.54 105.633 645.147 105.86 645.867 105.86C646.907 105.86 647.647 105.413 648.087 104.52H651.107C650.787 105.587 650.174 106.467 649.267 107.16C648.36 107.84 647.247 108.18 645.927 108.18C644.86 108.18 643.9 107.947 643.047 107.48C642.207 107 641.547 106.327 641.067 105.46C640.6 104.593 640.367 103.593 640.367 102.46C640.367 101.313 640.6 100.307 641.067 99.44C641.534 98.5733 642.187 97.9067 643.027 97.44C643.867 96.9733 644.834 96.74 645.927 96.74C646.98 96.74 647.92 96.9667 648.747 97.42C649.587 97.8733 650.234 98.52 650.687 99.36C651.154 100.187 651.387 101.14 651.387 102.22ZM648.487 101.42C648.474 100.7 648.214 100.127 647.707 99.7C647.2 99.26 646.58 99.04 645.847 99.04C645.154 99.04 644.567 99.2533 644.087 99.68C643.62 100.093 643.334 100.673 643.227 101.42H648.487ZM652.711 102.46C652.711 101.313 652.944 100.313 653.411 99.46C653.877 98.5933 654.524 97.9267 655.351 97.46C656.177 96.98 657.124 96.74 658.191 96.74C659.564 96.74 660.697 97.0867 661.591 97.78C662.497 98.46 663.104 99.42 663.411 100.66H660.391C660.231 100.18 659.957 99.8067 659.571 99.54C659.197 99.26 658.731 99.12 658.171 99.12C657.371 99.12 656.737 99.4133 656.271 100C655.804 100.573 655.571 101.393 655.571 102.46C655.571 103.513 655.804 104.333 656.271 104.92C656.737 105.493 657.371 105.78 658.171 105.78C659.304 105.78 660.044 105.273 660.391 104.26H663.411C663.104 105.46 662.497 106.413 661.591 107.12C660.684 107.827 659.551 108.18 658.191 108.18C657.124 108.18 656.177 107.947 655.351 107.48C654.524 107 653.877 106.333 653.411 105.48C652.944 104.613 652.711 103.607 652.711 102.46ZM668.722 99.22V104.58C668.722 104.953 668.809 105.227 668.982 105.4C669.169 105.56 669.475 105.64 669.902 105.64H671.202V108H669.442C667.082 108 665.902 106.853 665.902 104.56V99.22H664.582V96.92H665.902V94.18H668.722V96.92H671.202V99.22H668.722ZM678.136 108.18C677.069 108.18 676.109 107.947 675.256 107.48C674.403 107 673.729 106.327 673.236 105.46C672.756 104.593 672.516 103.593 672.516 102.46C672.516 101.327 672.763 100.327 673.256 99.46C673.763 98.5933 674.449 97.9267 675.316 97.46C676.183 96.98 677.149 96.74 678.216 96.74C679.283 96.74 680.249 96.98 681.116 97.46C681.983 97.9267 682.663 98.5933 683.156 99.46C683.663 100.327 683.916 101.327 683.916 102.46C683.916 103.593 683.656 104.593 683.136 105.46C682.629 106.327 681.936 107 681.056 107.48C680.189 107.947 679.216 108.18 678.136 108.18ZM678.136 105.74C678.643 105.74 679.116 105.62 679.556 105.38C680.009 105.127 680.369 104.753 680.636 104.26C680.903 103.767 681.036 103.167 681.036 102.46C681.036 101.407 680.756 100.6 680.196 100.04C679.649 99.4667 678.976 99.18 678.176 99.18C677.376 99.18 676.703 99.4667 676.156 100.04C675.623 100.6 675.356 101.407 675.356 102.46C675.356 103.513 675.616 104.327 676.136 104.9C676.669 105.46 677.336 105.74 678.136 105.74ZM688.77 98.64C689.13 98.0533 689.597 97.5933 690.17 97.26C690.757 96.9267 691.423 96.76 692.17 96.76V99.7H691.43C690.55 99.7 689.883 99.9067 689.43 100.32C688.99 100.733 688.77 101.453 688.77 102.48V108H685.97V96.92H688.77V98.64ZM697.116 105.06L694.776 110.68H692.976L694.276 105.06H697.116ZM712.52 94.04V96.3H706.7V99.88H711.16V102.1H706.7V108H703.9V94.04H712.52ZM720.985 108.14C719.678 108.14 718.478 107.833 717.385 107.22C716.292 106.607 715.425 105.76 714.785 104.68C714.145 103.587 713.825 102.353 713.825 100.98C713.825 99.62 714.145 98.4 714.785 97.32C715.425 96.2267 716.292 95.3733 717.385 94.76C718.478 94.1467 719.678 93.84 720.985 93.84C722.305 93.84 723.505 94.1467 724.585 94.76C725.678 95.3733 726.538 96.2267 727.165 97.32C727.805 98.4 728.125 99.62 728.125 100.98C728.125 102.353 727.805 103.587 727.165 104.68C726.538 105.76 725.678 106.607 724.585 107.22C723.492 107.833 722.292 108.14 720.985 108.14ZM720.985 105.64C721.825 105.64 722.565 105.453 723.205 105.08C723.845 104.693 724.345 104.147 724.705 103.44C725.065 102.733 725.245 101.913 725.245 100.98C725.245 100.047 725.065 99.2333 724.705 98.54C724.345 97.8333 723.845 97.2933 723.205 96.92C722.565 96.5467 721.825 96.36 720.985 96.36C720.145 96.36 719.398 96.5467 718.745 96.92C718.105 97.2933 717.605 97.8333 717.245 98.54C716.885 99.2333 716.705 100.047 716.705 100.98C716.705 101.913 716.885 102.733 717.245 103.44C717.605 104.147 718.105 104.693 718.745 105.08C719.398 105.453 720.145 105.64 720.985 105.64ZM729.528 101C729.528 99.6267 729.835 98.4 730.448 97.32C731.075 96.2267 731.921 95.38 732.988 94.78C734.068 94.1667 735.275 93.86 736.608 93.86C738.168 93.86 739.535 94.26 740.708 95.06C741.881 95.86 742.701 96.9667 743.168 98.38H739.948C739.628 97.7133 739.175 97.2133 738.588 96.88C738.015 96.5467 737.348 96.38 736.588 96.38C735.775 96.38 735.048 96.5733 734.408 96.96C733.781 97.3333 733.288 97.8667 732.928 98.56C732.581 99.2533 732.408 100.067 732.408 101C732.408 101.92 732.581 102.733 732.928 103.44C733.288 104.133 733.781 104.673 734.408 105.06C735.048 105.433 735.775 105.62 736.588 105.62C737.348 105.62 738.015 105.453 738.588 105.12C739.175 104.773 739.628 104.267 739.948 103.6H743.168C742.701 105.027 741.881 106.14 740.708 106.94C739.548 107.727 738.181 108.12 736.608 108.12C735.275 108.12 734.068 107.82 732.988 107.22C731.921 106.607 731.075 105.76 730.448 104.68C729.835 103.6 729.528 102.373 729.528 101ZM744.84 111.94V111.66C746.186 110.273 747.22 108.64 747.94 106.76C748.673 104.867 749.04 102.907 749.04 100.88C749.04 98.8 748.653 96.78 747.88 94.82C747.12 92.86 746.006 91.18 744.54 89.78V89.52H747.36C748.786 90.8 749.873 92.4467 750.62 94.46C751.366 96.46 751.74 98.6 751.74 100.88C751.74 103.107 751.38 105.193 750.66 107.14C749.953 109.087 748.953 110.687 747.66 111.94H744.84ZM758.327 105.06L755.987 110.68H754.187L755.487 105.06H758.327ZM768.37 99.22V104.58C768.37 104.953 768.457 105.227 768.63 105.4C768.817 105.56 769.124 105.64 769.55 105.64H770.85V108H769.09C766.73 108 765.55 106.853 765.55 104.56V99.22H764.23V96.92H765.55V94.18H768.37V96.92H770.85V99.22H768.37ZM775.664 98.64C776.024 98.0533 776.491 97.5933 777.064 97.26C777.651 96.9267 778.318 96.76 779.064 96.76V99.7H778.324C777.444 99.7 776.778 99.9067 776.324 100.32C775.884 100.733 775.664 101.453 775.664 102.48V108H772.864V96.92H775.664V98.64ZM780.23 102.42C780.23 101.3 780.45 100.307 780.89 99.44C781.344 98.5733 781.95 97.9067 782.71 97.44C783.484 96.9733 784.344 96.74 785.29 96.74C786.117 96.74 786.837 96.9067 787.45 97.24C788.077 97.5733 788.577 97.9933 788.95 98.5V96.92H791.77V108H788.95V106.38C788.59 106.9 788.09 107.333 787.45 107.68C786.824 108.013 786.097 108.18 785.27 108.18C784.337 108.18 783.484 107.94 782.71 107.46C781.95 106.98 781.344 106.307 780.89 105.44C780.45 104.56 780.23 103.553 780.23 102.42ZM788.95 102.46C788.95 101.78 788.817 101.2 788.55 100.72C788.284 100.227 787.924 99.8533 787.47 99.6C787.017 99.3333 786.53 99.2 786.01 99.2C785.49 99.2 785.01 99.3267 784.57 99.58C784.13 99.8333 783.77 100.207 783.49 100.7C783.224 101.18 783.09 101.753 783.09 102.42C783.09 103.087 783.224 103.673 783.49 104.18C783.77 104.673 784.13 105.053 784.57 105.32C785.024 105.587 785.504 105.72 786.01 105.72C786.53 105.72 787.017 105.593 787.47 105.34C787.924 105.073 788.284 104.7 788.55 104.22C788.817 103.727 788.95 103.14 788.95 102.46ZM797.305 98.52C797.665 98.0133 798.158 97.5933 798.785 97.26C799.425 96.9133 800.152 96.74 800.965 96.74C801.912 96.74 802.765 96.9733 803.525 97.44C804.298 97.9067 804.905 98.5733 805.345 99.44C805.798 100.293 806.025 101.287 806.025 102.42C806.025 103.553 805.798 104.56 805.345 105.44C804.905 106.307 804.298 106.98 803.525 107.46C802.765 107.94 801.912 108.18 800.965 108.18C800.152 108.18 799.432 108.013 798.805 107.68C798.192 107.347 797.692 106.927 797.305 106.42V113.28H794.505V96.92H797.305V98.52ZM803.165 102.42C803.165 101.753 803.025 101.18 802.745 100.7C802.478 100.207 802.118 99.8333 801.665 99.58C801.225 99.3267 800.745 99.2 800.225 99.2C799.718 99.2 799.238 99.3333 798.785 99.6C798.345 99.8533 797.985 100.227 797.705 100.72C797.438 101.213 797.305 101.793 797.305 102.46C797.305 103.127 797.438 103.707 797.705 104.2C797.985 104.693 798.345 105.073 798.785 105.34C799.238 105.593 799.718 105.72 800.225 105.72C800.745 105.72 801.225 105.587 801.665 105.32C802.118 105.053 802.478 104.673 802.745 104.18C803.025 103.687 803.165 103.1 803.165 102.42ZM818.36 102.22C818.36 102.62 818.333 102.98 818.28 103.3H810.18C810.246 104.1 810.526 104.727 811.02 105.18C811.513 105.633 812.12 105.86 812.84 105.86C813.88 105.86 814.62 105.413 815.06 104.52H818.08C817.76 105.587 817.146 106.467 816.24 107.16C815.333 107.84 814.22 108.18 812.9 108.18C811.833 108.18 810.873 107.947 810.02 107.48C809.18 107 808.52 106.327 808.04 105.46C807.573 104.593 807.34 103.593 807.34 102.46C807.34 101.313 807.573 100.307 808.04 99.44C808.506 98.5733 809.16 97.9067 810 97.44C810.84 96.9733 811.806 96.74 812.9 96.74C813.953 96.74 814.893 96.9667 815.72 97.42C816.56 97.8733 817.206 98.52 817.66 99.36C818.126 100.187 818.36 101.14 818.36 102.22ZM815.46 101.42C815.446 100.7 815.186 100.127 814.68 99.7C814.173 99.26 813.553 99.04 812.82 99.04C812.126 99.04 811.54 99.2533 811.06 99.68C810.593 100.093 810.306 100.673 810.2 101.42H815.46ZM822.963 105.7H827.903V108H819.783V105.74L824.623 99.22H819.803V96.92H827.843V99.18L822.963 105.7ZM834.991 108.18C833.925 108.18 832.965 107.947 832.111 107.48C831.258 107 830.585 106.327 830.091 105.46C829.611 104.593 829.371 103.593 829.371 102.46C829.371 101.327 829.618 100.327 830.111 99.46C830.618 98.5933 831.305 97.9267 832.171 97.46C833.038 96.98 834.005 96.74 835.071 96.74C836.138 96.74 837.105 96.98 837.971 97.46C838.838 97.9267 839.518 98.5933 840.011 99.46C840.518 100.327 840.771 101.327 840.771 102.46C840.771 103.593 840.511 104.593 839.991 105.46C839.485 106.327 838.791 107 837.911 107.48C837.045 107.947 836.071 108.18 834.991 108.18ZM834.991 105.74C835.498 105.74 835.971 105.62 836.411 105.38C836.865 105.127 837.225 104.753 837.491 104.26C837.758 103.767 837.891 103.167 837.891 102.46C837.891 101.407 837.611 100.6 837.051 100.04C836.505 99.4667 835.831 99.18 835.031 99.18C834.231 99.18 833.558 99.4667 833.011 100.04C832.478 100.6 832.211 101.407 832.211 102.46C832.211 103.513 832.471 104.327 832.991 104.9C833.525 105.46 834.191 105.74 834.991 105.74ZM844.245 95.6C843.752 95.6 843.339 95.4467 843.005 95.14C842.685 94.82 842.525 94.4267 842.525 93.96C842.525 93.4933 842.685 93.1067 843.005 92.8C843.339 92.48 843.752 92.32 844.245 92.32C844.739 92.32 845.145 92.48 845.465 92.8C845.799 93.1067 845.965 93.4933 845.965 93.96C845.965 94.4267 845.799 94.82 845.465 95.14C845.145 95.4467 844.739 95.6 844.245 95.6ZM845.625 96.92V108H842.825V96.92H845.625ZM847.672 102.42C847.672 101.3 847.892 100.307 848.332 99.44C848.785 98.5733 849.398 97.9067 850.172 97.44C850.945 96.9733 851.805 96.74 852.752 96.74C853.472 96.74 854.158 96.9 854.812 97.22C855.465 97.5267 855.985 97.94 856.372 98.46V93.2H859.212V108H856.372V106.36C856.025 106.907 855.538 107.347 854.912 107.68C854.285 108.013 853.558 108.18 852.732 108.18C851.798 108.18 850.945 107.94 850.172 107.46C849.398 106.98 848.785 106.307 848.332 105.44C847.892 104.56 847.672 103.553 847.672 102.42ZM856.392 102.46C856.392 101.78 856.258 101.2 855.992 100.72C855.725 100.227 855.365 99.8533 854.912 99.6C854.458 99.3333 853.972 99.2 853.452 99.2C852.932 99.2 852.452 99.3267 852.012 99.58C851.572 99.8333 851.212 100.207 850.932 100.7C850.665 101.18 850.532 101.753 850.532 102.42C850.532 103.087 850.665 103.673 850.932 104.18C851.212 104.673 851.572 105.053 852.012 105.32C852.465 105.587 852.945 105.72 853.452 105.72C853.972 105.72 854.458 105.593 854.912 105.34C855.365 105.073 855.725 104.7 855.992 104.22C856.258 103.727 856.392 103.14 856.392 102.46ZM861.226 102.42C861.226 101.3 861.446 100.307 861.886 99.44C862.34 98.5733 862.946 97.9067 863.706 97.44C864.48 96.9733 865.34 96.74 866.286 96.74C867.113 96.74 867.833 96.9067 868.446 97.24C869.073 97.5733 869.573 97.9933 869.946 98.5V96.92H872.766V108H869.946V106.38C869.586 106.9 869.086 107.333 868.446 107.68C867.82 108.013 867.093 108.18 866.266 108.18C865.333 108.18 864.48 107.94 863.706 107.46C862.946 106.98 862.34 106.307 861.886 105.44C861.446 104.56 861.226 103.553 861.226 102.42ZM869.946 102.46C869.946 101.78 869.813 101.2 869.546 100.72C869.28 100.227 868.92 99.8533 868.466 99.6C868.013 99.3333 867.526 99.2 867.006 99.2C866.486 99.2 866.006 99.3267 865.566 99.58C865.126 99.8333 864.766 100.207 864.486 100.7C864.22 101.18 864.086 101.753 864.086 102.42C864.086 103.087 864.22 103.673 864.486 104.18C864.766 104.673 865.126 105.053 865.566 105.32C866.02 105.587 866.5 105.72 867.006 105.72C867.526 105.72 868.013 105.593 868.466 105.34C868.92 105.073 869.28 104.7 869.546 104.22C869.813 103.727 869.946 103.14 869.946 102.46ZM878.301 93.2V108H875.501V93.2H878.301ZM138.043 134.42C138.043 133.3 138.263 132.307 138.703 131.44C139.156 130.573 139.763 129.907 140.523 129.44C141.296 128.973 142.156 128.74 143.103 128.74C143.929 128.74 144.649 128.907 145.263 129.24C145.889 129.573 146.389 129.993 146.763 130.5V128.92H149.583V140H146.763V138.38C146.403 138.9 145.903 139.333 145.263 139.68C144.636 140.013 143.909 140.18 143.083 140.18C142.149 140.18 141.296 139.94 140.523 139.46C139.763 138.98 139.156 138.307 138.703 137.44C138.263 136.56 138.043 135.553 138.043 134.42ZM146.763 134.46C146.763 133.78 146.629 133.2 146.363 132.72C146.096 132.227 145.736 131.853 145.283 131.6C144.829 131.333 144.343 131.2 143.823 131.2C143.303 131.2 142.823 131.327 142.383 131.58C141.943 131.833 141.583 132.207 141.303 132.7C141.036 133.18 140.903 133.753 140.903 134.42C140.903 135.087 141.036 135.673 141.303 136.18C141.583 136.673 141.943 137.053 142.383 137.32C142.836 137.587 143.316 137.72 143.823 137.72C144.343 137.72 144.829 137.593 145.283 137.34C145.736 137.073 146.096 136.7 146.363 136.22C146.629 135.727 146.763 135.14 146.763 134.46ZM158.458 128.76C159.778 128.76 160.844 129.18 161.658 130.02C162.471 130.847 162.878 132.007 162.878 133.5V140H160.078V133.88C160.078 133 159.858 132.327 159.418 131.86C158.978 131.38 158.378 131.14 157.618 131.14C156.844 131.14 156.231 131.38 155.778 131.86C155.338 132.327 155.118 133 155.118 133.88V140H152.318V128.92H155.118V130.3C155.491 129.82 155.964 129.447 156.538 129.18C157.124 128.9 157.764 128.76 158.458 128.76ZM164.82 134.42C164.82 133.3 165.04 132.307 165.48 131.44C165.933 130.573 166.547 129.907 167.32 129.44C168.093 128.973 168.953 128.74 169.9 128.74C170.62 128.74 171.307 128.9 171.96 129.22C172.613 129.527 173.133 129.94 173.52 130.46V125.2H176.36V140H173.52V138.36C173.173 138.907 172.687 139.347 172.06 139.68C171.433 140.013 170.707 140.18 169.88 140.18C168.947 140.18 168.093 139.94 167.32 139.46C166.547 138.98 165.933 138.307 165.48 137.44C165.04 136.56 164.82 135.553 164.82 134.42ZM173.54 134.46C173.54 133.78 173.407 133.2 173.14 132.72C172.873 132.227 172.513 131.853 172.06 131.6C171.607 131.333 171.12 131.2 170.6 131.2C170.08 131.2 169.6 131.327 169.16 131.58C168.72 131.833 168.36 132.207 168.08 132.7C167.813 133.18 167.68 133.753 167.68 134.42C167.68 135.087 167.813 135.673 168.08 136.18C168.36 136.673 168.72 137.053 169.16 137.32C169.613 137.587 170.093 137.72 170.6 137.72C171.12 137.72 171.607 137.593 172.06 137.34C172.513 137.073 172.873 136.7 173.14 136.22C173.407 135.727 173.54 135.14 173.54 134.46ZM188.1 140.18C187.194 140.18 186.38 140.02 185.66 139.7C184.94 139.367 184.367 138.92 183.94 138.36C183.527 137.8 183.3 137.18 183.26 136.5H186.08C186.134 136.927 186.34 137.28 186.7 137.56C187.074 137.84 187.534 137.98 188.08 137.98C188.614 137.98 189.027 137.873 189.32 137.66C189.627 137.447 189.78 137.173 189.78 136.84C189.78 136.48 189.594 136.213 189.22 136.04C188.86 135.853 188.28 135.653 187.48 135.44C186.654 135.24 185.974 135.033 185.44 134.82C184.92 134.607 184.467 134.28 184.08 133.84C183.707 133.4 183.52 132.807 183.52 132.06C183.52 131.447 183.694 130.887 184.04 130.38C184.4 129.873 184.907 129.473 185.56 129.18C186.227 128.887 187.007 128.74 187.9 128.74C189.22 128.74 190.274 129.073 191.06 129.74C191.847 130.393 192.28 131.28 192.36 132.4H189.68C189.64 131.96 189.454 131.613 189.12 131.36C188.8 131.093 188.367 130.96 187.82 130.96C187.314 130.96 186.92 131.053 186.64 131.24C186.374 131.427 186.24 131.687 186.24 132.02C186.24 132.393 186.427 132.68 186.8 132.88C187.174 133.067 187.754 133.26 188.54 133.46C189.34 133.66 190 133.867 190.52 134.08C191.04 134.293 191.487 134.627 191.86 135.08C192.247 135.52 192.447 136.107 192.46 136.84C192.46 137.48 192.28 138.053 191.92 138.56C191.574 139.067 191.067 139.467 190.4 139.76C189.747 140.04 188.98 140.18 188.1 140.18ZM205.059 134.22C205.059 134.62 205.032 134.98 204.979 135.3H196.879C196.946 136.1 197.226 136.727 197.719 137.18C198.212 137.633 198.819 137.86 199.539 137.86C200.579 137.86 201.319 137.413 201.759 136.52H204.779C204.459 137.587 203.846 138.467 202.939 139.16C202.032 139.84 200.919 140.18 199.599 140.18C198.532 140.18 197.572 139.947 196.719 139.48C195.879 139 195.219 138.327 194.739 137.46C194.272 136.593 194.039 135.593 194.039 134.46C194.039 133.313 194.272 132.307 194.739 131.44C195.206 130.573 195.859 129.907 196.699 129.44C197.539 128.973 198.506 128.74 199.599 128.74C200.652 128.74 201.592 128.967 202.419 129.42C203.259 129.873 203.906 130.52 204.359 131.36C204.826 132.187 205.059 133.14 205.059 134.22ZM202.159 133.42C202.146 132.7 201.886 132.127 201.379 131.7C200.872 131.26 200.252 131.04 199.519 131.04C198.826 131.04 198.239 131.253 197.759 131.68C197.292 132.093 197.006 132.673 196.899 133.42H202.159ZM213.243 128.76C214.563 128.76 215.629 129.18 216.443 130.02C217.256 130.847 217.663 132.007 217.663 133.5V140H214.863V133.88C214.863 133 214.643 132.327 214.203 131.86C213.763 131.38 213.163 131.14 212.403 131.14C211.629 131.14 211.016 131.38 210.563 131.86C210.123 132.327 209.903 133 209.903 133.88V140H207.103V128.92H209.903V130.3C210.276 129.82 210.749 129.447 211.323 129.18C211.909 128.9 212.549 128.76 213.243 128.76ZM224.565 140.18C223.659 140.18 222.845 140.02 222.125 139.7C221.405 139.367 220.832 138.92 220.405 138.36C219.992 137.8 219.765 137.18 219.725 136.5H222.545C222.599 136.927 222.805 137.28 223.165 137.56C223.539 137.84 223.999 137.98 224.545 137.98C225.079 137.98 225.492 137.873 225.785 137.66C226.092 137.447 226.245 137.173 226.245 136.84C226.245 136.48 226.059 136.213 225.685 136.04C225.325 135.853 224.745 135.653 223.945 135.44C223.119 135.24 222.439 135.033 221.905 134.82C221.385 134.607 220.932 134.28 220.545 133.84C220.172 133.4 219.985 132.807 219.985 132.06C219.985 131.447 220.159 130.887 220.505 130.38C220.865 129.873 221.372 129.473 222.025 129.18C222.692 128.887 223.472 128.74 224.365 128.74C225.685 128.74 226.739 129.073 227.525 129.74C228.312 130.393 228.745 131.28 228.825 132.4H226.145C226.105 131.96 225.919 131.613 225.585 131.36C225.265 131.093 224.832 130.96 224.285 130.96C223.779 130.96 223.385 131.053 223.105 131.24C222.839 131.427 222.705 131.687 222.705 132.02C222.705 132.393 222.892 132.68 223.265 132.88C223.639 133.067 224.219 133.26 225.005 133.46C225.805 133.66 226.465 133.867 226.985 134.08C227.505 134.293 227.952 134.627 228.325 135.08C228.712 135.52 228.912 136.107 228.925 136.84C228.925 137.48 228.745 138.053 228.385 138.56C228.039 139.067 227.532 139.467 226.865 139.76C226.212 140.04 225.445 140.18 224.565 140.18ZM236.144 140.18C235.077 140.18 234.117 139.947 233.264 139.48C232.41 139 231.737 138.327 231.244 137.46C230.764 136.593 230.524 135.593 230.524 134.46C230.524 133.327 230.77 132.327 231.264 131.46C231.77 130.593 232.457 129.927 233.324 129.46C234.19 128.98 235.157 128.74 236.224 128.74C237.29 128.74 238.257 128.98 239.124 129.46C239.99 129.927 240.67 130.593 241.164 131.46C241.67 132.327 241.924 133.327 241.924 134.46C241.924 135.593 241.664 136.593 241.144 137.46C240.637 138.327 239.944 139 239.064 139.48C238.197 139.947 237.224 140.18 236.144 140.18ZM236.144 137.74C236.65 137.74 237.124 137.62 237.564 137.38C238.017 137.127 238.377 136.753 238.644 136.26C238.91 135.767 239.044 135.167 239.044 134.46C239.044 133.407 238.764 132.6 238.204 132.04C237.657 131.467 236.984 131.18 236.184 131.18C235.384 131.18 234.71 131.467 234.164 132.04C233.63 132.6 233.364 133.407 233.364 134.46C233.364 135.513 233.624 136.327 234.144 136.9C234.677 137.46 235.344 137.74 236.144 137.74ZM246.778 130.64C247.138 130.053 247.604 129.593 248.178 129.26C248.764 128.927 249.431 128.76 250.178 128.76V131.7H249.438C248.558 131.7 247.891 131.907 247.438 132.32C246.998 132.733 246.778 133.453 246.778 134.48V140H243.978V128.92H246.778V130.64ZM254.864 125.2V140H252.064V125.2H254.864ZM267.93 134.22C267.93 134.62 267.903 134.98 267.85 135.3H259.75C259.817 136.1 260.097 136.727 260.59 137.18C261.083 137.633 261.69 137.86 262.41 137.86C263.45 137.86 264.19 137.413 264.63 136.52H267.65C267.33 137.587 266.717 138.467 265.81 139.16C264.903 139.84 263.79 140.18 262.47 140.18C261.403 140.18 260.443 139.947 259.59 139.48C258.75 139 258.09 138.327 257.61 137.46C257.143 136.593 256.91 135.593 256.91 134.46C256.91 133.313 257.143 132.307 257.61 131.44C258.077 130.573 258.73 129.907 259.57 129.44C260.41 128.973 261.377 128.74 262.47 128.74C263.523 128.74 264.463 128.967 265.29 129.42C266.13 129.873 266.777 130.52 267.23 131.36C267.697 132.187 267.93 133.14 267.93 134.22ZM265.03 133.42C265.017 132.7 264.757 132.127 264.25 131.7C263.743 131.26 263.123 131.04 262.39 131.04C261.697 131.04 261.11 131.253 260.63 131.68C260.163 132.093 259.877 132.673 259.77 133.42H265.03ZM274.214 140.18C273.307 140.18 272.494 140.02 271.774 139.7C271.054 139.367 270.48 138.92 270.054 138.36C269.64 137.8 269.414 137.18 269.374 136.5H272.194C272.247 136.927 272.454 137.28 272.814 137.56C273.187 137.84 273.647 137.98 274.194 137.98C274.727 137.98 275.14 137.873 275.434 137.66C275.74 137.447 275.894 137.173 275.894 136.84C275.894 136.48 275.707 136.213 275.334 136.04C274.974 135.853 274.394 135.653 273.594 135.44C272.767 135.24 272.087 135.033 271.554 134.82C271.034 134.607 270.58 134.28 270.194 133.84C269.82 133.4 269.634 132.807 269.634 132.06C269.634 131.447 269.807 130.887 270.154 130.38C270.514 129.873 271.02 129.473 271.674 129.18C272.34 128.887 273.12 128.74 274.014 128.74C275.334 128.74 276.387 129.073 277.174 129.74C277.96 130.393 278.394 131.28 278.474 132.4H275.794C275.754 131.96 275.567 131.613 275.234 131.36C274.914 131.093 274.48 130.96 273.934 130.96C273.427 130.96 273.034 131.053 272.754 131.24C272.487 131.427 272.354 131.687 272.354 132.02C272.354 132.393 272.54 132.68 272.914 132.88C273.287 133.067 273.867 133.26 274.654 133.46C275.454 133.66 276.114 133.867 276.634 134.08C277.154 134.293 277.6 134.627 277.974 135.08C278.36 135.52 278.56 136.107 278.574 136.84C278.574 137.48 278.394 138.053 278.034 138.56C277.687 139.067 277.18 139.467 276.514 139.76C275.86 140.04 275.094 140.18 274.214 140.18ZM285.112 140.18C284.206 140.18 283.392 140.02 282.672 139.7C281.952 139.367 281.379 138.92 280.952 138.36C280.539 137.8 280.312 137.18 280.272 136.5H283.092C283.146 136.927 283.352 137.28 283.712 137.56C284.086 137.84 284.546 137.98 285.092 137.98C285.626 137.98 286.039 137.873 286.332 137.66C286.639 137.447 286.792 137.173 286.792 136.84C286.792 136.48 286.606 136.213 286.232 136.04C285.872 135.853 285.292 135.653 284.492 135.44C283.666 135.24 282.986 135.033 282.452 134.82C281.932 134.607 281.479 134.28 281.092 133.84C280.719 133.4 280.532 132.807 280.532 132.06C280.532 131.447 280.706 130.887 281.052 130.38C281.412 129.873 281.919 129.473 282.572 129.18C283.239 128.887 284.019 128.74 284.912 128.74C286.232 128.74 287.286 129.073 288.072 129.74C288.859 130.393 289.292 131.28 289.372 132.4H286.692C286.652 131.96 286.466 131.613 286.132 131.36C285.812 131.093 285.379 130.96 284.832 130.96C284.326 130.96 283.932 131.053 283.652 131.24C283.386 131.427 283.252 131.687 283.252 132.02C283.252 132.393 283.439 132.68 283.812 132.88C284.186 133.067 284.766 133.26 285.552 133.46C286.352 133.66 287.012 133.867 287.532 134.08C288.052 134.293 288.499 134.627 288.872 135.08C289.259 135.52 289.459 136.107 289.472 136.84C289.472 137.48 289.292 138.053 288.932 138.56C288.586 139.067 288.079 139.467 287.412 139.76C286.759 140.04 285.992 140.18 285.112 140.18ZM294.831 137.06L292.491 142.68H290.691L291.991 137.06H294.831ZM303.034 127.6C302.541 127.6 302.128 127.447 301.794 127.14C301.474 126.82 301.314 126.427 301.314 125.96C301.314 125.493 301.474 125.107 301.794 124.8C302.128 124.48 302.541 124.32 303.034 124.32C303.528 124.32 303.934 124.48 304.254 124.8C304.588 125.107 304.754 125.493 304.754 125.96C304.754 126.427 304.588 126.82 304.254 127.14C303.934 127.447 303.528 127.6 303.034 127.6ZM304.414 128.92V140H301.614V128.92H304.414ZM313.321 128.76C314.641 128.76 315.707 129.18 316.521 130.02C317.334 130.847 317.741 132.007 317.741 133.5V140H314.941V133.88C314.941 133 314.721 132.327 314.281 131.86C313.841 131.38 313.241 131.14 312.481 131.14C311.707 131.14 311.094 131.38 310.641 131.86C310.201 132.327 309.981 133 309.981 133.88V140H307.181V128.92H309.981V130.3C310.354 129.82 310.827 129.447 311.401 129.18C311.987 128.9 312.627 128.76 313.321 128.76ZM324.449 134.46C324.449 133.313 324.682 132.313 325.149 131.46C325.616 130.593 326.262 129.927 327.089 129.46C327.916 128.98 328.862 128.74 329.929 128.74C331.302 128.74 332.436 129.087 333.329 129.78C334.236 130.46 334.842 131.42 335.149 132.66H332.129C331.969 132.18 331.696 131.807 331.309 131.54C330.936 131.26 330.469 131.12 329.909 131.12C329.109 131.12 328.476 131.413 328.009 132C327.542 132.573 327.309 133.393 327.309 134.46C327.309 135.513 327.542 136.333 328.009 136.92C328.476 137.493 329.109 137.78 329.909 137.78C331.042 137.78 331.782 137.273 332.129 136.26H335.149C334.842 137.46 334.236 138.413 333.329 139.12C332.422 139.827 331.289 140.18 329.929 140.18C328.862 140.18 327.916 139.947 327.089 139.48C326.262 139 325.616 138.333 325.149 137.48C324.682 136.613 324.449 135.607 324.449 134.46ZM336.48 134.42C336.48 133.3 336.7 132.307 337.14 131.44C337.594 130.573 338.2 129.907 338.96 129.44C339.734 128.973 340.594 128.74 341.54 128.74C342.367 128.74 343.087 128.907 343.7 129.24C344.327 129.573 344.827 129.993 345.2 130.5V128.92H348.02V140H345.2V138.38C344.84 138.9 344.34 139.333 343.7 139.68C343.074 140.013 342.347 140.18 341.52 140.18C340.587 140.18 339.734 139.94 338.96 139.46C338.2 138.98 337.594 138.307 337.14 137.44C336.7 136.56 336.48 135.553 336.48 134.42ZM345.2 134.46C345.2 133.78 345.067 133.2 344.8 132.72C344.534 132.227 344.174 131.853 343.72 131.6C343.267 131.333 342.78 131.2 342.26 131.2C341.74 131.2 341.26 131.327 340.82 131.58C340.38 131.833 340.02 132.207 339.74 132.7C339.474 133.18 339.34 133.753 339.34 134.42C339.34 135.087 339.474 135.673 339.74 136.18C340.02 136.673 340.38 137.053 340.82 137.32C341.274 137.587 341.754 137.72 342.26 137.72C342.78 137.72 343.267 137.593 343.72 137.34C344.174 137.073 344.534 136.7 344.8 136.22C345.067 135.727 345.2 135.14 345.2 134.46ZM354.995 140.18C354.088 140.18 353.275 140.02 352.555 139.7C351.835 139.367 351.262 138.92 350.835 138.36C350.422 137.8 350.195 137.18 350.155 136.5H352.975C353.028 136.927 353.235 137.28 353.595 137.56C353.968 137.84 354.428 137.98 354.975 137.98C355.508 137.98 355.922 137.873 356.215 137.66C356.522 137.447 356.675 137.173 356.675 136.84C356.675 136.48 356.488 136.213 356.115 136.04C355.755 135.853 355.175 135.653 354.375 135.44C353.548 135.24 352.868 135.033 352.335 134.82C351.815 134.607 351.362 134.28 350.975 133.84C350.602 133.4 350.415 132.807 350.415 132.06C350.415 131.447 350.588 130.887 350.935 130.38C351.295 129.873 351.802 129.473 352.455 129.18C353.122 128.887 353.902 128.74 354.795 128.74C356.115 128.74 357.168 129.073 357.955 129.74C358.742 130.393 359.175 131.28 359.255 132.4H356.575C356.535 131.96 356.348 131.613 356.015 131.36C355.695 131.093 355.262 130.96 354.715 130.96C354.208 130.96 353.815 131.053 353.535 131.24C353.268 131.427 353.135 131.687 353.135 132.02C353.135 132.393 353.322 132.68 353.695 132.88C354.068 133.067 354.648 133.26 355.435 133.46C356.235 133.66 356.895 133.867 357.415 134.08C357.935 134.293 358.382 134.627 358.755 135.08C359.142 135.52 359.342 136.107 359.355 136.84C359.355 137.48 359.175 138.053 358.815 138.56C358.468 139.067 357.962 139.467 357.295 139.76C356.642 140.04 355.875 140.18 354.995 140.18ZM371.953 134.22C371.953 134.62 371.927 134.98 371.873 135.3H363.773C363.84 136.1 364.12 136.727 364.613 137.18C365.107 137.633 365.713 137.86 366.433 137.86C367.473 137.86 368.213 137.413 368.653 136.52H371.673C371.353 137.587 370.74 138.467 369.833 139.16C368.927 139.84 367.813 140.18 366.493 140.18C365.427 140.18 364.467 139.947 363.613 139.48C362.773 139 362.113 138.327 361.633 137.46C361.167 136.593 360.933 135.593 360.933 134.46C360.933 133.313 361.167 132.307 361.633 131.44C362.1 130.573 362.753 129.907 363.593 129.44C364.433 128.973 365.4 128.74 366.493 128.74C367.547 128.74 368.487 128.967 369.313 129.42C370.153 129.873 370.8 130.52 371.253 131.36C371.72 132.187 371.953 133.14 371.953 134.22ZM369.053 133.42C369.04 132.7 368.78 132.127 368.273 131.7C367.767 131.26 367.147 131.04 366.413 131.04C365.72 131.04 365.133 131.253 364.653 131.68C364.187 132.093 363.9 132.673 363.793 133.42H369.053ZM383.683 140.18C382.616 140.18 381.656 139.947 380.803 139.48C379.949 139 379.276 138.327 378.783 137.46C378.303 136.593 378.063 135.593 378.063 134.46C378.063 133.327 378.309 132.327 378.803 131.46C379.309 130.593 379.996 129.927 380.863 129.46C381.729 128.98 382.696 128.74 383.763 128.74C384.829 128.74 385.796 128.98 386.663 129.46C387.529 129.927 388.209 130.593 388.703 131.46C389.209 132.327 389.463 133.327 389.463 134.46C389.463 135.593 389.203 136.593 388.683 137.46C388.176 138.327 387.483 139 386.603 139.48C385.736 139.947 384.763 140.18 383.683 140.18ZM383.683 137.74C384.189 137.74 384.663 137.62 385.103 137.38C385.556 137.127 385.916 136.753 386.183 136.26C386.449 135.767 386.583 135.167 386.583 134.46C386.583 133.407 386.303 132.6 385.743 132.04C385.196 131.467 384.523 131.18 383.723 131.18C382.923 131.18 382.249 131.467 381.703 132.04C381.169 132.6 380.903 133.407 380.903 134.46C380.903 135.513 381.163 136.327 381.683 136.9C382.216 137.46 382.883 137.74 383.683 137.74ZM396.597 131.22H394.657V140H391.817V131.22H390.557V128.92H391.817V128.36C391.817 127 392.203 126 392.977 125.36C393.75 124.72 394.917 124.42 396.477 124.46V126.82C395.797 126.807 395.323 126.92 395.057 127.16C394.79 127.4 394.657 127.833 394.657 128.46V128.92H396.597V131.22ZM408.257 131.22H406.317V140H403.477V131.22H402.217V128.92H403.477V128.36C403.477 127 403.864 126 404.637 125.36C405.41 124.72 406.577 124.42 408.137 124.46V126.82C407.457 126.807 406.984 126.92 406.717 127.16C406.45 127.4 406.317 127.833 406.317 128.46V128.92H408.257V131.22ZM409.351 134.42C409.351 133.3 409.571 132.307 410.011 131.44C410.465 130.573 411.071 129.907 411.831 129.44C412.605 128.973 413.465 128.74 414.411 128.74C415.238 128.74 415.958 128.907 416.571 129.24C417.198 129.573 417.698 129.993 418.071 130.5V128.92H420.891V140H418.071V138.38C417.711 138.9 417.211 139.333 416.571 139.68C415.945 140.013 415.218 140.18 414.391 140.18C413.458 140.18 412.605 139.94 411.831 139.46C411.071 138.98 410.465 138.307 410.011 137.44C409.571 136.56 409.351 135.553 409.351 134.42ZM418.071 134.46C418.071 133.78 417.938 133.2 417.671 132.72C417.405 132.227 417.045 131.853 416.591 131.6C416.138 131.333 415.651 131.2 415.131 131.2C414.611 131.2 414.131 131.327 413.691 131.58C413.251 131.833 412.891 132.207 412.611 132.7C412.345 133.18 412.211 133.753 412.211 134.42C412.211 135.087 412.345 135.673 412.611 136.18C412.891 136.673 413.251 137.053 413.691 137.32C414.145 137.587 414.625 137.72 415.131 137.72C415.651 137.72 416.138 137.593 416.591 137.34C417.045 137.073 417.405 136.7 417.671 136.22C417.938 135.727 418.071 135.14 418.071 134.46ZM425.046 127.6C424.553 127.6 424.139 127.447 423.806 127.14C423.486 126.82 423.326 126.427 423.326 125.96C423.326 125.493 423.486 125.107 423.806 124.8C424.139 124.48 424.553 124.32 425.046 124.32C425.539 124.32 425.946 124.48 426.266 124.8C426.599 125.107 426.766 125.493 426.766 125.96C426.766 126.427 426.599 126.82 426.266 127.14C425.946 127.447 425.539 127.6 425.046 127.6ZM426.426 128.92V140H423.626V128.92H426.426ZM431.993 125.2V140H429.193V125.2H431.993ZM445.219 128.92V140H442.399V138.6C442.039 139.08 441.566 139.46 440.979 139.74C440.406 140.007 439.779 140.14 439.099 140.14C438.232 140.14 437.466 139.96 436.799 139.6C436.132 139.227 435.606 138.687 435.219 137.98C434.846 137.26 434.659 136.407 434.659 135.42V128.92H437.459V135.02C437.459 135.9 437.679 136.58 438.119 137.06C438.559 137.527 439.159 137.76 439.919 137.76C440.692 137.76 441.299 137.527 441.739 137.06C442.179 136.58 442.399 135.9 442.399 135.02V128.92H445.219ZM450.782 130.64C451.142 130.053 451.608 129.593 452.182 129.26C452.768 128.927 453.435 128.76 454.182 128.76V131.7H453.442C452.562 131.7 451.895 131.907 451.442 132.32C451.002 132.733 450.782 133.453 450.782 134.48V140H447.982V128.92H450.782V130.64ZM466.368 134.22C466.368 134.62 466.341 134.98 466.288 135.3H458.188C458.254 136.1 458.534 136.727 459.028 137.18C459.521 137.633 460.128 137.86 460.848 137.86C461.888 137.86 462.628 137.413 463.068 136.52H466.088C465.768 137.587 465.154 138.467 464.248 139.16C463.341 139.84 462.228 140.18 460.908 140.18C459.841 140.18 458.881 139.947 458.028 139.48C457.188 139 456.528 138.327 456.048 137.46C455.581 136.593 455.347 135.593 455.347 134.46C455.347 133.313 455.581 132.307 456.048 131.44C456.514 130.573 457.168 129.907 458.008 129.44C458.848 128.973 459.814 128.74 460.908 128.74C461.961 128.74 462.901 128.967 463.728 129.42C464.568 129.873 465.214 130.52 465.668 131.36C466.134 132.187 466.368 133.14 466.368 134.22ZM463.468 133.42C463.454 132.7 463.194 132.127 462.688 131.7C462.181 131.26 461.561 131.04 460.828 131.04C460.134 131.04 459.548 131.253 459.068 131.68C458.601 132.093 458.314 132.673 458.208 133.42H463.468ZM478.097 140.18C477.03 140.18 476.07 139.947 475.217 139.48C474.364 139 473.69 138.327 473.197 137.46C472.717 136.593 472.477 135.593 472.477 134.46C472.477 133.327 472.724 132.327 473.217 131.46C473.724 130.593 474.41 129.927 475.277 129.46C476.144 128.98 477.11 128.74 478.177 128.74C479.244 128.74 480.21 128.98 481.077 129.46C481.944 129.927 482.624 130.593 483.117 131.46C483.624 132.327 483.877 133.327 483.877 134.46C483.877 135.593 483.617 136.593 483.097 137.46C482.59 138.327 481.897 139 481.017 139.48C480.15 139.947 479.177 140.18 478.097 140.18ZM478.097 137.74C478.604 137.74 479.077 137.62 479.517 137.38C479.97 137.127 480.33 136.753 480.597 136.26C480.864 135.767 480.997 135.167 480.997 134.46C480.997 133.407 480.717 132.6 480.157 132.04C479.61 131.467 478.937 131.18 478.137 131.18C477.337 131.18 476.664 131.467 476.117 132.04C475.584 132.6 475.317 133.407 475.317 134.46C475.317 135.513 475.577 136.327 476.097 136.9C476.63 137.46 477.297 137.74 478.097 137.74ZM488.731 130.64C489.091 130.053 489.557 129.593 490.131 129.26C490.717 128.927 491.384 128.76 492.131 128.76V131.7H491.391C490.511 131.7 489.844 131.907 489.391 132.32C488.951 132.733 488.731 133.453 488.731 134.48V140H485.931V128.92H488.731V130.64ZM498.062 134.42C498.062 133.3 498.282 132.307 498.722 131.44C499.176 130.573 499.782 129.907 500.542 129.44C501.316 128.973 502.176 128.74 503.122 128.74C503.949 128.74 504.669 128.907 505.282 129.24C505.909 129.573 506.409 129.993 506.782 130.5V128.92H509.602V140H506.782V138.38C506.422 138.9 505.922 139.333 505.282 139.68C504.656 140.013 503.929 140.18 503.102 140.18C502.169 140.18 501.316 139.94 500.542 139.46C499.782 138.98 499.176 138.307 498.722 137.44C498.282 136.56 498.062 135.553 498.062 134.42ZM506.782 134.46C506.782 133.78 506.649 133.2 506.382 132.72C506.116 132.227 505.756 131.853 505.302 131.6C504.849 131.333 504.362 131.2 503.842 131.2C503.322 131.2 502.842 131.327 502.402 131.58C501.962 131.833 501.602 132.207 501.322 132.7C501.056 133.18 500.922 133.753 500.922 134.42C500.922 135.087 501.056 135.673 501.322 136.18C501.602 136.673 501.962 137.053 502.402 137.32C502.856 137.587 503.336 137.72 503.842 137.72C504.362 137.72 504.849 137.593 505.302 137.34C505.756 137.073 506.116 136.7 506.382 136.22C506.649 135.727 506.782 135.14 506.782 134.46ZM515.137 130.54C515.497 130.007 515.99 129.573 516.617 129.24C517.257 128.907 517.984 128.74 518.797 128.74C519.744 128.74 520.597 128.973 521.357 129.44C522.13 129.907 522.737 130.573 523.177 131.44C523.63 132.293 523.857 133.287 523.857 134.42C523.857 135.553 523.63 136.56 523.177 137.44C522.737 138.307 522.13 138.98 521.357 139.46C520.597 139.94 519.744 140.18 518.797 140.18C517.97 140.18 517.244 140.02 516.617 139.7C516.004 139.367 515.51 138.94 515.137 138.42V140H512.337V125.2H515.137V130.54ZM520.997 134.42C520.997 133.753 520.857 133.18 520.577 132.7C520.31 132.207 519.95 131.833 519.497 131.58C519.057 131.327 518.577 131.2 518.057 131.2C517.55 131.2 517.07 131.333 516.617 131.6C516.177 131.853 515.817 132.227 515.537 132.72C515.27 133.213 515.137 133.793 515.137 134.46C515.137 135.127 515.27 135.707 515.537 136.2C515.817 136.693 516.177 137.073 516.617 137.34C517.07 137.593 517.55 137.72 518.057 137.72C518.577 137.72 519.057 137.587 519.497 137.32C519.95 137.053 520.31 136.673 520.577 136.18C520.857 135.687 520.997 135.1 520.997 134.42ZM530.132 140.18C529.225 140.18 528.412 140.02 527.692 139.7C526.972 139.367 526.398 138.92 525.972 138.36C525.558 137.8 525.332 137.18 525.292 136.5H528.112C528.165 136.927 528.372 137.28 528.732 137.56C529.105 137.84 529.565 137.98 530.112 137.98C530.645 137.98 531.058 137.873 531.352 137.66C531.658 137.447 531.812 137.173 531.812 136.84C531.812 136.48 531.625 136.213 531.252 136.04C530.892 135.853 530.312 135.653 529.512 135.44C528.685 135.24 528.005 135.033 527.472 134.82C526.952 134.607 526.498 134.28 526.112 133.84C525.738 133.4 525.552 132.807 525.552 132.06C525.552 131.447 525.725 130.887 526.072 130.38C526.432 129.873 526.938 129.473 527.592 129.18C528.258 128.887 529.038 128.74 529.932 128.74C531.252 128.74 532.305 129.073 533.092 129.74C533.878 130.393 534.312 131.28 534.392 132.4H531.712C531.672 131.96 531.485 131.613 531.152 131.36C530.832 131.093 530.398 130.96 529.852 130.96C529.345 130.96 528.952 131.053 528.672 131.24C528.405 131.427 528.272 131.687 528.272 132.02C528.272 132.393 528.458 132.68 528.832 132.88C529.205 133.067 529.785 133.26 530.572 133.46C531.372 133.66 532.032 133.867 532.552 134.08C533.072 134.293 533.518 134.627 533.892 135.08C534.278 135.52 534.478 136.107 534.492 136.84C534.492 137.48 534.312 138.053 533.952 138.56C533.605 139.067 533.098 139.467 532.432 139.76C531.778 140.04 531.012 140.18 530.132 140.18ZM547.09 134.22C547.09 134.62 547.063 134.98 547.01 135.3H538.91C538.977 136.1 539.257 136.727 539.75 137.18C540.243 137.633 540.85 137.86 541.57 137.86C542.61 137.86 543.35 137.413 543.79 136.52H546.81C546.49 137.587 545.877 138.467 544.97 139.16C544.063 139.84 542.95 140.18 541.63 140.18C540.563 140.18 539.603 139.947 538.75 139.48C537.91 139 537.25 138.327 536.77 137.46C536.303 136.593 536.07 135.593 536.07 134.46C536.07 133.313 536.303 132.307 536.77 131.44C537.237 130.573 537.89 129.907 538.73 129.44C539.57 128.973 540.537 128.74 541.63 128.74C542.683 128.74 543.623 128.967 544.45 129.42C545.29 129.873 545.937 130.52 546.39 131.36C546.857 132.187 547.09 133.14 547.09 134.22ZM544.19 133.42C544.177 132.7 543.917 132.127 543.41 131.7C542.903 131.26 542.283 131.04 541.55 131.04C540.857 131.04 540.27 131.253 539.79 131.68C539.323 132.093 539.037 132.673 538.93 133.42H544.19ZM555.274 128.76C556.594 128.76 557.661 129.18 558.474 130.02C559.287 130.847 559.694 132.007 559.694 133.5V140H556.894V133.88C556.894 133 556.674 132.327 556.234 131.86C555.794 131.38 555.194 131.14 554.434 131.14C553.661 131.14 553.047 131.38 552.594 131.86C552.154 132.327 551.934 133 551.934 133.88V140H549.134V128.92H551.934V130.3C552.307 129.82 552.781 129.447 553.354 129.18C553.941 128.9 554.581 128.76 555.274 128.76ZM561.637 134.46C561.637 133.313 561.87 132.313 562.337 131.46C562.803 130.593 563.45 129.927 564.277 129.46C565.103 128.98 566.05 128.74 567.117 128.74C568.49 128.74 569.623 129.087 570.517 129.78C571.423 130.46 572.03 131.42 572.337 132.66H569.317C569.157 132.18 568.883 131.807 568.497 131.54C568.123 131.26 567.657 131.12 567.097 131.12C566.297 131.12 565.663 131.413 565.197 132C564.73 132.573 564.497 133.393 564.497 134.46C564.497 135.513 564.73 136.333 565.197 136.92C565.663 137.493 566.297 137.78 567.097 137.78C568.23 137.78 568.97 137.273 569.317 136.26H572.337C572.03 137.46 571.423 138.413 570.517 139.12C569.61 139.827 568.477 140.18 567.117 140.18C566.05 140.18 565.103 139.947 564.277 139.48C563.45 139 562.803 138.333 562.337 137.48C561.87 136.613 561.637 135.607 561.637 134.46ZM584.688 134.22C584.688 134.62 584.661 134.98 584.608 135.3H576.508C576.574 136.1 576.854 136.727 577.348 137.18C577.841 137.633 578.448 137.86 579.168 137.86C580.208 137.86 580.948 137.413 581.388 136.52H584.408C584.088 137.587 583.474 138.467 582.568 139.16C581.661 139.84 580.548 140.18 579.228 140.18C578.161 140.18 577.201 139.947 576.348 139.48C575.508 139 574.848 138.327 574.368 137.46C573.901 136.593 573.668 135.593 573.668 134.46C573.668 133.313 573.901 132.307 574.368 131.44C574.834 130.573 575.488 129.907 576.328 129.44C577.168 128.973 578.134 128.74 579.228 128.74C580.281 128.74 581.221 128.967 582.048 129.42C582.888 129.873 583.534 130.52 583.988 131.36C584.454 132.187 584.688 133.14 584.688 134.22ZM581.788 133.42C581.774 132.7 581.514 132.127 581.008 131.7C580.501 131.26 579.881 131.04 579.148 131.04C578.454 131.04 577.868 131.253 577.388 131.68C576.921 132.093 576.634 132.673 576.528 133.42H581.788ZM596.417 140.18C595.351 140.18 594.391 139.947 593.537 139.48C592.684 139 592.011 138.327 591.517 137.46C591.037 136.593 590.797 135.593 590.797 134.46C590.797 133.327 591.044 132.327 591.537 131.46C592.044 130.593 592.731 129.927 593.597 129.46C594.464 128.98 595.431 128.74 596.497 128.74C597.564 128.74 598.531 128.98 599.397 129.46C600.264 129.927 600.944 130.593 601.437 131.46C601.944 132.327 602.197 133.327 602.197 134.46C602.197 135.593 601.937 136.593 601.417 137.46C600.911 138.327 600.217 139 599.337 139.48C598.471 139.947 597.497 140.18 596.417 140.18ZM596.417 137.74C596.924 137.74 597.397 137.62 597.837 137.38C598.291 137.127 598.651 136.753 598.917 136.26C599.184 135.767 599.317 135.167 599.317 134.46C599.317 133.407 599.037 132.6 598.477 132.04C597.931 131.467 597.257 131.18 596.457 131.18C595.657 131.18 594.984 131.467 594.437 132.04C593.904 132.6 593.637 133.407 593.637 134.46C593.637 135.513 593.897 136.327 594.417 136.9C594.951 137.46 595.617 137.74 596.417 137.74ZM609.331 131.22H607.391V140H604.551V131.22H603.291V128.92H604.551V128.36C604.551 127 604.938 126 605.711 125.36C606.484 124.72 607.651 124.42 609.211 124.46V126.82C608.531 126.807 608.058 126.92 607.791 127.16C607.524 127.4 607.391 127.833 607.391 128.46V128.92H609.331V131.22ZM627.491 126.04V140H624.691V134.06H618.711V140H615.911V126.04H618.711V131.78H624.691V126.04H627.491ZM629.527 134.42C629.527 133.3 629.747 132.307 630.187 131.44C630.641 130.573 631.247 129.907 632.007 129.44C632.781 128.973 633.641 128.74 634.587 128.74C635.414 128.74 636.134 128.907 636.747 129.24C637.374 129.573 637.874 129.993 638.247 130.5V128.92H641.067V140H638.247V138.38C637.887 138.9 637.387 139.333 636.747 139.68C636.121 140.013 635.394 140.18 634.567 140.18C633.634 140.18 632.781 139.94 632.007 139.46C631.247 138.98 630.641 138.307 630.187 137.44C629.747 136.56 629.527 135.553 629.527 134.42ZM638.247 134.46C638.247 133.78 638.114 133.2 637.847 132.72C637.581 132.227 637.221 131.853 636.767 131.6C636.314 131.333 635.827 131.2 635.307 131.2C634.787 131.2 634.307 131.327 633.867 131.58C633.427 131.833 633.067 132.207 632.787 132.7C632.521 133.18 632.387 133.753 632.387 134.42C632.387 135.087 632.521 135.673 632.787 136.18C633.067 136.673 633.427 137.053 633.867 137.32C634.321 137.587 634.801 137.72 635.307 137.72C635.827 137.72 636.314 137.593 636.767 137.34C637.221 137.073 637.581 136.7 637.847 136.22C638.114 135.727 638.247 135.14 638.247 134.46ZM646.602 125.2V140H643.802V125.2H646.602ZM652.168 125.2V140H649.368V125.2H652.168ZM663.94 140.18C663.034 140.18 662.22 140.02 661.5 139.7C660.78 139.367 660.207 138.92 659.78 138.36C659.367 137.8 659.14 137.18 659.1 136.5H661.92C661.974 136.927 662.18 137.28 662.54 137.56C662.914 137.84 663.374 137.98 663.92 137.98C664.454 137.98 664.867 137.873 665.16 137.66C665.467 137.447 665.62 137.173 665.62 136.84C665.62 136.48 665.434 136.213 665.06 136.04C664.7 135.853 664.12 135.653 663.32 135.44C662.494 135.24 661.814 135.033 661.28 134.82C660.76 134.607 660.307 134.28 659.92 133.84C659.547 133.4 659.36 132.807 659.36 132.06C659.36 131.447 659.534 130.887 659.88 130.38C660.24 129.873 660.747 129.473 661.4 129.18C662.067 128.887 662.847 128.74 663.74 128.74C665.06 128.74 666.114 129.073 666.9 129.74C667.687 130.393 668.12 131.28 668.2 132.4H665.52C665.48 131.96 665.294 131.613 664.96 131.36C664.64 131.093 664.207 130.96 663.66 130.96C663.154 130.96 662.76 131.053 662.48 131.24C662.214 131.427 662.08 131.687 662.08 132.02C662.08 132.393 662.267 132.68 662.64 132.88C663.014 133.067 663.594 133.26 664.38 133.46C665.18 133.66 665.84 133.867 666.36 134.08C666.88 134.293 667.327 134.627 667.7 135.08C668.087 135.52 668.287 136.107 668.3 136.84C668.3 137.48 668.12 138.053 667.76 138.56C667.414 139.067 666.907 139.467 666.24 139.76C665.587 140.04 664.82 140.18 663.94 140.18ZM680.899 134.22C680.899 134.62 680.872 134.98 680.819 135.3H672.719C672.785 136.1 673.065 136.727 673.559 137.18C674.052 137.633 674.659 137.86 675.379 137.86C676.419 137.86 677.159 137.413 677.599 136.52H680.619C680.299 137.587 679.685 138.467 678.779 139.16C677.872 139.84 676.759 140.18 675.439 140.18C674.372 140.18 673.412 139.947 672.559 139.48C671.719 139 671.059 138.327 670.579 137.46C670.112 136.593 669.879 135.593 669.879 134.46C669.879 133.313 670.112 132.307 670.579 131.44C671.045 130.573 671.699 129.907 672.539 129.44C673.379 128.973 674.345 128.74 675.439 128.74C676.492 128.74 677.432 128.967 678.259 129.42C679.099 129.873 679.745 130.52 680.199 131.36C680.665 132.187 680.899 133.14 680.899 134.22ZM677.999 133.42C677.985 132.7 677.725 132.127 677.219 131.7C676.712 131.26 676.092 131.04 675.359 131.04C674.665 131.04 674.079 131.253 673.599 131.68C673.132 132.093 672.845 132.673 672.739 133.42H677.999ZM689.083 128.76C690.403 128.76 691.469 129.18 692.283 130.02C693.096 130.847 693.503 132.007 693.503 133.5V140H690.703V133.88C690.703 133 690.483 132.327 690.043 131.86C689.603 131.38 689.003 131.14 688.243 131.14C687.469 131.14 686.856 131.38 686.403 131.86C685.963 132.327 685.743 133 685.743 133.88V140H682.943V128.92H685.743V130.3C686.116 129.82 686.589 129.447 687.163 129.18C687.749 128.9 688.389 128.76 689.083 128.76ZM700.405 140.18C699.498 140.18 698.685 140.02 697.965 139.7C697.245 139.367 696.672 138.92 696.245 138.36C695.832 137.8 695.605 137.18 695.565 136.5H698.385C698.438 136.927 698.645 137.28 699.005 137.56C699.378 137.84 699.838 137.98 700.385 137.98C700.918 137.98 701.332 137.873 701.625 137.66C701.932 137.447 702.085 137.173 702.085 136.84C702.085 136.48 701.898 136.213 701.525 136.04C701.165 135.853 700.585 135.653 699.785 135.44C698.958 135.24 698.278 135.033 697.745 134.82C697.225 134.607 696.772 134.28 696.385 133.84C696.012 133.4 695.825 132.807 695.825 132.06C695.825 131.447 695.998 130.887 696.345 130.38C696.705 129.873 697.212 129.473 697.865 129.18C698.532 128.887 699.312 128.74 700.205 128.74C701.525 128.74 702.578 129.073 703.365 129.74C704.152 130.393 704.585 131.28 704.665 132.4H701.985C701.945 131.96 701.758 131.613 701.425 131.36C701.105 131.093 700.672 130.96 700.125 130.96C699.618 130.96 699.225 131.053 698.945 131.24C698.678 131.427 698.545 131.687 698.545 132.02C698.545 132.393 698.732 132.68 699.105 132.88C699.478 133.067 700.058 133.26 700.845 133.46C701.645 133.66 702.305 133.867 702.825 134.08C703.345 134.293 703.792 134.627 704.165 135.08C704.552 135.52 704.752 136.107 704.765 136.84C704.765 137.48 704.585 138.053 704.225 138.56C703.878 139.067 703.372 139.467 702.705 139.76C702.052 140.04 701.285 140.18 700.405 140.18ZM711.984 140.18C710.917 140.18 709.957 139.947 709.104 139.48C708.25 139 707.577 138.327 707.084 137.46C706.604 136.593 706.364 135.593 706.364 134.46C706.364 133.327 706.61 132.327 707.104 131.46C707.61 130.593 708.297 129.927 709.164 129.46C710.03 128.98 710.997 128.74 712.064 128.74C713.13 128.74 714.097 128.98 714.964 129.46C715.83 129.927 716.51 130.593 717.004 131.46C717.51 132.327 717.764 133.327 717.764 134.46C717.764 135.593 717.504 136.593 716.984 137.46C716.477 138.327 715.784 139 714.904 139.48C714.037 139.947 713.064 140.18 711.984 140.18ZM711.984 137.74C712.49 137.74 712.964 137.62 713.404 137.38C713.857 137.127 714.217 136.753 714.484 136.26C714.75 135.767 714.884 135.167 714.884 134.46C714.884 133.407 714.604 132.6 714.044 132.04C713.497 131.467 712.824 131.18 712.024 131.18C711.224 131.18 710.55 131.467 710.004 132.04C709.47 132.6 709.204 133.407 709.204 134.46C709.204 135.513 709.464 136.327 709.984 136.9C710.517 137.46 711.184 137.74 711.984 137.74ZM722.618 130.64C722.978 130.053 723.444 129.593 724.018 129.26C724.604 128.927 725.271 128.76 726.018 128.76V131.7H725.278C724.398 131.7 723.731 131.907 723.278 132.32C722.838 132.733 722.618 133.453 722.618 134.48V140H719.818V128.92H722.618V130.64ZM732.143 140.18C731.237 140.18 730.423 140.02 729.703 139.7C728.983 139.367 728.41 138.92 727.983 138.36C727.57 137.8 727.343 137.18 727.303 136.5H730.123C730.177 136.927 730.383 137.28 730.743 137.56C731.117 137.84 731.577 137.98 732.123 137.98C732.657 137.98 733.07 137.873 733.363 137.66C733.67 137.447 733.823 137.173 733.823 136.84C733.823 136.48 733.637 136.213 733.263 136.04C732.903 135.853 732.323 135.653 731.523 135.44C730.697 135.24 730.017 135.033 729.483 134.82C728.963 134.607 728.51 134.28 728.123 133.84C727.75 133.4 727.563 132.807 727.563 132.06C727.563 131.447 727.737 130.887 728.083 130.38C728.443 129.873 728.95 129.473 729.603 129.18C730.27 128.887 731.05 128.74 731.943 128.74C733.263 128.74 734.317 129.073 735.103 129.74C735.89 130.393 736.323 131.28 736.403 132.4H733.723C733.683 131.96 733.497 131.613 733.163 131.36C732.843 131.093 732.41 130.96 731.863 130.96C731.357 130.96 730.963 131.053 730.683 131.24C730.417 131.427 730.283 131.687 730.283 132.02C730.283 132.393 730.47 132.68 730.843 132.88C731.217 133.067 731.797 133.26 732.583 133.46C733.383 133.66 734.043 133.867 734.563 134.08C735.083 134.293 735.53 134.627 735.903 135.08C736.29 135.52 736.49 136.107 736.503 136.84C736.503 137.48 736.323 138.053 735.963 138.56C735.617 139.067 735.11 139.467 734.443 139.76C733.79 140.04 733.023 140.18 732.143 140.18ZM740.042 140.14C739.535 140.14 739.115 139.987 738.782 139.68C738.462 139.36 738.302 138.967 738.302 138.5C738.302 138.033 738.462 137.647 738.782 137.34C739.115 137.02 739.535 136.86 740.042 136.86C740.535 136.86 740.942 137.02 741.262 137.34C741.582 137.647 741.742 138.033 741.742 138.5C741.742 138.967 741.582 139.36 741.262 139.68C740.942 139.987 740.535 140.14 740.042 140.14Z" fill="#888A8A"/>
</svg>
