<svg width="1680" height="624" viewBox="0 0 1680 624" fill="none" xmlns="http://www.w3.org/2000/svg">
<rect width="1680" height="624" fill="#F6F6F6"/>
<g clip-path="url(#clip0_1878_24118)">
<circle cx="840" cy="224" r="23.25" stroke="#B0B0B0" stroke-width="1.5"/>
<circle cx="840" cy="224" r="19.25" stroke="#B0B0B0" stroke-width="1.5"/>
<g clip-path="url(#clip1_1878_24118)">
<path d="M828.224 212.224C828.523 211.925 829.008 211.925 829.308 212.224L838.594 221.511C838.65 221.553 838.699 221.603 838.742 221.659L851.776 234.692C852.075 234.992 852.075 235.477 851.776 235.776C851.477 236.075 850.992 236.075 850.692 235.776L843.829 228.912C843.598 229.001 843.328 228.976 843.111 228.822C842.203 228.177 841.118 227.831 840.005 227.831C838.892 227.831 837.807 228.177 836.9 228.822C836.555 229.067 836.077 228.986 835.832 228.641C835.587 228.296 835.668 227.818 836.013 227.573C837.179 226.744 838.574 226.299 840.005 226.299C840.458 226.299 840.908 226.344 841.348 226.431L837.868 222.951C836.204 223.302 834.65 224.056 833.342 225.15C833.018 225.421 832.535 225.378 832.263 225.053C831.992 224.729 832.035 224.246 832.36 223.974C833.61 222.929 835.057 222.154 836.609 221.692L833.815 218.898C832.316 219.546 830.927 220.427 829.702 221.51C829.385 221.791 828.901 221.761 828.621 221.444C828.341 221.127 828.371 220.643 828.688 220.363C829.883 219.306 831.22 218.424 832.658 217.741L828.224 213.308C827.925 213.008 827.925 212.523 828.224 212.224Z" fill="#B0B0B0"/>
<path d="M844.132 222.704C844.318 222.324 844.776 222.166 845.156 222.351C846.05 222.788 846.886 223.334 847.644 223.977C847.967 224.251 848.007 224.734 847.733 225.057C847.459 225.38 846.976 225.419 846.653 225.145C845.992 224.585 845.264 224.108 844.484 223.728C844.104 223.543 843.946 223.084 844.132 222.704Z" fill="#B0B0B0"/>
<path d="M844.913 218.412C842.927 217.751 840.83 217.497 838.744 217.665C838.322 217.699 837.953 217.385 837.919 216.963C837.885 216.542 838.199 216.172 838.621 216.138C840.912 215.954 843.216 216.233 845.396 216.958C847.577 217.684 849.589 218.841 851.312 220.362C851.629 220.641 851.659 221.125 851.379 221.443C851.1 221.76 850.616 221.79 850.298 221.51C848.729 220.126 846.898 219.072 844.913 218.412Z" fill="#B0B0B0"/>
<path d="M840 231.404C839.577 231.404 839.234 231.747 839.234 232.17C839.234 232.593 839.577 232.936 840 232.936H840.01C840.433 232.936 840.776 232.593 840.776 232.17C840.776 231.747 840.433 231.404 840.01 231.404H840Z" fill="#B0B0B0"/>
</g>
</g>
<path d="M479.164 289.92V295.4H471.724V318H464.884V295.4H457.444V289.92H479.164ZM496.317 295.44C498.877 295.44 500.931 296.293 502.477 298C504.024 299.68 504.797 302 504.797 304.96V318H497.997V305.88C497.997 304.387 497.611 303.227 496.837 302.4C496.064 301.573 495.024 301.16 493.717 301.16C492.411 301.16 491.371 301.573 490.597 302.4C489.824 303.227 489.437 304.387 489.437 305.88V318H482.597V288.4H489.437V298.68C490.131 297.693 491.077 296.907 492.277 296.32C493.477 295.733 494.824 295.44 496.317 295.44ZM530.59 306.48C530.59 307.12 530.55 307.787 530.47 308.48H514.99C515.097 309.867 515.537 310.933 516.31 311.68C517.11 312.4 518.084 312.76 519.23 312.76C520.937 312.76 522.124 312.04 522.79 310.6H530.07C529.697 312.067 529.017 313.387 528.03 314.56C527.07 315.733 525.857 316.653 524.39 317.32C522.924 317.987 521.284 318.32 519.47 318.32C517.284 318.32 515.337 317.853 513.63 316.92C511.924 315.987 510.59 314.653 509.63 312.92C508.67 311.187 508.19 309.16 508.19 306.84C508.19 304.52 508.657 302.493 509.59 300.76C510.55 299.027 511.884 297.693 513.59 296.76C515.297 295.827 517.257 295.36 519.47 295.36C521.63 295.36 523.55 295.813 525.23 296.72C526.91 297.627 528.217 298.92 529.15 300.6C530.11 302.28 530.59 304.24 530.59 306.48ZM523.59 304.68C523.59 303.507 523.19 302.573 522.39 301.88C521.59 301.187 520.59 300.84 519.39 300.84C518.244 300.84 517.27 301.173 516.47 301.84C515.697 302.507 515.217 303.453 515.03 304.68H523.59ZM541.315 306.84C541.315 304.52 541.782 302.493 542.715 300.76C543.675 299.027 544.995 297.693 546.675 296.76C548.382 295.827 550.329 295.36 552.515 295.36C555.315 295.36 557.649 296.093 559.515 297.56C561.409 299.027 562.649 301.093 563.235 303.76H555.955C555.342 302.053 554.155 301.2 552.395 301.2C551.142 301.2 550.142 301.693 549.395 302.68C548.649 303.64 548.275 305.027 548.275 306.84C548.275 308.653 548.649 310.053 549.395 311.04C550.142 312 551.142 312.48 552.395 312.48C554.155 312.48 555.342 311.627 555.955 309.92H563.235C562.649 312.533 561.409 314.587 559.515 316.08C557.622 317.573 555.289 318.32 552.515 318.32C550.329 318.32 548.382 317.853 546.675 316.92C544.995 315.987 543.675 314.653 542.715 312.92C541.782 311.187 541.315 309.16 541.315 306.84ZM577.054 318.32C574.867 318.32 572.894 317.853 571.134 316.92C569.401 315.987 568.027 314.653 567.014 312.92C566.027 311.187 565.534 309.16 565.534 306.84C565.534 304.547 566.041 302.533 567.054 300.8C568.067 299.04 569.454 297.693 571.214 296.76C572.974 295.827 574.947 295.36 577.134 295.36C579.321 295.36 581.294 295.827 583.054 296.76C584.814 297.693 586.201 299.04 587.214 300.8C588.227 302.533 588.734 304.547 588.734 306.84C588.734 309.133 588.214 311.16 587.174 312.92C586.161 314.653 584.761 315.987 582.974 316.92C581.214 317.853 579.241 318.32 577.054 318.32ZM577.054 312.4C578.361 312.4 579.467 311.92 580.374 310.96C581.307 310 581.774 308.627 581.774 306.84C581.774 305.053 581.321 303.68 580.414 302.72C579.534 301.76 578.441 301.28 577.134 301.28C575.801 301.28 574.694 301.76 573.814 302.72C572.934 303.653 572.494 305.027 572.494 306.84C572.494 308.627 572.921 310 573.774 310.96C574.654 311.92 575.747 312.4 577.054 312.4ZM605.963 295.44C608.576 295.44 610.656 296.293 612.203 298C613.776 299.68 614.563 302 614.563 304.96V318H607.763V305.88C607.763 304.387 607.376 303.227 606.603 302.4C605.829 301.573 604.789 301.16 603.483 301.16C602.176 301.16 601.136 301.573 600.363 302.4C599.589 303.227 599.203 304.387 599.203 305.88V318H592.363V295.68H599.203V298.64C599.896 297.653 600.829 296.88 602.003 296.32C603.176 295.733 604.496 295.44 605.963 295.44ZM631.756 312.2V318H628.276C625.796 318 623.863 317.4 622.476 316.2C621.089 314.973 620.396 312.987 620.396 310.24V301.36H617.676V295.68H620.396V290.24H627.236V295.68H631.716V301.36H627.236V310.32C627.236 310.987 627.396 311.467 627.716 311.76C628.036 312.053 628.569 312.2 629.316 312.2H631.756ZM642.406 299.4C643.206 298.173 644.206 297.213 645.406 296.52C646.606 295.8 647.939 295.44 649.406 295.44V302.68H647.526C645.819 302.68 644.539 303.053 643.686 303.8C642.833 304.52 642.406 305.8 642.406 307.64V318H635.566V295.68H642.406V299.4ZM662.835 318.32C660.649 318.32 658.675 317.853 656.915 316.92C655.182 315.987 653.809 314.653 652.795 312.92C651.809 311.187 651.315 309.16 651.315 306.84C651.315 304.547 651.822 302.533 652.835 300.8C653.849 299.04 655.235 297.693 656.995 296.76C658.755 295.827 660.729 295.36 662.915 295.36C665.102 295.36 667.075 295.827 668.835 296.76C670.595 297.693 671.982 299.04 672.995 300.8C674.009 302.533 674.515 304.547 674.515 306.84C674.515 309.133 673.995 311.16 672.955 312.92C671.942 314.653 670.542 315.987 668.755 316.92C666.995 317.853 665.022 318.32 662.835 318.32ZM662.835 312.4C664.142 312.4 665.249 311.92 666.155 310.96C667.089 310 667.555 308.627 667.555 306.84C667.555 305.053 667.102 303.68 666.195 302.72C665.315 301.76 664.222 301.28 662.915 301.28C661.582 301.28 660.475 301.76 659.595 302.72C658.715 303.653 658.275 305.027 658.275 306.84C658.275 308.627 658.702 310 659.555 310.96C660.435 311.92 661.529 312.4 662.835 312.4ZM684.984 288.4V318H678.144V288.4H684.984ZM696.781 288.4V318H689.941V288.4H696.781ZM722.778 306.48C722.778 307.12 722.738 307.787 722.658 308.48H707.178C707.284 309.867 707.724 310.933 708.498 311.68C709.298 312.4 710.271 312.76 711.418 312.76C713.124 312.76 714.311 312.04 714.978 310.6H722.258C721.884 312.067 721.204 313.387 720.218 314.56C719.258 315.733 718.044 316.653 716.578 317.32C715.111 317.987 713.471 318.32 711.658 318.32C709.471 318.32 707.524 317.853 705.818 316.92C704.111 315.987 702.778 314.653 701.818 312.92C700.858 311.187 700.378 309.16 700.378 306.84C700.378 304.52 700.844 302.493 701.778 300.76C702.738 299.027 704.071 297.693 705.778 296.76C707.484 295.827 709.444 295.36 711.658 295.36C713.818 295.36 715.738 295.813 717.418 296.72C719.098 297.627 720.404 298.92 721.338 300.6C722.298 302.28 722.778 304.24 722.778 306.48ZM715.778 304.68C715.778 303.507 715.378 302.573 714.578 301.88C713.778 301.187 712.778 300.84 711.578 300.84C710.431 300.84 709.458 301.173 708.658 301.84C707.884 302.507 707.404 303.453 707.218 304.68H715.778ZM733.226 299.4C734.026 298.173 735.026 297.213 736.226 296.52C737.426 295.8 738.76 295.44 740.226 295.44V302.68H738.346C736.64 302.68 735.36 303.053 734.506 303.8C733.653 304.52 733.226 305.8 733.226 307.64V318H726.386V295.68H733.226V299.4ZM758.812 299.4C759.612 298.173 760.612 297.213 761.812 296.52C763.012 295.8 764.346 295.44 765.812 295.44V302.68H763.932C762.226 302.68 760.946 303.053 760.092 303.8C759.239 304.52 758.812 305.8 758.812 307.64V318H751.972V295.68H758.812V299.4ZM790.122 306.48C790.122 307.12 790.082 307.787 790.002 308.48H774.522C774.628 309.867 775.068 310.933 775.842 311.68C776.642 312.4 777.615 312.76 778.762 312.76C780.468 312.76 781.655 312.04 782.322 310.6H789.602C789.228 312.067 788.548 313.387 787.562 314.56C786.602 315.733 785.388 316.653 783.922 317.32C782.455 317.987 780.815 318.32 779.002 318.32C776.815 318.32 774.868 317.853 773.162 316.92C771.455 315.987 770.122 314.653 769.162 312.92C768.202 311.187 767.722 309.16 767.722 306.84C767.722 304.52 768.188 302.493 769.122 300.76C770.082 299.027 771.415 297.693 773.122 296.76C774.828 295.827 776.788 295.36 779.002 295.36C781.162 295.36 783.082 295.813 784.762 296.72C786.442 297.627 787.748 298.92 788.682 300.6C789.642 302.28 790.122 304.24 790.122 306.48ZM783.122 304.68C783.122 303.507 782.722 302.573 781.922 301.88C781.122 301.187 780.122 300.84 778.922 300.84C777.775 300.84 776.802 301.173 776.002 301.84C775.228 302.507 774.748 303.453 774.562 304.68H783.122ZM792.37 306.88C792.37 304.667 792.823 302.693 793.73 300.96C794.663 299.227 795.903 297.88 797.45 296.92C799.023 295.933 800.73 295.44 802.57 295.44C803.983 295.44 805.25 295.693 806.37 296.2C807.49 296.68 808.397 297.36 809.09 298.24V295.68H815.93V328.64H809.09V315.2C808.317 316.133 807.37 316.88 806.25 317.44C805.157 318 803.903 318.28 802.49 318.28C800.677 318.28 798.997 317.8 797.45 316.84C795.903 315.88 794.663 314.533 793.73 312.8C792.823 311.067 792.37 309.093 792.37 306.88ZM809.09 306.84C809.09 305.64 808.85 304.64 808.37 303.84C807.917 303.013 807.317 302.4 806.57 302C805.823 301.573 805.037 301.36 804.21 301.36C803.41 301.36 802.637 301.573 801.89 302C801.143 302.4 800.53 303.013 800.05 303.84C799.57 304.667 799.33 305.68 799.33 306.88C799.33 308.08 799.57 309.093 800.05 309.92C800.53 310.72 801.143 311.333 801.89 311.76C802.637 312.16 803.41 312.36 804.21 312.36C805.01 312.36 805.783 312.16 806.53 311.76C807.303 311.333 807.917 310.707 808.37 309.88C808.85 309.053 809.09 308.04 809.09 306.84ZM842.918 295.68V318H836.078V314.96C835.385 315.947 834.438 316.747 833.238 317.36C832.065 317.947 830.758 318.24 829.318 318.24C827.612 318.24 826.105 317.867 824.798 317.12C823.492 316.347 822.478 315.24 821.758 313.8C821.038 312.36 820.678 310.667 820.678 308.72V295.68H827.478V307.8C827.478 309.293 827.865 310.453 828.638 311.28C829.412 312.107 830.452 312.52 831.758 312.52C833.092 312.52 834.145 312.107 834.918 311.28C835.692 310.453 836.078 309.293 836.078 307.8V295.68H842.918ZM851.272 293.36C850.072 293.36 849.085 293.013 848.312 292.32C847.565 291.6 847.192 290.72 847.192 289.68C847.192 288.613 847.565 287.733 848.312 287.04C849.085 286.32 850.072 285.96 851.272 285.96C852.445 285.96 853.405 286.32 854.152 287.04C854.925 287.733 855.312 288.613 855.312 289.68C855.312 290.72 854.925 291.6 854.152 292.32C853.405 293.013 852.445 293.36 851.272 293.36ZM854.672 295.68V318H847.832V295.68H854.672ZM866.468 299.4C867.268 298.173 868.268 297.213 869.468 296.52C870.668 295.8 872.002 295.44 873.468 295.44V302.68H871.588C869.882 302.68 868.602 303.053 867.748 303.8C866.895 304.52 866.468 305.8 866.468 307.64V318H859.628V295.68H866.468V299.4ZM897.778 306.48C897.778 307.12 897.738 307.787 897.658 308.48H882.178C882.284 309.867 882.724 310.933 883.498 311.68C884.298 312.4 885.271 312.76 886.418 312.76C888.124 312.76 889.311 312.04 889.978 310.6H897.258C896.884 312.067 896.204 313.387 895.218 314.56C894.258 315.733 893.044 316.653 891.578 317.32C890.111 317.987 888.471 318.32 886.658 318.32C884.471 318.32 882.524 317.853 880.818 316.92C879.111 315.987 877.778 314.653 876.818 312.92C875.858 311.187 875.378 309.16 875.378 306.84C875.378 304.52 875.844 302.493 876.778 300.76C877.738 299.027 879.071 297.693 880.778 296.76C882.484 295.827 884.444 295.36 886.658 295.36C888.818 295.36 890.738 295.813 892.418 296.72C894.098 297.627 895.404 298.92 896.338 300.6C897.298 302.28 897.778 304.24 897.778 306.48ZM890.778 304.68C890.778 303.507 890.378 302.573 889.578 301.88C888.778 301.187 887.778 300.84 886.578 300.84C885.431 300.84 884.458 301.173 883.658 301.84C882.884 302.507 882.404 303.453 882.218 304.68H890.778ZM910.466 318.32C908.52 318.32 906.786 317.987 905.266 317.32C903.746 316.653 902.546 315.747 901.666 314.6C900.786 313.427 900.293 312.12 900.186 310.68H906.946C907.026 311.453 907.386 312.08 908.026 312.56C908.666 313.04 909.453 313.28 910.386 313.28C911.24 313.28 911.893 313.12 912.346 312.8C912.826 312.453 913.066 312.013 913.066 311.48C913.066 310.84 912.733 310.373 912.066 310.08C911.4 309.76 910.32 309.413 908.826 309.04C907.226 308.667 905.893 308.28 904.826 307.88C903.76 307.453 902.84 306.8 902.066 305.92C901.293 305.013 900.906 303.8 900.906 302.28C900.906 301 901.253 299.84 901.946 298.8C902.666 297.733 903.706 296.893 905.066 296.28C906.453 295.667 908.093 295.36 909.986 295.36C912.786 295.36 914.986 296.053 916.586 297.44C918.213 298.827 919.146 300.667 919.386 302.96H913.066C912.96 302.187 912.613 301.573 912.026 301.12C911.466 300.667 910.72 300.44 909.786 300.44C908.986 300.44 908.373 300.6 907.946 300.92C907.52 301.213 907.306 301.627 907.306 302.16C907.306 302.8 907.64 303.28 908.306 303.6C909 303.92 910.066 304.24 911.506 304.56C913.16 304.987 914.506 305.413 915.546 305.84C916.586 306.24 917.493 306.907 918.266 307.84C919.066 308.747 919.48 309.973 919.506 311.52C919.506 312.827 919.133 314 918.386 315.04C917.666 316.053 916.613 316.853 915.226 317.44C913.866 318.027 912.28 318.32 910.466 318.32ZM945.768 295.44C948.381 295.44 950.461 296.293 952.008 298C953.581 299.68 954.368 302 954.368 304.96V318H947.568V305.88C947.568 304.387 947.181 303.227 946.408 302.4C945.634 301.573 944.594 301.16 943.288 301.16C941.981 301.16 940.941 301.573 940.168 302.4C939.394 303.227 939.008 304.387 939.008 305.88V318H932.168V295.68H939.008V298.64C939.701 297.653 940.634 296.88 941.808 296.32C942.981 295.733 944.301 295.44 945.768 295.44ZM969.281 318.32C967.094 318.32 965.121 317.853 963.361 316.92C961.627 315.987 960.254 314.653 959.241 312.92C958.254 311.187 957.761 309.16 957.761 306.84C957.761 304.547 958.267 302.533 959.281 300.8C960.294 299.04 961.681 297.693 963.441 296.76C965.201 295.827 967.174 295.36 969.361 295.36C971.547 295.36 973.521 295.827 975.281 296.76C977.041 297.693 978.427 299.04 979.441 300.8C980.454 302.533 980.961 304.547 980.961 306.84C980.961 309.133 980.441 311.16 979.401 312.92C978.387 314.653 976.987 315.987 975.201 316.92C973.441 317.853 971.467 318.32 969.281 318.32ZM969.281 312.4C970.587 312.4 971.694 311.92 972.601 310.96C973.534 310 974.001 308.627 974.001 306.84C974.001 305.053 973.547 303.68 972.641 302.72C971.761 301.76 970.667 301.28 969.361 301.28C968.027 301.28 966.921 301.76 966.041 302.72C965.161 303.653 964.721 305.027 964.721 306.84C964.721 308.627 965.147 310 966.001 310.96C966.881 311.92 967.974 312.4 969.281 312.4ZM991.706 306.84C991.706 304.52 992.173 302.493 993.106 300.76C994.066 299.027 995.386 297.693 997.066 296.76C998.773 295.827 1000.72 295.36 1002.91 295.36C1005.71 295.36 1008.04 296.093 1009.91 297.56C1011.8 299.027 1013.04 301.093 1013.63 303.76H1006.35C1005.73 302.053 1004.55 301.2 1002.79 301.2C1001.53 301.2 1000.53 301.693 999.786 302.68C999.039 303.64 998.666 305.027 998.666 306.84C998.666 308.653 999.039 310.053 999.786 311.04C1000.53 312 1001.53 312.48 1002.79 312.48C1004.55 312.48 1005.73 311.627 1006.35 309.92H1013.63C1013.04 312.533 1011.8 314.587 1009.91 316.08C1008.01 317.573 1005.68 318.32 1002.91 318.32C1000.72 318.32 998.773 317.853 997.066 316.92C995.386 315.987 994.066 314.653 993.106 312.92C992.173 311.187 991.706 309.16 991.706 306.84ZM1027.44 318.32C1025.26 318.32 1023.28 317.853 1021.52 316.92C1019.79 315.987 1018.42 314.653 1017.4 312.92C1016.42 311.187 1015.92 309.16 1015.92 306.84C1015.92 304.547 1016.43 302.533 1017.44 300.8C1018.46 299.04 1019.84 297.693 1021.6 296.76C1023.36 295.827 1025.34 295.36 1027.52 295.36C1029.71 295.36 1031.68 295.827 1033.44 296.76C1035.2 297.693 1036.59 299.04 1037.6 300.8C1038.62 302.533 1039.12 304.547 1039.12 306.84C1039.12 309.133 1038.6 311.16 1037.56 312.92C1036.55 314.653 1035.15 315.987 1033.36 316.92C1031.6 317.853 1029.63 318.32 1027.44 318.32ZM1027.44 312.4C1028.75 312.4 1029.86 311.92 1030.76 310.96C1031.7 310 1032.16 308.627 1032.16 306.84C1032.16 305.053 1031.71 303.68 1030.8 302.72C1029.92 301.76 1028.83 301.28 1027.52 301.28C1026.19 301.28 1025.08 301.76 1024.2 302.72C1023.32 303.653 1022.88 305.027 1022.88 306.84C1022.88 308.627 1023.31 310 1024.16 310.96C1025.04 311.92 1026.14 312.4 1027.44 312.4ZM1056.35 295.44C1058.97 295.44 1061.05 296.293 1062.59 298C1064.17 299.68 1064.95 302 1064.95 304.96V318H1058.15V305.88C1058.15 304.387 1057.77 303.227 1056.99 302.4C1056.22 301.573 1055.18 301.16 1053.87 301.16C1052.57 301.16 1051.53 301.573 1050.75 302.4C1049.98 303.227 1049.59 304.387 1049.59 305.88V318H1042.75V295.68H1049.59V298.64C1050.29 297.653 1051.22 296.88 1052.39 296.32C1053.57 295.733 1054.89 295.44 1056.35 295.44ZM1083.31 295.44C1085.92 295.44 1088 296.293 1089.55 298C1091.12 299.68 1091.91 302 1091.91 304.96V318H1085.11V305.88C1085.11 304.387 1084.72 303.227 1083.95 302.4C1083.17 301.573 1082.13 301.16 1080.83 301.16C1079.52 301.16 1078.48 301.573 1077.71 302.4C1076.93 303.227 1076.55 304.387 1076.55 305.88V318H1069.71V295.68H1076.55V298.64C1077.24 297.653 1078.17 296.88 1079.35 296.32C1080.52 295.733 1081.84 295.44 1083.31 295.44ZM1117.7 306.48C1117.7 307.12 1117.66 307.787 1117.58 308.48H1102.1C1102.21 309.867 1102.65 310.933 1103.42 311.68C1104.22 312.4 1105.19 312.76 1106.34 312.76C1108.05 312.76 1109.23 312.04 1109.9 310.6H1117.18C1116.81 312.067 1116.13 313.387 1115.14 314.56C1114.18 315.733 1112.97 316.653 1111.5 317.32C1110.03 317.987 1108.39 318.32 1106.58 318.32C1104.39 318.32 1102.45 317.853 1100.74 316.92C1099.03 315.987 1097.7 314.653 1096.74 312.92C1095.78 311.187 1095.3 309.16 1095.3 306.84C1095.3 304.52 1095.77 302.493 1096.7 300.76C1097.66 299.027 1098.99 297.693 1100.7 296.76C1102.41 295.827 1104.37 295.36 1106.58 295.36C1108.74 295.36 1110.66 295.813 1112.34 296.72C1114.02 297.627 1115.33 298.92 1116.26 300.6C1117.22 302.28 1117.7 304.24 1117.7 306.48ZM1110.7 304.68C1110.7 303.507 1110.3 302.573 1109.5 301.88C1108.7 301.187 1107.7 300.84 1106.5 300.84C1105.35 300.84 1104.38 301.173 1103.58 301.84C1102.81 302.507 1102.33 303.453 1102.14 304.68H1110.7ZM1119.95 306.84C1119.95 304.52 1120.41 302.493 1121.35 300.76C1122.31 299.027 1123.63 297.693 1125.31 296.76C1127.01 295.827 1128.96 295.36 1131.15 295.36C1133.95 295.36 1136.28 296.093 1138.15 297.56C1140.04 299.027 1141.28 301.093 1141.87 303.76H1134.59C1133.97 302.053 1132.79 301.2 1131.03 301.2C1129.77 301.2 1128.77 301.693 1128.03 302.68C1127.28 303.64 1126.91 305.027 1126.91 306.84C1126.91 308.653 1127.28 310.053 1128.03 311.04C1128.77 312 1129.77 312.48 1131.03 312.48C1132.79 312.48 1133.97 311.627 1134.59 309.92H1141.87C1141.28 312.533 1140.04 314.587 1138.15 316.08C1136.25 317.573 1133.92 318.32 1131.15 318.32C1128.96 318.32 1127.01 317.853 1125.31 316.92C1123.63 315.987 1122.31 314.653 1121.35 312.92C1120.41 311.187 1119.95 309.16 1119.95 306.84ZM1157.97 312.2V318H1154.49C1152.01 318 1150.07 317.4 1148.69 316.2C1147.3 314.973 1146.61 312.987 1146.61 310.24V301.36H1143.89V295.68H1146.61V290.24H1153.45V295.68H1157.93V301.36H1153.45V310.32C1153.45 310.987 1153.61 311.467 1153.93 311.76C1154.25 312.053 1154.78 312.2 1155.53 312.2H1157.97ZM1165.22 293.36C1164.02 293.36 1163.03 293.013 1162.26 292.32C1161.51 291.6 1161.14 290.72 1161.14 289.68C1161.14 288.613 1161.51 287.733 1162.26 287.04C1163.03 286.32 1164.02 285.96 1165.22 285.96C1166.39 285.96 1167.35 286.32 1168.1 287.04C1168.87 287.733 1169.26 288.613 1169.26 289.68C1169.26 290.72 1168.87 291.6 1168.1 292.32C1167.35 293.013 1166.39 293.36 1165.22 293.36ZM1168.62 295.68V318H1161.78V295.68H1168.62ZM1183.73 318.32C1181.55 318.32 1179.57 317.853 1177.81 316.92C1176.08 315.987 1174.71 314.653 1173.69 312.92C1172.71 311.187 1172.21 309.16 1172.21 306.84C1172.21 304.547 1172.72 302.533 1173.73 300.8C1174.75 299.04 1176.13 297.693 1177.89 296.76C1179.65 295.827 1181.63 295.36 1183.81 295.36C1186 295.36 1187.97 295.827 1189.73 296.76C1191.49 297.693 1192.88 299.04 1193.89 300.8C1194.91 302.533 1195.41 304.547 1195.41 306.84C1195.41 309.133 1194.89 311.16 1193.85 312.92C1192.84 314.653 1191.44 315.987 1189.65 316.92C1187.89 317.853 1185.92 318.32 1183.73 318.32ZM1183.73 312.4C1185.04 312.4 1186.15 311.92 1187.05 310.96C1187.99 310 1188.45 308.627 1188.45 306.84C1188.45 305.053 1188 303.68 1187.09 302.72C1186.21 301.76 1185.12 301.28 1183.81 301.28C1182.48 301.28 1181.37 301.76 1180.49 302.72C1179.61 303.653 1179.17 305.027 1179.17 306.84C1179.17 308.627 1179.6 310 1180.45 310.96C1181.33 311.92 1182.43 312.4 1183.73 312.4ZM1212.64 295.44C1215.26 295.44 1217.34 296.293 1218.88 298C1220.46 299.68 1221.24 302 1221.24 304.96V318H1214.44V305.88C1214.44 304.387 1214.06 303.227 1213.28 302.4C1212.51 301.573 1211.47 301.16 1210.16 301.16C1208.86 301.16 1207.82 301.573 1207.04 302.4C1206.27 303.227 1205.88 304.387 1205.88 305.88V318H1199.04V295.68H1205.88V298.64C1206.58 297.653 1207.51 296.88 1208.68 296.32C1209.86 295.733 1211.18 295.44 1212.64 295.44ZM374.197 360.2V366H370.717C368.237 366 366.304 365.4 364.917 364.2C363.531 362.973 362.837 360.987 362.837 358.24V349.36H360.117V343.68H362.837V338.24H369.677V343.68H374.157V349.36H369.677V358.32C369.677 358.987 369.837 359.467 370.157 359.76C370.477 360.053 371.011 360.2 371.757 360.2H374.197ZM388.167 366.32C385.981 366.32 384.007 365.853 382.247 364.92C380.514 363.987 379.141 362.653 378.127 360.92C377.141 359.187 376.647 357.16 376.647 354.84C376.647 352.547 377.154 350.533 378.167 348.8C379.181 347.04 380.567 345.693 382.327 344.76C384.087 343.827 386.061 343.36 388.247 343.36C390.434 343.36 392.407 343.827 394.167 344.76C395.927 345.693 397.314 347.04 398.327 348.8C399.341 350.533 399.847 352.547 399.847 354.84C399.847 357.133 399.327 359.16 398.287 360.92C397.274 362.653 395.874 363.987 394.087 364.92C392.327 365.853 390.354 366.32 388.167 366.32ZM388.167 360.4C389.474 360.4 390.581 359.92 391.487 358.96C392.421 358 392.887 356.627 392.887 354.84C392.887 353.053 392.434 351.68 391.527 350.72C390.647 349.76 389.554 349.28 388.247 349.28C386.914 349.28 385.807 349.76 384.927 350.72C384.047 351.653 383.607 353.027 383.607 354.84C383.607 356.627 384.034 358 384.887 358.96C385.767 359.92 386.861 360.4 388.167 360.4ZM410.593 354.8C410.593 352.507 411.019 350.493 411.873 348.76C412.753 347.027 413.939 345.693 415.433 344.76C416.926 343.827 418.593 343.36 420.433 343.36C422.006 343.36 423.379 343.68 424.553 344.32C425.753 344.96 426.673 345.8 427.313 346.84V343.68H434.153V366H427.313V362.84C426.646 363.88 425.713 364.72 424.513 365.36C423.339 366 421.966 366.32 420.393 366.32C418.579 366.32 416.926 365.853 415.433 364.92C413.939 363.96 412.753 362.613 411.873 360.88C411.019 359.12 410.593 357.093 410.593 354.8ZM427.313 354.84C427.313 353.133 426.833 351.787 425.873 350.8C424.939 349.813 423.793 349.32 422.433 349.32C421.073 349.32 419.913 349.813 418.953 350.8C418.019 351.76 417.553 353.093 417.553 354.8C417.553 356.507 418.019 357.867 418.953 358.88C419.913 359.867 421.073 360.36 422.433 360.36C423.793 360.36 424.939 359.867 425.873 358.88C426.833 357.893 427.313 356.547 427.313 354.84ZM446.218 354.84C446.218 352.52 446.684 350.493 447.618 348.76C448.578 347.027 449.898 345.693 451.578 344.76C453.284 343.827 455.231 343.36 457.418 343.36C460.218 343.36 462.551 344.093 464.418 345.56C466.311 347.027 467.551 349.093 468.138 351.76H460.858C460.244 350.053 459.058 349.2 457.298 349.2C456.044 349.2 455.044 349.693 454.298 350.68C453.551 351.64 453.178 353.027 453.178 354.84C453.178 356.653 453.551 358.053 454.298 359.04C455.044 360 456.044 360.48 457.298 360.48C459.058 360.48 460.244 359.627 460.858 357.92H468.138C467.551 360.533 466.311 362.587 464.418 364.08C462.524 365.573 460.191 366.32 457.418 366.32C455.231 366.32 453.284 365.853 451.578 364.92C449.898 363.987 448.578 362.653 447.618 360.92C446.684 359.187 446.218 357.16 446.218 354.84ZM481.956 366.32C479.77 366.32 477.796 365.853 476.036 364.92C474.303 363.987 472.93 362.653 471.916 360.92C470.93 359.187 470.436 357.16 470.436 354.84C470.436 352.547 470.943 350.533 471.956 348.8C472.97 347.04 474.356 345.693 476.116 344.76C477.876 343.827 479.85 343.36 482.036 343.36C484.223 343.36 486.196 343.827 487.956 344.76C489.716 345.693 491.103 347.04 492.116 348.8C493.13 350.533 493.636 352.547 493.636 354.84C493.636 357.133 493.116 359.16 492.076 360.92C491.063 362.653 489.663 363.987 487.876 364.92C486.116 365.853 484.143 366.32 481.956 366.32ZM481.956 360.4C483.263 360.4 484.37 359.92 485.276 358.96C486.21 358 486.676 356.627 486.676 354.84C486.676 353.053 486.223 351.68 485.316 350.72C484.436 349.76 483.343 349.28 482.036 349.28C480.703 349.28 479.596 349.76 478.716 350.72C477.836 351.653 477.396 353.027 477.396 354.84C477.396 356.627 477.823 358 478.676 358.96C479.556 359.92 480.65 360.4 481.956 360.4ZM525.745 343.44C528.518 343.44 530.718 344.28 532.345 345.96C533.998 347.64 534.825 349.973 534.825 352.96V366H528.025V353.88C528.025 352.44 527.638 351.333 526.865 350.56C526.118 349.76 525.078 349.36 523.745 349.36C522.412 349.36 521.358 349.76 520.585 350.56C519.838 351.333 519.465 352.44 519.465 353.88V366H512.665V353.88C512.665 352.44 512.278 351.333 511.505 350.56C510.758 349.76 509.718 349.36 508.385 349.36C507.052 349.36 505.998 349.76 505.225 350.56C504.478 351.333 504.105 352.44 504.105 353.88V366H497.265V343.68H504.105V346.48C504.798 345.547 505.705 344.813 506.825 344.28C507.945 343.72 509.212 343.44 510.625 343.44C512.305 343.44 513.798 343.8 515.105 344.52C516.438 345.24 517.478 346.267 518.225 347.6C518.998 346.373 520.052 345.373 521.385 344.6C522.718 343.827 524.172 343.44 525.745 343.44ZM546.449 346.84C547.116 345.8 548.036 344.96 549.209 344.32C550.382 343.68 551.756 343.36 553.329 343.36C555.169 343.36 556.836 343.827 558.329 344.76C559.822 345.693 560.996 347.027 561.849 348.76C562.729 350.493 563.169 352.507 563.169 354.8C563.169 357.093 562.729 359.12 561.849 360.88C560.996 362.613 559.822 363.96 558.329 364.92C556.836 365.853 555.169 366.32 553.329 366.32C551.782 366.32 550.409 366 549.209 365.36C548.036 364.72 547.116 363.893 546.449 362.88V376.64H539.609V343.68H546.449V346.84ZM556.209 354.8C556.209 353.093 555.729 351.76 554.769 350.8C553.836 349.813 552.676 349.32 551.289 349.32C549.929 349.32 548.769 349.813 547.809 350.8C546.876 351.787 546.409 353.133 546.409 354.84C546.409 356.547 546.876 357.893 547.809 358.88C548.769 359.867 549.929 360.36 551.289 360.36C552.649 360.36 553.809 359.867 554.769 358.88C555.729 357.867 556.209 356.507 556.209 354.8ZM588.797 343.68V366H581.957V362.96C581.264 363.947 580.317 364.747 579.117 365.36C577.944 365.947 576.637 366.24 575.197 366.24C573.491 366.24 571.984 365.867 570.677 365.12C569.371 364.347 568.357 363.24 567.637 361.8C566.917 360.36 566.557 358.667 566.557 356.72V343.68H573.357V355.8C573.357 357.293 573.744 358.453 574.517 359.28C575.291 360.107 576.331 360.52 577.637 360.52C578.971 360.52 580.024 360.107 580.797 359.28C581.571 358.453 581.957 357.293 581.957 355.8V343.68H588.797ZM606.15 360.2V366H602.67C600.19 366 598.257 365.4 596.87 364.2C595.484 362.973 594.79 360.987 594.79 358.24V349.36H592.07V343.68H594.79V338.24H601.63V343.68H606.11V349.36H601.63V358.32C601.63 358.987 601.79 359.467 602.11 359.76C602.43 360.053 602.964 360.2 603.71 360.2H606.15ZM631 354.48C631 355.12 630.96 355.787 630.88 356.48H615.4C615.507 357.867 615.947 358.933 616.72 359.68C617.52 360.4 618.494 360.76 619.64 360.76C621.347 360.76 622.534 360.04 623.2 358.6H630.48C630.107 360.067 629.427 361.387 628.44 362.56C627.48 363.733 626.267 364.653 624.8 365.32C623.334 365.987 621.694 366.32 619.88 366.32C617.694 366.32 615.747 365.853 614.04 364.92C612.334 363.987 611 362.653 610.04 360.92C609.08 359.187 608.6 357.16 608.6 354.84C608.6 352.52 609.067 350.493 610 348.76C610.96 347.027 612.294 345.693 614 344.76C615.707 343.827 617.667 343.36 619.88 343.36C622.04 343.36 623.96 343.813 625.64 344.72C627.32 345.627 628.627 346.92 629.56 348.6C630.52 350.28 631 352.24 631 354.48ZM624 352.68C624 351.507 623.6 350.573 622.8 349.88C622 349.187 621 348.84 619.8 348.84C618.654 348.84 617.68 349.173 616.88 349.84C616.107 350.507 615.627 351.453 615.44 352.68H624ZM641.449 347.4C642.249 346.173 643.249 345.213 644.449 344.52C645.649 343.8 646.982 343.44 648.449 343.44V350.68H646.569C644.862 350.68 643.582 351.053 642.729 351.8C641.876 352.52 641.449 353.8 641.449 355.64V366H634.609V343.68H641.449V347.4ZM670.355 366.32C668.168 366.32 666.195 365.853 664.435 364.92C662.702 363.987 661.328 362.653 660.315 360.92C659.328 359.187 658.835 357.16 658.835 354.84C658.835 352.547 659.342 350.533 660.355 348.8C661.368 347.04 662.755 345.693 664.515 344.76C666.275 343.827 668.248 343.36 670.435 343.36C672.622 343.36 674.595 343.827 676.355 344.76C678.115 345.693 679.502 347.04 680.515 348.8C681.528 350.533 682.035 352.547 682.035 354.84C682.035 357.133 681.515 359.16 680.475 360.92C679.462 362.653 678.062 363.987 676.275 364.92C674.515 365.853 672.542 366.32 670.355 366.32ZM670.355 360.4C671.662 360.4 672.768 359.92 673.675 358.96C674.608 358 675.075 356.627 675.075 354.84C675.075 353.053 674.622 351.68 673.715 350.72C672.835 349.76 671.742 349.28 670.435 349.28C669.102 349.28 667.995 349.76 667.115 350.72C666.235 351.653 665.795 353.027 665.795 354.84C665.795 356.627 666.222 358 667.075 358.96C667.955 359.92 669.048 360.4 670.355 360.4ZM692.504 347.4C693.304 346.173 694.304 345.213 695.504 344.52C696.704 343.8 698.037 343.44 699.504 343.44V350.68H697.624C695.917 350.68 694.637 351.053 693.784 351.8C692.93 352.52 692.504 353.8 692.504 355.64V366H685.664V343.68H692.504V347.4ZM723.69 360.2V366H720.21C717.73 366 715.796 365.4 714.41 364.2C713.023 362.973 712.33 360.987 712.33 358.24V349.36H709.61V343.68H712.33V338.24H719.17V343.68H723.65V349.36H719.17V358.32C719.17 358.987 719.33 359.467 719.65 359.76C719.97 360.053 720.503 360.2 721.25 360.2H723.69ZM741.22 343.44C743.78 343.44 745.833 344.293 747.38 346C748.926 347.68 749.7 350 749.7 352.96V366H742.9V353.88C742.9 352.387 742.513 351.227 741.74 350.4C740.966 349.573 739.926 349.16 738.62 349.16C737.313 349.16 736.273 349.573 735.5 350.4C734.726 351.227 734.34 352.387 734.34 353.88V366H727.5V336.4H734.34V346.68C735.033 345.693 735.98 344.907 737.18 344.32C738.38 343.733 739.726 343.44 741.22 343.44ZM775.493 354.48C775.493 355.12 775.453 355.787 775.373 356.48H759.893C759.999 357.867 760.439 358.933 761.213 359.68C762.013 360.4 762.986 360.76 764.133 360.76C765.839 360.76 767.026 360.04 767.693 358.6H774.973C774.599 360.067 773.919 361.387 772.933 362.56C771.973 363.733 770.759 364.653 769.293 365.32C767.826 365.987 766.186 366.32 764.373 366.32C762.186 366.32 760.239 365.853 758.533 364.92C756.826 363.987 755.493 362.653 754.533 360.92C753.573 359.187 753.093 357.16 753.093 354.84C753.093 352.52 753.559 350.493 754.493 348.76C755.453 347.027 756.786 345.693 758.493 344.76C760.199 343.827 762.159 343.36 764.373 343.36C766.533 343.36 768.453 343.813 770.133 344.72C771.813 345.627 773.119 346.92 774.053 348.6C775.013 350.28 775.493 352.24 775.493 354.48ZM768.493 352.68C768.493 351.507 768.093 350.573 767.293 349.88C766.493 349.187 765.493 348.84 764.293 348.84C763.146 348.84 762.173 349.173 761.373 349.84C760.599 350.507 760.119 351.453 759.933 352.68H768.493ZM794.418 337.92V366H787.578V337.92H794.418ZM812.975 343.44C815.588 343.44 817.668 344.293 819.215 346C820.788 347.68 821.575 350 821.575 352.96V366H814.775V353.88C814.775 352.387 814.388 351.227 813.615 350.4C812.841 349.573 811.801 349.16 810.495 349.16C809.188 349.16 808.148 349.573 807.375 350.4C806.601 351.227 806.215 352.387 806.215 353.88V366H799.375V343.68H806.215V346.64C806.908 345.653 807.841 344.88 809.015 344.32C810.188 343.733 811.508 343.44 812.975 343.44ZM838.768 360.2V366H835.288C832.808 366 830.874 365.4 829.488 364.2C828.101 362.973 827.408 360.987 827.408 358.24V349.36H824.688V343.68H827.408V338.24H834.248V343.68H838.728V349.36H834.248V358.32C834.248 358.987 834.408 359.467 834.728 359.76C835.048 360.053 835.581 360.2 836.328 360.2H838.768ZM863.618 354.48C863.618 355.12 863.578 355.787 863.498 356.48H848.018C848.124 357.867 848.564 358.933 849.338 359.68C850.138 360.4 851.111 360.76 852.258 360.76C853.964 360.76 855.151 360.04 855.818 358.6H863.098C862.724 360.067 862.044 361.387 861.058 362.56C860.098 363.733 858.884 364.653 857.418 365.32C855.951 365.987 854.311 366.32 852.498 366.32C850.311 366.32 848.364 365.853 846.658 364.92C844.951 363.987 843.618 362.653 842.658 360.92C841.698 359.187 841.218 357.16 841.218 354.84C841.218 352.52 841.684 350.493 842.618 348.76C843.578 347.027 844.911 345.693 846.618 344.76C848.324 343.827 850.284 343.36 852.498 343.36C854.658 343.36 856.578 343.813 858.258 344.72C859.938 345.627 861.244 346.92 862.178 348.6C863.138 350.28 863.618 352.24 863.618 354.48ZM856.618 352.68C856.618 351.507 856.218 350.573 855.418 349.88C854.618 349.187 853.618 348.84 852.418 348.84C851.271 348.84 850.298 349.173 849.498 349.84C848.724 350.507 848.244 351.453 848.058 352.68H856.618ZM874.066 347.4C874.866 346.173 875.866 345.213 877.066 344.52C878.266 343.8 879.599 343.44 881.066 343.44V350.68H879.186C877.479 350.68 876.199 351.053 875.346 351.8C874.493 352.52 874.066 353.8 874.066 355.64V366H867.226V343.68H874.066V347.4ZM897.935 343.44C900.549 343.44 902.629 344.293 904.175 346C905.749 347.68 906.535 350 906.535 352.96V366H899.735V353.88C899.735 352.387 899.349 351.227 898.575 350.4C897.802 349.573 896.762 349.16 895.455 349.16C894.149 349.16 893.109 349.573 892.335 350.4C891.562 351.227 891.175 352.387 891.175 353.88V366H884.335V343.68H891.175V346.64C891.869 345.653 892.802 344.88 893.975 344.32C895.149 343.733 896.469 343.44 897.935 343.44ZM932.329 354.48C932.329 355.12 932.289 355.787 932.209 356.48H916.729C916.835 357.867 917.275 358.933 918.049 359.68C918.849 360.4 919.822 360.76 920.969 360.76C922.675 360.76 923.862 360.04 924.529 358.6H931.809C931.435 360.067 930.755 361.387 929.769 362.56C928.809 363.733 927.595 364.653 926.129 365.32C924.662 365.987 923.022 366.32 921.209 366.32C919.022 366.32 917.075 365.853 915.369 364.92C913.662 363.987 912.329 362.653 911.369 360.92C910.409 359.187 909.929 357.16 909.929 354.84C909.929 352.52 910.395 350.493 911.329 348.76C912.289 347.027 913.622 345.693 915.329 344.76C917.035 343.827 918.995 343.36 921.209 343.36C923.369 343.36 925.289 343.813 926.969 344.72C928.649 345.627 929.955 346.92 930.889 348.6C931.849 350.28 932.329 352.24 932.329 354.48ZM925.329 352.68C925.329 351.507 924.929 350.573 924.129 349.88C923.329 349.187 922.329 348.84 921.129 348.84C919.982 348.84 919.009 349.173 918.209 349.84C917.435 350.507 916.955 351.453 916.769 352.68H925.329ZM948.377 360.2V366H944.897C942.417 366 940.484 365.4 939.097 364.2C937.71 362.973 937.017 360.987 937.017 358.24V349.36H934.297V343.68H937.017V338.24H943.857V343.68H948.337V349.36H943.857V358.32C943.857 358.987 944.017 359.467 944.337 359.76C944.657 360.053 945.19 360.2 945.937 360.2H948.377ZM959.547 359.68L955.107 371.16H950.747L953.067 359.68H959.547ZM994.948 343.68L980.948 376.6H973.588L978.708 365.24L969.628 343.68H977.268L982.428 357.64L987.548 343.68H994.948ZM1007.58 366.32C1005.39 366.32 1003.42 365.853 1001.66 364.92C999.928 363.987 998.555 362.653 997.541 360.92C996.555 359.187 996.061 357.16 996.061 354.84C996.061 352.547 996.568 350.533 997.581 348.8C998.595 347.04 999.981 345.693 1001.74 344.76C1003.5 343.827 1005.47 343.36 1007.66 343.36C1009.85 343.36 1011.82 343.827 1013.58 344.76C1015.34 345.693 1016.73 347.04 1017.74 348.8C1018.75 350.533 1019.26 352.547 1019.26 354.84C1019.26 357.133 1018.74 359.16 1017.7 360.92C1016.69 362.653 1015.29 363.987 1013.5 364.92C1011.74 365.853 1009.77 366.32 1007.58 366.32ZM1007.58 360.4C1008.89 360.4 1009.99 359.92 1010.9 358.96C1011.83 358 1012.3 356.627 1012.3 354.84C1012.3 353.053 1011.85 351.68 1010.94 350.72C1010.06 349.76 1008.97 349.28 1007.66 349.28C1006.33 349.28 1005.22 349.76 1004.34 350.72C1003.46 351.653 1003.02 353.027 1003.02 354.84C1003.02 356.627 1003.45 358 1004.3 358.96C1005.18 359.92 1006.27 360.4 1007.58 360.4ZM1044.93 343.68V366H1038.09V362.96C1037.4 363.947 1036.45 364.747 1035.25 365.36C1034.08 365.947 1032.77 366.24 1031.33 366.24C1029.62 366.24 1028.12 365.867 1026.81 365.12C1025.5 364.347 1024.49 363.24 1023.77 361.8C1023.05 360.36 1022.69 358.667 1022.69 356.72V343.68H1029.49V355.8C1029.49 357.293 1029.88 358.453 1030.65 359.28C1031.42 360.107 1032.46 360.52 1033.77 360.52C1035.1 360.52 1036.16 360.107 1036.93 359.28C1037.7 358.453 1038.09 357.293 1038.09 355.8V343.68H1044.93ZM1056.96 354.84C1056.96 352.52 1057.43 350.493 1058.36 348.76C1059.32 347.027 1060.64 345.693 1062.32 344.76C1064.03 343.827 1065.97 343.36 1068.16 343.36C1070.96 343.36 1073.29 344.093 1075.16 345.56C1077.05 347.027 1078.29 349.093 1078.88 351.76H1071.6C1070.99 350.053 1069.8 349.2 1068.04 349.2C1066.79 349.2 1065.79 349.693 1065.04 350.68C1064.29 351.64 1063.92 353.027 1063.92 354.84C1063.92 356.653 1064.29 358.053 1065.04 359.04C1065.79 360 1066.79 360.48 1068.04 360.48C1069.8 360.48 1070.99 359.627 1071.6 357.92H1078.88C1078.29 360.533 1077.05 362.587 1075.16 364.08C1073.27 365.573 1070.93 366.32 1068.16 366.32C1065.97 366.32 1064.03 365.853 1062.32 364.92C1060.64 363.987 1059.32 362.653 1058.36 360.92C1057.43 359.187 1056.96 357.16 1056.96 354.84ZM1081.18 354.8C1081.18 352.507 1081.61 350.493 1082.46 348.76C1083.34 347.027 1084.53 345.693 1086.02 344.76C1087.51 343.827 1089.18 343.36 1091.02 343.36C1092.59 343.36 1093.97 343.68 1095.14 344.32C1096.34 344.96 1097.26 345.8 1097.9 346.84V343.68H1104.74V366H1097.9V362.84C1097.23 363.88 1096.3 364.72 1095.1 365.36C1093.93 366 1092.55 366.32 1090.98 366.32C1089.17 366.32 1087.51 365.853 1086.02 364.92C1084.53 363.96 1083.34 362.613 1082.46 360.88C1081.61 359.12 1081.18 357.093 1081.18 354.8ZM1097.9 354.84C1097.9 353.133 1097.42 351.787 1096.46 350.8C1095.53 349.813 1094.38 349.32 1093.02 349.32C1091.66 349.32 1090.5 349.813 1089.54 350.8C1088.61 351.76 1088.14 353.093 1088.14 354.8C1088.14 356.507 1088.61 357.867 1089.54 358.88C1090.5 359.867 1091.66 360.36 1093.02 360.36C1094.38 360.36 1095.53 359.867 1096.46 358.88C1097.42 357.893 1097.9 356.547 1097.9 354.84ZM1123.29 343.44C1125.9 343.44 1127.98 344.293 1129.53 346C1131.1 347.68 1131.89 350 1131.89 352.96V366H1125.09V353.88C1125.09 352.387 1124.7 351.227 1123.93 350.4C1123.15 349.573 1122.11 349.16 1120.81 349.16C1119.5 349.16 1118.46 349.573 1117.69 350.4C1116.91 351.227 1116.53 352.387 1116.53 353.88V366H1109.69V343.68H1116.53V346.64C1117.22 345.653 1118.15 344.88 1119.33 344.32C1120.5 343.733 1121.82 343.44 1123.29 343.44ZM1173.6 343.44C1176.37 343.44 1178.57 344.28 1180.2 345.96C1181.85 347.64 1182.68 349.973 1182.68 352.96V366H1175.88V353.88C1175.88 352.44 1175.49 351.333 1174.72 350.56C1173.97 349.76 1172.93 349.36 1171.6 349.36C1170.26 349.36 1169.21 349.76 1168.44 350.56C1167.69 351.333 1167.32 352.44 1167.32 353.88V366H1160.52V353.88C1160.52 352.44 1160.13 351.333 1159.36 350.56C1158.61 349.76 1157.57 349.36 1156.24 349.36C1154.9 349.36 1153.85 349.76 1153.08 350.56C1152.33 351.333 1151.96 352.44 1151.96 353.88V366H1145.12V343.68H1151.96V346.48C1152.65 345.547 1153.56 344.813 1154.68 344.28C1155.8 343.72 1157.06 343.44 1158.48 343.44C1160.16 343.44 1161.65 343.8 1162.96 344.52C1164.29 345.24 1165.33 346.267 1166.08 347.6C1166.85 346.373 1167.9 345.373 1169.24 344.6C1170.57 343.827 1172.02 343.44 1173.6 343.44ZM1186.1 354.8C1186.1 352.507 1186.53 350.493 1187.38 348.76C1188.26 347.027 1189.45 345.693 1190.94 344.76C1192.43 343.827 1194.1 343.36 1195.94 343.36C1197.51 343.36 1198.89 343.68 1200.06 344.32C1201.26 344.96 1202.18 345.8 1202.82 346.84V343.68H1209.66V366H1202.82V362.84C1202.15 363.88 1201.22 364.72 1200.02 365.36C1198.85 366 1197.47 366.32 1195.9 366.32C1194.09 366.32 1192.43 365.853 1190.94 364.92C1189.45 363.96 1188.26 362.613 1187.38 360.88C1186.53 359.12 1186.1 357.093 1186.1 354.8ZM1202.82 354.84C1202.82 353.133 1202.34 351.787 1201.38 350.8C1200.45 349.813 1199.3 349.32 1197.94 349.32C1196.58 349.32 1195.42 349.813 1194.46 350.8C1193.53 351.76 1193.06 353.093 1193.06 354.8C1193.06 356.507 1193.53 357.867 1194.46 358.88C1195.42 359.867 1196.58 360.36 1197.94 360.36C1199.3 360.36 1200.45 359.867 1201.38 358.88C1202.34 357.893 1202.82 356.547 1202.82 354.84ZM1228.25 366L1221.45 356.64V366H1214.61V336.4H1221.45V352.76L1228.21 343.68H1236.65L1227.37 354.88L1236.73 366H1228.25ZM1260.38 354.48C1260.38 355.12 1260.34 355.787 1260.26 356.48H1244.78C1244.88 357.867 1245.32 358.933 1246.1 359.68C1246.9 360.4 1247.87 360.76 1249.02 360.76C1250.72 360.76 1251.91 360.04 1252.58 358.6H1259.86C1259.48 360.067 1258.8 361.387 1257.82 362.56C1256.86 363.733 1255.64 364.653 1254.18 365.32C1252.71 365.987 1251.07 366.32 1249.26 366.32C1247.07 366.32 1245.12 365.853 1243.42 364.92C1241.71 363.987 1240.38 362.653 1239.42 360.92C1238.46 359.187 1237.98 357.16 1237.98 354.84C1237.98 352.52 1238.44 350.493 1239.38 348.76C1240.34 347.027 1241.67 345.693 1243.38 344.76C1245.08 343.827 1247.04 343.36 1249.26 343.36C1251.42 343.36 1253.34 343.813 1255.02 344.72C1256.7 345.627 1258 346.92 1258.94 348.6C1259.9 350.28 1260.38 352.24 1260.38 354.48ZM1253.38 352.68C1253.38 351.507 1252.98 350.573 1252.18 349.88C1251.38 349.187 1250.38 348.84 1249.18 348.84C1248.03 348.84 1247.06 349.173 1246.26 349.84C1245.48 350.507 1245 351.453 1244.82 352.68H1253.38ZM1271.1 354.8C1271.1 352.507 1271.53 350.493 1272.38 348.76C1273.26 347.027 1274.45 345.693 1275.94 344.76C1277.43 343.827 1279.1 343.36 1280.94 343.36C1282.51 343.36 1283.89 343.68 1285.06 344.32C1286.26 344.96 1287.18 345.8 1287.82 346.84V343.68H1294.66V366H1287.82V362.84C1287.15 363.88 1286.22 364.72 1285.02 365.36C1283.85 366 1282.47 366.32 1280.9 366.32C1279.09 366.32 1277.43 365.853 1275.94 364.92C1274.45 363.96 1273.26 362.613 1272.38 360.88C1271.53 359.12 1271.1 357.093 1271.1 354.8ZM1287.82 354.84C1287.82 353.133 1287.34 351.787 1286.38 350.8C1285.45 349.813 1284.3 349.32 1282.94 349.32C1281.58 349.32 1280.42 349.813 1279.46 350.8C1278.53 351.76 1278.06 353.093 1278.06 354.8C1278.06 356.507 1278.53 357.867 1279.46 358.88C1280.42 359.867 1281.58 360.36 1282.94 360.36C1284.3 360.36 1285.45 359.867 1286.38 358.88C1287.34 357.893 1287.82 356.547 1287.82 354.84ZM1306.45 336.4V366H1299.61V336.4H1306.45ZM1318.25 336.4V366H1311.41V336.4H1318.25ZM461.072 414.32C459.125 414.32 457.392 413.987 455.872 413.32C454.352 412.653 453.152 411.747 452.272 410.6C451.392 409.427 450.898 408.12 450.792 406.68H457.552C457.632 407.453 457.992 408.08 458.632 408.56C459.272 409.04 460.058 409.28 460.992 409.28C461.845 409.28 462.498 409.12 462.952 408.8C463.432 408.453 463.672 408.013 463.672 407.48C463.672 406.84 463.338 406.373 462.672 406.08C462.005 405.76 460.925 405.413 459.432 405.04C457.832 404.667 456.498 404.28 455.432 403.88C454.365 403.453 453.445 402.8 452.672 401.92C451.898 401.013 451.512 399.8 451.512 398.28C451.512 397 451.858 395.84 452.552 394.8C453.272 393.733 454.312 392.893 455.672 392.28C457.058 391.667 458.698 391.36 460.592 391.36C463.392 391.36 465.592 392.053 467.192 393.44C468.818 394.827 469.752 396.667 469.992 398.96H463.672C463.565 398.187 463.218 397.573 462.632 397.12C462.072 396.667 461.325 396.44 460.392 396.44C459.592 396.44 458.978 396.6 458.552 396.92C458.125 397.213 457.912 397.627 457.912 398.16C457.912 398.8 458.245 399.28 458.912 399.6C459.605 399.92 460.672 400.24 462.112 400.56C463.765 400.987 465.112 401.413 466.152 401.84C467.192 402.24 468.098 402.907 468.872 403.84C469.672 404.747 470.085 405.973 470.112 407.52C470.112 408.827 469.738 410 468.992 411.04C468.272 412.053 467.218 412.853 465.832 413.44C464.472 414.027 462.885 414.32 461.072 414.32ZM495.336 402.48C495.336 403.12 495.296 403.787 495.216 404.48H479.736C479.843 405.867 480.283 406.933 481.056 407.68C481.856 408.4 482.83 408.76 483.976 408.76C485.683 408.76 486.87 408.04 487.536 406.6H494.816C494.443 408.067 493.763 409.387 492.776 410.56C491.816 411.733 490.603 412.653 489.136 413.32C487.67 413.987 486.03 414.32 484.216 414.32C482.03 414.32 480.083 413.853 478.376 412.92C476.67 411.987 475.336 410.653 474.376 408.92C473.416 407.187 472.936 405.16 472.936 402.84C472.936 400.52 473.403 398.493 474.336 396.76C475.296 395.027 476.63 393.693 478.336 392.76C480.043 391.827 482.003 391.36 484.216 391.36C486.376 391.36 488.296 391.813 489.976 392.72C491.656 393.627 492.963 394.92 493.896 396.6C494.856 398.28 495.336 400.24 495.336 402.48ZM488.336 400.68C488.336 399.507 487.936 398.573 487.136 397.88C486.336 397.187 485.336 396.84 484.136 396.84C482.99 396.84 482.016 397.173 481.216 397.84C480.443 398.507 479.963 399.453 479.776 400.68H488.336ZM511.385 408.2V414H507.905C505.425 414 503.492 413.4 502.105 412.2C500.718 410.973 500.025 408.987 500.025 406.24V397.36H497.305V391.68H500.025V386.24H506.865V391.68H511.345V397.36H506.865V406.32C506.865 406.987 507.025 407.467 507.345 407.76C507.665 408.053 508.198 408.2 508.945 408.2H511.385ZM527.635 408.2V414H524.155C521.675 414 519.742 413.4 518.355 412.2C516.968 410.973 516.275 408.987 516.275 406.24V397.36H513.555V391.68H516.275V386.24H523.115V391.68H527.595V397.36H523.115V406.32C523.115 406.987 523.275 407.467 523.595 407.76C523.915 408.053 524.448 408.2 525.195 408.2H527.635ZM534.885 389.36C533.685 389.36 532.698 389.013 531.925 388.32C531.178 387.6 530.805 386.72 530.805 385.68C530.805 384.613 531.178 383.733 531.925 383.04C532.698 382.32 533.685 381.96 534.885 381.96C536.058 381.96 537.018 382.32 537.765 383.04C538.538 383.733 538.925 384.613 538.925 385.68C538.925 386.72 538.538 387.6 537.765 388.32C537.018 389.013 536.058 389.36 534.885 389.36ZM538.285 391.68V414H531.445V391.68H538.285ZM556.842 391.44C559.455 391.44 561.535 392.293 563.082 394C564.655 395.68 565.442 398 565.442 400.96V414H558.642V401.88C558.642 400.387 558.255 399.227 557.482 398.4C556.708 397.573 555.668 397.16 554.362 397.16C553.055 397.16 552.015 397.573 551.242 398.4C550.468 399.227 550.082 400.387 550.082 401.88V414H543.242V391.68H550.082V394.64C550.775 393.653 551.708 392.88 552.882 392.32C554.055 391.733 555.375 391.44 556.842 391.44ZM578.675 391.36C580.248 391.36 581.622 391.68 582.795 392.32C583.995 392.96 584.915 393.8 585.555 394.84V391.68H592.395V413.96C592.395 416.013 591.982 417.867 591.155 419.52C590.355 421.2 589.115 422.533 587.435 423.52C585.782 424.507 583.715 425 581.235 425C577.928 425 575.248 424.213 573.195 422.64C571.142 421.093 569.968 418.987 569.675 416.32H576.435C576.648 417.173 577.155 417.84 577.955 418.32C578.755 418.827 579.742 419.08 580.915 419.08C582.328 419.08 583.448 418.667 584.275 417.84C585.128 417.04 585.555 415.747 585.555 413.96V410.8C584.888 411.84 583.968 412.693 582.795 413.36C581.622 414 580.248 414.32 578.675 414.32C576.835 414.32 575.168 413.853 573.675 412.92C572.182 411.96 570.995 410.613 570.115 408.88C569.262 407.12 568.835 405.093 568.835 402.8C568.835 400.507 569.262 398.493 570.115 396.76C570.995 395.027 572.182 393.693 573.675 392.76C575.168 391.827 576.835 391.36 578.675 391.36ZM585.555 402.84C585.555 401.133 585.075 399.787 584.115 398.8C583.182 397.813 582.035 397.32 580.675 397.32C579.315 397.32 578.155 397.813 577.195 398.8C576.262 399.76 575.795 401.093 575.795 402.8C575.795 404.507 576.262 405.867 577.195 406.88C578.155 407.867 579.315 408.36 580.675 408.36C582.035 408.36 583.182 407.867 584.115 406.88C585.075 405.893 585.555 404.547 585.555 402.84ZM606.423 414.32C604.477 414.32 602.743 413.987 601.223 413.32C599.703 412.653 598.503 411.747 597.623 410.6C596.743 409.427 596.25 408.12 596.143 406.68H602.903C602.983 407.453 603.343 408.08 603.983 408.56C604.623 409.04 605.41 409.28 606.343 409.28C607.197 409.28 607.85 409.12 608.303 408.8C608.783 408.453 609.023 408.013 609.023 407.48C609.023 406.84 608.69 406.373 608.023 406.08C607.357 405.76 606.277 405.413 604.783 405.04C603.183 404.667 601.85 404.28 600.783 403.88C599.717 403.453 598.797 402.8 598.023 401.92C597.25 401.013 596.863 399.8 596.863 398.28C596.863 397 597.21 395.84 597.903 394.8C598.623 393.733 599.663 392.893 601.023 392.28C602.41 391.667 604.05 391.36 605.943 391.36C608.743 391.36 610.943 392.053 612.543 393.44C614.17 394.827 615.103 396.667 615.343 398.96H609.023C608.917 398.187 608.57 397.573 607.983 397.12C607.423 396.667 606.677 396.44 605.743 396.44C604.943 396.44 604.33 396.6 603.903 396.92C603.477 397.213 603.263 397.627 603.263 398.16C603.263 398.8 603.597 399.28 604.263 399.6C604.957 399.92 606.023 400.24 607.463 400.56C609.117 400.987 610.463 401.413 611.503 401.84C612.543 402.24 613.45 402.907 614.223 403.84C615.023 404.747 615.437 405.973 615.463 407.52C615.463 408.827 615.09 410 614.343 411.04C613.623 412.053 612.57 412.853 611.183 413.44C609.823 414.027 608.237 414.32 606.423 414.32ZM640.565 408.2V414H637.085C634.605 414 632.671 413.4 631.285 412.2C629.898 410.973 629.205 408.987 629.205 406.24V397.36H626.485V391.68H629.205V386.24H636.045V391.68H640.525V397.36H636.045V406.32C636.045 406.987 636.205 407.467 636.525 407.76C636.845 408.053 637.378 408.2 638.125 408.2H640.565ZM658.095 391.44C660.655 391.44 662.708 392.293 664.255 394C665.801 395.68 666.575 398 666.575 400.96V414H659.775V401.88C659.775 400.387 659.388 399.227 658.615 398.4C657.841 397.573 656.801 397.16 655.495 397.16C654.188 397.16 653.148 397.573 652.375 398.4C651.601 399.227 651.215 400.387 651.215 401.88V414H644.375V384.4H651.215V394.68C651.908 393.693 652.855 392.907 654.055 392.32C655.255 391.733 656.601 391.44 658.095 391.44ZM678.168 395.4C678.968 394.173 679.968 393.213 681.168 392.52C682.368 391.8 683.701 391.44 685.168 391.44V398.68H683.288C681.581 398.68 680.301 399.053 679.448 399.8C678.594 400.52 678.168 401.8 678.168 403.64V414H671.328V391.68H678.168V395.4ZM698.597 414.32C696.41 414.32 694.437 413.853 692.677 412.92C690.944 411.987 689.57 410.653 688.557 408.92C687.57 407.187 687.077 405.16 687.077 402.84C687.077 400.547 687.584 398.533 688.597 396.8C689.61 395.04 690.997 393.693 692.757 392.76C694.517 391.827 696.49 391.36 698.677 391.36C700.864 391.36 702.837 391.827 704.597 392.76C706.357 393.693 707.744 395.04 708.757 396.8C709.77 398.533 710.277 400.547 710.277 402.84C710.277 405.133 709.757 407.16 708.717 408.92C707.704 410.653 706.304 411.987 704.517 412.92C702.757 413.853 700.784 414.32 698.597 414.32ZM698.597 408.4C699.904 408.4 701.01 407.92 701.917 406.96C702.85 406 703.317 404.627 703.317 402.84C703.317 401.053 702.864 399.68 701.957 398.72C701.077 397.76 699.984 397.28 698.677 397.28C697.344 397.28 696.237 397.76 695.357 398.72C694.477 399.653 694.037 401.027 694.037 402.84C694.037 404.627 694.464 406 695.317 406.96C696.197 407.92 697.29 408.4 698.597 408.4ZM735.946 391.68V414H729.106V410.96C728.412 411.947 727.466 412.747 726.266 413.36C725.092 413.947 723.786 414.24 722.346 414.24C720.639 414.24 719.132 413.867 717.826 413.12C716.519 412.347 715.506 411.24 714.786 409.8C714.066 408.36 713.706 406.667 713.706 404.72V391.68H720.506V403.8C720.506 405.293 720.892 406.453 721.666 407.28C722.439 408.107 723.479 408.52 724.786 408.52C726.119 408.52 727.172 408.107 727.946 407.28C728.719 406.453 729.106 405.293 729.106 403.8V391.68H735.946ZM749.339 391.36C750.912 391.36 752.286 391.68 753.459 392.32C754.659 392.96 755.579 393.8 756.219 394.84V391.68H763.059V413.96C763.059 416.013 762.646 417.867 761.819 419.52C761.019 421.2 759.779 422.533 758.099 423.52C756.446 424.507 754.379 425 751.899 425C748.592 425 745.912 424.213 743.859 422.64C741.806 421.093 740.632 418.987 740.339 416.32H747.099C747.312 417.173 747.819 417.84 748.619 418.32C749.419 418.827 750.406 419.08 751.579 419.08C752.992 419.08 754.112 418.667 754.939 417.84C755.792 417.04 756.219 415.747 756.219 413.96V410.8C755.552 411.84 754.632 412.693 753.459 413.36C752.286 414 750.912 414.32 749.339 414.32C747.499 414.32 745.832 413.853 744.339 412.92C742.846 411.96 741.659 410.613 740.779 408.88C739.926 407.12 739.499 405.093 739.499 402.8C739.499 400.507 739.926 398.493 740.779 396.76C741.659 395.027 742.846 393.693 744.339 392.76C745.832 391.827 747.499 391.36 749.339 391.36ZM756.219 402.84C756.219 401.133 755.739 399.787 754.779 398.8C753.846 397.813 752.699 397.32 751.339 397.32C749.979 397.32 748.819 397.813 747.859 398.8C746.926 399.76 746.459 401.093 746.459 402.8C746.459 404.507 746.926 405.867 747.859 406.88C748.819 407.867 749.979 408.36 751.339 408.36C752.699 408.36 753.846 407.867 754.779 406.88C755.739 405.893 756.219 404.547 756.219 402.84ZM781.727 391.44C784.287 391.44 786.341 392.293 787.887 394C789.434 395.68 790.207 398 790.207 400.96V414H783.407V401.88C783.407 400.387 783.021 399.227 782.247 398.4C781.474 397.573 780.434 397.16 779.127 397.16C777.821 397.16 776.781 397.573 776.007 398.4C775.234 399.227 774.847 400.387 774.847 401.88V414H768.007V384.4H774.847V394.68C775.541 393.693 776.487 392.907 777.687 392.32C778.887 391.733 780.234 391.44 781.727 391.44ZM816.717 414.28C814.077 414.28 811.65 413.667 809.437 412.44C807.25 411.213 805.504 409.507 804.197 407.32C802.917 405.107 802.277 402.627 802.277 399.88C802.277 397.133 802.917 394.667 804.197 392.48C805.504 390.293 807.25 388.587 809.437 387.36C811.65 386.133 814.077 385.52 816.717 385.52C819.357 385.52 821.77 386.133 823.957 387.36C826.17 388.587 827.904 390.293 829.157 392.48C830.437 394.667 831.077 397.133 831.077 399.88C831.077 402.627 830.437 405.107 829.157 407.32C827.877 409.507 826.144 411.213 823.957 412.44C821.77 413.667 819.357 414.28 816.717 414.28ZM816.717 408.04C818.957 408.04 820.744 407.293 822.077 405.8C823.437 404.307 824.117 402.333 824.117 399.88C824.117 397.4 823.437 395.427 822.077 393.96C820.744 392.467 818.957 391.72 816.717 391.72C814.45 391.72 812.637 392.453 811.277 393.92C809.944 395.387 809.277 397.373 809.277 399.88C809.277 402.36 809.944 404.347 811.277 405.84C812.637 407.307 814.45 408.04 816.717 408.04ZM848.482 391.44C851.096 391.44 853.176 392.293 854.722 394C856.296 395.68 857.082 398 857.082 400.96V414H850.282V401.88C850.282 400.387 849.896 399.227 849.122 398.4C848.349 397.573 847.309 397.16 846.002 397.16C844.696 397.16 843.656 397.573 842.882 398.4C842.109 399.227 841.722 400.387 841.722 401.88V414H834.882V391.68H841.722V394.64C842.416 393.653 843.349 392.88 844.522 392.32C845.696 391.733 847.016 391.44 848.482 391.44ZM879.035 397.12V402.8H861.435V397.12H879.035ZM891.879 394.84C892.519 393.8 893.439 392.96 894.639 392.32C895.839 391.68 897.212 391.36 898.759 391.36C900.599 391.36 902.265 391.827 903.759 392.76C905.252 393.693 906.425 395.027 907.279 396.76C908.159 398.493 908.599 400.507 908.599 402.8C908.599 405.093 908.159 407.12 907.279 408.88C906.425 410.613 905.252 411.96 903.759 412.92C902.265 413.853 900.599 414.32 898.759 414.32C897.185 414.32 895.812 414.013 894.639 413.4C893.465 412.76 892.545 411.92 891.879 410.88V414H885.039V384.4H891.879V394.84ZM901.639 402.8C901.639 401.093 901.159 399.76 900.199 398.8C899.265 397.813 898.105 397.32 896.719 397.32C895.359 397.32 894.199 397.813 893.239 398.8C892.305 399.787 891.839 401.133 891.839 402.84C891.839 404.547 892.305 405.893 893.239 406.88C894.199 407.867 895.359 408.36 896.719 408.36C898.079 408.36 899.239 407.867 900.199 406.88C901.159 405.867 901.639 404.507 901.639 402.8ZM922.347 414.32C920.16 414.32 918.187 413.853 916.427 412.92C914.694 411.987 913.32 410.653 912.307 408.92C911.32 407.187 910.827 405.16 910.827 402.84C910.827 400.547 911.334 398.533 912.347 396.8C913.36 395.04 914.747 393.693 916.507 392.76C918.267 391.827 920.24 391.36 922.427 391.36C924.614 391.36 926.587 391.827 928.347 392.76C930.107 393.693 931.494 395.04 932.507 396.8C933.52 398.533 934.027 400.547 934.027 402.84C934.027 405.133 933.507 407.16 932.467 408.92C931.454 410.653 930.054 411.987 928.267 412.92C926.507 413.853 924.534 414.32 922.347 414.32ZM922.347 408.4C923.654 408.4 924.76 407.92 925.667 406.96C926.6 406 927.067 404.627 927.067 402.84C927.067 401.053 926.614 399.68 925.707 398.72C924.827 397.76 923.734 397.28 922.427 397.28C921.094 397.28 919.987 397.76 919.107 398.72C918.227 399.653 917.787 401.027 917.787 402.84C917.787 404.627 918.214 406 919.067 406.96C919.947 407.92 921.04 408.4 922.347 408.4ZM936.296 402.8C936.296 400.507 936.722 398.493 937.576 396.76C938.456 395.027 939.642 393.693 941.136 392.76C942.629 391.827 944.296 391.36 946.136 391.36C947.709 391.36 949.082 391.68 950.256 392.32C951.456 392.96 952.376 393.8 953.016 394.84V391.68H959.856V414H953.016V410.84C952.349 411.88 951.416 412.72 950.216 413.36C949.042 414 947.669 414.32 946.096 414.32C944.282 414.32 942.629 413.853 941.136 412.92C939.642 411.96 938.456 410.613 937.576 408.88C936.722 407.12 936.296 405.093 936.296 402.8ZM953.016 402.84C953.016 401.133 952.536 399.787 951.576 398.8C950.642 397.813 949.496 397.32 948.136 397.32C946.776 397.32 945.616 397.813 944.656 398.8C943.722 399.76 943.256 401.093 943.256 402.8C943.256 404.507 943.722 405.867 944.656 406.88C945.616 407.867 946.776 408.36 948.136 408.36C949.496 408.36 950.642 407.867 951.576 406.88C952.536 405.893 953.016 404.547 953.016 402.84ZM971.644 395.4C972.444 394.173 973.444 393.213 974.644 392.52C975.844 391.8 977.178 391.44 978.644 391.44V398.68H976.764C975.058 398.68 973.778 399.053 972.924 399.8C972.071 400.52 971.644 401.8 971.644 403.64V414H964.804V391.68H971.644V395.4ZM980.554 402.8C980.554 400.507 980.98 398.493 981.834 396.76C982.714 395.027 983.9 393.693 985.394 392.76C986.887 391.827 988.554 391.36 990.394 391.36C991.86 391.36 993.194 391.667 994.394 392.28C995.62 392.893 996.58 393.72 997.274 394.76V384.4H1004.11V414H997.274V410.8C996.634 411.867 995.714 412.72 994.514 413.36C993.34 414 991.967 414.32 990.394 414.32C988.554 414.32 986.887 413.853 985.394 412.92C983.9 411.96 982.714 410.613 981.834 408.88C980.98 407.12 980.554 405.093 980.554 402.8ZM997.274 402.84C997.274 401.133 996.794 399.787 995.834 398.8C994.9 397.813 993.754 397.32 992.394 397.32C991.034 397.32 989.874 397.813 988.914 398.8C987.98 399.76 987.514 401.093 987.514 402.8C987.514 404.507 987.98 405.867 988.914 406.88C989.874 407.867 991.034 408.36 992.394 408.36C993.754 408.36 994.9 407.867 995.834 406.88C996.794 405.893 997.274 404.547 997.274 402.84ZM1016.18 402.84C1016.18 400.52 1016.65 398.493 1017.58 396.76C1018.54 395.027 1019.86 393.693 1021.54 392.76C1023.25 391.827 1025.19 391.36 1027.38 391.36C1030.18 391.36 1032.51 392.093 1034.38 393.56C1036.27 395.027 1037.51 397.093 1038.1 399.76H1030.82C1030.21 398.053 1029.02 397.2 1027.26 397.2C1026.01 397.2 1025.01 397.693 1024.26 398.68C1023.51 399.64 1023.14 401.027 1023.14 402.84C1023.14 404.653 1023.51 406.053 1024.26 407.04C1025.01 408 1026.01 408.48 1027.26 408.48C1029.02 408.48 1030.21 407.627 1030.82 405.92H1038.1C1037.51 408.533 1036.27 410.587 1034.38 412.08C1032.49 413.573 1030.15 414.32 1027.38 414.32C1025.19 414.32 1023.25 413.853 1021.54 412.92C1019.86 411.987 1018.54 410.653 1017.58 408.92C1016.65 407.187 1016.18 405.16 1016.18 402.84ZM1051.92 414.32C1049.73 414.32 1047.76 413.853 1046 412.92C1044.26 411.987 1042.89 410.653 1041.88 408.92C1040.89 407.187 1040.4 405.16 1040.4 402.84C1040.4 400.547 1040.9 398.533 1041.92 396.8C1042.93 395.04 1044.32 393.693 1046.08 392.76C1047.84 391.827 1049.81 391.36 1052 391.36C1054.18 391.36 1056.16 391.827 1057.92 392.76C1059.68 393.693 1061.06 395.04 1062.08 396.8C1063.09 398.533 1063.6 400.547 1063.6 402.84C1063.6 405.133 1063.08 407.16 1062.04 408.92C1061.02 410.653 1059.62 411.987 1057.84 412.92C1056.08 413.853 1054.1 414.32 1051.92 414.32ZM1051.92 408.4C1053.22 408.4 1054.33 407.92 1055.24 406.96C1056.17 406 1056.64 404.627 1056.64 402.84C1056.64 401.053 1056.18 399.68 1055.28 398.72C1054.4 397.76 1053.3 397.28 1052 397.28C1050.66 397.28 1049.56 397.76 1048.68 398.72C1047.8 399.653 1047.36 401.027 1047.36 402.84C1047.36 404.627 1047.78 406 1048.64 406.96C1049.52 407.92 1050.61 408.4 1051.92 408.4ZM1095.71 391.44C1098.48 391.44 1100.68 392.28 1102.31 393.96C1103.96 395.64 1104.79 397.973 1104.79 400.96V414H1097.99V401.88C1097.99 400.44 1097.6 399.333 1096.83 398.56C1096.08 397.76 1095.04 397.36 1093.71 397.36C1092.37 397.36 1091.32 397.76 1090.55 398.56C1089.8 399.333 1089.43 400.44 1089.43 401.88V414H1082.63V401.88C1082.63 400.44 1082.24 399.333 1081.47 398.56C1080.72 397.76 1079.68 397.36 1078.35 397.36C1077.01 397.36 1075.96 397.76 1075.19 398.56C1074.44 399.333 1074.07 400.44 1074.07 401.88V414H1067.23V391.68H1074.07V394.48C1074.76 393.547 1075.67 392.813 1076.79 392.28C1077.91 391.72 1079.17 391.44 1080.59 391.44C1082.27 391.44 1083.76 391.8 1085.07 392.52C1086.4 393.24 1087.44 394.267 1088.19 395.6C1088.96 394.373 1090.01 393.373 1091.35 392.6C1092.68 391.827 1094.13 391.44 1095.71 391.44ZM1116.41 394.84C1117.08 393.8 1118 392.96 1119.17 392.32C1120.34 391.68 1121.72 391.36 1123.29 391.36C1125.13 391.36 1126.8 391.827 1128.29 392.76C1129.78 393.693 1130.96 395.027 1131.81 396.76C1132.69 398.493 1133.13 400.507 1133.13 402.8C1133.13 405.093 1132.69 407.12 1131.81 408.88C1130.96 410.613 1129.78 411.96 1128.29 412.92C1126.8 413.853 1125.13 414.32 1123.29 414.32C1121.74 414.32 1120.37 414 1119.17 413.36C1118 412.72 1117.08 411.893 1116.41 410.88V424.64H1109.57V391.68H1116.41V394.84ZM1126.17 402.8C1126.17 401.093 1125.69 399.76 1124.73 398.8C1123.8 397.813 1122.64 397.32 1121.25 397.32C1119.89 397.32 1118.73 397.813 1117.77 398.8C1116.84 399.787 1116.37 401.133 1116.37 402.84C1116.37 404.547 1116.84 405.893 1117.77 406.88C1118.73 407.867 1119.89 408.36 1121.25 408.36C1122.61 408.36 1123.77 407.867 1124.73 406.88C1125.69 405.867 1126.17 404.507 1126.17 402.8ZM1158.76 391.68V414H1151.92V410.96C1151.22 411.947 1150.28 412.747 1149.08 413.36C1147.9 413.947 1146.6 414.24 1145.16 414.24C1143.45 414.24 1141.94 413.867 1140.64 413.12C1139.33 412.347 1138.32 411.24 1137.6 409.8C1136.88 408.36 1136.52 406.667 1136.52 404.72V391.68H1143.32V403.8C1143.32 405.293 1143.7 406.453 1144.48 407.28C1145.25 408.107 1146.29 408.52 1147.6 408.52C1148.93 408.52 1149.98 408.107 1150.76 407.28C1151.53 406.453 1151.92 405.293 1151.92 403.8V391.68H1158.76ZM1176.11 408.2V414H1172.63C1170.15 414 1168.22 413.4 1166.83 412.2C1165.44 410.973 1164.75 408.987 1164.75 406.24V397.36H1162.03V391.68H1164.75V386.24H1171.59V391.68H1176.07V397.36H1171.59V406.32C1171.59 406.987 1171.75 407.467 1172.07 407.76C1172.39 408.053 1172.92 408.2 1173.67 408.2H1176.11ZM1200.96 402.48C1200.96 403.12 1200.92 403.787 1200.84 404.48H1185.36C1185.47 405.867 1185.91 406.933 1186.68 407.68C1187.48 408.4 1188.45 408.76 1189.6 408.76C1191.31 408.76 1192.49 408.04 1193.16 406.6H1200.44C1200.07 408.067 1199.39 409.387 1198.4 410.56C1197.44 411.733 1196.23 412.653 1194.76 413.32C1193.29 413.987 1191.65 414.32 1189.84 414.32C1187.65 414.32 1185.71 413.853 1184 412.92C1182.29 411.987 1180.96 410.653 1180 408.92C1179.04 407.187 1178.56 405.16 1178.56 402.84C1178.56 400.52 1179.03 398.493 1179.96 396.76C1180.92 395.027 1182.25 393.693 1183.96 392.76C1185.67 391.827 1187.63 391.36 1189.84 391.36C1192 391.36 1193.92 391.813 1195.6 392.72C1197.28 393.627 1198.59 394.92 1199.52 396.6C1200.48 398.28 1200.96 400.24 1200.96 402.48ZM1193.96 400.68C1193.96 399.507 1193.56 398.573 1192.76 397.88C1191.96 397.187 1190.96 396.84 1189.76 396.84C1188.61 396.84 1187.64 397.173 1186.84 397.84C1186.07 398.507 1185.59 399.453 1185.4 400.68H1193.96ZM1211.41 395.4C1212.21 394.173 1213.21 393.213 1214.41 392.52C1215.61 391.8 1216.94 391.44 1218.41 391.44V398.68H1216.53C1214.82 398.68 1213.54 399.053 1212.69 399.8C1211.84 400.52 1211.41 401.8 1211.41 403.64V414H1204.57V391.68H1211.41V395.4ZM1224.88 414.32C1223.68 414.32 1222.69 413.973 1221.92 413.28C1221.17 412.56 1220.8 411.68 1220.8 410.64C1220.8 409.573 1221.17 408.68 1221.92 407.96C1222.69 407.24 1223.68 406.88 1224.88 406.88C1226.05 406.88 1227.01 407.24 1227.76 407.96C1228.53 408.68 1228.92 409.573 1228.92 410.64C1228.92 411.68 1228.53 412.56 1227.76 413.28C1227.01 413.973 1226.05 414.32 1224.88 414.32Z" fill="#222222"/>
<defs>
<clipPath id="clip0_1878_24118">
<rect width="48" height="48" fill="white" transform="translate(816 200)"/>
</clipPath>
<clipPath id="clip1_1878_24118">
<rect width="24" height="24" fill="white" transform="translate(828 212)"/>
</clipPath>
</defs>
</svg>
